<?xml version="1.0" encoding="UTF-8" standalone="no"?>
<!-- Created with Inkscape (http://www.inkscape.org/) -->

<svg
   xmlns:dc="http://purl.org/dc/elements/1.1/"
   xmlns:cc="http://creativecommons.org/ns#"
   xmlns:rdf="http://www.w3.org/1999/02/22-rdf-syntax-ns#"
   xmlns:svg="http://www.w3.org/2000/svg"
   xmlns="http://www.w3.org/2000/svg"
   xmlns:sodipodi="http://sodipodi.sourceforge.net/DTD/sodipodi-0.dtd"
   xmlns:inkscape="http://www.inkscape.org/namespaces/inkscape"
   id="svg4337"
   version="1.1"
   inkscape:version="0.91 r13725"
   width="180.3067"
   height="166.62453"
   viewBox="0 0 180.3067 166.62453"
   sodipodi:docname="arc-de-triomphe.svg">
  <metadata
     id="metadata4343">
    <rdf:RDF>
      <cc:Work
         rdf:about="">
        <dc:format>image/svg+xml</dc:format>
        <dc:type
           rdf:resource="http://purl.org/dc/dcmitype/StillImage" />
        <dc:title></dc:title>
      </cc:Work>
    </rdf:RDF>
  </metadata>
  <defs
     id="defs4341" />
  <sodipodi:namedview
     pagecolor="#ffffff"
     bordercolor="#666666"
     borderopacity="1"
     objecttolerance="10"
     gridtolerance="10"
     guidetolerance="10"
     inkscape:pageopacity="0"
     inkscape:pageshadow="2"
     inkscape:window-width="1920"
     inkscape:window-height="1009"
     id="namedview4339"
     showgrid="false"
     inkscape:zoom="0.56041667"
     inkscape:cx="-438.73244"
     inkscape:cy="-280.59762"
     inkscape:window-x="0"
     inkscape:window-y="34"
     inkscape:window-maximized="1"
     inkscape:current-layer="svg4337"
     fit-margin-top="0"
     fit-margin-left="0"
     fit-margin-right="0"
     fit-margin-bottom="0" />
  <path
     style="fill:none;fill-rule:evenodd;stroke:#000000;stroke-width:2;stroke-linecap:round;stroke-linejoin:miter;stroke-miterlimit:4;stroke-dasharray:none;stroke-opacity:1"
     d="m 10.479926,7.2744426 c 15.713728,0.537959 31.363637,-2.359604 47.046795,-1.629135 9.81025,1.860407 19.75509,2.998851 29.67486,1.273285 11.0686,-1.31612 22.223689,-0.939526 33.299909,-0.426142 11.29683,-0.850541 22.63003,-1.209059 33.91321,-0.152346 5.86583,0.06017 11.94097,0.360042 17.56947,-1.589166"
     id="path4349"
     inkscape:connector-curvature="0" />
  <path
     style="fill:none;fill-rule:evenodd;stroke:#000000;stroke-width:2;stroke-linecap:round;stroke-linejoin:miter;stroke-miterlimit:4;stroke-dasharray:none;stroke-opacity:1"
     d="m 3.5402907,29.3551 c 4.082571,2.345206 13.6458403,0.724729 19.8864753,1.051513 27.121835,-0.122157 54.185785,2.486279 81.299634,2.411867 14.00136,-0.679483 27.92778,-3.327552 41.99515,-1.864097 8.41108,0.720607 16.83503,-0.823079 25.2626,-0.337534"
     id="path4351"
     inkscape:connector-curvature="0" />
  <path
     style="fill:none;fill-rule:evenodd;stroke:#000000;stroke-width:2;stroke-linecap:round;stroke-linejoin:miter;stroke-miterlimit:4;stroke-dasharray:none;stroke-opacity:1"
     d="m 10.479926,11.690574 c -0.0435,3.164775 -0.5982033,6.297891 -0.6308773,9.463139"
     id="path4355"
     inkscape:connector-curvature="0" />
  <path
     style="fill:none;fill-rule:evenodd;stroke:#000000;stroke-width:2;stroke-linecap:round;stroke-linejoin:miter;stroke-miterlimit:4;stroke-dasharray:none;stroke-opacity:1"
     d="m 169.46066,12.32145 c 1.73704,2.926363 -0.8614,6.93531 1.89263,9.463139"
     id="path4357"
     inkscape:connector-curvature="0" />
  <path
     style="fill:none;fill-rule:evenodd;stroke:#000000;stroke-width:2;stroke-linecap:round;stroke-linejoin:miter;stroke-miterlimit:4;stroke-dasharray:none;stroke-opacity:1"
     d="m 3.5402907,34.402108 c 1.114353,2.567042 6.024432,2.757245 5.047008,6.308759"
     id="path4359"
     inkscape:connector-curvature="0" />
  <path
     style="fill:none;fill-rule:evenodd;stroke:#000000;stroke-width:2;stroke-linecap:round;stroke-linejoin:miter;stroke-miterlimit:4;stroke-dasharray:none;stroke-opacity:1"
     d="m 63.473501,161.20817 c -4.54057,-17.44042 -2.63618,-35.66358 -3.34829,-53.45406 0.75729,-12.897435 0.78012,-28.071405 11.78301,-36.982958 9.08573,-8.882967 24.41227,-12.4865 35.181679,-4.478979 7.66049,5.864172 9.257,16.346232 8.19994,25.351062 1.46129,19.443235 0.57359,38.919645 1.20363,58.377705 0.0276,1.28205 -0.048,13.41369 -0.0266,9.92547"
     id="path4365"
     inkscape:connector-curvature="0" />
  <path
     style="fill:none;fill-rule:evenodd;stroke:#000000;stroke-width:2;stroke-linecap:round;stroke-linejoin:miter;stroke-miterlimit:4;stroke-dasharray:none;stroke-opacity:1"
     d="M 10.479926,51.435758 C 11.738384,64.12636 8.5120037,76.83667 10.165603,89.516195 9.4815727,111.69544 6.8988907,133.8179 7.1299737,156.01419 c 0.212217,2.24541 -2.231495,9.87258 -0.43531,9.61011"
     id="path4367"
     inkscape:connector-curvature="0" />
  <path
     style="fill:none;fill-rule:evenodd;stroke:#000000;stroke-width:2;stroke-linecap:round;stroke-linejoin:miter;stroke-miterlimit:4;stroke-dasharray:none;stroke-opacity:1"
     d="m 6.0637947,88.026565 c 13.6316383,3.97308 27.8546003,-2.641179 41.4947563,1.26175 5.21423,-1.22253 18.82832,0.89852 18.93807,-1.96916 -0.57876,-0.0629 -1.17762,0.0733 -1.76136,0.0765"
     id="path4375"
     inkscape:connector-curvature="0" />
  <path
     style="fill:none;fill-rule:evenodd;stroke:#000000;stroke-width:2;stroke-linecap:round;stroke-linejoin:miter;stroke-miterlimit:4;stroke-dasharray:none;stroke-opacity:1"
     d="m 113.3127,89.919195 c 18.25163,-2.56056 36.7748,-1.05805 55.0884,-2.7718 0.46491,0.0406 12.3776,0.0807 6.73745,0.87917"
     id="path4377"
     inkscape:connector-curvature="0" />
  <path
     style="fill:none;fill-rule:evenodd;stroke:#000000;stroke-width:2;stroke-linecap:round;stroke-linejoin:miter;stroke-miterlimit:4;stroke-dasharray:none;stroke-opacity:1"
     d="m 170.09154,49.543131 c 1.48153,21.708167 4.22763,43.332154 4.32529,65.124459 0.14752,14.22671 1.56519,28.38926 2.68704,42.54367 -0.0969,0.67378 0.0703,1.72402 -0.70357,2.10424"
     id="path4379"
     inkscape:connector-curvature="0" />
  <path
     style="fill:none;fill-rule:evenodd;stroke:#000000;stroke-width:2;stroke-linecap:round;stroke-linejoin:miter;stroke-miterlimit:4;stroke-dasharray:none;stroke-opacity:1"
     d="m 19.31219,146.06714 c 9.124274,-4.45656 23.899301,1.24658 18.691536,12.92886 -2.850903,6.39394 -16.214007,6.8711 -20.261428,2.07002 -1.665846,-4.8881 -0.112435,-10.32787 1.569892,-14.99888 z"
     id="path4381"
     inkscape:connector-curvature="0" />
  <path
     style="fill:none;fill-rule:evenodd;stroke:#000000;stroke-width:2;stroke-linecap:round;stroke-linejoin:miter;stroke-miterlimit:4;stroke-dasharray:none;stroke-opacity:1"
     d="m 140.44037,146.69802 c -5.5525,8.02739 0.34627,20.39597 10.2438,16.20288 10.01727,3.86663 14.49397,-11.26971 7.55795,-16.30216 -4.55534,-2.13373 -12.50568,4.86189 -15.27825,0.0993"
     id="path4383"
     inkscape:connector-curvature="0" />
  <path
     style="fill:none;fill-rule:evenodd;stroke:#000000;stroke-width:2;stroke-linecap:round;stroke-linejoin:miter;stroke-miterlimit:4;stroke-dasharray:none;stroke-opacity:1"
     d="m 24.990073,132.18787 c -0.662081,3.27729 -2.323698,6.23622 -3.15438,9.46314"
     id="path4387"
     inkscape:connector-curvature="0" />
  <path
     style="fill:none;fill-rule:evenodd;stroke:#000000;stroke-width:2;stroke-linecap:round;stroke-linejoin:miter;stroke-miterlimit:4;stroke-dasharray:none;stroke-opacity:1"
     d="m 31.929708,128.40262 c -0.905049,3.24417 -4.126083,6.66919 -1.892628,10.09401"
     id="path4389"
     inkscape:connector-curvature="0" />
  <path
     style="fill:none;fill-rule:evenodd;stroke:#000000;stroke-width:2;stroke-linecap:round;stroke-linejoin:miter;stroke-miterlimit:4;stroke-dasharray:none;stroke-opacity:1"
     d="m 24.990073,113.2616 c -3.261123,1.41622 -6.602056,7.57563 -1.892628,9.46313"
     id="path4391"
     inkscape:connector-curvature="0" />
  <path
     style="fill:none;fill-rule:evenodd;stroke:#000000;stroke-width:2;stroke-linecap:round;stroke-linejoin:miter;stroke-miterlimit:4;stroke-dasharray:none;stroke-opacity:1"
     d="m 18.681314,115.7851 c -3.552529,4.30114 -4.726195,11.40829 -0.630876,15.7719"
     id="path4393"
     inkscape:connector-curvature="0" />
  <path
     style="fill:none;fill-rule:evenodd;stroke:#000000;stroke-width:2;stroke-linecap:round;stroke-linejoin:miter;stroke-miterlimit:4;stroke-dasharray:none;stroke-opacity:1"
     d="m 34.453212,118.93948 c -1.071021,5.20331 5.913237,10.4103 1.261752,15.14102"
     id="path4395"
     inkscape:connector-curvature="0" />
  <path
     style="fill:none;fill-rule:evenodd;stroke:#000000;stroke-width:2;stroke-linecap:round;stroke-linejoin:miter;stroke-miterlimit:4;stroke-dasharray:none;stroke-opacity:1"
     d="m 42.023723,128.40262 c 2.282768,2.91498 -0.298754,7.38759 -3.785255,7.57051"
     id="path4397"
     inkscape:connector-curvature="0" />
  <path
     style="fill:none;fill-rule:evenodd;stroke:#000000;stroke-width:2;stroke-linecap:round;stroke-linejoin:miter;stroke-miterlimit:4;stroke-dasharray:none;stroke-opacity:1"
     d="m 30.667956,100.0132 c 0.26669,3.98961 -8.859692,0.2543 -3.154377,5.67788"
     id="path4399"
     inkscape:connector-curvature="0" />
  <path
     style="fill:none;fill-rule:evenodd;stroke:#000000;stroke-width:2;stroke-linecap:round;stroke-linejoin:miter;stroke-miterlimit:4;stroke-dasharray:none;stroke-opacity:1"
     d="m 30.03708,110.73809 c 1.969761,0.73255 0.399442,5.06796 3.15438,4.41613"
     id="path4401"
     inkscape:connector-curvature="0" />
  <path
     style="fill:none;fill-rule:evenodd;stroke:#000000;stroke-width:2;stroke-linecap:round;stroke-linejoin:miter;stroke-miterlimit:4;stroke-dasharray:none;stroke-opacity:1"
     d="m 35.084088,104.42933 c 2.153102,-0.43979 3.919441,1.79688 3.785256,3.78526"
     id="path4403"
     inkscape:connector-curvature="0" />
  <path
     style="fill:none;fill-rule:evenodd;stroke:#000000;stroke-width:2;stroke-linecap:round;stroke-linejoin:miter;stroke-miterlimit:4;stroke-dasharray:none;stroke-opacity:1"
     d="m 38.869344,115.15422 c -0.456039,0.78462 -1.917053,3.14909 0,3.15438"
     id="path4405"
     inkscape:connector-curvature="0" />
  <path
     style="fill:none;fill-rule:evenodd;stroke:#000000;stroke-width:2;stroke-linecap:round;stroke-linejoin:miter;stroke-miterlimit:4;stroke-dasharray:none;stroke-opacity:1"
     d="m 28.144453,120.83211 c -1.213445,1.60255 -1.56679,3.72402 -1.261752,5.67788"
     id="path4407"
     inkscape:connector-curvature="0" />
  <path
     style="fill:none;fill-rule:evenodd;stroke:#000000;stroke-width:2;stroke-linecap:round;stroke-linejoin:miter;stroke-miterlimit:4;stroke-dasharray:none;stroke-opacity:1"
     d="m 16.788686,61.529773 c -6.235929,9.809496 4.87098,20.814334 14.510692,15.595724 9.137264,3.775526 22.717233,-0.59411 18.255923,-12.439738 -6.56729,-8.323703 -19.084358,0.461678 -28.171073,-2.6316 -1.536141,-0.134019 -3.068563,-0.310011 -4.595542,-0.524386 z"
     id="path4409"
     inkscape:connector-curvature="0" />
  <path
     style="fill:none;fill-rule:evenodd;stroke:#000000;stroke-width:2;stroke-linecap:round;stroke-linejoin:miter;stroke-miterlimit:4;stroke-dasharray:none;stroke-opacity:1"
     d="m 130.34635,61.529773 c -6.73576,6.497989 -0.66179,21.10647 8.84615,14.013731 8.07382,-1.924552 19.92988,5.387714 25.09403,-3.598073 1.50519,-6.601689 -1.73069,-16.522209 -9.99495,-11.647635 -7.98709,-0.0063 -16.08725,-0.547301 -23.94523,1.231977 z"
     id="path4413"
     inkscape:connector-curvature="0" />
  <path
     style="fill:none;fill-rule:evenodd;stroke:#000000;stroke-width:2;stroke-linecap:round;stroke-linejoin:miter;stroke-miterlimit:4;stroke-dasharray:none;stroke-opacity:1"
     d="M 9.8490497,49.543131 C 20.90283,46.970047 32.469123,49.075633 43.497921,46.233452 c 11.17757,-1.734947 22.49112,-0.285069 33.67886,-0.393591 23.176869,-1.305727 46.614359,-1.564163 69.582189,2.254721 6.50552,0.946955 16.59999,1.378419 20.89096,-0.160786 l -1.34365,0.347582"
     id="path4415"
     inkscape:connector-curvature="0" />
  <path
     style="fill:none;fill-rule:evenodd;stroke:#000000;stroke-width:2;stroke-linecap:round;stroke-linejoin:miter;stroke-miterlimit:4;stroke-dasharray:none;stroke-opacity:1"
     d="m 177.03117,31.878604 c -0.91166,3.567743 -5.91182,4.784887 -5.67788,8.832263"
     id="path4417"
     inkscape:connector-curvature="0" />
  <path
     style="fill:none;fill-rule:evenodd;stroke:#000000;stroke-width:2;stroke-linecap:round;stroke-linejoin:miter;stroke-miterlimit:4;stroke-dasharray:none;stroke-opacity:1"
     d="m 142.333,132.18787 c -1.42675,2.68931 -1.68833,5.85772 -1.26176,8.83227"
     id="path4419"
     inkscape:connector-curvature="0" />
  <path
     style="fill:none;fill-rule:evenodd;stroke:#000000;stroke-width:2;stroke-linecap:round;stroke-linejoin:miter;stroke-miterlimit:4;stroke-dasharray:none;stroke-opacity:1"
     d="m 150.53438,131.557 c -0.49139,2.95061 4.0199,5.33504 1.89263,8.20138"
     id="path4421"
     inkscape:connector-curvature="0" />
  <path
     style="fill:none;fill-rule:evenodd;stroke:#000000;stroke-width:2;stroke-linecap:round;stroke-linejoin:miter;stroke-miterlimit:4;stroke-dasharray:none;stroke-opacity:1"
     d="m 154.31964,103.79846 c 0.99808,1.93762 5.49705,5.15816 1.89263,6.93963"
     id="path4423"
     inkscape:connector-curvature="0" />
  <path
     style="fill:none;fill-rule:evenodd;stroke:#000000;stroke-width:2;stroke-linecap:round;stroke-linejoin:miter;stroke-miterlimit:4;stroke-dasharray:none;stroke-opacity:1"
     d="m 144.22562,104.42933 c -2.85458,-2.88134 -4.35555,5.66992 -1.26175,5.04736"
     id="path4425"
     inkscape:connector-curvature="0" />
  <path
     style="fill:none;fill-rule:evenodd;stroke:#000000;stroke-width:2;stroke-linecap:round;stroke-linejoin:miter;stroke-miterlimit:4;stroke-dasharray:none;stroke-opacity:1"
     d="m 147.38,108.21459 c -4.09697,0.93294 3.01973,2.87273 0,3.78525"
     id="path4427"
     inkscape:connector-curvature="0" />
  <path
     style="fill:none;fill-rule:evenodd;stroke:#000000;stroke-width:2;stroke-linecap:round;stroke-linejoin:miter;stroke-miterlimit:4;stroke-dasharray:none;stroke-opacity:1"
     d="m 137.28599,117.04685 c -3.34012,3.61161 7.79127,2.52911 2.52353,6.30874"
     id="path4429"
     inkscape:connector-curvature="0" />
  <path
     style="fill:none;fill-rule:evenodd;stroke:#000000;stroke-width:2;stroke-linecap:round;stroke-linejoin:miter;stroke-miterlimit:4;stroke-dasharray:none;stroke-opacity:1"
     d="m 156.84314,119.57035 c -5.83049,3.59509 5.80441,7.82378 1.89263,11.98665"
     id="path4431"
     inkscape:connector-curvature="0" />
  <path
     style="fill:none;fill-rule:evenodd;stroke:#000000;stroke-width:2;stroke-linecap:round;stroke-linejoin:miter;stroke-miterlimit:4;stroke-dasharray:none;stroke-opacity:1"
     d="m 147.38,122.09386 c -3.9967,-1.0525 -2.58552,3.54106 -2.5235,5.67788"
     id="path4433"
     inkscape:connector-curvature="0" />
  <path
     style="fill:none;fill-rule:evenodd;stroke:#000000;stroke-width:2;stroke-linecap:round;stroke-linejoin:miter;stroke-miterlimit:4;stroke-dasharray:none;stroke-opacity:1"
     d="m 135.39336,129.03349 c -1.66788,0.79411 -1.94198,3.81915 0,4.41614"
     id="path4435"
     inkscape:connector-curvature="0" />
  <path
     style="fill:none;fill-rule:evenodd;stroke:#000000;stroke-width:2;stroke-linecap:round;stroke-linejoin:miter;stroke-miterlimit:4;stroke-dasharray:none;stroke-opacity:1"
     d="m 154.95052,131.557 c -0.542,1.17217 1.01261,3.14537 -0.63088,3.78525"
     id="path4437"
     inkscape:connector-curvature="0" />
  <path
     style="fill:none;fill-rule:evenodd;stroke:#000000;stroke-width:2;stroke-linecap:round;stroke-linejoin:miter;stroke-miterlimit:4;stroke-dasharray:none;stroke-opacity:1"
     d="m 152.42701,112.63072 c -0.31324,0.52697 -1.575,2.62989 -1.89263,3.15438"
     id="path4439"
     inkscape:connector-curvature="0" />
  <path
     style="fill:none;fill-rule:evenodd;stroke:#000000;stroke-width:2;stroke-linecap:round;stroke-linejoin:miter;stroke-miterlimit:4;stroke-dasharray:none;stroke-opacity:1"
     d="m 23.097445,103.79846 c -0.245139,2.01395 -4.983387,8.29529 0.630876,6.30876"
     id="path4441"
     inkscape:connector-curvature="0" />
  <path
     style="fill:none;fill-rule:evenodd;stroke:#000000;stroke-width:2;stroke-linecap:round;stroke-linejoin:miter;stroke-miterlimit:4;stroke-dasharray:none;stroke-opacity:1"
     d="m 19.31219,137.23488 c -3.406489,-2.78434 -2.19951,2.03342 -2.523504,3.78526"
     id="path4443"
     inkscape:connector-curvature="0" />
  <path
     style="fill:none;fill-rule:evenodd;stroke:#000000;stroke-width:2;stroke-linecap:round;stroke-linejoin:miter;stroke-miterlimit:4;stroke-dasharray:none;stroke-opacity:1"
     d="m 2.2785387,146.06714 c 4.26051,1.70492 8.9882333,-0.43551 13.2483953,1.26176"
     id="path4447"
     inkscape:connector-curvature="0" />
  <path
     style="fill:none;fill-rule:evenodd;stroke:#000000;stroke-width:2;stroke-linecap:round;stroke-linejoin:miter;stroke-miterlimit:4;stroke-dasharray:none;stroke-opacity:1"
     d="m 38.869344,146.69802 c 6.894717,0.94445 13.860957,1.35624 20.818907,1.26175"
     id="path4449"
     inkscape:connector-curvature="0" />
  <path
     style="fill:none;fill-rule:evenodd;stroke:#000000;stroke-width:2;stroke-linecap:round;stroke-linejoin:miter;stroke-miterlimit:4;stroke-dasharray:none;stroke-opacity:1"
     d="m 117.09796,148.59065 c 7.94938,1.16492 15.99789,0.37572 23.97328,0"
     id="path4451"
     inkscape:connector-curvature="0" />
  <path
     style="fill:none;fill-rule:evenodd;stroke:#000000;stroke-width:2;stroke-linecap:round;stroke-linejoin:miter;stroke-miterlimit:4;stroke-dasharray:none;stroke-opacity:1"
     d="m 160.6284,147.95977 c 6.08042,0.75094 12.29141,-0.96708 18.2954,0.63088"
     id="path4453"
     inkscape:connector-curvature="0" />
  <path
     style="fill:none;fill-rule:evenodd;stroke:#000000;stroke-width:2;stroke-linecap:round;stroke-linejoin:miter;stroke-miterlimit:4;stroke-dasharray:none;stroke-opacity:1"
     d="m 65.997011,161.83904 c -1.05319,-2.63589 1.5398,-14.11786 -0.54039,-19.97662 0.49903,-14.68852 -0.34318,-29.54525 2.42976,-44.049955 3.04412,-6.93838 4.94256,-16.155594 14.0644,-17.081841 6.53987,-2.680604 16.12525,-4.051884 21.615499,1.480403 4.90145,5.001788 5.39277,12.790018 6.56673,19.385003 0.86279,8.81814 2.93697,17.61378 1.25188,26.47346 -1.86337,8.24154 -0.71595,16.58878 -0.70845,24.92839 -0.61627,0.76629 0.61436,9.69368 -0.20268,5.05591"
     id="path4635"
     inkscape:connector-curvature="0" />
  <path
     style="fill:none;fill-rule:evenodd;stroke:#000000;stroke-width:2;stroke-linecap:round;stroke-linejoin:miter;stroke-miterlimit:4;stroke-dasharray:none;stroke-opacity:1"
     d="m 71.044021,75.093606 c 2.72452,-3.337069 12.92917,-8.605504 11.90517,-8.223519 -2.68875,3.590188 -13.47031,6.553301 -11.70854,10.267688 5.40212,-5.389348 13.08262,-8.292963 20.4847,-9.930118 -6.92075,3.022608 -14.34554,6.313159 -19.69937,11.549253 8.13038,-4.236933 20.50318,-12.584085 27.61425,-12.523272 -5.05652,2.906158 -19.70996,9.52679 -18.92944,10.688884 4.37725,-2.582968 17.19138,-9.997138 18.01398,-7.288832 -4.0555,2.596941 -16.43042,5.227839 -15.58077,7.974988 5.08221,-0.960978 15.54656,-5.912473 16.72588,-5.374569 -2.45291,1.178135 -14.74967,5.426103 -5.70421,2.777131 3.49459,-1.613461 15.616139,-4.728194 6.520529,-0.389072 -8.137939,3.988018 12.14892,-4.44707 3.10253,0.178651 -7.971999,3.973126 12.16271,-2.255905 1.96022,2.911744 -2.98575,3.641745 10.85082,-2.651904 2.9586,2.556099 -6.69116,4.846119 9.41431,-1.669486 1.13534,3.657207 -2.34449,1.876781 6.0284,0.349496 0.31543,3.154376 -2.0317,2.43903 5.87628,0.81565 0.31544,3.46982 0.69684,2.33272 3.14939,2.10906 0.49023,5.1907 2.84766,3.12959 1.27168,8.494155 1.84568,11.323065 2.1112,2.40011 3.15959,5.78561 1.44935,8.72127"
     id="path4637"
     inkscape:connector-curvature="0" />
  <path
     style="fill:none;fill-rule:evenodd;stroke:#000000;stroke-width:2;stroke-linecap:round;stroke-linejoin:miter;stroke-miterlimit:4;stroke-dasharray:none;stroke-opacity:1"
     d="m 65.366131,82.979555 c 2.81384,-3.112131 9.72086,-7.333826 3.19395,-1.498809 -3.21197,3.045627 -7.83408,8.354789 -1.07474,3.361742 3.10183,-2.729701 10.41904,-6.294402 3.49973,-1.0658 -3.26144,1.615961 -9.81289,9.009107 -2.8131,3.939667 3.875,-3.157069 6.0693,-5.352734 1.31323,-0.35236 -2.73886,1.46326 -8.26683,11.20616 -2.03726,5.69947 2.55269,-3.54381 -6.94071,8.064935 -0.50462,1.5873 -1.79058,2.24497 -6.3055,7.976915 -1.79635,4.74957 -1.34214,2.382785 -5.62431,6.904195 -0.54544,4.003495 -0.68711,1.1126 -3.81218,6.9187 -0.18171,3.54901 -1.68901,4.03129 -0.99935,9.25474 -0.31544,13.87927"
     id="path4639"
     inkscape:connector-curvature="0" />
  <path
     style="fill:none;fill-rule:evenodd;stroke:#000000;stroke-width:2;stroke-linecap:round;stroke-linejoin:miter;stroke-miterlimit:4;stroke-dasharray:none;stroke-opacity:1"
     d="m 14.58062,59.637145 c -0.917155,4.06084 -2.545148,16.815359 1.081198,20.496511 10.414645,-1.474998 20.949392,-0.109088 31.408913,-0.939356 7.92044,2.281665 0.67433,-11.093524 3.76957,-15.397633 1.19177,-11.778148 -13.613335,-2.929672 -20.413711,-5.321182 -3.400765,-0.60231 -16.780565,2.555233 -13.953342,0.215347"
     id="path4645"
     inkscape:connector-curvature="0" />
  <path
     style="fill:none;fill-rule:evenodd;stroke:#000000;stroke-width:2;stroke-linecap:round;stroke-linejoin:miter;stroke-miterlimit:4;stroke-dasharray:none;stroke-opacity:1"
     d="m 125.61478,59.00627 c 2.16572,6.584626 -3.93094,20.939583 5.07595,21.431328 9.59234,1.827793 19.32427,1.425923 28.99614,0.739747 11.00341,1.051447 3.28315,-14.003464 8.06591,-19.926409 -4.34167,-6.343214 -14.58035,-3.513739 -21.519,-5.051762 -6.40829,-0.411792 -18.59356,2.248832 -21.01467,1.534346 l 0.36706,0.02126 0.0286,-0.325699"
     id="path4647"
     inkscape:connector-curvature="0" />
  <path
     style="fill:none;fill-rule:evenodd;stroke:#000000;stroke-width:2;stroke-linecap:round;stroke-linejoin:miter;stroke-miterlimit:4;stroke-dasharray:none;stroke-opacity:1"
     d="m 22.151131,12.636888 c 1.386159,2.991393 0.08408,6.371816 0.946314,9.463139"
     id="path4651"
     inkscape:connector-curvature="0" />
  <path
     style="fill:none;fill-rule:evenodd;stroke:#000000;stroke-width:2;stroke-linecap:round;stroke-linejoin:miter;stroke-miterlimit:4;stroke-dasharray:none;stroke-opacity:1"
     d="m 38.553906,12.006012 c -0.866202,3.126676 1.211019,7.256808 1.261752,9.77858"
     id="path4653"
     inkscape:connector-curvature="0" />
  <path
     style="fill:none;fill-rule:evenodd;stroke:#000000;stroke-width:2;stroke-linecap:round;stroke-linejoin:miter;stroke-miterlimit:4;stroke-dasharray:none;stroke-opacity:1"
     d="m 53.379491,12.006012 c -0.11364,3.26605 -0.83123,6.500263 -0.63088,9.778577"
     id="path4655"
     inkscape:connector-curvature="0" />
  <path
     style="fill:none;fill-rule:evenodd;stroke:#000000;stroke-width:2;stroke-linecap:round;stroke-linejoin:miter;stroke-miterlimit:4;stroke-dasharray:none;stroke-opacity:1"
     d="m 67.574201,12.952326 c 0.86748,3.95365 -1.80311,8.32638 0.63087,11.986643"
     id="path4657"
     inkscape:connector-curvature="0" />
  <path
     style="fill:none;fill-rule:evenodd;stroke:#000000;stroke-width:2;stroke-linecap:round;stroke-linejoin:miter;stroke-miterlimit:4;stroke-dasharray:none;stroke-opacity:1"
     d="m 81.768911,12.952326 c 0.6172,3.03273 1.59916,7.240648 -1.26176,9.463139"
     id="path4659"
     inkscape:connector-curvature="0" />
  <path
     style="fill:none;fill-rule:evenodd;stroke:#000000;stroke-width:2;stroke-linecap:round;stroke-linejoin:miter;stroke-miterlimit:4;stroke-dasharray:none;stroke-opacity:1"
     d="m 96.594491,14.214078 c 0.60491,2.592191 0.0888,5.566778 1.57719,7.885949"
     id="path4661"
     inkscape:connector-curvature="0" />
  <path
     style="fill:none;fill-rule:evenodd;stroke:#000000;stroke-width:2;stroke-linecap:round;stroke-linejoin:miter;stroke-miterlimit:4;stroke-dasharray:none;stroke-opacity:1"
     d="m 111.10464,13.583202 c 0.59247,3.013618 0.21651,6.102567 0.31544,9.147701"
     id="path4663"
     inkscape:connector-curvature="0" />
  <path
     style="fill:none;fill-rule:evenodd;stroke:#000000;stroke-width:2;stroke-linecap:round;stroke-linejoin:miter;stroke-miterlimit:4;stroke-dasharray:none;stroke-opacity:1"
     d="m 123.72216,12.636888 c 1.05594,2.922112 -1.72912,6.557454 0,9.147701"
     id="path4667"
     inkscape:connector-curvature="0" />
  <path
     style="fill:none;fill-rule:evenodd;stroke:#000000;stroke-width:2;stroke-linecap:round;stroke-linejoin:miter;stroke-miterlimit:4;stroke-dasharray:none;stroke-opacity:1"
     d="m 137.91686,12.32145 c 0.15957,3.284427 -2.11808,7.061902 -0.31543,10.094015"
     id="path4669"
     inkscape:connector-curvature="0" />
  <path
     style="fill:none;fill-rule:evenodd;stroke:#000000;stroke-width:2;stroke-linecap:round;stroke-linejoin:miter;stroke-miterlimit:4;stroke-dasharray:none;stroke-opacity:1"
     d="m 150.84982,13.267764 c 2.31035,2.219091 -0.37627,6.018491 1.89263,8.201387"
     id="path4671"
     inkscape:connector-curvature="0" />
  <path
     style="fill:none;fill-rule:evenodd;stroke:#000000;stroke-width:2;stroke-linecap:round;stroke-linejoin:miter;stroke-miterlimit:4;stroke-dasharray:none;stroke-opacity:1"
     d="m 164.72909,12.952326 c -1.44887,2.59313 0.66735,6.509223 -1.89263,8.516825"
     id="path4673"
     inkscape:connector-curvature="0" />
  <path
     style="fill:none;fill-rule:evenodd;stroke:#000000;stroke-width:2;stroke-linecap:round;stroke-linejoin:miter;stroke-miterlimit:4;stroke-dasharray:none;stroke-opacity:1"
     d="m 58.741931,54.2747 c -0.9766,5.961229 -3.23037,15.514125 -0.94631,18.61084"
     id="path4677"
     inkscape:connector-curvature="0" />
  <path
     style="fill:none;fill-rule:evenodd;stroke:#000000;stroke-width:2;stroke-linecap:round;stroke-linejoin:miter;stroke-miterlimit:4;stroke-dasharray:none;stroke-opacity:1"
     d="m 56.849311,76.03992 c 6.36332,-7.224081 13.1999,-13.868553 21.52244,-18.955984 2.97907,-2.009594 13.66853,-1.189014 5.36299,-4.402839 -7.6282,0.09653 -19.22897,1.658251 -24.36193,0.962727"
     id="path4679"
     inkscape:connector-curvature="0" />
  <path
     style="fill:none;fill-rule:evenodd;stroke:#000000;stroke-width:2;stroke-linecap:round;stroke-linejoin:miter;stroke-miterlimit:4;stroke-dasharray:none;stroke-opacity:1"
     d="m 93.440111,55.221014 c 9.916779,0.973715 18.628259,6.878861 24.604159,14.510146 0.82972,3.258619 3.75645,14.438886 4.40912,5.270581 0.62429,-8.648295 3.73433,-24.751597 -10.13054,-22.356132 -6.29585,-0.126251 -15.503789,-0.676757 -20.057019,0.192459 l 1.48972,0.805756"
     id="path4683"
     inkscape:connector-curvature="0" />
  <path
     style="fill:none;fill-rule:evenodd;stroke:#000000;stroke-width:2;stroke-linecap:round;stroke-linejoin:miter;stroke-miterlimit:4;stroke-dasharray:none;stroke-opacity:1"
     d="m 22.151131,66.576781 c -4.035649,-2.928975 -3.226406,5.391896 0.315438,2.838942"
     id="path4685"
     inkscape:connector-curvature="0" />
  <path
     style="fill:none;fill-rule:evenodd;stroke:#000000;stroke-width:2;stroke-linecap:round;stroke-linejoin:miter;stroke-miterlimit:4;stroke-dasharray:none;stroke-opacity:1"
     d="m 26.567263,67.207657 c -5.805144,-0.120481 5.794085,-6.346401 3.172835,0.098 1.027479,-0.337502 -0.862685,2.471042 0.296983,2.425499"
     id="path4687"
     inkscape:connector-curvature="0" />
  <path
     style="fill:none;fill-rule:evenodd;stroke:#000000;stroke-width:2;stroke-linecap:round;stroke-linejoin:miter;stroke-miterlimit:4;stroke-dasharray:none;stroke-opacity:1"
     d="m 31.929708,67.523095 c -0.103687,3.510481 -6.139269,1.344112 -6.624197,4.731569"
     id="path4689"
     inkscape:connector-curvature="0" />
  <path
     style="fill:none;fill-rule:evenodd;stroke:#000000;stroke-width:2;stroke-linecap:round;stroke-linejoin:miter;stroke-miterlimit:4;stroke-dasharray:none;stroke-opacity:1"
     d="m 29.721643,75.093606 c 0.149521,-1.216542 1.373825,-1.847884 2.208065,-2.523504"
     id="path4691"
     inkscape:connector-curvature="0" />
  <path
     style="fill:none;fill-rule:evenodd;stroke:#000000;stroke-width:2;stroke-linecap:round;stroke-linejoin:miter;stroke-miterlimit:4;stroke-dasharray:none;stroke-opacity:1"
     d="m 37.292154,68.784847 c -0.62292,-0.929331 -4.117443,-2.468435 -0.946314,-3.15438"
     id="path4693"
     inkscape:connector-curvature="0" />
  <path
     style="fill:none;fill-rule:evenodd;stroke:#000000;stroke-width:2;stroke-linecap:round;stroke-linejoin:miter;stroke-miterlimit:4;stroke-dasharray:none;stroke-opacity:1"
     d="m 41.708285,65.945905 c 0.420584,0.210292 0.841168,0.420584 1.261752,0.630876"
     id="path4695"
     inkscape:connector-curvature="0" />
  <path
     style="fill:none;fill-rule:evenodd;stroke:#000000;stroke-width:2;stroke-linecap:round;stroke-linejoin:miter;stroke-miterlimit:4;stroke-dasharray:none;stroke-opacity:1"
     d="m 40.131096,71.30835 c -0.187778,0.695184 -2.357147,-0.593244 -2.208066,0.630876"
     id="path4697"
     inkscape:connector-curvature="0" />
  <path
     style="fill:none;fill-rule:evenodd;stroke:#000000;stroke-width:2;stroke-linecap:round;stroke-linejoin:miter;stroke-miterlimit:4;stroke-dasharray:none;stroke-opacity:1"
     d="m 41.077409,74.778168 c 0.92322,-0.951545 0.784281,-2.931481 2.838942,-1.892628"
     id="path4699"
     inkscape:connector-curvature="0" />
  <path
     style="fill:none;fill-rule:evenodd;stroke:#000000;stroke-width:2;stroke-linecap:round;stroke-linejoin:miter;stroke-miterlimit:4;stroke-dasharray:none;stroke-opacity:1"
     d="m 45.808981,68.469409 c 1.49598,-1.408894 -0.75003,-2.045463 -1.57719,-1.261752"
     id="path4701"
     inkscape:connector-curvature="0" />
  <path
     style="fill:none;fill-rule:evenodd;stroke:#000000;stroke-width:2;stroke-linecap:round;stroke-linejoin:miter;stroke-miterlimit:4;stroke-dasharray:none;stroke-opacity:1"
     d="m 39.815658,68.153971 c -1.867355,-2.136302 0.313923,-4.242886 0,0 z"
     id="path4703"
     inkscape:connector-curvature="0" />
  <path
     style="fill:none;fill-rule:evenodd;stroke:#000000;stroke-width:2;stroke-linecap:round;stroke-linejoin:miter;stroke-miterlimit:4;stroke-dasharray:none;stroke-opacity:1"
     d="m 20.889379,71.623788 c 0.141993,0.413974 0.983161,1.886018 1.261752,2.208066"
     id="path4707"
     inkscape:connector-curvature="0" />
  <path
     style="fill:none;fill-rule:evenodd;stroke:#000000;stroke-width:2;stroke-linecap:round;stroke-linejoin:miter;stroke-miterlimit:4;stroke-dasharray:none;stroke-opacity:1"
     d="m 136.33968,66.261343 c -0.42242,0.655776 -4.03314,0.738206 -2.20807,1.892628"
     id="path4709"
     inkscape:connector-curvature="0" />
  <path
     style="fill:none;fill-rule:evenodd;stroke:#000000;stroke-width:2;stroke-linecap:round;stroke-linejoin:miter;stroke-miterlimit:4;stroke-dasharray:none;stroke-opacity:1"
     d="m 139.80949,70.992912 c -3.68978,-1.146407 0.86017,3.54963 0.5956,-0.386105 0.35119,-0.149121 0.86577,1.736382 0.66615,0.386105"
     id="path4711"
     inkscape:connector-curvature="0" />
  <path
     style="fill:none;fill-rule:evenodd;stroke:#000000;stroke-width:2;stroke-linecap:round;stroke-linejoin:miter;stroke-miterlimit:4;stroke-dasharray:none;stroke-opacity:1"
     d="m 143.59475,67.207657 c 0.0978,-0.845224 -1.76276,-2.329761 0.63087,-1.57719"
     id="path4713"
     inkscape:connector-curvature="0" />
  <path
     style="fill:none;fill-rule:evenodd;stroke:#000000;stroke-width:2;stroke-linecap:round;stroke-linejoin:miter;stroke-miterlimit:4;stroke-dasharray:none;stroke-opacity:1"
     d="m 148.32632,66.892219 c 0.42058,1.472044 0.84117,2.944087 1.26175,4.416131"
     id="path4715"
     inkscape:connector-curvature="0" />
  <path
     style="fill:none;fill-rule:evenodd;stroke:#000000;stroke-width:2;stroke-linecap:round;stroke-linejoin:miter;stroke-miterlimit:4;stroke-dasharray:none;stroke-opacity:1"
     d="M 9.2181747,9.4825076 C 25.716079,8.5826756 42.180821,10.241495 58.675131,10.04754 c 11.6332,-1.1456084 23.20139,2.182584 34.84823,0.993469 8.724999,0.812009 17.572329,1.809479 26.137019,-0.729113 8.60206,-1.3605794 17.31351,1.588202 25.98973,0.124514 8.72251,-0.6053744 17.65736,0.100163 26.25482,-0.316197 0.66637,-0.5362434 8.24702,1.786035 3.54905,-0.0068"
     id="path4725"
     inkscape:connector-curvature="0" />
  <path
     style="fill:none;fill-rule:evenodd;stroke:#000000;stroke-width:2;stroke-linecap:round;stroke-linejoin:miter;stroke-miterlimit:4;stroke-dasharray:none;stroke-opacity:1"
     d="M 1.0167867,28.724224 C 0.46784469,22.230466 13.048395,27.872759 17.849335,26.217186 c 16.156685,-0.135992 32.368866,0.950879 48.445156,-0.900475 10.29452,-0.920641 20.6297,-0.248854 30.93088,0.568572 14.715469,-0.357415 29.494459,1.949708 44.161309,-0.315438 10.31742,0.880622 20.65758,-0.714909 30.99834,-0.425876 4.12853,-0.194725 9.70843,-1.63796 5.32032,3.652812 l -0.67417,1.189195 0,-0.315438"
     id="path4733"
     inkscape:connector-curvature="0" />
  <path
     style="fill:none;fill-rule:evenodd;stroke:#000000;stroke-width:2;stroke-linecap:round;stroke-linejoin:miter;stroke-miterlimit:4;stroke-dasharray:none;stroke-opacity:1"
     d="m 18.681314,14.844954 c -6.000523,0.229109 -1.271481,7.085121 0.450222,1.346414 -0.03274,-0.64877 -2.523854,-1.79305 -0.450222,-1.346414 z"
     id="path4741"
     inkscape:connector-curvature="0" />
  <path
     style="fill:none;fill-rule:evenodd;stroke:#000000;stroke-width:2;stroke-linecap:round;stroke-linejoin:miter;stroke-miterlimit:4;stroke-dasharray:none;stroke-opacity:1"
     d="m 33.506898,14.529516 c -8.288027,1.313305 4.540794,4.968331 0.07614,-0.539287 -1.303747,-0.201425 -1.69974,1.554455 -2.28421,1.485601"
     id="path4743"
     inkscape:connector-curvature="0" />
  <path
     style="fill:none;fill-rule:evenodd;stroke:#000000;stroke-width:2;stroke-linecap:round;stroke-linejoin:miter;stroke-miterlimit:4;stroke-dasharray:none;stroke-opacity:1"
     d="m 48.017041,14.844954 c -7.04062,-0.917771 -0.89946,7.498037 0.20924,1.084813 0.11039,-1.295032 -1.50358,-2.547951 -2.4173,-1.084813"
     id="path4745"
     inkscape:connector-curvature="0" />
  <path
     style="fill:none;fill-rule:evenodd;stroke:#000000;stroke-width:2;stroke-linecap:round;stroke-linejoin:miter;stroke-miterlimit:4;stroke-dasharray:none;stroke-opacity:1"
     d="m 62.211751,15.791268 c -7.78751,-1.776127 0.12039,6.835596 1.39881,0.219494 0.16956,-2.248499 -2.86631,-2.786541 -3.29142,-0.85037"
     id="path4747"
     inkscape:connector-curvature="0" />
  <path
     style="fill:none;fill-rule:evenodd;stroke:#000000;stroke-width:2;stroke-linecap:round;stroke-linejoin:miter;stroke-miterlimit:4;stroke-dasharray:none;stroke-opacity:1"
     d="m 74.829271,13.267764 c -8.41885,2.934551 4.38986,6.782108 0.644,0.312279 -1.15123,-0.986307 -2.63703,0.213765 -1.90575,1.580349"
     id="path4749"
     inkscape:connector-curvature="0" />
  <path
     style="fill:none;fill-rule:evenodd;stroke:#000000;stroke-width:2;stroke-linecap:round;stroke-linejoin:miter;stroke-miterlimit:4;stroke-dasharray:none;stroke-opacity:1"
     d="m 89.654861,15.160392 c -6.50784,-1.562119 1.6278,5.898256 1.16791,-0.454794 -0.12431,-1.073701 -3.83232,-1.258154 -2.42967,0.139356"
     id="path4751"
     inkscape:connector-curvature="0" />
  <path
     style="fill:none;fill-rule:evenodd;stroke:#000000;stroke-width:2;stroke-linecap:round;stroke-linejoin:miter;stroke-miterlimit:4;stroke-dasharray:none;stroke-opacity:1"
     d="m 104.165,15.160392 c -7.529779,-0.83569 2.69259,6.699376 1.68352,-0.581929 -0.63658,-1.459531 -2.70429,-0.403747 -3.26071,-0.04895"
     id="path4753"
     inkscape:connector-curvature="0" />
  <path
     style="fill:none;fill-rule:evenodd;stroke:#000000;stroke-width:2;stroke-linecap:round;stroke-linejoin:miter;stroke-miterlimit:4;stroke-dasharray:none;stroke-opacity:1"
     d="m 116.78252,15.47583 c -7.17332,5.50065 9.81365,1.058818 1.55788,-1.867085 l -1.24244,0.605333 0.31544,0"
     id="path4755"
     inkscape:connector-curvature="0" />
  <path
     style="fill:none;fill-rule:evenodd;stroke:#000000;stroke-width:2;stroke-linecap:round;stroke-linejoin:miter;stroke-miterlimit:4;stroke-dasharray:none;stroke-opacity:1"
     d="m 133.1853,15.47583 c -5.00943,-3.567611 -4.06851,6.072486 -0.31655,1.261713 0.17697,-1.208489 -1.16433,-3.320994 -2.5224,-2.208027"
     id="path4757"
     inkscape:connector-curvature="0" />
  <path
     style="fill:none;fill-rule:evenodd;stroke:#000000;stroke-width:2;stroke-linecap:round;stroke-linejoin:miter;stroke-miterlimit:4;stroke-dasharray:none;stroke-opacity:1"
     d="m 145.17194,16.422144 c -8.022,0.116147 4.276,6.042624 2.14095,-1.546626 -0.91631,-1.638405 -3.44717,0.249601 -2.14095,1.546626 z"
     id="path4759"
     inkscape:connector-curvature="0" />
  <path
     style="fill:none;fill-rule:evenodd;stroke:#000000;stroke-width:2;stroke-linecap:round;stroke-linejoin:miter;stroke-miterlimit:4;stroke-dasharray:none;stroke-opacity:1"
     d="m 160.31296,14.844954 c -7.66939,-1.489662 -0.92872,6.716641 0.0724,0.510639 -0.20951,-1.558405 -2.24428,-2.065389 -3.22681,-0.826077"
     id="path4761"
     inkscape:connector-curvature="0" />
  <path
     style="fill:none;fill-rule:evenodd;stroke:#000000;stroke-width:2;stroke-linecap:round;stroke-linejoin:miter;stroke-miterlimit:4;stroke-dasharray:none;stroke-opacity:1"
     d="m 9.2181747,42.288057 c 3.0525743,2.381575 10.0770633,-0.04455 8.6790643,0.233168 -0.295695,0.484154 -0.833308,1.031017 -0.477677,1.65946"
     id="path4767"
     inkscape:connector-curvature="0" />
  <path
     style="fill:none;fill-rule:evenodd;stroke:#000000;stroke-width:2;stroke-linecap:round;stroke-linejoin:miter;stroke-miterlimit:4;stroke-dasharray:none;stroke-opacity:1"
     d="m 23.412883,42.288057 c 0.749317,5.889248 9.942149,-3.876852 4.060824,1.101541 1.153906,2.024592 6.815386,1.456695 6.348629,-1.416979"
     id="path4769"
     inkscape:connector-curvature="0" />
  <path
     style="fill:none;fill-rule:evenodd;stroke:#000000;stroke-width:2;stroke-linecap:round;stroke-linejoin:miter;stroke-miterlimit:4;stroke-dasharray:none;stroke-opacity:1"
     d="m 34.76865,42.288057 c 4.533576,-1.007058 -2.457805,-0.110703 3.695656,-0.05401 2.594182,-0.93302 11.065585,0.485051 8.921865,-0.261432 3.62948,1.938504 8.30434,-1.043661 12.30208,0.630876"
     id="path4771"
     inkscape:connector-curvature="0" />
  <path
     style="fill:none;fill-rule:evenodd;stroke:#000000;stroke-width:2;stroke-linecap:round;stroke-linejoin:miter;stroke-miterlimit:4;stroke-dasharray:none;stroke-opacity:1"
     d="m 62.527191,43.865247 c -0.48615,-3.814319 4.25167,1.282171 5.99332,0"
     id="path4773"
     inkscape:connector-curvature="0" />
  <path
     style="fill:none;fill-rule:evenodd;stroke:#000000;stroke-width:2;stroke-linecap:round;stroke-linejoin:miter;stroke-miterlimit:4;stroke-dasharray:none;stroke-opacity:1"
     d="m 73.252081,41.972619 c -4.98313,4.428042 8.40639,-1.844789 0.55663,-0.41651 -1.80154,0.801864 0.80554,1.348228 1.336,1.047386"
     id="path4775"
     inkscape:connector-curvature="0" />
  <path
     style="fill:none;fill-rule:evenodd;stroke:#000000;stroke-width:2;stroke-linecap:round;stroke-linejoin:miter;stroke-miterlimit:4;stroke-dasharray:none;stroke-opacity:1"
     d="m 85.238721,42.603495 c -4.99922,-0.898772 -0.10673,3.012166 1.57719,1.261752"
     id="path4777"
     inkscape:connector-curvature="0" />
  <path
     style="fill:none;fill-rule:evenodd;stroke:#000000;stroke-width:2;stroke-linecap:round;stroke-linejoin:miter;stroke-miterlimit:4;stroke-dasharray:none;stroke-opacity:1"
     d="m 90.285731,43.234371 c 0.97911,-1.174548 2.86542,-0.510273 4.1007,-1.261752"
     id="path4779"
     inkscape:connector-curvature="0" />
  <path
     style="fill:none;fill-rule:evenodd;stroke:#000000;stroke-width:2;stroke-linecap:round;stroke-linejoin:miter;stroke-miterlimit:4;stroke-dasharray:none;stroke-opacity:1"
     d="m 93.440111,41.657181 c 0.47211,0.06463 2.36474,0.274922 2.83894,0.315438"
     id="path4781"
     inkscape:connector-curvature="0" />
  <path
     style="fill:none;fill-rule:evenodd;stroke:#000000;stroke-width:2;stroke-linecap:round;stroke-linejoin:miter;stroke-miterlimit:4;stroke-dasharray:none;stroke-opacity:1"
     d="m 99.748871,41.657181 c 5.471009,-0.476401 6.558059,0.435762 11.040329,0.946314"
     id="path4783"
     inkscape:connector-curvature="0" />
  <path
     style="fill:none;fill-rule:evenodd;stroke:#000000;stroke-width:2;stroke-linecap:round;stroke-linejoin:miter;stroke-miterlimit:4;stroke-dasharray:none;stroke-opacity:1"
     d="m 112.05095,44.180685 c 0.37097,-0.12726 1.84302,-0.547844 2.20807,-0.630876"
     id="path4785"
     inkscape:connector-curvature="0" />
  <path
     style="fill:none;fill-rule:evenodd;stroke:#000000;stroke-width:2;stroke-linecap:round;stroke-linejoin:miter;stroke-miterlimit:4;stroke-dasharray:none;stroke-opacity:1"
     d="m 136.33968,42.918933 c -4.06243,0.907423 3.304,3.130072 3.46981,0.946314"
     id="path4787"
     inkscape:connector-curvature="0" />
  <path
     style="fill:none;fill-rule:evenodd;stroke:#000000;stroke-width:2;stroke-linecap:round;stroke-linejoin:miter;stroke-miterlimit:4;stroke-dasharray:none;stroke-opacity:1"
     d="m 142.64843,44.180685 c 0.84117,0.210292 1.68234,0.420584 2.52351,0.630876"
     id="path4789"
     inkscape:connector-curvature="0" />
  <path
     style="fill:none;fill-rule:evenodd;stroke:#000000;stroke-width:2;stroke-linecap:round;stroke-linejoin:miter;stroke-miterlimit:4;stroke-dasharray:none;stroke-opacity:1"
     d="m 150.84982,43.865247 c 0.13957,-2.385998 2.63026,-0.805261 3.78526,-0.315438"
     id="path4791"
     inkscape:connector-curvature="0" />
  <path
     style="fill:none;fill-rule:evenodd;stroke:#000000;stroke-width:2;stroke-linecap:round;stroke-linejoin:miter;stroke-miterlimit:4;stroke-dasharray:none;stroke-opacity:1"
     d="m 157.47402,41.972619 c -1.43718,-0.485474 -3.00863,-0.354671 -4.41613,-0.946314"
     id="path4793"
     inkscape:connector-curvature="0" />
  <path
     style="fill:none;fill-rule:evenodd;stroke:#000000;stroke-width:2;stroke-linecap:round;stroke-linejoin:miter;stroke-miterlimit:4;stroke-dasharray:none;stroke-opacity:1"
     d="m 142.01756,41.026305 c -1.25706,0.395899 -2.90006,0.399397 -3.78526,1.57719"
     id="path4795"
     inkscape:connector-curvature="0" />
  <path
     style="fill:none;fill-rule:evenodd;stroke:#000000;stroke-width:2;stroke-linecap:round;stroke-linejoin:miter;stroke-miterlimit:4;stroke-dasharray:none;stroke-opacity:1"
     d="m 134.13161,42.603495 c -2.41836,-0.210292 -4.83671,-0.420584 -7.25507,-0.630876"
     id="path4797"
     inkscape:connector-curvature="0" />
  <path
     style="fill:none;fill-rule:evenodd;stroke:#000000;stroke-width:2;stroke-linecap:round;stroke-linejoin:miter;stroke-miterlimit:4;stroke-dasharray:none;stroke-opacity:1"
     d="m 127.50741,40.710867 c -1.44514,-1.051293 -3.54945,0.862496 -0.63087,0.946314"
     id="path4799"
     inkscape:connector-curvature="0" />
  <path
     style="fill:none;fill-rule:evenodd;stroke:#000000;stroke-width:2;stroke-linecap:round;stroke-linejoin:miter;stroke-miterlimit:4;stroke-dasharray:none;stroke-opacity:1"
     d="m 155.58139,44.496123 c 6.98168,-2.943248 -3.80761,0.555191 2.20807,0.946314"
     id="path4801"
     inkscape:connector-curvature="0" />
  <path
     style="fill:none;fill-rule:evenodd;stroke:#000000;stroke-width:2;stroke-linecap:round;stroke-linejoin:miter;stroke-miterlimit:4;stroke-dasharray:none;stroke-opacity:1"
     d="m 164.41365,42.603495 c -1.50969,1.976569 1.24808,1.567357 2.20807,1.57719"
     id="path4803"
     inkscape:connector-curvature="0" />
  <path
     style="fill:none;fill-rule:evenodd;stroke:#000000;stroke-width:2;stroke-linecap:round;stroke-linejoin:miter;stroke-miterlimit:4;stroke-dasharray:none;stroke-opacity:1"
     d="m 167.56803,42.288057 c -0.81232,0.314158 -1.34598,2.901535 0.31544,2.523504"
     id="path4805"
     inkscape:connector-curvature="0" />
  <path
     style="fill:none;fill-rule:evenodd;stroke:#000000;stroke-width:2;stroke-linecap:round;stroke-linejoin:miter;stroke-miterlimit:4;stroke-dasharray:none;stroke-opacity:1"
     d="m 155.26595,65.315029 c 4.23302,-3.168686 -0.82906,-1.312533 0.31544,1.261752"
     id="path4807"
     inkscape:connector-curvature="0" />
  <path
     style="fill:none;fill-rule:evenodd;stroke:#000000;stroke-width:2;stroke-linecap:round;stroke-linejoin:miter;stroke-miterlimit:4;stroke-dasharray:none;stroke-opacity:1"
     d="m 156.84314,67.838533 c -1.01612,0.717964 -1.54606,2.686454 0.31544,2.838941"
     id="path4809"
     inkscape:connector-curvature="0" />
  <path
     style="fill:none;fill-rule:evenodd;stroke:#000000;stroke-width:2;stroke-linecap:round;stroke-linejoin:miter;stroke-miterlimit:4;stroke-dasharray:none;stroke-opacity:1"
     d="m 153.05789,71.939226 c 3.09339,-1.721645 -2.5059,-4.007029 -2.52351,-1.261752"
     id="path4811"
     inkscape:connector-curvature="0" />
  <path
     style="fill:none;fill-rule:evenodd;stroke:#000000;stroke-width:2;stroke-linecap:round;stroke-linejoin:miter;stroke-miterlimit:4;stroke-dasharray:none;stroke-opacity:1"
     d="m 131.92354,70.362036 c -1.15547,0.763071 -0.67991,3.229633 0.94632,2.838942"
     id="path4815"
     inkscape:connector-curvature="0" />
  <path
     style="fill:none;fill-rule:evenodd;stroke:#000000;stroke-width:2;stroke-linecap:round;stroke-linejoin:miter;stroke-miterlimit:4;stroke-dasharray:none;stroke-opacity:1"
     d="m 110.15832,58.059956 c -0.8426,-1.572248 -3.57949,-0.719203 0,0 z"
     id="path4817"
     inkscape:connector-curvature="0" />
  <path
     style="fill:none;fill-rule:evenodd;stroke:#000000;stroke-width:2;stroke-linecap:round;stroke-linejoin:miter;stroke-miterlimit:4;stroke-dasharray:none;stroke-opacity:1"
     d="m 103.84956,53.012948 c -0.14821,3.701145 6.48952,0.730553 0.10005,0.715403 0.3245,2.459112 6.96336,2.124453 9.99679,3.315821 l 0.31262,0.06947"
     id="path4819"
     inkscape:connector-curvature="0" />
  <path
     style="fill:none;fill-rule:evenodd;stroke:#000000;stroke-width:2;stroke-linecap:round;stroke-linejoin:miter;stroke-miterlimit:4;stroke-dasharray:none;stroke-opacity:1"
     d="m 115.20533,55.221014 c 0,1.682336 0,3.364671 0,5.047007"
     id="path4821"
     inkscape:connector-curvature="0" />
  <path
     style="fill:none;fill-rule:evenodd;stroke:#000000;stroke-width:2;stroke-linecap:round;stroke-linejoin:miter;stroke-miterlimit:4;stroke-dasharray:none;stroke-opacity:1"
     d="m 114.25902,63.106963 c 2.83192,-0.192045 3.6153,-3.489258 5.047,-5.362445"
     id="path4823"
     inkscape:connector-curvature="0" />
  <path
     style="fill:none;fill-rule:evenodd;stroke:#000000;stroke-width:2;stroke-linecap:round;stroke-linejoin:miter;stroke-miterlimit:4;stroke-dasharray:none;stroke-opacity:1"
     d="m 118.35971,59.321707 c -0.10515,1.682336 -0.21029,3.364672 -0.31544,5.047008"
     id="path4825"
     inkscape:connector-curvature="0" />
  <path
     style="fill:none;fill-rule:evenodd;stroke:#000000;stroke-width:2;stroke-linecap:round;stroke-linejoin:miter;stroke-miterlimit:4;stroke-dasharray:none;stroke-opacity:1"
     d="m 119.9369,65.630467 c -0.84117,-1.57719 -1.68233,-3.15438 -2.5235,-4.73157"
     id="path4827"
     inkscape:connector-curvature="0" />
  <path
     style="fill:none;fill-rule:evenodd;stroke:#000000;stroke-width:2;stroke-linecap:round;stroke-linejoin:miter;stroke-miterlimit:4;stroke-dasharray:none;stroke-opacity:1"
     d="m 111.42008,58.690832 c -4.06004,0.482687 1.10553,-0.786103 0.31543,1.261751"
     id="path4829"
     inkscape:connector-curvature="0" />
  <path
     style="fill:none;fill-rule:evenodd;stroke:#000000;stroke-width:2;stroke-linecap:round;stroke-linejoin:miter;stroke-miterlimit:4;stroke-dasharray:none;stroke-opacity:1"
     d="m 118.99059,54.2747 c -2.74686,0.03851 -0.67402,1.652941 0.63087,1.892628"
     id="path4831"
     inkscape:connector-curvature="0" />
  <path
     style="fill:none;fill-rule:evenodd;stroke:#000000;stroke-width:2;stroke-linecap:round;stroke-linejoin:miter;stroke-miterlimit:4;stroke-dasharray:none;stroke-opacity:1"
     d="m 62.211751,58.690832 c -0.87494,0.918135 -4.02229,3.76034 0,2.208065"
     id="path4833"
     inkscape:connector-curvature="0" />
  <path
     style="fill:none;fill-rule:evenodd;stroke:#000000;stroke-width:2;stroke-linecap:round;stroke-linejoin:miter;stroke-miterlimit:4;stroke-dasharray:none;stroke-opacity:1"
     d="m 60.634561,62.791525 c -0.84476,1.613952 1.37189,1.843375 2.20807,0.946314"
     id="path4835"
     inkscape:connector-curvature="0" />
  <path
     style="fill:none;fill-rule:evenodd;stroke:#000000;stroke-width:2;stroke-linecap:round;stroke-linejoin:miter;stroke-miterlimit:4;stroke-dasharray:none;stroke-opacity:1"
     d="m 65.681571,58.059956 1.57719,0.630876"
     id="path4837"
     inkscape:connector-curvature="0" />
  <path
     style="fill:none;fill-rule:evenodd;stroke:#000000;stroke-width:2;stroke-linecap:round;stroke-linejoin:miter;stroke-miterlimit:4;stroke-dasharray:none;stroke-opacity:1"
     d="m 68.205071,56.482766 c 6.34955,1.741439 -1.39686,5.004175 -3.15438,6.939635"
     id="path4839"
     inkscape:connector-curvature="0" />
  <path
     style="fill:none;fill-rule:evenodd;stroke:#000000;stroke-width:2;stroke-linecap:round;stroke-linejoin:miter;stroke-miterlimit:4;stroke-dasharray:none;stroke-opacity:1"
     d="m 5.1174807,90.865505 c 13.3905623,0.98949 26.8737073,-1.06354 40.1758003,1.28894 6.01807,0.4006 12.48411,0.53656 18.26139,-0.3953 l 0.23427,-0.26276"
     id="path4841"
     inkscape:connector-curvature="0" />
  <path
     style="fill:none;fill-rule:evenodd;stroke:#000000;stroke-width:2;stroke-linecap:round;stroke-linejoin:miter;stroke-miterlimit:4;stroke-dasharray:none;stroke-opacity:1"
     d="m 116.15165,92.758135 c 13.05891,-1.0798 26.11491,1.35591 39.14391,1.14697 5.19589,-0.48046 14.71832,-1.48909 17.31948,-1.46241"
     id="path4843"
     inkscape:connector-curvature="0" />
  <path
     style="fill:none;fill-rule:evenodd;stroke:#000000;stroke-width:2;stroke-linecap:round;stroke-linejoin:miter;stroke-miterlimit:4;stroke-dasharray:none;stroke-opacity:1"
     d="m 121.51409,96.543385 c -1.01936,11.555695 -0.0413,23.081005 -0.19755,34.668475 0.006,7.68485 -1.31089,15.54757 -0.76423,23.2131 -0.086,0.28864 0.73639,3.43375 0.3309,0.15901"
     id="path4845"
     inkscape:connector-curvature="0" />
  <path
     style="fill:none;fill-rule:evenodd;stroke:#000000;stroke-width:2;stroke-linecap:round;stroke-linejoin:miter;stroke-miterlimit:4;stroke-dasharray:none;stroke-opacity:1"
     d="m 57.795621,96.227945 c -1.38754,10.744385 0.67621,21.715845 -1.46681,32.424455 -0.47232,9.30286 -1.16214,18.5646 -2.00301,27.8242 0.91338,-0.0721 0.10054,3.71552 1.26176,1.57719"
     id="path4847"
     inkscape:connector-curvature="0" />
  <path
     style="fill:none;fill-rule:evenodd;stroke:#000000;stroke-width:2;stroke-linecap:round;stroke-linejoin:miter;stroke-miterlimit:4;stroke-dasharray:none;stroke-opacity:1"
     d="m 11.110802,4.7509386 c 0.401624,-5.73479904 3.90151,-2.991851 5.047008,-1.57719"
     id="path4849"
     inkscape:connector-curvature="0" />
  <path
     style="fill:none;fill-rule:evenodd;stroke:#000000;stroke-width:2;stroke-linecap:round;stroke-linejoin:miter;stroke-miterlimit:4;stroke-dasharray:none;stroke-opacity:1"
     d="m 25.936387,3.1737486 c -0.237435,-2.95909904 2.620621,-2.27081504 2.208066,0"
     id="path4851"
     inkscape:connector-curvature="0" />
  <path
     style="fill:none;fill-rule:evenodd;stroke:#000000;stroke-width:2;stroke-linecap:round;stroke-linejoin:miter;stroke-miterlimit:4;stroke-dasharray:none;stroke-opacity:1"
     d="m 38.238468,2.8583106 c 2.512885,-4.267599 1.862329,1.013024 3.469817,0.630876"
     id="path4853"
     inkscape:connector-curvature="0" />
  <path
     style="fill:none;fill-rule:evenodd;stroke:#000000;stroke-width:2;stroke-linecap:round;stroke-linejoin:miter;stroke-miterlimit:4;stroke-dasharray:none;stroke-opacity:1"
     d="m 52.748611,3.4891866 c 1.64525,-2.370898 2.53047,-1.914984 3.46982,0.630876"
     id="path4855"
     inkscape:connector-curvature="0" />
  <path
     style="fill:none;fill-rule:evenodd;stroke:#000000;stroke-width:2;stroke-linecap:round;stroke-linejoin:miter;stroke-miterlimit:4;stroke-dasharray:none;stroke-opacity:1"
     d="m 67.574201,4.4355006 c 0.80499,-3.102557 2.87216,-3.67806304 4.41613,-0.630876"
     id="path4857"
     inkscape:connector-curvature="0" />
  <path
     style="fill:none;fill-rule:evenodd;stroke:#000000;stroke-width:2;stroke-linecap:round;stroke-linejoin:miter;stroke-miterlimit:4;stroke-dasharray:none;stroke-opacity:1"
     d="m 81.453471,2.8583106 c 0.25785,-3.19563504 2.63393,-1.545104 2.83894,0.315438"
     id="path4859"
     inkscape:connector-curvature="0" />
  <path
     style="fill:none;fill-rule:evenodd;stroke:#000000;stroke-width:2;stroke-linecap:round;stroke-linejoin:miter;stroke-miterlimit:4;stroke-dasharray:none;stroke-opacity:1"
     d="m 94.386431,3.8046246 c 2.27119,-3.12908004 2.93774,-3.25809604 4.73156,-0.946314"
     id="path4861"
     inkscape:connector-curvature="0" />
  <path
     style="fill:none;fill-rule:evenodd;stroke:#000000;stroke-width:2;stroke-linecap:round;stroke-linejoin:miter;stroke-miterlimit:4;stroke-dasharray:none;stroke-opacity:1"
     d="m 107.31938,3.1737486 c 0.87346,-3.72927004 4.34436,-1.518421 4.73157,-0.630876"
     id="path4863"
     inkscape:connector-curvature="0" />
  <path
     style="fill:none;fill-rule:evenodd;stroke:#000000;stroke-width:2;stroke-linecap:round;stroke-linejoin:miter;stroke-miterlimit:4;stroke-dasharray:none;stroke-opacity:1"
     d="m 123.40672,3.4891866 c 0.53227,-2.76730504 3.48272,-1.612395 3.46982,-0.315438"
     id="path4865"
     inkscape:connector-curvature="0" />
  <path
     style="fill:none;fill-rule:evenodd;stroke:#000000;stroke-width:2;stroke-linecap:round;stroke-linejoin:miter;stroke-miterlimit:4;stroke-dasharray:none;stroke-opacity:1"
     d="m 137.28599,3.1737486 c 0.6773,-1.471301 3.93687,-3.88658304 3.46982,-0.315438"
     id="path4867"
     inkscape:connector-curvature="0" />
  <path
     style="fill:none;fill-rule:evenodd;stroke:#000000;stroke-width:2;stroke-linecap:round;stroke-linejoin:miter;stroke-miterlimit:4;stroke-dasharray:none;stroke-opacity:1"
     d="m 151.16526,3.4891866 c 3.42758,-4.533645 1.79666,-1.797019 3.78526,1.261752"
     id="path4869"
     inkscape:connector-curvature="0" />
  <path
     style="fill:none;fill-rule:evenodd;stroke:#000000;stroke-width:2;stroke-linecap:round;stroke-linejoin:miter;stroke-miterlimit:4;stroke-dasharray:none;stroke-opacity:1"
     d="m 164.72909,4.1200626 c 0.83585,-3.55939604 4.65553,-2.024454 4.1007,0"
     id="path4871"
     inkscape:connector-curvature="0" />
  <path
     style="fill:none;fill-rule:evenodd;stroke:#000000;stroke-width:2;stroke-linecap:round;stroke-linejoin:miter;stroke-miterlimit:4;stroke-dasharray:none;stroke-opacity:1"
     d="m 9.2181747,39.133677 c 0.03366,-0.529168 2.9737183,-0.225107 3.1543793,-0.315438 0.133001,-0.0665 0.182438,-0.248937 0.315438,-0.315437 0.09405,-0.04702 0.210292,0 0.315438,0 0.354219,0 1.982557,0.07517 2.208066,0 0.223048,-0.07435 0.407828,-0.241089 0.630876,-0.315438 0.09975,-0.03325 0.210292,0 0.315438,0 0.243623,0 1.700182,0.06415 1.892628,0 0.223048,-0.07435 0.407827,-0.241089 0.630876,-0.315438 0.270222,-0.09008 0.983466,0.06957 1.261751,0 0.228094,-0.05702 0.402783,-0.258415 0.630876,-0.315438 0.30602,-0.07651 0.647064,0.09975 0.946314,0 0.223049,-0.07435 0.402783,-0.258415 0.630876,-0.315438 0.408027,-0.102007 0.853726,0.102006 1.261752,0 0.228094,-0.05702 0.400328,-0.269329 0.630876,-0.315438 0.515521,-0.103104 1.05146,0 1.57719,0 0.210292,0 0.426863,0.051 0.630876,0 0.228094,-0.05702 0.402782,-0.258415 0.630876,-0.315438 0.204013,-0.051 0.420584,0 0.630876,0 0.210292,0 0.420584,0 0.630876,0 0.210292,0 0.420584,0 0.630876,0 0.210292,0 0.431375,-0.0665 0.630876,0 0.141068,0.04702 0.182437,0.248938 0.315438,0.315438 0.09405,0.04702 0.210292,0 0.315438,0 0.105145,0 0.210291,0 0.315437,0 0.52573,0 1.05146,0 1.57719,0 0.630876,0 1.261752,0 1.892628,0 0.315438,0 0.647063,0.09975 0.946314,0 0.141068,-0.04702 0.17437,-0.268416 0.315438,-0.315438 0.173894,-0.05797 1.624933,0 1.892628,0 0.105146,0 0.215688,0.03325 0.315438,0 0.223048,-0.07435 0.402782,-0.258415 0.630876,-0.315438 0.248129,-0.06203 1.564596,0 1.892628,0 1.577189,0 3.154379,0 4.731573,0 4.83671,0 9.67343,0 14.51014,0 2.20807,0 4.41613,0 6.6242,0 0.63088,0 1.26175,0 1.89263,0 0.21029,0 0.42058,0 0.63087,0 0.2103,0 0.42687,0.051 0.63088,0 0.22809,-0.05702 0.40278,-0.258415 0.63088,-0.315438 0.30602,-0.07651 0.63087,0 0.94631,0 0.84117,0 1.68234,0 2.5235,0 0.32804,0 1.6445,-0.06203 1.89263,0 0.22809,0.05702 0.40033,0.269328 0.63088,0.315438 0.51552,0.103104 1.05146,0 1.57719,0 0.63087,0 1.26175,0 1.89262,0 0.2103,0 0.42467,0.04124 0.63088,0 0.32604,-0.06521 0.61834,-0.260775 0.94631,-0.315438 0.31115,-0.05186 0.63088,0 0.94632,0 0.42058,0 0.84117,0 1.26175,0 1.89263,0 3.78526,0 5.67788,0 0.84117,0 1.68234,0 2.52351,0 0.21029,0 0.42686,-0.051 0.63087,0 0.2281,0.05702 0.40033,0.269328 0.63088,0.315438 0.30931,0.06186 0.63088,0 0.94631,0 0.73603,0 1.47205,0 2.20807,0 0.21029,0 0.42467,-0.04124 0.63088,0 0.32604,0.06521 0.61833,0.260775 0.94631,0.315438 0.31115,0.05186 0.63087,0 0.94631,0 0.47841,0 2.09999,-0.07059 2.523509,0 0.32797,0.05466 0.61833,0.260775 0.94631,0.315438 0.51858,0.08643 1.05146,0 1.57719,0 1.3669,0 2.7338,0 4.10069,0 0.31544,0 0.63088,0 0.94632,0 0.21029,0 0.42467,-0.04124 0.63087,0 0.32605,0.06521 0.62027,0.250229 0.94632,0.315438 0.41241,0.08248 0.84117,0 1.26175,0 0.73602,0 1.47204,0 2.20807,0 2.20806,0 4.41613,0 6.62419,0 0.73602,0 1.47205,0 2.20807,0 0.31544,0 0.63087,0 0.94631,0 0.21029,0 0.42687,-0.051 0.63088,0 0.22809,0.05702 0.40278,0.258414 0.63087,0.315438 0.54768,0.136919 1.34495,-0.13692 1.89263,0 0.2281,0.05702 0.40278,0.258414 0.63088,0.315438 0.20401,0.051 0.42058,0 0.63087,0 0.52573,0 1.05146,0 1.57719,0 0.2103,0 0.42687,-0.051 0.63088,0 0.22809,0.05702 0.40278,0.258414 0.63088,0.315438 0.20401,0.051 0.42058,0 0.63087,0 0.73602,0 1.47205,0 2.20807,0 0.84117,0 1.68233,0 2.5235,0 0.31544,0 0.637,0.06186 0.94632,0 0.23054,-0.04611 0.40278,-0.258415 0.63087,-0.315438 0.20401,-0.051 0.42059,0 0.63088,0 0.52573,0 1.06167,0.103104 1.57719,0 0.23054,-0.04611 0.40032,-0.269329 0.63087,-0.315438 0.51552,-0.103105 1.05146,0 1.57719,0 0.21029,0 0.42687,0.051 0.63088,0 1.63793,-0.409484 -0.33675,-0.315438 1.26175,-0.315438 0.52573,0 1.05146,0 1.57719,0 0.21029,0 0.42058,0 0.63088,0 0.10514,0 0.21568,-0.03325 0.31543,0 0.22305,0.07435 0.40783,0.241088 0.63088,0.315438 0.0998,0.03325 0.21029,0 0.31544,0 0.21029,0 0.42058,0 0.63087,0 0.73603,0 1.47205,0 2.20807,0 1.15661,0 2.31321,0 3.46982,0 0.32803,0 1.6445,0.06203 1.89263,0 0.22809,-0.05702 0.40278,-0.258415 0.63087,-0.315438 0.20401,-0.051 0.42059,0 0.63088,0 0.21029,0 0.42058,0 0.63087,0 0.73603,0 1.47205,0 2.20807,0 0.73602,0 1.47204,0 2.20806,0 0.10515,0 0.24109,-0.07435 0.31544,0 0.0743,0.07435 -0.0744,0.241088 0,0.315438 0.0759,0.0759 1.18585,-0.07591 1.26175,0 0.0743,0.07435 -0.0743,0.241088 0,0.315438 0.0127,0.01269 1.14592,0 1.26176,0 0.73602,0 1.47204,0 2.20806,0 0.10515,0 0.24109,-0.07435 0.31544,0 0.0743,0.07435 -0.0744,0.241088 0,0.315438 0.0743,0.07435 0.24109,-0.07435 0.31544,0 0.0744,0.07435 -0.047,0.221392 0,0.315438 0.0665,0.133 0.21029,0.210292 0.31544,0.315437 0.10514,0.105146 0.18243,0.248938 0.31543,0.315438 0.0941,0.04702 0.2214,-0.04702 0.31544,0 0.133,0.0665 0.16674,0.315438 0.31544,0.315438 0.1487,0 0.21029,-0.210292 0.31544,-0.315438"
     id="path6758"
     inkscape:connector-curvature="0" />
  <path
     style="fill:none;fill-rule:evenodd;stroke:#000000;stroke-width:2;stroke-linecap:round;stroke-linejoin:miter;stroke-miterlimit:4;stroke-dasharray:none;stroke-opacity:1"
     d="m 8.2718607,32.824918 c -0.420584,0.210292 -0.885571,0.34874 -1.261752,0.630876 -0.02658,0.01994 -0.02889,0.917429 0,0.946314 0.07435,0.07435 0.241088,-0.07435 0.315438,0 0.07435,0.07435 -0.07435,0.241088 0,0.315438 0.07435,0.07435 0.210292,0 0.315438,0 0.105146,0 0.210292,0 0.315438,0 0.253938,0 1.063766,0.066 1.261752,0 0.210292,-0.105146 0.420583,-0.210292 0.630875,-0.315438 0.105146,0 0.2156883,0.03325 0.3154383,0 0.223049,-0.07435 0.402783,-0.258415 0.630876,-0.315438 0.204014,-0.051 0.426863,0.051 0.630876,0 0.228094,-0.05702 0.407828,-0.241089 0.630876,-0.315438 0.09975,-0.03325 0.215688,0.03325 0.315438,0 2.504348,-0.834783 -1.242596,0.203907 1.261752,-0.630876 0.09975,-0.03325 0.215688,0.03325 0.315438,0 0.223048,-0.07435 0.407828,-0.241088 0.630876,-0.315438 0.09975,-0.03325 0.221393,0.04702 0.315438,0 0.133,-0.0665 0.182438,-0.248938 0.315438,-0.315438 0.09405,-0.04702 0.221392,0.04702 0.315438,0 0.133,-0.0665 0.182438,-0.248938 0.315438,-0.315438 0.09405,-0.04702 0.315438,-0.105146 0.315438,0 0,0.523088 -0.442361,0.22118 -0.630876,0.315438 -0.266001,0.133 -0.383426,0.465909 -0.630876,0.630876 -0.195626,0.130418 -0.43525,0.18502 -0.630876,0.315438 -0.24745,0.164967 -0.34874,0.536831 -0.630876,0.630876 -0.1995,0.0665 -0.431375,-0.0665 -0.630876,0 -0.239351,0.07978 -0.971847,1.116799 -1.261752,1.261752 -0.09405,0.04702 -0.241088,-0.07435 -0.315438,0 -0.07435,0.07435 0.07435,0.241088 0,0.315438 -0.07435,0.07435 -0.315438,0.105146 -0.315438,0 0,-0.105146 0.210292,0 0.315438,0 0.210292,0 0.420584,0 0.630876,0 0.105146,0 0.221393,0.04702 0.315438,0 0.961948,-0.480974 -0.576918,-0.250068 0.946314,-0.630876 0.204013,-0.051 0.426863,0.051 0.630876,0 0.228094,-0.05702 0.420584,-0.210292 0.630876,-0.315438 0.210292,-0.105146 0.420584,-0.210292 0.630876,-0.315438 1.05146,-0.52573 2.10292,-1.05146 3.15438,-1.57719 0.420584,-0.210292 0.815655,-0.482177 1.261752,-0.630876 0.09975,-0.03325 0.215687,0.03325 0.315437,0 0.223049,-0.07435 0.407828,-0.241088 0.630876,-0.315438 0.199501,-0.0665 0.442786,0.09405 0.630876,0 0.133001,-0.0665 0.166739,-0.315438 0.315438,-0.315438 0.105146,0 0.04702,0.221393 0,0.315438 -0.348725,0.697451 -0.195774,0.09789 -0.630876,0.315438 -0.266,0.133 -0.348739,0.536831 -0.630876,0.630876 -0.1995,0.0665 -0.431375,-0.0665 -0.630875,0 -0.141069,0.04702 -0.191713,0.232955 -0.315438,0.315438 -0.195627,0.130418 -0.420584,0.210292 -0.630876,0.315438 -0.210292,0.105146 -0.420584,0.210292 -0.630876,0.315438 -0.105146,0 -0.215688,-0.03325 -0.315438,0 -2.284849,0.761616 0.497322,-0.09094 -0.946314,0.630876 -0.09405,0.04702 -0.221393,-0.04702 -0.315438,0 -0.133,0.0665 -0.182438,0.248938 -0.315438,0.315438 -0.09405,0.04702 -0.241089,-0.07435 -0.315438,0 -0.07435,0.07435 0.07435,0.241088 0,0.315438 -0.07435,0.07435 -0.420584,0 -0.315438,0 0.22551,0 1.731159,0.05382 1.892628,0 0.141068,-0.04702 0.171179,-0.279373 0.315438,-0.315438 0.306019,-0.0765 0.637001,0.06186 0.946314,0 0.230547,-0.04611 0.412578,-0.228119 0.630876,-0.315438 0.308719,-0.123488 0.637594,-0.19195 0.946313,-0.315438 0.218298,-0.08732 0.412579,-0.228119 0.630876,-0.315438 0.918927,-0.367571 1.899835,-0.633278 2.838942,-0.946314 0.315438,-0.105146 0.630876,-0.210292 0.946314,-0.315438 0.315438,-0.105146 0.618337,-0.260775 0.946314,-0.315438 0.311146,-0.05186 0.635168,0.05186 0.946314,0 2.768969,-0.461495 -0.482177,-0.116034 1.57719,-0.630876 0.204013,-0.051 0.426862,0.051 0.630876,0 0.228093,-0.05702 0.402782,-0.258414 0.630876,-0.315438 0.306019,-0.07651 0.630876,0 0.946313,0 0.105146,0 0.221393,-0.04702 0.315438,0 0.44812,0.22406 0.44812,0.722254 0,0.946314 -0.09404,0.04702 -0.221392,-0.04702 -0.315438,0 -0.133,0.0665 -0.210292,0.210292 -0.315437,0.315438 -0.105146,0.105146 -0.210292,0.210292 -0.315438,0.315438 -0.105146,0.105146 -0.17437,0.268415 -0.315438,0.315438 -0.199501,0.0665 -0.426863,-0.051 -0.630876,0 -0.570924,-0.190123 -0.58666,0.510991 -0.946314,0.630876 -1.435964,0 -0.01804,-0.148699 -0.946314,0.315438 -0.09405,0.04702 -0.221393,-0.04702 -0.315438,0 -0.133,0.0665 -0.17437,0.268415 -0.315438,0.315438 -0.199501,0.0665 -0.420584,0 -0.630876,0 -0.105146,0 -0.221393,-0.04702 -0.315438,0 -0.133,0.0665 -0.182438,0.248938 -0.315438,0.315438 -0.09405,0.04702 -0.315438,0.105146 -0.315438,0 0,-0.210292 0.442785,0.09405 0.630876,0 0.779575,-0.389788 -0.108882,-0.315438 0.630876,-0.315438 0.210292,0 0.426863,0.051 0.630876,0 2.059367,-0.514842 -1.19178,-0.169381 1.57719,-0.630876 0.311146,-0.05186 0.635168,0.05186 0.946314,0 0.327976,-0.05466 0.618337,-0.260775 0.946314,-0.315438 0.311146,-0.05186 0.635167,0.05186 0.946313,0 0.655954,-0.109326 1.24054,-0.500458 1.892628,-0.630876 0.50551,-0.101102 1.071681,0.101102 1.57719,0 0.230548,-0.04611 0.407828,-0.241088 0.630876,-0.315438 0.182725,-0.06091 0.988398,0 1.261752,0 0.105146,0 0.210292,0 0.315438,0 0.105146,0 0.315438,-0.105146 0.315438,0 0,0.210292 -0.442785,-0.09404 -0.630876,0 -0.133,0.0665 -0.182438,0.248938 -0.315438,0.315438 -0.09405,0.04702 -0.221393,-0.04702 -0.315438,0 -0.667826,0.333913 0.03695,0.296963 -0.630876,0.630876 -0.09405,0.04702 -0.215688,-0.03325 -0.315438,0 -2.284849,0.761616 0.497322,-0.09094 -0.946314,0.630876 -0.09405,0.04702 -0.215688,-0.03325 -0.315438,0 -0.223048,0.07435 -0.407827,0.241088 -0.630876,0.315438 -0.09975,0.03325 -0.221392,-0.04702 -0.315438,0 -0.133,0.0665 -0.182437,0.248938 -0.315438,0.315438 -0.09405,0.04702 -0.241088,-0.07435 -0.315438,0 -0.07435,0.07435 -0.07435,0.241088 0,0.315438 0.07435,0.07435 0.210292,0 0.315438,0 0.379608,0 0.906459,0.07106 1.261752,0 0.326044,-0.06521 0.62027,-0.250229 0.946314,-0.315438 0.206208,-0.04124 0.423445,0.03457 0.630876,0 0.427629,-0.07127 0.832581,-0.254128 1.261752,-0.315438 0.312268,-0.04461 0.634046,0.04461 0.946314,0 0.429171,-0.06131 0.831571,-0.261666 1.261752,-0.315438 0.417336,-0.05217 0.845395,0.05948 1.261752,0 0.329159,-0.04702 0.617154,-0.268415 0.946313,-0.315438 0.416357,-0.05948 0.844416,0.05217 1.261752,0 0.430181,-0.05377 0.832581,-0.254128 1.261748,-0.315438 0.31227,-0.04461 0.63517,0.05186 0.94632,0 0.32797,-0.05466 0.62027,-0.250229 0.94631,-0.315438 0.35576,-0.07115 1.16438,0 1.57719,0 0.10515,0 0.21029,0 0.31544,0 0.10515,0 0.31544,-0.105146 0.31544,0 0,0.210292 -0.44279,-0.09405 -0.63088,0 -0.133,0.0665 -0.18244,0.248938 -0.31544,0.315438 -0.18809,0.09405 -0.44278,-0.09405 -0.63087,0 -0.133,0.0665 -0.18244,0.248938 -0.31544,0.315438 -0.0941,0.04702 -0.21569,-0.03325 -0.31544,0 -0.22305,0.07435 -0.40783,0.241089 -0.63087,0.315438 -0.1995,0.0665 -0.44279,-0.09405 -0.63088,0 -0.133,0.0665 -0.18244,0.248938 -0.31544,0.315438 -0.094,0.04702 -0.22139,-0.04702 -0.31544,0 -0.133,0.0665 -0.18243,0.248938 -0.315434,0.315438 -0.09405,0.04702 -0.241088,-0.07435 -0.315438,0 -0.07435,0.07435 0.07435,0.241088 0,0.315438 -0.07435,0.07435 -0.315438,0.105146 -0.315438,0 0,-0.105146 0.241089,-0.07435 0.315438,0 0.07435,0.07435 -0.07435,0.241088 0,0.315438 0.07435,0.07435 0.210292,0 0.315438,0 0.105144,0 0.210294,0 0.315434,0 0.52573,0 1.05146,0 1.57719,0 0.2103,0 0.42467,0.04124 0.63088,0 0.32604,-0.06521 0.61834,-0.260775 0.94631,-0.315438 0.31115,-0.05186 0.63517,0.05186 0.94632,0 0.65595,-0.109326 1.23667,-0.52155 1.89263,-0.630876 0.31114,-0.05186 0.63404,0.04461 0.94631,0 0.42917,-0.06131 0.83258,-0.254128 1.26175,-0.315438 0.31227,-0.04461 0.63517,0.05186 0.94632,0 0.32797,-0.05466 0.61833,-0.260775 0.94631,-0.315438 0.31115,-0.05186 0.637,0.06186 0.94631,0 0.23055,-0.04611 0.40033,-0.269328 0.63088,-0.315438 0.31612,-0.06322 1.48188,0 1.89263,0 0.10514,0 0.24109,-0.07435 0.31543,0 0.21756,0.217551 -0.23331,0.589814 -0.31543,0.630876 -0.094,0.04702 -0.2214,-0.04702 -0.31544,0 -0.133,0.0665 -0.17437,0.268415 -0.31544,0.315438 -2.09235,0 0.4461,-0.148699 -0.94631,0.315438 -0.399,0.133 -0.85373,-0.102007 -1.26175,0 -1.63794,0.409483 0.33674,0.315438 -1.26176,0.315438 -0.10514,0 -0.22139,-0.04702 -0.31543,0 -0.77958,0.389787 0.10888,0.315438 -0.63088,0.315438 -0.10515,0 -0.31544,0.105146 -0.31544,0 0,-0.0076 2.16522,0.01071 2.20807,0 0.22809,-0.05702 0.40033,-0.269329 0.63087,-0.315438 0.30932,-0.06186 0.63517,0.05186 0.94632,0 0.32797,-0.05466 0.61833,-0.260775 0.94631,-0.315438 0.31115,-0.05186 0.63517,0.05186 0.94631,0 0.32798,-0.05466 0.61834,-0.260775 0.94632,-0.315438 0.62229,-0.103715 1.274,0.123725 1.89263,0 0.23054,-0.04611 0.40278,-0.258415 0.63087,-0.315438 0.20402,-0.051 0.42059,0 0.63088,0 0.52573,0 1.05146,0 1.57719,0 0.31544,0 0.63087,0 0.94631,0 0.10515,0 0.31544,-0.105146 0.31544,0 0,0.210292 -0.44278,-0.09405 -0.63088,0 -0.133,0.0665 -0.18243,0.248938 -0.31543,0.315438 -0.0941,0.04702 -0.24109,-0.07435 -0.31544,0 -0.0743,0.07435 -0.0743,0.241088 0,0.315438 0.0744,0.07435 0.21029,0 0.31544,0 0.42058,0 0.84116,0 1.26175,0 0.41281,0 1.22143,0.07115 1.57719,0 0.32604,-0.06521 0.62027,-0.250229 0.94631,-0.315438 0.51552,-0.103104 1.05861,0.08643 1.57719,0 0.32798,-0.05466 0.61834,-0.260775 0.94632,-0.315438 0.726,-0.121001 1.47944,0.104089 2.20806,0 0.32916,-0.04702 0.61834,-0.260775 0.94632,-0.315438 0.31114,-0.05186 0.63516,0.05186 0.94631,0 0.32798,-0.05466 0.61834,-0.260775 0.94631,-0.315438 0.51858,-0.08643 1.06167,0.103104 1.57719,0 1.90969,-0.381938 0.1307,-0.315438 1.57719,-0.315438 0.21029,0 0.42059,0 0.63088,0 0.10514,0 0.22139,0.04702 0.31544,0 0.133,-0.0665 0.18243,-0.248938 0.31543,-0.315438 0.0941,-0.04702 0.31544,-0.105146 0.31544,0 0,0.105146 -0.24109,-0.07435 -0.31544,0 -0.0743,0.07435 0.0744,0.241089 0,0.315438 -0.14869,0.148699 -0.44278,-0.09405 -0.63087,0 -0.133,0.0665 -0.18244,0.248938 -0.31544,0.315438 -0.18809,0.09405 -0.44278,-0.09405 -0.63088,0 -0.133,0.0665 -0.17436,0.268415 -0.31543,0.315438 -0.1995,0.0665 -0.43138,-0.0665 -0.63088,0 -0.14107,0.04702 -0.31544,0.166739 -0.31544,0.315438 0,0.105146 0.2214,-0.04702 0.31544,0 0.133,0.0665 0.16674,0.315438 0.31544,0.315438 0.1487,0 0.17437,-0.268415 0.31544,-0.315438 0.31969,-0.106565 1.49055,0.08041 1.89262,0 2.25656,-0.752186 -0.34529,0.0043 1.89263,-0.315438 0.42917,-0.06131 0.83258,-0.254128 1.26175,-0.315438 0.31227,-0.04461 0.63405,0.04461 0.94632,0 0.42917,-0.06131 0.83157,-0.261665 1.26175,-0.315438 0.41734,-0.05217 0.84442,0.05217 1.26175,0 0.43018,-0.05377 0.83258,-0.254128 1.26175,-0.315438 0.31227,-0.04461 0.63088,0 0.94632,0 0.63087,0 1.26175,0 1.89263,0 0.17606,0 1.43279,-0.04813 1.57719,0 0.14106,0.04702 0.24893,0.182438 0.31543,0.315438 0.13053,0.261061 -0.11025,0.528281 -0.31543,0.630876 -0.0941,0.04702 -0.2214,-0.04702 -0.31544,0 -0.133,0.0665 -0.18244,0.248938 -0.31544,0.315438 -0.33758,0.168791 -0.29329,-0.168791 -0.63088,0 -0.133,0.0665 -0.18243,0.248938 -0.31543,0.315438 -0.0941,0.04702 -0.21569,-0.03325 -0.31544,0 -0.22305,0.07435 -0.40783,0.241088 -0.63088,0.315438 -0.0564,0.01881 -1.07847,-0.132156 -0.63087,0.315438 0.0743,0.07435 0.21029,0 0.31543,0 0.3617,0 0.935,0.08169 1.26176,0 0.22809,-0.05702 0.40032,-0.269329 0.63087,-0.315438 0.61863,-0.123725 1.27034,0.103715 1.89263,0 0.32798,-0.05466 0.61834,-0.260775 0.94631,-0.315438 0.31115,-0.05186 0.63405,0.04461 0.94632,0 0.42917,-0.06131 0.83258,-0.254128 1.26175,-0.315438 0.31227,-0.04461 0.63517,0.05186 0.94631,0 0.32798,-0.05466 0.61834,-0.260775 0.94632,-0.315438 0.31114,-0.05186 0.63087,0 0.94631,0 0.31544,-0.105146 0.62027,-0.250229 0.94631,-0.315438 0.25824,-0.05165 1.415369,0.08091 1.577189,0 0.133,-0.0665 0.18244,-0.248938 0.31544,-0.315438 0.094,-0.04702 0.31544,-0.105146 0.31544,0 0,0.210292 -0.44278,-0.09405 -0.63088,0 -0.133,0.0665 -0.18243,0.248938 -0.31543,0.315438 -0.094,0.04702 -0.2214,-0.04702 -0.31544,0 -0.132999,0.0665 -0.174369,0.268415 -0.315439,0.315438 -0.1995,0.0665 -0.42058,0 -0.63088,0 -0.10514,0 -0.22139,-0.04702 -0.31543,0 -0.133,0.0665 -0.18244,0.248938 -0.31544,0.315438 -0.0941,0.04702 -0.21029,0 -0.31544,0 -0.21029,0.105146 -0.43525,0.18502 -0.63088,0.315438 -0.0739,0.04927 -0.53879,0.407518 -0.31543,0.630876 0.0744,0.07435 0.21029,0 0.31543,0 0.73603,0 1.47205,0 2.20807,0 1.446499,0 -0.3325,0.0665 1.577189,-0.315438 0.20621,-0.04124 0.42467,0.04124 0.63088,0 0.32604,-0.06521 0.61833,-0.260775 0.94631,-0.315438 0.31115,-0.05186 0.63517,0.05186 0.94631,0 0.32798,-0.05466 0.62027,-0.250229 0.94632,-0.315438 0.20621,-0.04124 0.42467,0.04124 0.63087,0 0.32605,-0.06521 0.62027,-0.250229 0.94632,-0.315438 0.20621,-0.04124 0.42686,0.051 0.63087,0 0.2281,-0.05702 0.40279,-0.258415 0.63088,-0.315438 0.24813,-0.06203 1.5646,0 1.89263,0 0.43282,0 1.02123,-0.165598 1.26175,0.315438 0.13053,0.261061 -0.11025,0.528281 -0.31544,0.630876 -0.094,0.04702 -0.22139,-0.04702 -0.31544,0 -0.133,0.0665 -0.18243,0.248938 -0.31543,0.315438 -0.0941,0.04702 -0.21569,-0.03325 -0.31544,0 -0.22305,0.07435 -0.40783,0.241088 -0.63088,0.315438 -0.0998,0.03325 -0.21569,-0.03325 -0.31544,0 -1.08738,0.362461 -0.23366,0.315438 -0.94631,0.315438 -0.10515,0 -0.22139,-0.04702 -0.31544,0 -0.0821,0.04106 -0.53299,0.413325 -0.31544,0.630876 0.0744,0.07435 0.2103,0 0.31544,0 0.52573,0 1.05146,0 1.57719,0 0.84117,0 1.68234,0 2.52351,0 0.31543,0 0.63404,0.04461 0.94631,0 0.42917,-0.06131 0.83258,-0.254128 1.26175,-0.315438 0.31227,-0.04461 0.63405,0.04461 0.94632,0 0.79871,0.02987 1.453,-0.505033 2.20806,-0.630876 2.96941,-0.494901 -1.54435,0.756681 2.20807,-0.315438 0.63941,-0.18269 1.23667,-0.52155 1.89262,-0.630876 0.31115,-0.05186 0.63701,0.06186 0.94632,0 0.46109,-0.09222 0.80556,-0.516829 1.26175,-0.630876 0.20401,-0.051 0.42058,0 0.63088,0 0.42105,0 0.20982,0 0.63087,0 0.10515,0 0.31544,-0.105146 0.31544,0 0,0.105146 -0.22139,-0.04702 -0.31544,0 -0.133,0.0665 -0.21029,0.210292 -0.31544,0.315438 -0.73975,0.739758 0.22305,-0.07435 -0.94631,0.315438 -0.14107,0.04702 -0.18244,0.248938 -0.31544,0.315438 -0.094,0.04702 -0.21029,0 -0.31544,0 -0.21029,0 -0.42686,-0.051 -0.63087,0 -0.2281,0.05702 -0.40783,0.241088 -0.63088,0.315438 -0.0998,0.03325 -0.21569,-0.03325 -0.31544,0 -0.22304,0.07435 -0.40782,0.241088 -0.63087,0.315438 -0.0998,0.03325 -0.22139,-0.04702 -0.31544,0 -0.133,0.0665 -0.18244,0.248938 -0.31544,0.315438 -0.094,0.04702 -0.24109,-0.07435 -0.31544,0 -0.43295,0.432954 0.55666,0.315438 0.63088,0.315438 0.21029,0 0.43138,0.0665 0.63088,0 0.22304,-0.07435 0.40278,-0.258415 0.63087,-0.315438 2.24693,-0.561732 -1.59809,0.954676 1.57719,-0.315438 0.2183,-0.08732 0.41258,-0.228119 0.63088,-0.315438 0.79329,-0.317317 2.34849,-0.831188 3.15438,-0.946314 0.31227,-0.04461 0.63517,0.05186 0.94631,0 0.32798,-0.05466 0.63088,-0.210292 0.94632,-0.315438 0.31543,-0.105146 0.63759,-0.19195 0.94631,-0.315438 0.2183,-0.08732 0.41258,-0.228119 0.63088,-0.315438 3.17528,-1.270114 -0.66974,0.246294 1.57719,-0.315438 0.22809,-0.05702 0.40278,-0.258414 0.63087,-0.315438 0.20401,-0.051 0.42059,0 0.63088,0 0.10514,0 0.22139,0.04702 0.31544,0 0.0821,-0.04106 0.38429,-0.562024 0.63087,-0.315438 0.0744,0.07435 0.0744,0.241089 0,0.315438 -0.0743,0.07435 -0.22139,-0.04702 -0.31544,0 -0.133,0.0665 -0.18243,0.248938 -0.31543,0.315438 -0.0941,0.04702 -0.2214,-0.04702 -0.31544,0 -0.133,0.0665 -0.21029,0.210292 -0.31544,0.315438 -0.36091,0.360909 -0.37341,0.439907 -0.94631,0.630876 -0.93901,0.313002 0.64721,-0.746916 -0.94632,0.315438 -0.57717,0.384779 -0.0315,0.402165 -0.94631,0.630876 -0.20402,0.051 -0.43138,-0.0665 -0.63088,0 -0.28213,0.09405 -0.34874,0.53683 -0.63087,0.630876 -0.1995,0.0665 -0.43138,-0.0665 -0.63088,0 -0.14107,0.04702 -0.21029,0.210292 -0.31544,0.315438 -0.10514,0.105146 -0.31544,0.166739 -0.31544,0.315438 0,0.105146 0.2103,0 0.31544,0 0.42059,0 0.84117,0 1.26175,0 0.2103,0 0.42345,0.03457 0.63088,0 1.18333,-0.197222 1.15802,-0.330863 2.20807,-0.630876 1.34951,-0.385577 2.7393,-0.605967 4.10069,-0.946314 0.42058,-0.105146 0.85583,-0.163216 1.26175,-0.315438 4.70417,-1.764065 -2.01069,0.349171 2.5235,-0.946314 0.63942,-0.18269 1.27519,-0.3839 1.89263,-0.630876 0.2183,-0.08732 0.40278,-0.258414 0.63088,-0.315438 0.20401,-0.051 0.43137,0.0665 0.63087,0 1.16937,-0.389787 -0.3845,-0.315438 0.63088,-0.315438 0.10515,0 0.31544,-0.105146 0.31544,0 0,0.523088 -0.44236,0.22118 -0.63088,0.315438 -0.133,0.0665 -0.18244,0.248938 -0.31544,0.315438 -0.094,0.04702 -0.22139,-0.04702 -0.31543,0 -0.266,0.133 -0.38343,0.465909 -0.63088,0.630876 -1.59353,1.062354 -0.007,0.0024 -0.94631,0.315438 -2.28485,0.761616 0.49732,-0.09094 -0.94632,0.630876 -0.094,0.04702 -0.22139,-0.04702 -0.31544,0 -0.133,0.0665 -0.18243,0.248938 -0.31543,0.315438 -0.094,0.04702 -0.2214,-0.04702 -0.31544,0 -0.133,0.0665 -0.18244,0.248938 -0.31544,0.315438 -0.094,0.04702 -0.24109,-0.07435 -0.31544,0 -0.0744,0.07435 0.0744,0.241088 0,0.315438 -0.0744,0.07435 -0.24109,-0.07435 -0.31544,0 -0.0743,0.07435 -0.0743,0.241088 0,0.315438 0.0743,0.07435 0.2103,0 0.31544,0 0.10515,0 0.2214,0.04702 0.31544,0 0.133,-0.0665 0.18244,-0.248938 0.31544,-0.315438 0.094,-0.04702 0.21029,0 0.31544,0 0.21029,0 0.42686,0.051 0.63087,0 0.2281,-0.05702 0.40033,-0.269329 0.63088,-0.315438 0.30931,-0.06186 0.637,0.06186 0.94631,0 0.23055,-0.04611 0.41258,-0.228119 0.63088,-0.315438 0.30872,-0.123488 0.63759,-0.19195 0.94631,-0.315438 0.73549,-0.294195 0.68047,-0.481422 1.57719,-0.630876 0.31115,-0.05186 0.637,0.06186 0.94632,0 0.23054,-0.04611 0.42058,-0.210292 0.63087,-0.315438 0.31544,-0.105146 0.62027,-0.250229 0.94632,-0.315438 0.2062,-0.04124 0.42686,0.051 0.63087,0 0.45619,-0.114047 0.81566,-0.482177 1.26175,-0.630876 0.0998,-0.03325 0.21569,0.03325 0.31544,0 1.08738,-0.362461 0.23367,-0.315438 0.94632,-0.315438 0.10514,0 0.31543,-0.105146 0.31543,0 0,0.105146 -0.24108,-0.07435 -0.31543,0 -0.0744,0.07435 0.047,0.221393 0,0.315438 -0.0665,0.133 -0.2103,0.210292 -0.31544,0.315438 -0.10515,0.105146 -0.18244,0.248938 -0.31544,0.315438 -0.0941,0.04702 -0.21029,0 -0.31544,0 -0.21029,0.105146 -0.43525,0.185021 -0.63087,0.315438 -0.57717,0.384779 -0.0315,0.402165 -0.94632,0.630876 -0.20401,0.051 -0.43137,-0.0665 -0.63087,0 -0.28214,0.09405 -0.38343,0.465909 -0.63088,0.630876 -0.21029,0.105146 -0.42058,0.210292 -0.63088,0.315438 -0.10514,0 -0.22139,-0.04702 -0.31543,0 -0.133,0.0665 -0.18244,0.248938 -0.31544,0.315438 -0.0941,0.04702 -0.24109,-0.07435 -0.31544,0 -0.65265,0.652652 0.99734,-0.02551 -0.31544,0.630876 -0.094,0.04702 -0.24109,-0.07435 -0.31544,0 -0.0743,0.07435 -0.0743,0.241088 0,0.315438 0.0744,0.07435 0.2103,0 0.31544,0 0.52573,0 1.05146,0 1.57719,0 0.31544,0 0.63517,0.05186 0.94632,0 0.65595,-0.109326 1.23667,-0.521551 1.89262,-0.630876 0.31115,-0.05186 0.63405,0.04461 0.94632,0 0.98611,-0.140873 1.30928,-0.37408 2.20806,-0.630876 0.8337,-0.238199 1.68981,-0.392677 2.52351,-0.630876 0.95501,-0.272861 1.89658,-0.632194 2.83894,-0.946314 0.31544,-0.105146 0.62027,-0.250229 0.94631,-0.315438 0.20621,-0.04124 0.42687,0.051 0.63088,0 0.22809,-0.05702 0.40783,-0.241088 0.63087,-0.315438 0.19951,-0.0665 0.44279,0.09405 0.63088,0 0.133,-0.0665 0.16674,-0.315438 0.31544,-0.315438 0.10514,0 0.0744,0.241089 0,0.315438 -0.0743,0.07435 -0.22139,-0.04702 -0.31544,0 -0.133,0.0665 -0.18244,0.248938 -0.31544,0.315438 -0.094,0.04702 -0.22139,-0.04702 -0.31544,0 -0.16847,0.08423 -0.78024,0.780247 -0.94631,0.946314 -0.36091,0.360909 -0.37341,0.439907 -0.94631,0.630876 -0.0998,0.03325 -0.2214,-0.04702 -0.31544,0 -1.31278,0.656389 0.33721,-0.02178 -0.31544,0.630876 -0.65265,0.652652 0.0255,-0.997339 -0.63087,0.315438 -0.047,0.09405 0.0743,0.241088 0,0.315438 -0.0744,0.07435 -0.31544,0.105146 -0.31544,0 0,-0.105146 0.21029,0 0.31544,0 0.10514,0 0.21029,0 0.31543,0 0.10515,0 0.2103,0 0.31544,0 0.10515,0 0.22139,0.04702 0.31544,0 0.133,-0.0665 0.17437,-0.268415 0.31544,-0.315438 0.1995,-0.0665 0.42686,0.051 0.63087,0 0.2281,-0.05702 0.41258,-0.228119 0.63088,-0.315438 0.30872,-0.123488 0.63759,-0.19195 0.94631,-0.315438 0.2183,-0.08732 0.41258,-0.228119 0.63088,-0.315438 0.30872,-0.123488 0.63759,-0.19195 0.94631,-0.315438 0.2183,-0.08732 0.42059,-0.210292 0.63088,-0.315438 0.21029,-0.105146 0.41258,-0.228119 0.63087,-0.315438 3.17529,-1.270114 -0.66973,0.246294 1.57719,-0.315438 1.52324,-0.380808 -0.0156,-0.149902 0.94632,-0.630876 0.094,-0.04702 0.21029,0 0.31544,0 0.10514,0 0.21029,0 0.31543,0 0.10515,0 0.31544,-0.105146 0.31544,0 0,0.148699 -0.21029,0.210292 -0.31544,0.315438 -0.10514,0.105146 -0.21029,0.210292 -0.31543,0.315438 -0.24639,0.246384 -0.67413,0.764853 -0.94632,0.946314 -0.72528,0.483525 -0.8519,0.147351 -1.57719,0.630876 -0.28715,0.191432 -0.66673,0.806522 -0.94631,0.946314 -0.094,0.04702 -0.22139,-0.04702 -0.31544,0 -0.133,0.0665 -0.18244,0.248938 -0.31544,0.315438 -0.094,0.04702 -0.24109,-0.07435 -0.31544,0 -0.0743,0.07435 -0.0743,0.241088 0,0.315438 0.0743,0.07435 0.2103,0 0.31544,0 0.10515,0 0.2214,0.04702 0.31544,0 0.133,-0.0665 0.17437,-0.268415 0.31544,-0.315438 0.1995,-0.0665 0.42686,0.051 0.63087,0 0.2281,-0.05702 0.40279,-0.258415 0.63088,-0.315438 0.20401,-0.051 0.42686,0.051 0.63088,0 0.22809,-0.05702 0.41257,-0.228119 0.63087,-0.315438 1.94894,-0.779575 0.0977,0.108882 1.57719,-0.630876 0.21029,-0.105146 0.40033,-0.269328 0.63088,-0.315438 1.25028,-0.250055 0.61286,0.327448 1.57719,-0.315438 1.47951,-0.986344 -1.26923,0.423075 0.94631,-0.315438 0.0924,-0.0308 0.37703,-0.569283 0.63088,-0.315438 0.0744,0.07435 0,0.210292 0,0.315438 0,0.105146 0.0744,0.241089 0,0.315438 -0.0744,0.07435 -0.24109,-0.07435 -0.31544,0 -0.14019,0.140195 0.24534,0.595827 -0.31544,0.315438 -0.133,-0.0665 -0.21029,-0.210292 -0.31544,-0.315438 -0.10514,-0.105146 -0.21029,-0.210292 -0.31543,-0.315438"
     id="path6760"
     inkscape:connector-curvature="0" />
</svg>
