<svg xmlns="http://www.w3.org/2000/svg" width="156.412" height="219.8" viewBox="0 0 146.636 206.062"><path d="M187.857 405.576c.219 9.77-.578 19.962.714 29.286.433 2.451-.718 7.937 0 9.286v-.357M235.357 409.148c.539 7.325.317 14.967.357 22.5.339 2.837-.232 6.473 0 9.661.285.577-1.471 6.155-.357 4.267M271.429 412.005c.733 6.71.19 13.577.357 20.357-.981 4.008.28 9.292-.715 12.857-.133.712-.014 3.407.358 1.786M316.429 410.934c-1.598.847.081 5.354-1.072 7.5.217 4.793.46 9.21 0 13.937-.167 3.361-.391 6.703-.714 9.711v.28M190.357 401.648c4.204-.702 9.688-.186 14.643-1.429 6.078-.646 12.574-.413 18.571 0 2.7.621 5.611.726 8.572.715.11 1.006 2.772-.039 0 .357M275.357 403.434c5.49-.614 10.852-1.106 16.429-1.072 5.04 1.948 10.045-1.013 15.366-.714 1.979-.11 5.465-.202 5.705 1.071M191.429 398.076c-.275-3.452 3.716-2.292 6.071-1.785 5.138-.275 9.974.868 15 0 3.62.506 7.472-.283 11.429 0 2.937-.298 5.363-.626 8.214-.715 2.242.072 2.887 4.098 1.071 2.5M275 400.934c1.755-3.802 8.982-.386 13.223-1.786 5.86-.234 12.036 1.219 17.491-.357 2.027-.223 5.801-3.191 6.786-.357.91.457 1.534.986-.357.714M192.857 393.076c-1.414-4.429 3.736-1.611 6.582-2.142 4.547.059 9.27-.309 13.418.714 3.84-.726 8.232-1.785 12.51-1.786 2.834.235 5.526-.792 6.1.913.247.445 1.395.888.676 1.23M275.357 395.934c2.081-3.696 7.44.44 11.872-.715 4.228.54 8.072 1.657 12.559.715 3.634.23 6.178-.63 8.783-1.429 2.335-1.725 4.733 2.567 2.5 1.429M199.643 447.72c.722-4.418.1-8.994.714-13.292-.698-2.722.6-5.636-.357-8.137-.725-2.595-.59-6.46-1.429-8.861.252-2.576 1.373-4.547 2.5-6.854 1.258-1.48 2.795-2.89 5.358-2.857 1.68.669 3.692 2.455 3.928 5 1.268 2.708.574 7.211 1.072 10.58-.553 3.897-.31 8.59-.358 12.992-.796 3.816-.225 8.293 0 12.143-.27-.51.593-.568.358-1.072M215 447.72c-.451-3.96.183-8.14.357-12.144 1.552-5.659.149-11.307-.357-16.785-.84-2.215-.35-6.602 1.071-7.857.231-2.002 2.113-4.051 4.643-2.5.943.8 2.885 2.38 3.572 4.285 1.735 3.015.475 6.474.714 10.29.015 5.878.185 11.843-.714 17.355-.21 2.388-.196 8.8-.344 8.395l.344-.325" style="fill:none;fill-rule:evenodd;stroke:#00f;stroke-width:2;stroke-linecap:round;stroke-linejoin:miter;stroke-miterlimit:4;stroke-dasharray:none;stroke-opacity:1" transform="translate(-177.791 -385.746)"/><path d="M203.571 415.22c-4.115 1.824 4.509-4.046.03-.065-3.422 6.184.414-.191 1.452-.043 2.158-.105 1.43.412-.767 3.679-2.456 3.182-.844 1.944 1.822.025 3.2-2.91-1.473 3.295-2.894 4.618-2.93 5.062 4.011-1.8 5.715-2.857 1.816.274-10.18 9.758-4.286 5.714 5.769-4.373 5.831-1.95 1.428 2.5-4.348 3.6-3.446 6.021 1.072 1.428 6.675-4.97-5.249 5.447-3.859 6.73 2.273-1.22 7.084-6.301 3.145-.658-1.25 1.525-5.719 8.512-1.786 4.286 6.163-5.465-.783 3.155-1.429 5.357.322.54 5.753-5.023 5-2.143-2.746 3.592-1.986 3.505 0 2.143-1.412.899-2.662 4.133 0 1.071M220 415.22c-3.944 1.797.97-3.64-.341.74-3.311 2.771-3.094 6.031.336 2.121 4.306-3.892-2.618 5.091-3.566 6.781.566 1.556 6.79-4.584 8.928-5.714-2.686 2.64-5.663 5.898-6.786 8.928.676-.493 8.412-7.616 5-3.928-2.05 3.095-4.092 5.325-5.357 8.214.714.23 5.767-6.001 3.929-3.214.466-.669-7.18 8.993-2.143 5.357 2.691-2.86 6.154-4.795 2.089-.965-2.127 2.837-6.81 8.224-1.018 3.465 5.204-3.904-1.778 3.793-3.212 6.426-1.58 3.26 2.835-1.038 3.927-1.783 1.502-.99-7.953 9.475-1.666 3.875 3.875-2.457.34 1.795-.477 3.268-.376.472-.516 1.715 0 1.428M279.286 447.005c-1.966-3.205-.1-7.43-.715-11.302.156-4.253-.953-7.982-.714-12.27-.378-3.534-.71-8.847 1.429-11.07.817-1.914 4.55-4.64 5.714-4.287 2.833.488 4.079 3.991 4.286 6.786-.493 3.276.088 6.328 0 10 .26 4.115-.724 7.134-1.072 11.072-.071 2.947.14 6.69-.1 9.163-.267 1.596-1.264 7.483 1.886 2.98M292.5 448.79c-1.396-4.136.019-8.353-.357-12.789.243-3.2.24-5.628 0-9.005-.437-3.323-.01-8.48 0-10.705.323-2.475.955-5.681 2.857-6.429 1.246-1.694 5.011-1.87 6.071.357 1.279 3.403 3.022 5.757 2.143 9.643.225 4.597-.85 8.655-.714 13.214-1.566 4.29-.09 9.776-1.071 14.286.476-.182-.767 3.827 1.071.714" style="fill:none;fill-rule:evenodd;stroke:#00f;stroke-width:2;stroke-linecap:round;stroke-linejoin:miter;stroke-miterlimit:4;stroke-dasharray:none;stroke-opacity:1" transform="translate(-177.791 -385.746)"/><path d="M282.143 415.576c5.262-6.47.006.298-2.143 3.215.604-1.57 4.438-4.678 5-2.857-1.461 2.991-6.479 8.8 0 2.857 3.187-1.92-2.982 4.277-3.515 5.644 2.112.23 9.43-6.84 2.8-1.359-3.94 3.57-3.62 5.664.715 2.143 3.546-2.628-2.146 3.979-3.214 5.357-2.766 3.63 3.427-3.14 5-2.857-1.603 2.426-3.896 5.789-5.625 7.322 2.442-2.2 7.36-5.213 2.768.178-1.203 2.373-5.142 5.625-.358 2.143 5.86-4.23-.041 1.577-1.785 3.929-3.781 5.486 8.535-6.214 2.857.357-2.585 3.07-4.285 5.803-.714 2.857 4.481-3.25-1.782 3.945-.358 3.571 1.134-.529 1.245-1.047 1.786-2.5M296.429 414.862c-2.564 5.085-2.876 5.795 1.785 1.429 1.677-1.751-4.45 5.72-4.285 6.785 3.16-2.744 9.553-6.471 3.571-.714-2.845 3.892-4.469 5.692.714 1.429 5.57-5.217-.707 1.603-2.5 3.571-1.858 3.446 6.216-4.354 5.795-3.21-1.759.953-6.724 6.88-5.438 6.067 3.407-1.653 6.436-4.665 1.874.285-4.16 5.597-.066 1.658 2.412.787-1.527 2.178-10.307 10.822-3.214 6.071 5.252-3.908 1.891-1.532-1.065 1.422-2.393 3.259 1.633.637 3.208-.708 1.156-.618-4.994 7.386-3.572 6.43 1.511-1.02 4.989-4.54 2.145-1.075-3.926 3.258-2.71 4.504 1.07 1.074 2.63-.885-5.647 6.024-1.072 5 3.119-1.525-2.131 3.806.714 1.071M310 408.434c-.397 3.722-.657 8.114-.714 12.296.6 3.766-.277 7.416 0 11.438v13.766c-.303-.813.709-.05.357-.715M192.857 408.79c-.757 5.637-.173 11.437-.357 17.144.81 5.55.136 11.452.357 17.142v-.357h.357M186.071 452.005c3.587-.323 6.772-.773 10.358-.714l.357-.357v.357M227.5 451.648c.34-.534 11.277-1.207 6.786-.357M272.857 452.72c1.415.165 8.136-1.119 7.143-.715M308.929 452.005c3.022.835 9.5-.96 8.571 0M237.143 455.934c6.066-.09 11.842-1.415 18.01-1.072 4.78-.04 8.8.177 13.418 0 1.151.71-.84.203-1.071.357M197.143 455.22c4.277-.052 7.982.395 12.143 0 4.513-.009 9.34-.08 13.321.262-.975-.903.048.206.25.094M282.143 454.862c4.03.247 8.624-.227 12.866-.357 3.042-.332 6.343-.644 9.277 0 .096-1.108 3.45 1.505 1.071 0M187.143 457.005a67 67 0 0 1 0 11.506c-.137 2.659.155 6.789.357 8.137M182.857 463.434c.645 4.738.812 9.437.714 14.285 1.246.855-.716 4.854.358 2.857M227.143 458.79c.245 6.488-.59 12.8-.357 19.286-.786.557.64.802.714 0M233.214 458.076c-.863 6.298.13 13.508-.714 20l.43-.053.284-.304M193.929 458.79c-.915 4.783-.925 9.831-.358 14.644-.576.095-.687 4.355 0 3.214M273.214 458.79c-.878 5.764-.707 11.602-.714 17.5.748.635.32.089.714-.356M279.286 457.362c-1.477 3.903-.2 8.456-1.072 12.5v7.5c.575-.168.288-.694.357-1.071M310.714 460.22c-1.243 1.905-.499 5.566-.714 8.367v9.132h.357M316.429 457.72c-1.76 6.378-.665 13.202-1.786 19.285v2.857M320.714 460.576c-.857 3.588-.904 7.641-1.071 11.506.068 2.494-.232 5.153.357 7.423M186.071 481.29c2.872 1.324 6.091-.626 8.929.715M198.571 484.505c4.266.746 8.489-.379 12.858 0 3.753-.622 7.78-.406 11.428-1.071h.357M226.786 480.934c2.122-.517 6.28-1.292 6.428-.715M235 483.79c5.425-1.562 11.663-.087 17.143-1.07 5.411.856 12.063-.157 17.143.714M272.5 481.29c3.11.183 5.79-.596 8.929-.356M280.357 484.862c5.533-1.008 11.364.837 16.786-.357 3.055.418 6.51-.392 8.928.357.293-.106 4.215-.56 1.429-.357M309.643 482.005c4.641-1.016 6.606.225 9.286.357M317.5 485.22h1.786M197.857 477.362c-.203-4.284-.395-8.52-.357-13.079.127-1.351 2.092-5.14 2.857-3.35 1.404 1.817 3.22 3.798 2.857 6.786 1.193 3.925 1.106 8.34 1.786 12.5-.189-1.166.283-2.122.357-3.214M208.214 478.076c-.065-4.554.046-9.783 0-14.642 1.208-.995 1.344-4.218 3.966-3.24 1.533 2.847 2.048 6.866 2.82 9.813-.166 3.027.374 6.347-.357 9.14 1 .313-.192-1.267.714-1.428M217.857 477.005c.208-4.435-.435-9.72.357-13.571 1.39-1.329 2.201-2.35 3.572-.358.405 4.88.393 9.937.357 15 .29.186.648 1.364.714.358M238.929 478.79c.006-4.457 1.335-8.396 1.814-12.784-.263-2.77 1.678-4.548 3.566-4.018.67 5.33.364 11.453-.023 16.803.592 2.106-.013 2.126.714 0M247.5 477.362c-.206-4.644.867-8.868 2.143-12.857a4.184 4.184 0 0 1 6.071-2.143c.21 4.3-.332 8.302-.357 12.5.202.163-.3 6.684.357 2.857M258.571 478.434c-.22-4.92.3-9.723 1.786-13.929.001-4.38 3.256-2.421 3.214 1.071-.211 4.54 1.489 8.635.291 13.093l.424.122M282.143 477.72c-.323-3.216-.148-8.348.357-12.144.148-2.82 4.74-4.26 4.286-.357 1.834 3.882 1.392 8.662 1.428 13.215v-.358h.357M290.357 477.72c-.219-4.57 1.193-8.903 1.786-13.215 2.192-3.08 3.357.246 3.571 2.857.76 3.904.17 8.36.357 12.5.535-.102.462-1.019.715-1.428M299.643 477.72c1.387-3.963.645-11.002 3.214-13.215 3.417-1.928 2.27 7.507 3.214 10.357.544 1.182.655 4.538 0 5.357M301.786 393.434c2.196.552 2.265-4.697 3.214-5.358-.984 4.04 1.854 2.18 2.143 4.643 0 1.749 0 .378 0 0M240.714 452.005c3.512.336 7.395-.035 11.075-.383 3.742 2.014 11.66-2.476 12.51.388l.344-.362M227.143 447.72c2.158-.252 4.301 1.038 6.071-.358M187.857 448.076h8.214M200 451.29c7.03.6 14.276.28 21.429.358l.374.344.34.013M272.857 448.79c1.892-.596 6.757 1.171 6.786 0" style="fill:none;fill-rule:evenodd;stroke:#00f;stroke-width:2;stroke-linecap:round;stroke-linejoin:miter;stroke-miterlimit:4;stroke-dasharray:none;stroke-opacity:1" transform="translate(-177.791 -385.746)"/><path d="M283.929 452.362c4.012-.423 8.254.265 12.5 0 2.864-.538 8.36-.68 9.5.72l-.572-.005M311.429 448.79c.253-.625 8.897-.259 5.714-.356M251.786 448.434c-.359-2.768.606-9.301.714-8.929v-.357M252.857 440.934c.24 3.015-.054 7.016 1.786 8.571-.12 1.071.297-.536-.357 0" style="fill:none;fill-rule:evenodd;stroke:#00f;stroke-width:2;stroke-linecap:round;stroke-linejoin:miter;stroke-miterlimit:4;stroke-dasharray:none;stroke-opacity:1" transform="translate(-177.791 -385.746)"/><path d="M252.143 430.934c.919 3.501-1.494 10.246 0 11.428" style="fill:none;fill-rule:evenodd;stroke:#00f;stroke-width:2;stroke-linecap:round;stroke-linejoin:miter;stroke-miterlimit:4;stroke-dasharray:none;stroke-opacity:1" transform="translate(-177.791 -385.746)"/><path d="M250 435.576c1.828-.238 4.386.336 5.357 0M235.357 506.29c-.092-3.384.997-6.529 2.5-8.928 1.798-2.406 3.876-3.822 5.714-6.071 2.29-.522 4.388-1.796 6.786-2.5 3.739-.097 6.76.253 9.66 1.762 1.566.939 2.84 2.193 4.983 2.88 1.32.852 2.509 2.307 3.214 3.93 1.579 2.728 1.778 6.105 2.5 9.285-.985-.377.096 3.626-.714 1.786M195.714 508.434c1.214-2.491.464-6.792 2.143-8.572.709-2.634 2.203-2.43 3.572-5 1.561-1.325 3.232-2.677 4.642-3.571 1.43-.911 4.255-1.865 5-2.143 3.316-.315 5.254 1.259 7.5 2.5.954 1.614 2.849 2.609 3.572 3.928 1.424 2.173 2.119 3.666 2.857 5.86-.582 1.549 1.51 4.2-.714 4.14M279.286 505.576c.801-3.87 1.31-8.347 5.357-10.357 1.942-.995 1.956-2.807 4.286-3.214 1.17-.78 4.797-2.347 3.815-2.063 1.66 1.05 5.965 1.726 6.899 3.492 1.841 1.258 3.816 4.453 5 6.785.753 2.25 2.708 3.154 2.857 6.429.429 1.079.32-.109 0-.357" style="fill:none;fill-rule:evenodd;stroke:#00f;stroke-width:2;stroke-linecap:round;stroke-linejoin:miter;stroke-miterlimit:4;stroke-dasharray:none;stroke-opacity:1" transform="translate(-177.791 -385.746)"/><path d="M282.143 519.505c.487-3.025.042-6.412.357-9.286.532-1.849 1.764-2.998 2.857-4.285 1.783-2.165 2.91 1.214 3.572 2.857.275 2.873.6 5.615 1.785 7.857-.235 1.572.256 2.366.357 3.571M294.286 518.79c-.577-4.505.294-10.402 2.143-13.214 1.393-1.394 3.41-2.44 5-.714.87 2.464 1.86 4.806 1.785 8.214-.897 1.286-.339 7.043-1.071 6.072" style="fill:none;fill-rule:evenodd;stroke:#00f;stroke-width:2;stroke-linecap:round;stroke-linejoin:miter;stroke-miterlimit:4;stroke-dasharray:none;stroke-opacity:1" transform="translate(-177.791 -385.746)"/><path d="M285.714 508.076c2.564-1.37-.929 2.059-1.785 4.643 3.143-3.346 4.69-3.828.714.357-4.832 5.933 4.81-3.016 1.428 1.072-2.43 2.798-1.929 2.195.715 1.071 3.734-1.31-5.438 5.503-1.072 3.929 4.253-3.326 1.609.13 1.429.714v-.357M298.929 509.505c-4.359 1.987 3.3-1.136-1.786 3.571-2.444 2.65 2.897-1.973 2.5-.714-1.092 1.99-6.96 6.624-2.143 3.214 5.862-4.232-.582 2.545 1.071 1.786 3.752-2.604-.638 2.244-.714 3.572-.88.443-.086 1.236.357.357M201.071 518.076c-.28-3.389-.481-7.689 1.072-10 .525-2.1 2.355-3.546 5.357-3.214 1.122 2.031 2.767 3.418 2.5 6.361.005 1.745.39 8.884 0 6.496M214.286 517.72c.015-3.695.057-6.938.357-10 1.384-1.111 2.887-3.366 5.714-2.144 3.275 2.828 1.72 7.93 2.5 12.143-.04 1.764-.312-.028-.714-.357" style="fill:none;fill-rule:evenodd;stroke:#00f;stroke-width:2;stroke-linecap:round;stroke-linejoin:miter;stroke-miterlimit:4;stroke-dasharray:none;stroke-opacity:1" transform="translate(-177.791 -385.746)"/><path d="M204.643 508.434c2.153-1.022.009 1.343-.714 3.928 2.076-1.127 5.587-4.167 2.142-.714-3.787 3.982-.761 3.176 1.429 0 1.852-.145-4.025 4.81-3.571 5.357 1.22-2.045 7.192-4.726 3.571-2.143-.888 1.52-6.72 5.766-.714 2.143.806-1.314-.904 1.246-1.786 1.071M218.214 509.148c-4.651 4.075-.25 2.735.352-.007 4.703-.724-4.117 5.577-1.78 5.007 4.46-3.753 3.659-1.928.357 1.428-3.527 4.577 4.49-3.04 2.857-1.07-3.356 3.242 1.652 2.49-1.429 3.57-.685.145-1.526 3.01-.357 1.786M212.5 492.72c-2.351 2.367-5.052 3.706-4.643 7.856 1.031 3.638 6.815 3.29 8.213 1.174 2.525-1.534 2.057-5.892-1.427-6.53-4.066.839-1.799-4.725-2.5-.715v.357M292.857 494.505c-2.27.606-3.52 1.865-4.643 3.214-.511 4.352 2.793 5.304 6.429 5.357 1.997-1.657 3.756-6.941.714-7.142-.982-.425-1.363-.906-2.5-1.429zM227.857 484.148c-.545 5.202-.414 10.675 0 16.004.476 4.362-1.51 8.45-.357 12.567v1.429l-.357.357M234.286 484.148c-1.22 7.587-.541 15.458-.715 23.214.931.49.068 1.768.358 2.5M273.571 485.934c.109 3.816-.204 8.232.358 12.22-.653 4.684-.333 9.726 0 14.43.516 1.332-1.94 5.938-.358 5.135M279.286 487.72c-.057 5.069.86 9.909.714 15 1.457 4.653.726 8.99 1.071 13.57-.055.962.093 6.295-.714 4.286M186.071 486.648c1.937 2.472.728 7.142 1.072 10.656-.106 4.523-.86 8.458-.357 12.915M193.929 485.576c.85 5.792 1.006 11.592 1.071 17.5-.623 1.472-.462 3.598 0 5M310.357 487.362c-1.53 3.642.196 7.642-.357 11.583.183 4.067-.22 7.996-.357 11.989h.714M317.857 486.648c-1.08 3.152-1.457 7.428-.714 11.071.189 4.429 2.209 9.338.357 13.572v1.428h.357" style="fill:none;fill-rule:evenodd;stroke:#00f;stroke-width:2;stroke-linecap:round;stroke-linejoin:miter;stroke-miterlimit:4;stroke-dasharray:none;stroke-opacity:1" transform="translate(-177.791 -385.746)"/><path d="M185 510.22c1.766-2.27 1.648-5.088 3.214-7.5.108-.92 1.843 2.053 3.016 2.461 1.085.683 2.287 5.318 3.77 5.395h.357v-1.07M311.071 509.505c.746-1.232 4.44-9.505 3.929-4.209-.288 1.182 3.024 8.388 2.857 4.21M186.786 524.862c3.92 2.303 9.319.247 13.571 1.429 4.913-.15 10.178-.083 15.434-.357 5.42.644 11.46.483 16.709-.358 6.045.105 11.607-1.12 17.73-.714 4.235-.264 7.385.557 11.556.357 4.601-.917 9.418-.695 14.285-.714 3.965-2.126 7.15.891 11.217.357 3.894.407 7.033-.054 11.012 0 3.863.08 7.41-.603 11.343-.357 2.796-.663 9.073-1.678 9.643-1.429-.65-.097-.109.653-1.072.358M183.929 540.576c4.344 1.883 10.447.497 15.714 1.786 5.563-1.045 11.901-1.481 17.645-.714 4.945-.261 9.195 1.177 14.227.714 3.214.265 6.265.223 9.556-.357 4.079-.095 7.987-.94 12.143-.714 3.58-1.11 7.222-.564 10.715-.357 4.246-1.017 8.872-1.145 13.571-1.072 3.405 1.562 7.306-.517 11.071.714 4.505-.004 8.427-.373 12.858 0 2.811-.347 5.626-.687 8.571-.714 1.036-.461 12.105-.711 6.786-.714M185.714 520.22c3.511 1.378 7.623-.526 11.795 0 7.114-.343 14.167-.955 21.42-.715 6.66-1.174 13.883-.721 20.578-.357 4.63.296 9.003-1.403 13.495-.357 4.134.004 8.303-.856 12.355 0 4.02-.66 8.495-.202 12.577-.715 4.094-.007 7.434-.303 11.284.358 6.22-.067 12.39-.017 18.427.357h13.07c-3.204 1.635 1.26-2.425-1.786-.715M246.786 497.72c-.039 1.5.946 3.711 2.143 2.5M250 496.648c1.407-.157.448 4.946 1.786 3.571M253.571 495.22c-.239 1.374.337 4.017 0 4.285M257.143 495.934c-.014 1.519.208 3.143-.714 4.285M260 497.72c.61 2.218-1.863 2.183-2.857 2.856M261.429 500.22c-.38 1.524-1.548 1.677-1.786 2.5M261.429 504.505c1.437.27 2.576-.806 3.214-1.071M263.214 509.862h2.5M261.071 512.362c1.143-.353 2.573 1.692 3.215 2.143M258.929 514.505c.638-.098 2.34 2.948 2.857 1.429M243.214 500.934c.97 1.583 1.909 2.087 3.572 2.5M241.429 504.148c.521.869 5.06 2.382 3.928 1.428M240.357 508.79c.42-.875 5.488.177 4.286-.714M241.429 512.362c1.074-1.662 3.622-.892 4.285-2.143M243.214 515.22c.678.61 3.222-1.786 2.143-1.786M247.143 513.79c-1.854-.033.327 2.26-1.072 2.858M249.643 515.576l-.357 1.786M252.143 515.22c-.108.416-.347 2.083-.357 2.5M255.357 515.576v2.143M253.929 507.362c-4.316 2.227 3.574.48-1.429 0 1.092.23 1.71 1.606.68.19-2.3 1.287 1.875 2.177.749-.19zM250.357 503.076c1.848-.012.366 1.862 1.072 2.858M248.571 505.576c.126.333 2.312 1.405 1.429 1.072M247.5 509.505c.714.086 4.411 1.082 2.143 0M251.071 510.576c-.546 1.224-2.65 2.373-2.142 2.5" style="fill:none;fill-rule:evenodd;stroke:#00f;stroke-width:2;stroke-linecap:round;stroke-linejoin:miter;stroke-miterlimit:4;stroke-dasharray:none;stroke-opacity:1" transform="translate(-177.791 -385.746)"/><path d="M252.857 511.648c.673 1.192-1.489 5.025-.357 3.214M255.714 510.934c1.98-.017-1.575 4.989.715 2.5M257.857 509.505c.06 1.575 2.03.296 2.857 1.071M257.5 507.362c1.636-.078 2.174-.65 2.857-1.071M256.071 505.934c-1.635-4.015 2.148.371 1.786-1.786M253.214 504.862c.26-1.248 1.273-1.532 1.429-2.143M187.143 528.79c-2.415 4.191 0 4.679 0 7.5v-1.428M192.857 529.505c-1.485 2.596-.713 6.697 0 7.143-1.469-2.154 1.93-3.216.357-3.572M198.214 530.22c-1.17 1.465.039 4.507-.714 5.356M201.071 529.505c.978.85-.424 8.963 1.072 6.429M206.429 529.862c-.47 1.869-2.804 8.32 1.071 6.786v-.357h-.357M211.429 529.862c-3.317 6.347 2.875 2.781 0 7.143M215.357 529.505c.973 4.242 2.145 4.763.357 7.5M221.429 529.505c-1.969 3.342.6 5.833-.358 7.143M226.429 529.505c.098 1.497-.01 5.152-.358 6.429.243.503-1.887 1.29-.714 1.428M231.786 529.862c-3.55 3.438.077 3.424-.715 6.429M235 528.79c1.155 2.002-1.887 6.528.714 6.072M227.857 507.72c2.486.775 2.252-8.482 3.572-1.43-.133.39.922 3.653.714 1.072M187.5 494.505c1.987.462 5.011-.88 6.071-.357M227.143 494.148c2.18-.097 5.171.094 6.428.357M273.214 495.22c1.78-.284 5.059-.8 6.429 0M310.714 494.862c1.804.184 4.494-.396 5.715.357M272.857 508.434c-1.122-3.65 3.87-.513 3.903-4.706-.73.964 2.496 4.68 1.454 5.42M273.571 509.505c1.23.379 6.53.692 6.072 0M227.5 510.22c1.745.428 3.86.376 6.071.356M184.286 509.862c2.96.124 5.778-.088 8.571-.357M310.357 509.862c.67.523 7.525.251 5 0M318.571 513.79c.71.09 4.485.498 3.929.358M180 514.148c.937-.578 5.026-.116 4.286-.714M238.929 529.862c-5.098 2.179.393 3.772 0 6.786.58-.26-.616-.512.357-.357M244.643 529.148c-3.42 2.28 1.044 4.044-.714 5.714-.804 1.399.178 1.012.714 1.072M248.571 529.505c-1.624 3.136-1.083 3.632.358 5.714-.167-.168-2.647 2.022-1.072 1.786M253.571 529.505c-4.139 2.45 3.796 4.033-.357 6.071-.23 1.236.347.076 1.072.358M258.929 529.148c-1.727 3.066.306 5.03-1.429 7.857.73-.032 1.584.237 1.786-1.071M264.286 529.862c-2.545-.752 1.303 2.057-1.786 4.643 1.131.825.096-.337 1.786 0M268.214 529.862c-2.543 1.938 3.43 3.441-.357 5-.512.483.687.37.714.357M273.929 529.505c.245 2.876-.777 4.906-.16 6.04h-.146l-.052.389M277.143 530.934c2.126-2.689-.642 1.795 2.143 2.857-.429.156-4.354 2.273-1.429 2.143M270.357 530.22c2.25 1.29-1.829 6.43.714 6.07M284.286 530.934c5.297-2.811-2.943.573.357 3.571.044.882.705 2.351 1.428.714M291.071 529.505c-3.84.488-4.504 7.82-.357 5.357-.724.137-2.526 2.06-1.071 2.143M281.786 529.862c-2.432-1.628 2.321 2.66-.357 5.357M295.714 529.862c-.673 3.886.78 6.261-.714 7.857M301.071 530.22c-2.211-1.975-.654 6.01-1.428 5.356h.714l.357-.357M308.214 528.434c-4.32-.565-1.838 4.009-2.5 6.071l-.357.357h.357M310.714 529.148c1.755 1.765-3.17 6.33-.357 5.714M313.929 530.22c-1.797.777-1.835 3.999-1.072 5M315.714 531.648c-.044.431.194 1.384.357 1.428" style="fill:none;fill-rule:evenodd;stroke:#00f;stroke-width:2;stroke-linecap:round;stroke-linejoin:miter;stroke-miterlimit:4;stroke-dasharray:none;stroke-opacity:1" transform="translate(-177.791 -385.746)"/><path d="M316.071 532.005c-1.45.75-1.087 2.016-.714 2.5M274.286 543.076c-1.468-3.622-1.054 6.848-.703 8.443-.298 8.647.62 17.581-.646 25.985-.566 2.706 1.043 8.586-.437 11.287.12 1.395.308.42.714 0M278.929 543.076c.856 5.132.119 10.048 0 14.865-.5 6.232 1.412 11.856 1.071 17.993-.13 4.178.124 11.361-.714 13.571M227.143 544.505c-1.207 3.176.1 6.991-.357 10.597.036 7.681-.621 15.199-.357 22.934-.033 2.703.68 8.12 1.071 8.97M233.571 546.648c-2.497 4.88.297 10.298-.357 15.656-.125 6.35.03 12.765 1.089 18.657-.688 2.632-.324 5.52-.017 8.187M184.643 543.79c-.273 6.85.499 13.53.357 20.358-.826 5.097.026 10.514-.714 15.502.385 3.084-.278 7.72 0 9.14M190 544.505c-.419 5.035-1.237 10.32-.364 15.537.426 5.714 2.245 11.589 1.078 17.32-.48 3.618-.326 7.567-1.071 11.072M312.5 540.934c-.377 8.16-.809 16.673.357 24.787.13 6.596-.37 13.11-.714 19.498-.683 1.213-.574 4.353.357 4.643M318.571 543.076c-1.583 6.465-.931 13.296-1.071 20 .765 5.379 1.173 8.331 1.071 14.372.221 4.278-.51 8.166-.357 12.414v-.714M282.5 566.648c-.192-3.251 1.894-5.44 3.571-8.214 1.535-2.756 2.608-5.03 5.358-7.143 2.745-2.244 5.922-4.983 7.857-3.215.71 2.162 4.42 3.608 5 6.43 1.744 2.498 2.89 5.596 3.571 8.213 1.147.936 1.82 7.955 1.786 5.357" style="fill:none;fill-rule:evenodd;stroke:#00f;stroke-width:2;stroke-linecap:round;stroke-linejoin:miter;stroke-miterlimit:4;stroke-dasharray:none;stroke-opacity:1" transform="translate(-177.791 -385.746)"/><path d="M235.357 564.862c-.476-3.622 4.611-7.475 4.968-10.22 1.65-3.017 3.499-3.688 6.101-6.563 1.696-2.327 3.689-2.131 5.003-3.574 2.037-.742 3.396-1.14 6.428-.357 3.428.653 5.226 3.42 6.786 5 1.748 2.672 3.156 4.306 3.571 7.857 1.146 2.459 1.449 6.583 2.857 8.929.77 1.094 2.7 3.093 1.786 4.285M194.643 568.434c.978-3.194 2.538-4.962 3.571-8.215 2.189-4.193 5.615-6.415 8.929-10 1.3-2.137 4.683-.093 6.428 1.429 2.784 2.065 6.216 3.893 6.429 7.5 2.148 1.887 2.44 5.42 5 6.428-.068 1.254 1.597 2.555.714 2.143M179.286 516.648c.669 4.218-.374 8.449 0 12.79.018 4.997 1.922 9.44 1.428 14.642.07 5.15-.768 9.924-.714 15.068-1.022 3.604.287 8.173-.714 11.786-.245 3.4-.486 6.802-.357 10.357 1.47-.075-1.47 1.866.714 1.428M323.214 517.362c.126 4.452-.857 8.718 0 13.147.08 4.83-.014 9.625-.357 14.353 1.267 4.515-.042 9.376 0 14.15-.35 3.472-.106 6.545.357 10.136-.062 3.863.463 7.38-.357 10.646-.583 1.229 1.124 3.518 0 3.997M318.571 526.648c1.234 3.453-.298 7.713.715 11.428v-.357M186.429 529.148c-.156 3.077.264 6.087.714 8.928M185.357 510.576c-.153 3.781.58 7.348.714 11.072.655-.536.239 1.071.358 0M192.143 510.576c1.557 1.608.999 6.047 1.428 8.572M232.857 510.22c1.654 1.652-.054 7.26 1.072 7.856M310 510.576c1.69 1.904-.7 5.403 1.071 6.43M246.071 589.148c-.769-3.647-.246-7.202 0-10.434.19-1.88-1.636-6.115.715-5.995 2.699.568 5.822-1.352 5 2.5-.098 2.955.645 5.07.357 8.215.517 1.794.159 4.306.714 6.071" style="fill:none;fill-rule:evenodd;stroke:#00f;stroke-width:2;stroke-linecap:round;stroke-linejoin:miter;stroke-miterlimit:4;stroke-dasharray:none;stroke-opacity:1" transform="translate(-177.791 -385.746)"/><path d="M248.929 574.862c-1.92-1.283-1.805 1.081-.164.36-4.211 3.269.448 1.866.828-.347 1.196-.31-.897 1.07-1.02 2.743-2.864 3.915-1.48 2.204 1.013 1.6-2.987 3.042-4.093 5.958.771 2.073-.429.726-5.342 5.504-2.143 3.571 3.921-2.833 1.143.315.357 1.786-3.417 3.44 3.806.218 2.143.357-.531.691-3.096 3.659-.714 2.5M255.357 573.076c-.46 4.216.449 8.817.714 13.215-.462.788.705 2.133-.714 1.785M256.071 571.648c1.574 2.821 8.23-.532 6.072 4.507-.028 4.368.169 8.833-.357 12.993-1.083-.53-.14 2.504-.357 1.428" style="fill:none;fill-rule:evenodd;stroke:#00f;stroke-width:2;stroke-linecap:round;stroke-linejoin:miter;stroke-miterlimit:4;stroke-dasharray:none;stroke-opacity:1" transform="translate(-177.791 -385.746)"/><path d="M256.071 573.434c4.726-.85 1.19 1.126 0 3.214-1.28 2.034 4.435-2.442 3.572-1.429-.307 1.929-2.287 3.49-3.214 5 2.813-.812 7.74-5.14 2.142-.357-4.556 3.61.564 1.735 2.5 0-1.414.994-5.364 5.96-2.142 4.286 4.574-3.507-5.271 5.958-.358 2.5 3.623-2.886-3.711 6.707 2.256 2.411-.41-.87-2.266 1.234-1.541.803M204.643 587.362c1.026-2.252-1.02-7.431-.357-11.302-1.036-4.693 4.191.245 5.357-1.198.184 1.968.355 4.154.357 7.22-.206 1.11.324 9.447.714 5.637M214.286 588.076c-.597 2.112-1.11-6.102-1.072-8.223-.958-5.804-.02-5.367 5-5.348-.45 1.482-.376 5.89-.357 8.716-.172 1.6.772 7.113.714 5.927" style="fill:none;fill-rule:evenodd;stroke:#00f;stroke-width:2;stroke-linecap:round;stroke-linejoin:miter;stroke-miterlimit:4;stroke-dasharray:none;stroke-opacity:1" transform="translate(-177.791 -385.746)"/><path d="M206.786 574.862c-3.792 5.306 4.457-1.038-.405 3.946-3.504 5.205 6.113-3.878.405 2.126-1.41 2.187 2.066-.152-.357 3.571-.403 1.5 3.189-.994.714 2.857-2.765 3.29 4.059-1.289 1.428.357-.66 1.412-1.126 3.321.358.715M214.286 575.934c2.878-.907-.402.826-1.072 4.285 1.141 1.37 4.498-4.109 2.24-.775-3.584 2.983-.03 2.82.975 1.132-2.504 1.848-3.823 4.434-.358 2.143-.367-.55-2.738 4.216.715 2.5-2.3 2.763.11 3.348 1.785 1.429.45.798-1.573 1.454-.714 1.786M286.429 587.72c-.059-4.405 1.475-9.006 1.071-12.858-1.882-2.364 5.277-3.123 4.643-.068.111 3.004.574 5.87.357 8.997 1.9.737-.782 7.643 0 5" style="fill:none;fill-rule:evenodd;stroke:#00f;stroke-width:2;stroke-linecap:round;stroke-linejoin:miter;stroke-miterlimit:4;stroke-dasharray:none;stroke-opacity:1" transform="translate(-177.791 -385.746)"/><path d="M288.929 575.22c4.6-2.677-.688-1.053-.358 3.214-1.861 2.668 2.68-1.335 2.858-2.858.285.706-4.067 5.728-3.215 5.715 3.858-2.505 3.532-2.914 1.429 1.071-3.484 4.789 4.463-3.782.357 1.786-3.529 3.439 2.876-.29-.714 3.571-.394 1.981.832.139 1.071-.714M295.714 587.72c.004.548-.827-6.796-.714-9.653-.256-3.11-.499-6.206 3.571-4.99 1.458.673.195 6.078 1.072 8.716-.304 1.967.06 7.84-.357 5.212" style="fill:none;fill-rule:evenodd;stroke:#00f;stroke-width:2;stroke-linecap:round;stroke-linejoin:miter;stroke-miterlimit:4;stroke-dasharray:none;stroke-opacity:1" transform="translate(-177.791 -385.746)"/><path d="M297.143 573.076c2.946-2.097-5.616 7.552.357 2.5 3.122-1.841-1.68 3.655-1.786 5-.07-.116 4.314-4.064.357.358-.103.679 3.777-1.397.358 2.5-3.898 4.468 4.419-.85 1.071 2.5-.749-.332.897 3.09.714 3.928M243.571 567.72c.129-1.773 1.403-5.364 2.858-7.858 2.815-2 2.936-7.561 6.071-6.428 3.395.283 4.322 1.561 5.357 4.285.955 1.46 2.353 2.513 3.214 4.286 1.28 1.28 2.623 4.444 1.786 6.429-.094 1.215.053 1.054.357.357" style="fill:none;fill-rule:evenodd;stroke:#00f;stroke-width:2;stroke-linecap:round;stroke-linejoin:miter;stroke-miterlimit:4;stroke-dasharray:none;stroke-opacity:1" transform="translate(-177.791 -385.746)"/><path d="M250.714 558.79c-2.783-.266-2.516 3.816-1.428 4.644M250 565.934l-3.214 1.785M251.429 565.576c.993-.694 1.777-1.514 2.857-1.428M253.214 559.148c-1.432 1.887 5.352.343 2.857 2.5M256.429 565.22c-2.132-.308.41 2.49.357 1.07M257.143 568.076 255 566.648" style="fill:none;fill-rule:evenodd;stroke:#00f;stroke-width:2;stroke-linecap:round;stroke-linejoin:miter;stroke-miterlimit:4;stroke-dasharray:none;stroke-opacity:1" transform="translate(-177.791 -385.746)"/><path d="M255.714 562.005c-1.174.262-3.616-3.772-3.928-1.786M253.929 557.72c1.781-1.926-4.239.485 0 0zM250.357 564.505l.714 2.143M252.857 568.076l1.786-.714M257.5 563.076c.531-.114 2.674-.352 3.214-.357M261.071 563.076c-.038.903-1.993 2.465-1.071 2.5M253.571 569.148l-5-4.643M202.857 569.148c1.045-2.988 2.548-6.187 4.286-7.5 2.544-1.726 2.037-6.43 5-4.286 2.92.523 2.888 4.608 4.643 6.429-.089 1.985 3.488 5.113 2.857 6.071" style="fill:none;fill-rule:evenodd;stroke:#00f;stroke-width:2;stroke-linecap:round;stroke-linejoin:miter;stroke-miterlimit:4;stroke-dasharray:none;stroke-opacity:1" transform="translate(-177.791 -385.746)"/><path d="M208.929 564.505c-6.08-.989.556 2.392-2.127 2.452l-.73.762M209.286 569.148h1.428M211.429 566.648c-.875.383-2.786 1.424-.715 1.071M211.786 562.72l1.071 4.285M214.286 569.862l-3.215-7.5M211.429 560.934c-.827.245-2.828 1.515-1.072 1.785M215 567.362l1.071 1.786M286.071 567.72c.093-3.6 2.56-6.216 3.929-9.286 1.197-1.077 3.32-3.452 5.714-2.5 1.708.84 2.397 3.087 3.572 4.285.817 3.338 2.589 4.614 2.5 7.857h.357" style="fill:none;fill-rule:evenodd;stroke:#00f;stroke-width:2;stroke-linecap:round;stroke-linejoin:miter;stroke-miterlimit:4;stroke-dasharray:none;stroke-opacity:1" transform="translate(-177.791 -385.746)"/><path d="M291.429 558.79c-.976 3.616 4.609 4.53 1.785 6.43-.509-.271-.568.592-1.071.356" style="fill:none;fill-rule:evenodd;stroke:#00f;stroke-width:2;stroke-linecap:round;stroke-linejoin:miter;stroke-miterlimit:4;stroke-dasharray:none;stroke-opacity:1" transform="translate(-177.791 -385.746)"/><path d="M290.714 565.22c.39 1.393 2.24-.113 3.215.714M296.071 559.505c-.985 2.965 3.368 3.543-2.5 4.286h1.786M296.786 565.22l-3.572-2.858M289.643 563.434c-.35 2.804 1.706-.268 2.143 1.428M296.786 566.29l2.143-.356M294.643 558.076c-.025.446.451 1.399.714 1.43M287.857 568.076c3.609.387 7.454-.655 11.148-.714.249.084.923-.259.638.357M244.286 568.434c4.844 1.41 8.844-1.515 13.571-1.072-.26 1.085 2.878-.532 1.429.357M204.286 569.505c4.312 1.11 9.337 2.311 13.571.714 2.238-.172-.095-.172 2.143 0M215.357 562.005c-5.163 1.488.635 3.717 0 5.357.302.813-.709.05-.357.714M212.143 560.934c-.149 1.56-2.232 3.716-.357 4.285M234.643 572.362c2.604-.2 3.869-.355 6.786-.357-1.123-.937 1.285.15 3.214.714M265 572.362c3.382-.56 2.335-.028 5.017-.334.256-.412 1.433.22 2.483.691v-.357M196.429 574.505c2.43.147 3.692.036 7.142-.714M220 573.79c1.367 1.858 3.802.795 5.714 1.072M281.786 574.148c1.858-1.112 3.378.626 3.928-.714M304.286 574.148c1.457-1.572 4.031.634 4.643 0M198.929 569.862c.863-2.786 2.996-5.132 3.862-8.536 1.287-2.967 3.213-4.198 5.78-5.392-.366-.485 1.533-.428.358-.715M211.071 554.862c4.01-.835 5.691 4.033 8.215 6.429 1.808 2.914 2.876 6.21 3.98 8.831-.233.155-.288.78.305.454" style="fill:none;fill-rule:evenodd;stroke:#00f;stroke-width:2;stroke-linecap:round;stroke-linejoin:miter;stroke-miterlimit:4;stroke-dasharray:none;stroke-opacity:1" transform="translate(-177.791 -385.746)"/><path d="M207.143 553.076c-1.938 2.47-2.738 2.611-4.643 5-1.2 1.325-3.146 3.691-3.571 6.43-.66.634-1.753 6.384-.715 5.356M210 552.005c3.396-.319 4.134 1.981 6.071 4.643 3.473 3.08 5.373 7.535 6.897 11.46l-.18-.082.426.408M240.714 567.005c1.268-3.009 2.697-3.272 3.929-6.786 1.03-2.483 2.324-5.644 5.714-8.214-.345-.63 3.128-2.202 1.429-2.143M252.857 547.005c-2.884 1.35-6.72 3.593-9.035 7.197-2.766 2.132-2.587 5.155-4.506 7.442-.854 1.406-2.065 8.054-.745 3.932M253.571 550.576c3.192 1.963 6.752 4.747 8.929 8.215.7 2.343 4.733 7.244 3.214 8.214" style="fill:none;fill-rule:evenodd;stroke:#00f;stroke-width:2;stroke-linecap:round;stroke-linejoin:miter;stroke-miterlimit:4;stroke-dasharray:none;stroke-opacity:1" transform="translate(-177.791 -385.746)"/><path d="M254.643 548.434c3.441.806 7.869 3.763 9.425 7.956-.003 2.173 2.524 4.753 3.075 6.686 1.082 1.295.297 5.426 2.5 5.715M295.714 553.434c-.164 2.616-4.255 1.007-5.714 4.642-3.587 2.142-4.846 5.387-5 9.286" style="fill:none;fill-rule:evenodd;stroke:#00f;stroke-width:2;stroke-linecap:round;stroke-linejoin:miter;stroke-miterlimit:4;stroke-dasharray:none;stroke-opacity:1" transform="translate(-177.791 -385.746)"/><path d="M295 550.934c-4.667 3.548-8.335 8.051-10.714 13.571-.465 1.266-2.255 3.375-1.072 4.643M296.786 552.72c3.694 3.19 4.922 6.613 6.785 10 .345 1.758 2.653 4.308 2.143 5.356M297.143 551.29c2.712.291 5.34 5.32 8.212 8.213 4.526 2.784 1.46 5.86 3.216 9.645" style="fill:none;fill-rule:evenodd;stroke:#00f;stroke-width:2;stroke-linecap:round;stroke-linejoin:miter;stroke-miterlimit:4;stroke-dasharray:none;stroke-opacity:1" transform="translate(-177.791 -385.746)"/></svg>