<svg xmlns="http://www.w3.org/2000/svg" width="376.449" height="393.491" viewBox="0 0 352.921 368.898"><path d="M315.714 338.076c.68-19.293 15.286-38.185 28.116-46.554-.714-1.669 2.705-.984 3.313-1.303M377.857 289.505c21.339.11 31.604 27.857 33.979 45.724.255.036 1.272 3.317-.407 2.847M348.571 280.934c9.537-1.151 28.003 2.712 32.143-.715M356.429 259.505c-.008 1.414 0 17.766 0 13.571M373.571 259.505c-.524 5.23-.23 10.562-1.428 15.714M374.286 254.505c2.915-19.277-21.106-17.446-17.265-1.133 3.891 1.582 8.226.668 12.265.419M358.571 271.648c-2.576-17.64 15.264-14.441 10.715 2.143M310 346.648c23.09-3.616 46.61-.06 69.706-.888 13.858 1.665 27.998-1.515 41.723.174M316.429 371.648c-3.386-10.369 5.02-22.811 4.13-5.645.42.28-.79 11.95-.559 5.645M325.714 371.648c1.599-8.299 9.68-23.31 7.362-5.07-.883-1.877-.332 7.441.495 3.641M345 371.648c-4.018-9.807 8.191-23.567 6.618-5.919 1.066 1.899-2.417 8.202 1.24 7.347M360.714 371.648c-3.929-21.277 14.282-13.621 9.636 2.72l1.793-1.292M380.714 372.362c-3.833-8.964 7.97-22.547 6.79-5.733 1.208-2.29-1.941 8.646-.361 5.733M395.714 370.22c-6.88-10.587 9.137-22.303 7.724-5.413l.155 4.127-.022.571M410.714 370.934c-3.683-21.087 9.298-10.343 5.715-2.143M358.571 290.934c-12.018 10.24-21.768 29.954-18.571 43.571M363.571 290.934c-3.441 14.51-6.862 31.02-9.285 44.285M371.429 293.79c-.095 13.601 9.416 35.678 7.857 44.286M377.857 294.505c10.101 10.342 15.098 30.3 17.857 41.429" style="fill:none;fill-rule:evenodd;stroke:#00f;stroke-width:2;stroke-linecap:round;stroke-linejoin:miter;stroke-miterlimit:4;stroke-dasharray:none;stroke-opacity:1" transform="translate(-188.667 -225.549)"/><path d="M382.143 293.79c14.326 8.53 19.046 28.056 22.016 43.58l-1.302-2.15M347.857 296.648c-14.061 7.088-20.546 25.294-22.143 40M352.857 286.648c8.164-1.759 16.638-3.832 25-2.143M296.429 381.648c27.465 3.492 55.305.087 82.862 1.348 18.788-.518 37.593-.94 56.14-3.444l-.62.009-1.24.659M295.714 375.22c21.891 2.642 44.028.848 65.969 2.07 19.916.81 40.291 1.63 60.293-2.19 3.385-.217 6.79-.215 10.167.12M295.714 386.648c20.496 4.056 41.386-2.504 62.072.696 22.815.745 45.732-.524 68.643-1.41 2.612 1.132 6.4.503 7.857 3.571M299.286 394.505c-2.118 7.258.87 40.861-1.429 32.857M305.714 395.934c-1.316 6.82-4.193 34.431-2.143 32.142M313.571 393.79c2.872 11.169-2.399 30.038.11 36.68l-.11-.965M324.286 391.648c2.459 10.255-1.547 30.294 2.154 34.902l-.011-.616M338.571 390.934c1.171 12.536-3.038 27.6-.714 38.571M353.571 393.076c-2.245 11.098-.545 24.29-2.142 34.286M369.286 389.505c1.328 11.33 1.014 28.634-.715 36.429M383.571 390.934c.53 11.028-1.449 28.414 0 35.714M399.286 393.076c.777 11.232-2.243 27.49-1.429 35.715M410.714 390.934c.959 11.91-2.953 25.721-.714 36.428M424.286 392.362c-.945 9.506-1.998 29.023-1.429 33.572M433.571 390.934c-.78 12.557 1.519 24.96-2.142 37.142M291.429 435.934c21.573-2.88 43.38-2.057 65.003-.833 20.674-.541 41.385-.364 61.936-3.418 2.675 1.145 19.74-1.03 16.632 1.393M290.714 447.362c26.235 1.076 52.416-2.457 78.549-.71 19.034-1.1 38.152-.331 57.13-1.63 2.196.952 20.442-1.122 13.607 1.626M316.429 454.505c-2.84 6.662.09 20.81-1.429 23.571M414.286 451.648c2.82 8.887-2.934 17.614-2.143 26.428M314.286 453.076c28.704-3.494 57.74 2.13 86.29-3.031 2.281.01 17.158-.53 13.71.889M197.857 497.362c21.885-.313 43.78-1.197 65.547-.053 2.407 1.264 13.718-3.754 13.025.053M287.143 493.79c26.138-9.472 51.903-19.68 77.857-29.285M290 494.505c23.509.196 47.135-1.073 70.524-.54 17.887-.633 35.897-1.038 53.953-1.714 7.668.366 21.475-.35 25.523.825M367.857 463.79c24.652 7.579 49.117 16.32 72.857 26.43-.485-.27 6.097 2.991 1.429 2.142M285 510.22c-1.147 22.735.12 45.328-3.571 67.856M287.143 516.648c4.1 11.74-1.77 32.06.814 47.233.693 1.314.88 27.984-.1 14.91M295.714 513.79c-.952 16.79-1.99 33.494.718 50.174.433 3.003-.797 18.632-1.432 16.255M298.571 518.79c-1.038 21.387 4.03 42.593 2.539 63.95l.319-1.092M323.571 513.79c.228 19.692-.174 39.283-3.387 58.758-.514 2.104.312 11.182 1.245 10.528M326.429 513.076c.38 21.607-5.098 43.048-1.29 64.581 5.27.892-1.958 5.07-.853 2.562M352.143 515.934c-2.42 20.896-3.903 41.837-3.572 62.857v-.715M352.857 520.22c1.123 21.118-3.326 42.066-3.187 63.12l1.044 1.88M377.143 517.362c-.48 19.522.748 39.19 0 58.572M381.429 516.648c-2.608 18.503.736 47.261 1.428 59.286M405 518.79c1.389 20.403-.008 41.035-.32 61.255l.314-.37.72-2.313M408.571 523.076c-3.905 18.621-.767 37.64-1.428 56.43v-.715M435.714 520.934c-.275 15.73-.547 49.937-1.428 54.592v-.307M437.857 525.22c-.61 18.843.431 37.693 0 56.428" style="fill:none;fill-rule:evenodd;stroke:#00f;stroke-width:2;stroke-linecap:round;stroke-linejoin:miter;stroke-miterlimit:4;stroke-dasharray:none;stroke-opacity:1" transform="translate(-188.667 -225.549)"/><path d="M286.429 507.362c-1.834 8.008 16.272 8.462 11.428 0M316.429 507.362c3.807 2.85 9.059 12.732 10.714-.714M345 505.934c3.018 13.327 9.36 6.105 12.857 1.428M375 507.362c.527 4.911 7.645 4.585 8.571 0M402.143 508.79c-.23 6.044 10.643 2.448 9.286-.714M431.429 508.076c1.669 3.01 5.28 4.197 7.857 1.43M285 498.79c29.481.604 59.001 1.103 88.445 1.023 18.825-.529 37.465-3.396 56.257-3.874 3.862.262 8.313-.951 11.727 1.423M304.286 492.362c19.003-5.117 36.918-12.773 54.261-21.898 16.132-8.14 31.457 8.305 47.214 11.1 8.586 2.092 15.246 7.541 23.525 10.084" style="fill:none;fill-rule:evenodd;stroke:#00f;stroke-width:2;stroke-linecap:round;stroke-linejoin:miter;stroke-miterlimit:4;stroke-dasharray:none;stroke-opacity:1" transform="translate(-188.667 -225.549)"/><path d="M361.429 480.22c-13.976-1.862-5.048 7.061-5.715 6.428M376.429 479.505c-15.559.818 7.348 2.496-1.429 8.571M365 473.076c-8.441 4.797 4.097 7.73-.714 12.143M337.143 485.22c-13.429 3.331-.647 2.853 4.87 5.755l1.558-1.47M389.286 483.076c-15.331 1.834 13.866 6.209 3.571 3.572M404.286 486.648c-10.204.904 4.854 7.219 0 0z" style="fill:none;fill-rule:evenodd;stroke:#00f;stroke-width:2;stroke-linecap:round;stroke-linejoin:miter;stroke-miterlimit:4;stroke-dasharray:none;stroke-opacity:1" transform="translate(-188.667 -225.549)"/><path d="M346.429 483.076c-12.979 4.212 6.323 10.52.576 5.11l-.675.555.813.05M224.286 481.648c12.502-15.797 30.107-20.112 49.38-17.16 6.64-.052 13.303-.066 19.905.731M200.714 483.79c17.721-2.821 35.87-.967 53.692-1.71 16.602.549 33.8-.136 49.88 3.854" style="fill:none;fill-rule:evenodd;stroke:#00f;stroke-width:2;stroke-linecap:round;stroke-linejoin:miter;stroke-miterlimit:4;stroke-dasharray:none;stroke-opacity:1" transform="translate(-188.667 -225.549)"/><path d="M200 486.648c25.525-1.137 51.107-.827 76.623-2.062 3.858-1.3 7.59 3.674 10.52 1.348M198.571 508.076c-2.374 21.481 1.339 42.961.454 64.434 1.6 4.831.541 14.59 1.69 16.28M222.857 518.076c-2.702-4.58-2.222 21.195-1.542 27.293-.225 14.02 1.302 27.686 2.97 41.279M225.714 513.076c.7 22.74 1.305 45.652 2.317 68.19-4.526-.645 1.113 7.885.54 2.525M201.429 510.22c2.825 2.268 6.148 2.401 12.142-1.43-2.97 7.812 4.792-1.085 4.279 3.147l.721 1.14M202.857 514.505c6.546-1.499 13.484-.505 20 .714M236.429 509.505c-15.658.461 8.207 10.387 2.857.714M258.571 508.79c-16.64-1.067-4.35 5.742 1.429 2.858M273.571 510.22c-12.468-3.45-1.517 4.45-1.088 2.142h-1.7680000000000002M234.286 528.79c-2.99 7.757 4.946-7.074-.31 5.244 5.362-2.57-.92 1.713-.483 6.116 3.395-4.383-1.55 4.302 2.43.204-9.908 9.456 7.457-.48-2.55 6.813 6.786-3.705-3.446 9.948 5.865 1.671.089.746-1.896 4.477-2.095 2.096M255 528.79c-6.636 9.84 8.506-1.504-1.538 7.654 1.691 1.232 3.134-1.515-2.055 5.512 11.339-8.253-7.885 8.587 4.655.011-7.708 4.662-3.437 6.522-1.76 3.87-4.62 5.08 1.117 2.518.698 5.097M274.286 530.22c-3.136 3.674 5.324-2.181-2.007 5.308-.952 3.488 3.323-1.22-1.803 5.165 9.585-5.993-7.494 12.485 3.81 3.812-7.314 7.154 2.366 4.845 0 5.714M304.286 580.22c-3.182-3.697-3.726-34.854 12.238-24.018-.628 7.26.76 20.912.619 24.732" style="fill:none;fill-rule:evenodd;stroke:#00f;stroke-width:2;stroke-linecap:round;stroke-linejoin:miter;stroke-miterlimit:4;stroke-dasharray:none;stroke-opacity:1" transform="translate(-188.667 -225.549)"/><path d="M307.143 557.362c-4.136 8.256 9.693-7.876-.783 3.227-1.224 6.983 9.94-6.155-.203 5.025-1.79 4.148 12.25-7.897 2.507 3.287 11.802-7.77-10.012 12.141 5.174 2.03-9.615 8.434-1.105 2.635-2.41 5.003-8.875 5.488 9.713-.646-1.03 8.562l1.03-2.134M329.286 580.934c2.504.183-4.532-38.2 13.379-26.086-.213 8.882.625 17.532 1.797 26.278M360.12 582.136c1.716-10.233-7.897-40.59 11.684-29.852 1.876 9.268 1.543 19.127-.068 28.337" style="fill:none;fill-rule:evenodd;stroke:#00f;stroke-width:2;stroke-linecap:round;stroke-linejoin:miter;stroke-miterlimit:4;stroke-dasharray:none;stroke-opacity:1" transform="translate(-188.667 -225.549)"/><path d="M361.13 552.337c-1.059 4.234 9.875-2.156-.07 5.969 8.311-5.992 6.244-3.514.07 2.112 9.177-6.23 5.984-4.18 1.663 2.707 12.032-5.972 3.675-1.609-.981 4.14 10.9-8.645 5.912.993 1.09 5.492 9.626-6.306 7.41-4.873 1.324 2.403 12.973-8.622-10.509 9.53 5.019 1.143-7.72 8.71 2.206 2.93-4.58 4.823M331.33 557.893c10.231-7.848-6.852 8.931 6.397-.656-5.584 3.647-7.245 8.797.45 2.622-5.277 6.567-9.788 11.162.112 4.347-11.514 10.776 3.124.907.421 4.235-7.774 6.034-5.52 5.87 1.786 1.903-4.968 4.649-9.103 7.478-.38 4.076-8.462 8.394-.311 6.55-.2 4.686-.248-1.23-6.908 5.878-1.01 2.02M384.868 582.641c.256-7.854.285-38.396 13.608-23.756 1.148 5.968-1.046 21.16-.476 22.746" style="fill:none;fill-rule:evenodd;stroke:#00f;stroke-width:2;stroke-linecap:round;stroke-linejoin:miter;stroke-miterlimit:4;stroke-dasharray:none;stroke-opacity:1" transform="translate(-188.667 -225.549)"/><path d="M387.899 556.377c13.092-5.913-11.74 13.527 3.41 4.848 4.183-2.736-11.828 13.42 2.388 2.242 7.272-5.516-12.996 12.925.041 3.167 7.687-2.976-16.67 12.77-.741 4.842 9.458-5.112-15.98 13.21 2.194 3.741-10.86 8.654 8.922.198-2.663 10.574l.735-.006 2.212-1.124M415 583.434c-1.876-9.905-1.017-35.475 12.473-23.549-.214 7.788-2.594 15.322-1.759 23.191" style="fill:none;fill-rule:evenodd;stroke:#00f;stroke-width:2;stroke-linecap:round;stroke-linejoin:miter;stroke-miterlimit:4;stroke-dasharray:none;stroke-opacity:1" transform="translate(-188.667 -225.549)"/><path d="M417.143 559.862c11.093-6.492-5.35 7.705 5.741.213-14.217 9.493 5.297 2.487.308 3.95-13.78 8.905 1.783 5.1-1.763 5.48-12.236 8.038 3.934 2.738-1.05 5.627-9.499 7.293 10.46-4.232-1.049 5.277 8.21-5.253-.995 4.864 4.599.882M454.286 551.648c-8.497-13.817 9.044-34.405 9.274-10.113.406.534.564 13.301 1.44 9.399" style="fill:none;fill-rule:evenodd;stroke:#00f;stroke-width:2;stroke-linecap:round;stroke-linejoin:miter;stroke-miterlimit:4;stroke-dasharray:none;stroke-opacity:1" transform="translate(-188.667 -225.549)"/><path d="M459.286 532.005c-8.014 5.316 4.728.615-4.71 8.246 2.689 2.69 5.496-4.647.308 3.898 12.397-7.924-5.439 7.54 5.831.437-7.68 6.41 2.043 1.826-1.598 6.091l-.567 1.16 1.093-.903M474.643 551.648c-8.347-10.558 9.134-34.38 8.351-11.608-.943 3.415.021 10.16-.137 11.608" style="fill:none;fill-rule:evenodd;stroke:#00f;stroke-width:2;stroke-linecap:round;stroke-linejoin:miter;stroke-miterlimit:4;stroke-dasharray:none;stroke-opacity:1" transform="translate(-188.667 -225.549)"/><path d="M477.5 532.362c.88.106-5.392 8.066 1.032 3.327-9.602 6.743-.173 4.06 1.11 1.316-5.128 5.674-.523 3.292-3.433 9.761 6.946-6.291-3.675 4.272 2.742 1.162-2.599 3.105 4.459 2.65-.38 3.72M494.286 552.362c-8.06-10.666 7.056-37.226 9.285-12.857-.723 2.921-.11 14.518-.357 13.929" style="fill:none;fill-rule:evenodd;stroke:#00f;stroke-width:2;stroke-linecap:round;stroke-linejoin:miter;stroke-miterlimit:4;stroke-dasharray:none;stroke-opacity:1" transform="translate(-188.667 -225.549)"/><path d="M495.714 532.005c4.665-3.13-7.733 11.661 3.572 1.786-11.044 10.485 8.397-3.307-4.015 7.001-2.46 4.459 8.801-3.925.443 3.356-5.994 7.322 11.165-3.913-.44 5.047 9.32-4.605-1.514 7.397 6.662 1.29-.67-2.508-3.797 3.769-2.65 1.877M231.429 549.505c-3.454-7.84.644-33.276 7.97-15.789 1.174 5.008 2.143 13.837 1.672 17.218M249.643 551.648c-6.874-8.434 1.66-37.885 8.013-16.604.033 3.946 1.034 10.634.438 13.505M268.448 551.327c-1.805-8.563.476-36.053 9.153-16.941 1.01 6.198-.104 12.483.443 18.708M288.929 480.22c4.65-5.802 12.882-14.984 15.714-18.93M298.929 480.22c3.046-6.048 9.716-14.031 11.428-17.858M420.714 462.362c4.875 5.367 13.577 15.017 15.357 18.214M425.714 462.72c6.522 4.264 13.651 15.924 17.143 18.214M436.071 451.29c2.222 4.947 1.343 12.592.715 16.43M293.571 453.434c.075 4.988.91 10.02.358 15M447.857 480.576c15.662 1.25 31.444-.199 47.057 1.344 11.1 1.882 30.903-.077 36.515 1.156M449.286 492.72c30.258.237 60.488.249 90.714.356l-.762.049-.667.309M452.5 496.648c26.876.939 54.054 3.071 80.714.714l-.41.357.41.357M534.286 505.934c-3.81 21.292-.488 42.8-.12 64.093-.196 5.32-2.558 13.079-.237 17.335M194.643 577.005c-3.387 2.566-.634 10.633-1.429 12.857M193.214 574.505c.763.14 4.178-1.216 3.929 1.071M535 574.505c.64-1.01 6.869.17 5.357 1.071M539.643 577.72c.197 3.949-.533 7.854-.714 11.785M268.571 582.72c-3.357 18.491 24.955 3.689 35.648 9.802 20.335-1.649 40.584-1.036 60.918-.528 23.713-.787 47.319-2.494 71-.317 8.259-.88 18.143 1.863 25.292 1.042" style="fill:none;fill-rule:evenodd;stroke:#00f;stroke-width:2;stroke-linecap:round;stroke-linejoin:miter;stroke-miterlimit:4;stroke-dasharray:none;stroke-opacity:1" transform="translate(-188.667 -225.549)"/><path d="M270 582.362c23.988.545 47.945 3.84 72.02 2.124 36.846-2.427 73.82-.489 110.583.907 7.48-.68 14.002-1.675 9.54 8.04M448.214 512.362c-2.388 20.982.65 42.667-1.428 63.572M445.357 515.22c-2.68 20.058-2.926 42.463-3.214 61.07M283.571 504.148c16.482-3.33 33.873-.992 50.766-1.77 30.064 3.287 60.402-4.93 90.29.72 4.426.044 14.734 1.162 16.802 1.05M452.857 510.22c-.788 6.566 14.047-3.216 12.857 4.285M473.214 510.22c-3.988 7.46 4.547.127 12.96 1.07-.1-2.255-.98 5.697-1.888 3.215M491.786 510.934c-10.06 2.699 19.769.322 11.785 3.571M453.214 504.505c22.204-1.462 44.507 2.148 66.732-.565 3.146-.14 8.378.026 9.34.208M198.571 504.505c22.226-3.15 44.897 1.852 67.135-2.354 4.766-.396 11.617-.18 15.008 1.283M232.5 510.22c-5.427 1.317 7.606 7.91 10 1.428M509.643 518.434c-1.851 19.147.916 38.497-2.028 57.63 1.558 1.901-1.31 16.653-.115 13.084M203.214 579.148c6.684-.272 12.906-.226 19.286 1.071M233.214 578.79c14.518 1.992 29.444-3.513 43.929-.356M451.786 579.148c14.819-.618 38.97-.361 48.214.357M511.071 579.148c5.226-.526 10.508-.206 15.715.357M510.714 515.22c3.458 1.154 24.267.848 18.929 1.07M508.571 507.362c-1.346 5.82 3.876 8.799 5 1.429.099 8.792 3.595-5.712 4.158 2.71 4.036-10.204 1.011 5.956 6.2-3.425-.395 9.832 3.614-5.298 4.339 2.997.328-3.866 3.357 2.066 1.732.575M442.143 464.862c17.258 2.388 39.759-6.387 52.61 8.03 2.084 3.718 7.543 5.961 8.818 9.47M198.571 491.29c-19.136 5.504-2.79-36.027 6.429-13.554v1.7690000000000001M526.786 474.148c-2.3.274 16.238-8.054 12.758 4.713-.633 2.188-.464 12.77-.973 10.287M193.95 589.207c20.442-.322 40.665 3.538 61.179 2.524 2.83-.038 7.02.997 9.026-.503" style="fill:none;fill-rule:evenodd;stroke:#00f;stroke-width:2;stroke-linecap:round;stroke-linejoin:miter;stroke-miterlimit:4;stroke-dasharray:none;stroke-opacity:1" transform="translate(-188.667 -225.549)"/><path d="M469.216 590.217c22.941 2.954 47.254 2.034 69.462-.972l-1.782-.543M312.137 351.316c1.59 2.592.27 28.427 1.01 20.708M418.708 350.811c.027 4.229-.758 19.491-1.515 19.193M364.16 226.563c.18.684.178 1.438.544 2.058.4-.204.692.1.48.513-.317.62.699.741.517 1.348.01 1.072-.023 2.145-.03 3.217-.192.4.12.566.458.41.136.47.023 1.065.055 1.583-.015.458.027.92-.054 1.372.09.325.83-.2.458.37-.29.318-.637.405-.408-.265" style="fill:none;fill-rule:evenodd;stroke:#00f;stroke-width:2;stroke-linecap:round;stroke-linejoin:miter;stroke-miterlimit:4;stroke-dasharray:none;stroke-opacity:1" transform="translate(-188.667 -225.549)"/><path d="M361.635 231.108c.699-.18 1.436-.242 2.096-.548.304-.66 1.011-.532 1.594-.405.405.068.884-.387.934-.569.44.018.88-.013 1.318.039.333-.027.665-.42.703-.544.239.13.963-.243.876.078a4 4 0 0 0-.955-.071" style="fill:none;fill-rule:evenodd;stroke:#00f;stroke-width:2;stroke-linecap:round;stroke-linejoin:miter;stroke-miterlimit:4;stroke-dasharray:none;stroke-opacity:1" transform="translate(-188.667 -225.549)"/></svg>