<?xml version="1.0" encoding="UTF-8" standalone="no"?>
<!-- Created with Inkscape (http://www.inkscape.org/) -->

<svg
   xmlns:dc="http://purl.org/dc/elements/1.1/"
   xmlns:cc="http://creativecommons.org/ns#"
   xmlns:rdf="http://www.w3.org/1999/02/22-rdf-syntax-ns#"
   xmlns:svg="http://www.w3.org/2000/svg"
   xmlns="http://www.w3.org/2000/svg"
   xmlns:sodipodi="http://sodipodi.sourceforge.net/DTD/sodipodi-0.dtd"
   xmlns:inkscape="http://www.inkscape.org/namespaces/inkscape"
   width="121.88973mm"
   height="48.251545mm"
   viewBox="0 0 431.89275 170.97004"
   id="svg5289"
   version="1.1"
   inkscape:version="0.91 r13725"
   sodipodi:docname="pompidou.svg">
  <defs
     id="defs5291" />
  <sodipodi:namedview
     id="base"
     pagecolor="#ffffff"
     bordercolor="#666666"
     borderopacity="1.0"
     inkscape:pageopacity="0.0"
     inkscape:pageshadow="2"
     inkscape:zoom="0.7"
     inkscape:cx="-140.1735"
     inkscape:cy="-154.60419"
     inkscape:document-units="px"
     inkscape:current-layer="layer1"
     showgrid="false"
     inkscape:window-width="1920"
     inkscape:window-height="1009"
     inkscape:window-x="0"
     inkscape:window-y="34"
     inkscape:window-maximized="1"
     fit-margin-top="0"
     fit-margin-left="0"
     fit-margin-right="0"
     fit-margin-bottom="0" />
  <metadata
     id="metadata5294">
    <rdf:RDF>
      <cc:Work
         rdf:about="">
        <dc:format>image/svg+xml</dc:format>
        <dc:type
           rdf:resource="http://purl.org/dc/dcmitype/StillImage" />
        <dc:title></dc:title>
      </cc:Work>
    </rdf:RDF>
  </metadata>
  <g
     inkscape:label="Calque 1"
     inkscape:groupmode="layer"
     id="layer1"
     transform="translate(-91.987134,-307.25177)">
    <path
       style="fill:none;fill-rule:evenodd;stroke:#000000;stroke-width:2;stroke-linecap:round;stroke-linejoin:miter;stroke-miterlimit:4;stroke-dasharray:none;stroke-opacity:1"
       d="m 93.571429,470.21935 c -2.22429,-11.35767 2.805273,-31.80302 1.333353,-46.51896 2.924299,-24.26346 -3.950587,-48.45502 -0.355347,-72.72237 4.713087,-11.55903 -7.78584,-29.65423 10.966245,-26.15617 24.20868,-4.01757 48.79111,-5.01457 73.19695,-2.42809 33.37139,-1.58871 66.8265,-3.40342 100.22394,-1.28022 43.63713,1.97692 87.34099,3.49374 131.06343,3.39152 17.88199,-0.97088 36.14231,-2.06372 53.69132,1.74383 17.28696,2.02879 34.84849,-1.55056 52.02297,1.8276 14.8698,-0.70925 1.33818,23.91698 5.04207,33.74498 1.8494,18.98538 -1.11185,37.98126 -1.29717,56.95125 -2.40847,18.71526 -2.25099,37.6014 -2.31633,56.44663 -0.99484,-1.92708 5.02636,0.70541 0.71428,-2.85715"
       id="path5852"
       inkscape:connector-curvature="0" />
    <path
       style="fill:none;fill-rule:evenodd;stroke:#000000;stroke-width:2;stroke-linecap:round;stroke-linejoin:miter;stroke-miterlimit:4;stroke-dasharray:none;stroke-opacity:1"
       d="m 101.42857,473.07649 c 19.08502,1.87483 37.97288,-2.02275 57.11206,-1.4927 25.78294,-0.44282 51.47092,1.86769 77.1823,2.98331 17.37221,3.27267 35.04419,-1.056 52.49963,1.64883 13.25472,1.3759 26.45123,1.39188 39.58993,-0.27214 27.4811,1.83089 55.0234,-1.09779 82.55198,-0.0273 26.90358,0.56111 53.86511,1.61387 80.69407,-0.86969 7.63495,0.71586 17.41041,-1.73471 23.22717,-2.68459"
       id="path5854"
       inkscape:connector-curvature="0" />
    <path
       style="fill:none;fill-rule:evenodd;stroke:#000000;stroke-width:2;stroke-linecap:round;stroke-linejoin:miter;stroke-miterlimit:4;stroke-dasharray:none;stroke-opacity:1"
       d="m 117.14286,325.93363 c 1.64347,20.25115 1.20357,40.67033 4.67295,60.68338 1.33067,20.96137 -0.97979,42.35496 1.20305,62.97916 l 0.55257,-1.51968"
       id="path5856"
       inkscape:connector-curvature="0" />
    <path
       style="fill:none;fill-rule:evenodd;stroke:#000000;stroke-width:2;stroke-linecap:round;stroke-linejoin:miter;stroke-miterlimit:4;stroke-dasharray:none;stroke-opacity:1"
       d="m 145,325.93363 c -0.0473,20.18519 -5.05128,40.11694 -3.76567,60.28708 -0.38169,14.0157 1.21857,35.08884 0.19429,43.28435"
       id="path5858"
       inkscape:connector-curvature="0" />
    <path
       style="fill:none;fill-rule:evenodd;stroke:#000000;stroke-width:2;stroke-linecap:round;stroke-linejoin:miter;stroke-miterlimit:4;stroke-dasharray:none;stroke-opacity:1"
       d="m 174.28571,327.3622 c 1.72787,24.32349 0.93563,48.73045 0.35968,73.06703 -1.33527,5.14372 0.52908,15.34551 -0.35968,17.64726"
       id="path5860"
       inkscape:connector-curvature="0" />
    <path
       style="fill:none;fill-rule:evenodd;stroke:#000000;stroke-width:2;stroke-linecap:round;stroke-linejoin:miter;stroke-miterlimit:4;stroke-dasharray:none;stroke-opacity:1"
       d="m 173.57143,443.07649 c -0.0525,8.21162 -1.93713,26.9786 0,28.57143"
       id="path5862"
       inkscape:connector-curvature="0" />
    <path
       style="fill:none;fill-rule:evenodd;stroke:#000000;stroke-width:2;stroke-linecap:round;stroke-linejoin:miter;stroke-miterlimit:4;stroke-dasharray:none;stroke-opacity:1"
       d="m 207.14286,324.50506 c 1.15593,14.82636 0.70024,29.74752 -0.0256,44.66124 1.96256,13.42118 -1.03276,26.30395 -2.3014,39.46531 l -0.53011,0.87345"
       id="path5864"
       inkscape:connector-curvature="0" />
    <path
       style="fill:none;fill-rule:evenodd;stroke:#000000;stroke-width:2;stroke-linecap:round;stroke-linejoin:miter;stroke-miterlimit:4;stroke-dasharray:none;stroke-opacity:1"
       d="m 207.14286,438.79078 c 1.6767,12.14683 -0.034,31.86473 3.57143,37.85714"
       id="path5866"
       inkscape:connector-curvature="0" />
    <path
       style="fill:none;fill-rule:evenodd;stroke:#000000;stroke-width:2;stroke-linecap:round;stroke-linejoin:miter;stroke-miterlimit:4;stroke-dasharray:none;stroke-opacity:1"
       d="m 243.57143,325.93363 c 0.67888,15.26042 -2.35509,30.44725 -1.42857,45.76228 -0.3313,7.54126 0.81515,16.14767 -0.8809,22.63318 l 0.44878,1.47215 0.43212,-1.29618"
       id="path5868"
       inkscape:connector-curvature="0" />
    <path
       style="fill:none;fill-rule:evenodd;stroke:#000000;stroke-width:2;stroke-linecap:round;stroke-linejoin:miter;stroke-miterlimit:4;stroke-dasharray:none;stroke-opacity:1"
       d="m 242.85714,425.93363 c -2.28851,14.27962 -1.9343,41.9802 -1.42857,48.57143"
       id="path5870"
       inkscape:connector-curvature="0" />
    <path
       style="fill:none;fill-rule:evenodd;stroke:#000000;stroke-width:2;stroke-linecap:round;stroke-linejoin:miter;stroke-miterlimit:4;stroke-dasharray:none;stroke-opacity:1"
       d="m 279.28571,325.93363 c -1.80452,20.67355 1.58768,41.4947 0.83393,62.04494 l -0.94545,3.56847 -0.60276,2.95802"
       id="path5872"
       inkscape:connector-curvature="0" />
    <path
       style="fill:none;fill-rule:evenodd;stroke:#000000;stroke-width:2;stroke-linecap:round;stroke-linejoin:miter;stroke-miterlimit:4;stroke-dasharray:none;stroke-opacity:1"
       d="m 280,420.93363 c -2.23271,17.47873 -3.8254,35.79637 -1.42288,52.9106 l 0.70859,-1.48203"
       id="path5874"
       inkscape:connector-curvature="0" />
    <path
       style="fill:none;fill-rule:evenodd;stroke:#000000;stroke-width:2;stroke-linecap:round;stroke-linejoin:miter;stroke-miterlimit:4;stroke-dasharray:none;stroke-opacity:1"
       d="m 317.85714,328.79078 c -3.35959,15.36366 0.27131,30.99708 -1.42857,46.42857"
       id="path5876"
       inkscape:connector-curvature="0" />
    <path
       style="fill:none;fill-rule:evenodd;stroke:#000000;stroke-width:2;stroke-linecap:round;stroke-linejoin:miter;stroke-miterlimit:4;stroke-dasharray:none;stroke-opacity:1"
       d="m 320,400.21935 c 0.2491,21.9212 -0.46312,43.82783 -1.42857,65.71428 -0.99946,0.13426 -2.11912,5.57998 -0.71429,2.14286"
       id="path5878"
       inkscape:connector-curvature="0" />
    <path
       style="fill:none;fill-rule:evenodd;stroke:#000000;stroke-width:2;stroke-linecap:round;stroke-linejoin:miter;stroke-miterlimit:4;stroke-dasharray:none;stroke-opacity:1"
       d="m 357.85714,327.3622 c -2.91553,15.94585 -2.52715,36.19843 -2.85714,50"
       id="path5880"
       inkscape:connector-curvature="0" />
    <path
       style="fill:none;fill-rule:evenodd;stroke:#000000;stroke-width:2;stroke-linecap:round;stroke-linejoin:miter;stroke-miterlimit:4;stroke-dasharray:none;stroke-opacity:1"
       d="m 353.57143,398.07649 c -0.25914,17.40594 -2.27536,34.75021 -2.97595,52.11781 -1.77235,7.03266 0.31198,16.34389 0.83309,22.1679"
       id="path5882"
       inkscape:connector-curvature="0" />
    <path
       style="fill:none;fill-rule:evenodd;stroke:#000000;stroke-width:2;stroke-linecap:round;stroke-linejoin:miter;stroke-miterlimit:4;stroke-dasharray:none;stroke-opacity:1"
       d="m 395.71429,327.3622 c 1.29709,9.50987 -1.75309,19.71797 0,28.57143"
       id="path5884"
       inkscape:connector-curvature="0" />
    <path
       style="fill:none;fill-rule:evenodd;stroke:#000000;stroke-width:2;stroke-linecap:round;stroke-linejoin:miter;stroke-miterlimit:4;stroke-dasharray:none;stroke-opacity:1"
       d="m 393.57143,376.64792 c -0.91803,16.93473 -4.20122,33.74204 -2.14286,50.71428 -1.68774,13.68802 -0.57225,27.74312 -2.14286,41.42858"
       id="path5886"
       inkscape:connector-curvature="0" />
    <path
       style="fill:none;fill-rule:evenodd;stroke:#000000;stroke-width:2;stroke-linecap:round;stroke-linejoin:miter;stroke-miterlimit:4;stroke-dasharray:none;stroke-opacity:1"
       d="m 432.14286,323.07649 c 2.37964,6.80811 -2.21687,21.06269 -0.71429,22.85714"
       id="path5888"
       inkscape:connector-curvature="0" />
    <path
       style="fill:none;fill-rule:evenodd;stroke:#000000;stroke-width:2;stroke-linecap:round;stroke-linejoin:miter;stroke-miterlimit:4;stroke-dasharray:none;stroke-opacity:1"
       d="m 431.42857,371.64792 c -0.30825,16.58471 -2.85321,33.06524 -2.45659,49.70639 -1.63395,15.16456 -5.94345,30.89287 -2.06973,45.70291 0.85956,1.28995 -0.24955,6.71621 0.24061,1.01927"
       id="path5890"
       inkscape:connector-curvature="0" />
    <path
       style="fill:none;fill-rule:evenodd;stroke:#000000;stroke-width:2;stroke-linecap:round;stroke-linejoin:miter;stroke-miterlimit:4;stroke-dasharray:none;stroke-opacity:1"
       d="m 467.85714,356.64792 c 1.75539,30.19161 0.51854,60.43245 -0.78783,90.58789 0.607,4.74289 -2.54362,25.6006 -1.35502,22.98354"
       id="path5892"
       inkscape:connector-curvature="0" />
    <path
       style="fill:none;fill-rule:evenodd;stroke:#000000;stroke-width:2;stroke-linecap:round;stroke-linejoin:miter;stroke-miterlimit:4;stroke-dasharray:none;stroke-opacity:1"
       d="m 502.85714,347.3622 c -6.30139,20.47976 -5.32115,42.2224 -8.55754,63.24154 -0.57392,19.70132 -4.91849,39.11382 -4.2996,58.90132 -2.06127,1.64534 0.0818,7.42705 0.71429,1.42857"
       id="path5894"
       inkscape:connector-curvature="0" />
    <path
       style="fill:none;fill-rule:evenodd;stroke:#000000;stroke-width:2;stroke-linecap:round;stroke-linejoin:miter;stroke-miterlimit:4;stroke-dasharray:none;stroke-opacity:1"
       d="m 101.42857,462.3622 c 16.60358,-0.97872 30.34832,-0.0802 41.42857,-13.57142 7.5968,-18.75158 27.74624,-16.40543 43.82547,-19.51434 15.08966,3.63685 26.69121,-13.43379 38.63242,-20.76924 12.92598,-5.59547 30.54891,-3.17464 44.97013,-3.62193 13.32615,-7.87362 23.34433,-21.6259 38.00679,-26.58436 19.67724,2.9714 41.60205,3.10543 60.73982,-1.96849 14.43415,-10.15523 27.6485,-23.9788 46.88018,-21.63936 17.73746,-0.27395 37.83582,2.23691 49.29142,-14.48075 10.89565,-12.84995 30.65061,-5.16986 45.51092,-9.27868 l -0.71429,0"
       id="path5898"
       inkscape:connector-curvature="0" />
    <path
       style="fill:none;fill-rule:evenodd;stroke:#000000;stroke-width:2;stroke-linecap:round;stroke-linejoin:miter;stroke-miterlimit:4;stroke-dasharray:none;stroke-opacity:1"
       d="m 142.85714,464.50506 c 13.10601,-7.37894 15.75768,-28.35745 33.69602,-23.20285 18.02829,1.22271 34.87263,-2.52833 46.30398,-17.51143 11.18321,-8.74501 25.79482,-6.18417 38.93777,-8.53571 16.34832,1.88819 26.35981,-12.5349 40.25292,-18.32414 14.34098,-9.84867 31.71541,-6.46003 47.95047,-7.39403 16.59893,2.92012 28.45691,-9.4782 41.64107,-16.87893 12.75624,-8.68389 29.08426,-4.68282 43.64113,-6.72434 16.99275,-2.43109 27.80601,-23.45699 46.40926,-20.35776 11.64237,3.73878 27.35672,-6.75129 31.88167,-11.07081"
       id="path5902"
       inkscape:connector-curvature="0" />
    <path
       style="fill:none;fill-rule:evenodd;stroke:#000000;stroke-width:2;stroke-linecap:round;stroke-linejoin:miter;stroke-miterlimit:4;stroke-dasharray:none;stroke-opacity:1"
       d="m 98.571429,459.50506 c 2.483481,-21.31587 28.641161,-5.74393 36.468591,-20.18683 9.92649,-18.9863 30.98478,-16.42702 49.24569,-17.67031 16.60723,-4.56911 29.19884,-17.67349 43.57143,-26.42857 16.60005,-1.88268 33.9382,1.39251 50,-3.57143 13.67352,-9.47691 26.47234,-25.74112 44.91038,-19.58584 15.92127,-0.92967 33.34133,-0.068 46.40036,-10.28768 13.27816,-12.65486 29.87496,-13.75684 47.55419,-13.04328 17.43541,2.48018 30.34028,-9.19414 41.92354,-20.20281 12.77287,-13.34482 33.00591,-4.97563 49.21153,-6.88039 5.45033,-2.07628 8.0053,12.63903 2.14286,10.71428"
       id="path5904"
       inkscape:connector-curvature="0" />
    <path
       style="fill:none;fill-rule:evenodd;stroke:#000000;stroke-width:2;stroke-linecap:round;stroke-linejoin:miter;stroke-miterlimit:4;stroke-dasharray:none;stroke-opacity:1"
       d="m 95.714286,366.64792 c 21.515844,-1.2175 43.212644,-1.1912 64.712984,0.71428 24.1137,-2.46954 48.34818,-0.70934 72.51585,-2.2019 31.48671,5.2022 63.11172,-1.59898 94.75897,0.10917 5.60159,0.9489 30.13156,-2.68783 25.86934,1.37845"
       id="path5906"
       inkscape:connector-curvature="0" />
    <path
       style="fill:none;fill-rule:evenodd;stroke:#000000;stroke-width:2;stroke-linecap:round;stroke-linejoin:miter;stroke-miterlimit:4;stroke-dasharray:none;stroke-opacity:1"
       d="m 95.714286,394.50506 c 32.106114,1.41625 64.334544,0.32607 96.404424,1.10316 19.17146,-2.888 38.79947,-5.75796 57.92308,-4.85739 l 0.6725,0.89709"
       id="path5912"
       inkscape:connector-curvature="0" />
    <path
       style="fill:none;fill-rule:evenodd;stroke:#000000;stroke-width:2;stroke-linecap:round;stroke-linejoin:miter;stroke-miterlimit:4;stroke-dasharray:none;stroke-opacity:1"
       d="m 95.714286,417.3622 c 21.728884,-1.56879 43.535894,0.66698 65.322784,0 10.20037,-0.0287 20.53167,0.28615 30.3915,-0.71428"
       id="path5914"
       inkscape:connector-curvature="0" />
    <path
       style="fill:none;fill-rule:evenodd;stroke:#000000;stroke-width:2;stroke-linecap:round;stroke-linejoin:miter;stroke-miterlimit:4;stroke-dasharray:none;stroke-opacity:1"
       d="m 218.57143,438.07649 c 21.1625,-0.53108 42.31053,-3.34675 63.47961,-1.47116 13.82454,-1.9457 27.71636,-0.52777 41.45227,-1.69643 29.50946,-2.19773 59.17103,-1.05368 88.61045,1.70479 26.49221,-0.18022 53.10964,-0.41028 79.3946,2.97224 1.62414,0.10043 20.23222,2.65802 11.34878,1.3477"
       id="path5918"
       inkscape:connector-curvature="0" />
    <path
       style="fill:none;fill-rule:evenodd;stroke:#000000;stroke-width:2;stroke-linecap:round;stroke-linejoin:miter;stroke-miterlimit:4;stroke-dasharray:none;stroke-opacity:1"
       d="m 293.57143,412.3622 c 23.1504,1.33763 46.37333,0.36639 69.52006,2.08585 24.21763,-0.18126 48.41907,1.80807 72.6228,0.057 20.9188,3.61872 42.4014,-0.33275 63.3215,1.14396 4.11075,-0.92039 8.2431,-0.34867 12.39278,-0.42967"
       id="path5924"
       inkscape:connector-curvature="0" />
    <path
       style="fill:none;fill-rule:evenodd;stroke:#000000;stroke-width:2;stroke-linecap:round;stroke-linejoin:miter;stroke-miterlimit:4;stroke-dasharray:none;stroke-opacity:1"
       d="m 374.28571,390.21935 c 17.77047,1.47251 36.04721,-1.40201 53.84634,2.77851 18.42545,0.72751 36.96512,3.40319 55.32478,2.12138 9.18764,-2.0881 30.69041,0.55674 33.64475,0.0481 L 515,394.50506"
       id="path5926"
       inkscape:connector-curvature="0" />
    <path
       style="fill:none;fill-rule:evenodd;stroke:#000000;stroke-width:2;stroke-linecap:round;stroke-linejoin:miter;stroke-miterlimit:4;stroke-dasharray:none;stroke-opacity:1"
       d="m 442.85714,367.3622 c 21.91249,0.0586 43.94472,0.46652 65.78098,1.22046 0.88711,2.75597 15.37886,1.85129 10.64759,1.63669"
       id="path5928"
       inkscape:connector-curvature="0" />
    <path
       style="fill:none;fill-rule:evenodd;stroke:#000000;stroke-width:2;stroke-linecap:round;stroke-linejoin:miter;stroke-miterlimit:4;stroke-dasharray:none;stroke-opacity:1"
       d="m 391.42857,417.3622 c -9.33153,16.04235 -21.66677,29.97139 -32.63574,44.85969 L 360,460.93363"
       id="path5930"
       inkscape:connector-curvature="0" />
    <path
       style="fill:none;fill-rule:evenodd;stroke:#000000;stroke-width:2;stroke-linecap:round;stroke-linejoin:miter;stroke-miterlimit:4;stroke-dasharray:none;stroke-opacity:1"
       d="m 361.42857,418.07649 c 5.71212,14.70221 25.40957,24.30243 27.85714,39.28571"
       id="path5932"
       inkscape:connector-curvature="0" />
    <path
       style="fill:none;fill-rule:evenodd;stroke:#000000;stroke-width:2;stroke-linecap:round;stroke-linejoin:miter;stroke-miterlimit:4;stroke-dasharray:none;stroke-opacity:1"
       d="m 422.85714,421.64792 c -10.9177,15.66535 -21.21726,31.74461 -31.83443,47.57598 l 0.40586,-1.14741"
       id="path5934"
       inkscape:connector-curvature="0" />
    <path
       style="fill:none;fill-rule:evenodd;stroke:#000000;stroke-width:2;stroke-linecap:round;stroke-linejoin:miter;stroke-miterlimit:4;stroke-dasharray:none;stroke-opacity:1"
       d="m 395,420.93363 c 6.64947,11.4256 13.06363,23.21678 23.24527,31.8127 1.24621,2.29318 1.43643,4.95773 1.04044,7.47302"
       id="path5936"
       inkscape:connector-curvature="0" />
    <path
       style="fill:none;fill-rule:evenodd;stroke:#000000;stroke-width:2;stroke-linecap:round;stroke-linejoin:miter;stroke-miterlimit:4;stroke-dasharray:none;stroke-opacity:1"
       d="m 437.85714,420.93363 c 8.84849,11.1722 22.94625,32.61505 27.85715,39.28572"
       id="path5938"
       inkscape:connector-curvature="0" />
    <path
       style="fill:none;fill-rule:evenodd;stroke:#000000;stroke-width:2;stroke-linecap:round;stroke-linejoin:miter;stroke-miterlimit:4;stroke-dasharray:none;stroke-opacity:1"
       d="m 462.14286,420.93363 c -11.48203,13.8845 -26.5766,25.00018 -35.57983,40.7586 -2.02748,4.68413 0.12623,1.54839 2.0084,0.66997"
       id="path5940"
       inkscape:connector-curvature="0" />
    <path
       style="fill:none;fill-rule:evenodd;stroke:#000000;stroke-width:2;stroke-linecap:round;stroke-linejoin:miter;stroke-miterlimit:4;stroke-dasharray:none;stroke-opacity:1"
       d="m 472.14286,423.79078 c 11.91746,6.36067 20.67492,18.30335 27.68051,29.43113 1.32409,3.10217 6.91506,13.9711 10.17663,10.56887"
       id="path5942"
       inkscape:connector-curvature="0" />
    <path
       style="fill:none;fill-rule:evenodd;stroke:#000000;stroke-width:2;stroke-linecap:round;stroke-linejoin:miter;stroke-miterlimit:4;stroke-dasharray:none;stroke-opacity:1"
       d="m 501.42857,420.93363 c -14.23844,10.83645 -20.35829,30.00775 -37.33133,37.72699 l 0.0716,0.60518 1.54549,0.23926"
       id="path5944"
       inkscape:connector-curvature="0" />
    <path
       style="fill:none;fill-rule:evenodd;stroke:#000000;stroke-width:2;stroke-linecap:round;stroke-linejoin:miter;stroke-miterlimit:4;stroke-dasharray:none;stroke-opacity:1"
       d="m 325.71429,421.64792 c 12.69458,6.99495 14.11878,24.81277 22.54604,36.23877 L 350,460.21935"
       id="path5946"
       inkscape:connector-curvature="0" />
    <path
       style="fill:none;fill-rule:evenodd;stroke:#000000;stroke-width:2;stroke-linecap:round;stroke-linejoin:miter;stroke-miterlimit:4;stroke-dasharray:none;stroke-opacity:1"
       d="m 353.57143,419.50506 c -12.37927,13.42564 -24.38818,27.28278 -36.01091,41.33242 -1.32585,2.04405 -2.49805,4.20769 -3.27481,6.52472"
       id="path5948"
       inkscape:connector-curvature="0" />
    <path
       style="fill:none;fill-rule:evenodd;stroke:#000000;stroke-width:2;stroke-linecap:round;stroke-linejoin:miter;stroke-miterlimit:4;stroke-dasharray:none;stroke-opacity:1"
       d="m 283.57143,422.3622 c 13.4357,5.28363 14.45598,24.41247 28.08488,31.35478 1.0365,-0.22285 3.66178,6.81368 3.34369,3.64522"
       id="path5950"
       inkscape:connector-curvature="0" />
    <path
       style="fill:none;fill-rule:evenodd;stroke:#000000;stroke-width:2;stroke-linecap:round;stroke-linejoin:miter;stroke-miterlimit:4;stroke-dasharray:none;stroke-opacity:1"
       d="m 317.85714,418.07649 c -10.77648,13.85039 -21.63587,27.60559 -34.04219,40.04059 l -1.11928,1.81815 -0.55281,1.71269"
       id="path5952"
       inkscape:connector-curvature="0" />
    <path
       style="fill:none;fill-rule:evenodd;stroke:#000000;stroke-width:2;stroke-linecap:round;stroke-linejoin:miter;stroke-miterlimit:4;stroke-dasharray:none;stroke-opacity:1"
       d="m 248.57143,423.79078 c 10.37931,11.74855 20.2434,27.45603 27.85714,41.42857"
       id="path5954"
       inkscape:connector-curvature="0" />
    <path
       style="fill:none;fill-rule:evenodd;stroke:#000000;stroke-width:2;stroke-linecap:round;stroke-linejoin:miter;stroke-miterlimit:4;stroke-dasharray:none;stroke-opacity:1"
       d="m 277.85714,423.07649 c -6.09267,10.10705 -16.59007,18.99295 -22.06789,28.12369 -1.13981,2.18583 -5.38992,10.53418 -4.36068,10.44774"
       id="path5956"
       inkscape:connector-curvature="0" />
    <path
       style="fill:none;fill-rule:evenodd;stroke:#000000;stroke-width:2;stroke-linecap:round;stroke-linejoin:miter;stroke-miterlimit:4;stroke-dasharray:none;stroke-opacity:1"
       d="m 218.57143,433.07649 c 9.35886,8.543 13.73626,23.82729 20.71428,32.85714"
       id="path5958"
       inkscape:connector-curvature="0" />
    <path
       style="fill:none;fill-rule:evenodd;stroke:#000000;stroke-width:2;stroke-linecap:round;stroke-linejoin:miter;stroke-miterlimit:4;stroke-dasharray:none;stroke-opacity:1"
       d="M 239.28571,424.50506 C 225.53149,436.76838 212.2238,450.24 202.59397,465.92049 l 0.97746,0.0131"
       id="path5960"
       inkscape:connector-curvature="0" />
    <path
       style="fill:none;fill-rule:evenodd;stroke:#000000;stroke-width:2;stroke-linecap:round;stroke-linejoin:miter;stroke-miterlimit:4;stroke-dasharray:none;stroke-opacity:1"
       d="m 152.14286,374.50506 c 5.65886,12.36081 10.55443,25.45909 21.42857,34.28572"
       id="path5962"
       inkscape:connector-curvature="0" />
    <path
       style="fill:none;fill-rule:evenodd;stroke:#000000;stroke-width:2;stroke-linecap:round;stroke-linejoin:miter;stroke-miterlimit:4;stroke-dasharray:none;stroke-opacity:1"
       d="m 97.142857,374.50506 c 6.417803,13.71768 19.778383,23.75379 23.571433,38.57143"
       id="path5964"
       inkscape:connector-curvature="0" />
    <path
       style="fill:none;fill-rule:evenodd;stroke:#000000;stroke-width:2;stroke-linecap:round;stroke-linejoin:miter;stroke-miterlimit:4;stroke-dasharray:none;stroke-opacity:1"
       d="m 120.71429,375.93363 c 3.80101,11.81764 12.35899,21.03553 20.75745,29.75468 l 0.67112,1.67389"
       id="path5966"
       inkscape:connector-curvature="0" />
    <path
       style="fill:none;fill-rule:evenodd;stroke:#000000;stroke-width:2;stroke-linecap:round;stroke-linejoin:miter;stroke-miterlimit:4;stroke-dasharray:none;stroke-opacity:1"
       d="m 119.28571,334.50506 c 9.57758,11.53783 20.24287,22.61607 29.28572,34.28572"
       id="path5968"
       inkscape:connector-curvature="0" />
    <path
       style="fill:none;fill-rule:evenodd;stroke:#000000;stroke-width:2;stroke-linecap:round;stroke-linejoin:miter;stroke-miterlimit:4;stroke-dasharray:none;stroke-opacity:1"
       d="m 146.42857,330.93363 c 7.73586,12.01379 19.88032,21.42918 29.28572,30.71429"
       id="path5970"
       inkscape:connector-curvature="0" />
    <path
       style="fill:none;fill-rule:evenodd;stroke:#000000;stroke-width:2;stroke-linecap:round;stroke-linejoin:miter;stroke-miterlimit:4;stroke-dasharray:none;stroke-opacity:1"
       d="m 184.28571,333.07649 c 1.87161,11.85334 14.02962,19.16857 20.71429,27.14286"
       id="path5972"
       inkscape:connector-curvature="0" />
    <path
       style="fill:none;fill-rule:evenodd;stroke:#000000;stroke-width:2;stroke-linecap:round;stroke-linejoin:miter;stroke-miterlimit:4;stroke-dasharray:none;stroke-opacity:1"
       d="m 216.42857,334.50506 c 8.48062,8.49454 12.51133,21.34461 24.28572,26.42857"
       id="path5974"
       inkscape:connector-curvature="0" />
    <path
       style="fill:none;fill-rule:evenodd;stroke:#000000;stroke-width:2;stroke-linecap:round;stroke-linejoin:miter;stroke-miterlimit:4;stroke-dasharray:none;stroke-opacity:1"
       d="m 253.57143,333.07649 c 4.45305,11.79182 15.58192,19.7098 25,27.14286"
       id="path5976"
       inkscape:connector-curvature="0" />
    <path
       style="fill:none;fill-rule:evenodd;stroke:#000000;stroke-width:2;stroke-linecap:round;stroke-linejoin:miter;stroke-miterlimit:4;stroke-dasharray:none;stroke-opacity:1"
       d="m 290,333.79078 c 5.38397,12.29908 19.34864,18.22044 27.14286,27.14285"
       id="path5978"
       inkscape:connector-curvature="0" />
    <path
       style="fill:none;fill-rule:evenodd;stroke:#000000;stroke-width:2;stroke-linecap:round;stroke-linejoin:miter;stroke-miterlimit:4;stroke-dasharray:none;stroke-opacity:1"
       d="m 329.28571,332.3622 c 0.35926,11.74619 12.56067,18.74839 20,25.71429"
       id="path5980"
       inkscape:connector-curvature="0" />
    <path
       style="fill:none;fill-rule:evenodd;stroke:#000000;stroke-width:2;stroke-linecap:round;stroke-linejoin:miter;stroke-miterlimit:4;stroke-dasharray:none;stroke-opacity:1"
       d="m 365,334.50506 c 8.43355,2.98692 7.02169,14.94298 14.28571,19.28572"
       id="path5982"
       inkscape:connector-curvature="0" />
    <path
       style="fill:none;fill-rule:evenodd;stroke:#000000;stroke-width:2;stroke-linecap:round;stroke-linejoin:miter;stroke-miterlimit:4;stroke-dasharray:none;stroke-opacity:1"
       d="m 218.57143,376.64792 c 2.4268,6.08951 5.29721,12.40345 10.71428,16.42857"
       id="path5984"
       inkscape:connector-curvature="0" />
    <path
       style="fill:none;fill-rule:evenodd;stroke:#000000;stroke-width:2;stroke-linecap:round;stroke-linejoin:miter;stroke-miterlimit:4;stroke-dasharray:none;stroke-opacity:1"
       d="m 183.57143,377.3622 c 5.46623,10.87631 11.02338,21.86147 19.28571,30.71429"
       id="path5986"
       inkscape:connector-curvature="0" />
    <path
       style="fill:none;fill-rule:evenodd;stroke:#000000;stroke-width:2;stroke-linecap:round;stroke-linejoin:miter;stroke-miterlimit:4;stroke-dasharray:none;stroke-opacity:1"
       d="m 157.14286,310.93363 c -8.44033,17.5183 19.99791,7.60873 29.28707,11.29304 8.88505,0.94632 2.02769,-19.70915 -6.67906,-12.45994 -6.0886,1.66493 -19.17834,-2.44308 -20.94166,0.57114 l 2.61936,-0.83281"
       id="path5988"
       inkscape:connector-curvature="0" />
    <path
       style="fill:none;fill-rule:evenodd;stroke:#000000;stroke-width:2;stroke-linecap:round;stroke-linejoin:miter;stroke-miterlimit:4;stroke-dasharray:none;stroke-opacity:1"
       d="m 100,333.07649 c 5.88488,10.86998 13.0891,21.72474 22.14286,30"
       id="path5990"
       inkscape:connector-curvature="0" />
    <path
       style="fill:none;fill-rule:evenodd;stroke:#000000;stroke-width:2;stroke-linecap:round;stroke-linejoin:miter;stroke-miterlimit:4;stroke-dasharray:none;stroke-opacity:1"
       d="m 117.14286,331.64792 c -9.25093,7.31045 -9.89808,23.67145 -15,30.71428"
       id="path5992"
       inkscape:connector-curvature="0" />
    <path
       style="fill:none;fill-rule:evenodd;stroke:#000000;stroke-width:2;stroke-linecap:round;stroke-linejoin:miter;stroke-miterlimit:4;stroke-dasharray:none;stroke-opacity:1"
       d="m 142.14286,326.64792 c -9.60933,9.75479 -11.21957,25.38436 -20,35"
       id="path5994"
       inkscape:connector-curvature="0" />
    <path
       style="fill:none;fill-rule:evenodd;stroke:#000000;stroke-width:2;stroke-linecap:round;stroke-linejoin:miter;stroke-miterlimit:4;stroke-dasharray:none;stroke-opacity:1"
       d="m 167.14286,330.93363 c -5.97754,10.33188 -11.94877,20.98546 -18.57148,30.71429"
       id="path5996"
       inkscape:connector-curvature="0" />
    <path
       style="fill:none;fill-rule:evenodd;stroke:#000000;stroke-width:2;stroke-linecap:round;stroke-linejoin:miter;stroke-miterlimit:4;stroke-dasharray:none;stroke-opacity:1"
       d="m 196.42857,332.3622 c -5.38876,8.79945 -11.13517,21.14713 -15.71428,27.85715"
       id="path5998"
       inkscape:connector-curvature="0" />
    <path
       style="fill:none;fill-rule:evenodd;stroke:#000000;stroke-width:2;stroke-linecap:round;stroke-linejoin:miter;stroke-miterlimit:4;stroke-dasharray:none;stroke-opacity:1"
       d="m 235.71429,326.64792 c -6.23269,11.5992 -14.33433,22.59644 -22.8572,32.14286"
       id="path6000"
       inkscape:connector-curvature="0" />
    <path
       style="fill:none;fill-rule:evenodd;stroke:#000000;stroke-width:2;stroke-linecap:round;stroke-linejoin:miter;stroke-miterlimit:4;stroke-dasharray:none;stroke-opacity:1"
       d="m 273.57143,335.21935 c -6.48388,5.9062 -16.67886,22.89985 -16.42857,26.42857"
       id="path6002"
       inkscape:connector-curvature="0" />
    <path
       style="fill:none;fill-rule:evenodd;stroke:#000000;stroke-width:2;stroke-linecap:round;stroke-linejoin:miter;stroke-miterlimit:4;stroke-dasharray:none;stroke-opacity:1"
       d="m 315,333.79078 c -11.25993,8.65564 -18.30652,21.67952 -28.57143,31.42857"
       id="path6004"
       inkscape:connector-curvature="0" />
    <path
       style="fill:none;fill-rule:evenodd;stroke:#000000;stroke-width:2;stroke-linecap:round;stroke-linejoin:miter;stroke-miterlimit:4;stroke-dasharray:none;stroke-opacity:1"
       d="m 346.42857,334.50506 c -12.0761,5.25285 -12.48255,23.34122 -24.8938,27.90654 l -0.1062,-0.76368"
       id="path6006"
       inkscape:connector-curvature="0" />
    <path
       style="fill:none;fill-rule:evenodd;stroke:#000000;stroke-width:2;stroke-linecap:round;stroke-linejoin:miter;stroke-miterlimit:4;stroke-dasharray:none;stroke-opacity:1"
       d="m 382.85714,333.79078 c -9.47766,8.20247 -16.62636,18.94547 -25.34371,27.62305 l -0.37057,-0.4802"
       id="path6008"
       inkscape:connector-curvature="0" />
    <path
       style="fill:none;fill-rule:evenodd;stroke:#000000;stroke-width:2;stroke-linecap:round;stroke-linejoin:miter;stroke-miterlimit:4;stroke-dasharray:none;stroke-opacity:1"
       d="m 170,375.93363 c -6.70946,12.11065 -14.25027,23.82913 -22.64354,34.71855 l 0.50068,-0.43283"
       id="path6010"
       inkscape:connector-curvature="0" />
    <path
       style="fill:none;fill-rule:evenodd;stroke:#000000;stroke-width:2;stroke-linecap:round;stroke-linejoin:miter;stroke-miterlimit:4;stroke-dasharray:none;stroke-opacity:1"
       d="m 140,375.93363 c -3.24393,11.22534 -13.69132,21.239 -15.71429,32.14286"
       id="path6012"
       inkscape:connector-curvature="0" />
    <path
       style="fill:none;fill-rule:evenodd;stroke:#000000;stroke-width:2;stroke-linecap:round;stroke-linejoin:miter;stroke-miterlimit:4;stroke-dasharray:none;stroke-opacity:1"
       d="m 116.42857,377.3622 c -2.45324,12.69178 -8.84603,26.54731 -14.34895,36.80908 l 0.0632,-1.09479"
       id="path6014"
       inkscape:connector-curvature="0" />
    <path
       style="fill:none;fill-rule:evenodd;stroke:#000000;stroke-width:2;stroke-linecap:round;stroke-linejoin:miter;stroke-miterlimit:4;stroke-dasharray:none;stroke-opacity:1"
       d="m 115.71429,420.21935 c -7.40083,10.55893 -11.47337,23.1484 -17.857147,34.28571"
       id="path6016"
       inkscape:connector-curvature="0" />
    <path
       style="fill:none;fill-rule:evenodd;stroke:#000000;stroke-width:2;stroke-linecap:round;stroke-linejoin:miter;stroke-miterlimit:4;stroke-dasharray:none;stroke-opacity:1"
       d="m 100,423.07649 c 2.44513,7.84475 8.08094,14.11531 13.57143,20"
       id="path6018"
       inkscape:connector-curvature="0" />
    <path
       style="fill:none;fill-rule:evenodd;stroke:#000000;stroke-width:2;stroke-linecap:round;stroke-linejoin:miter;stroke-miterlimit:4;stroke-dasharray:none;stroke-opacity:1"
       d="m 199.28571,376.64792 c -6.36655,10.69044 -13.25465,21.31649 -17.85719,32.85714"
       id="path6020"
       inkscape:connector-curvature="0" />
    <path
       style="fill:none;fill-rule:evenodd;stroke:#000000;stroke-width:2;stroke-linecap:round;stroke-linejoin:miter;stroke-miterlimit:4;stroke-dasharray:none;stroke-opacity:1"
       d="m 235,375.93363 c -5.64546,8.34314 -12.24336,16.55186 -20.71429,22.14286"
       id="path6022"
       inkscape:connector-curvature="0" />
    <path
       style="fill:none;fill-rule:evenodd;stroke:#000000;stroke-width:2;stroke-linecap:round;stroke-linejoin:miter;stroke-miterlimit:4;stroke-dasharray:none;stroke-opacity:1"
       d="m 272.14286,371.64792 c -6.14193,7.67532 -12.89303,15.04949 -20,21.42857"
       id="path6024"
       inkscape:connector-curvature="0" />
    <path
       style="fill:none;fill-rule:evenodd;stroke:#000000;stroke-width:2;stroke-linecap:round;stroke-linejoin:miter;stroke-miterlimit:4;stroke-dasharray:none;stroke-opacity:1"
       d="m 388.57143,378.79078 c -8.08518,8.43818 -13.43961,19.4441 -22.14286,27.85714"
       id="path6026"
       inkscape:connector-curvature="0" />
    <path
       style="fill:none;fill-rule:evenodd;stroke:#000000;stroke-width:2;stroke-linecap:round;stroke-linejoin:miter;stroke-miterlimit:4;stroke-dasharray:none;stroke-opacity:1"
       d="m 373.57143,391.64792 c 2.03515,8.33837 8.3693,15.5759 16.42857,18.57143"
       id="path6028"
       inkscape:connector-curvature="0" />
    <path
       style="fill:none;fill-rule:evenodd;stroke:#000000;stroke-width:2;stroke-linecap:round;stroke-linejoin:miter;stroke-miterlimit:4;stroke-dasharray:none;stroke-opacity:1"
       d="m 424.28571,378.07649 c -5.57877,10.58141 -16.69579,22.24791 -22.14285,30"
       id="path6030"
       inkscape:connector-curvature="0" />
    <path
       style="fill:none;fill-rule:evenodd;stroke:#000000;stroke-width:2;stroke-linecap:round;stroke-linejoin:miter;stroke-miterlimit:4;stroke-dasharray:none;stroke-opacity:1"
       d="m 407.14286,378.07649 c 4.21204,13.07655 8.67078,28.70445 22.14285,35"
       id="path6032"
       inkscape:connector-curvature="0" />
    <path
       style="fill:none;fill-rule:evenodd;stroke:#000000;stroke-width:2;stroke-linecap:round;stroke-linejoin:miter;stroke-miterlimit:4;stroke-dasharray:none;stroke-opacity:1"
       d="m 464.28571,378.79078 c -11.52495,9.07471 -18.22702,22.878 -29.30582,32.28562 l -0.69418,-0.14277"
       id="path6034"
       inkscape:connector-curvature="0" />
    <path
       style="fill:none;fill-rule:evenodd;stroke:#000000;stroke-width:2;stroke-linecap:round;stroke-linejoin:miter;stroke-miterlimit:4;stroke-dasharray:none;stroke-opacity:1"
       d="m 442.14286,376.64792 c 6.91402,14.04564 14.96277,27.83251 26.42857,38.57143"
       id="path6036"
       inkscape:connector-curvature="0" />
    <path
       style="fill:none;fill-rule:evenodd;stroke:#000000;stroke-width:2;stroke-linecap:round;stroke-linejoin:miter;stroke-miterlimit:4;stroke-dasharray:none;stroke-opacity:1"
       d="m 495.71429,379.50506 c -7.42032,9.94647 -13.293,21.4672 -21.93268,30.23189 l -0.21018,-0.23189"
       id="path6038"
       inkscape:connector-curvature="0" />
    <path
       style="fill:none;fill-rule:evenodd;stroke:#000000;stroke-width:2;stroke-linecap:round;stroke-linejoin:miter;stroke-miterlimit:4;stroke-dasharray:none;stroke-opacity:1"
       d="m 479.28571,377.3622 c 6.16184,11.78519 15.99179,22.49045 20.12993,34.76188 l -0.84421,0.23812"
       id="path6040"
       inkscape:connector-curvature="0" />
    <path
       style="fill:none;fill-rule:evenodd;stroke:#000000;stroke-width:2;stroke-linecap:round;stroke-linejoin:miter;stroke-miterlimit:4;stroke-dasharray:none;stroke-opacity:1"
       d="m 184.28571,447.3622 c 0.7452,11.79917 12.92866,20.72296 20,27.14286"
       id="path6042"
       inkscape:connector-curvature="0" />
    <path
       style="fill:none;fill-rule:evenodd;stroke:#000000;stroke-width:2;stroke-linecap:round;stroke-linejoin:miter;stroke-miterlimit:4;stroke-dasharray:none;stroke-opacity:1"
       d="m 200,446.64792 c -6.44056,6.44154 -12.96759,12.97285 -17.85714,20.71428"
       id="path6044"
       inkscape:connector-curvature="0" />
    <path
       style="fill:none;fill-rule:evenodd;stroke:#000000;stroke-width:2;stroke-linecap:round;stroke-linejoin:miter;stroke-miterlimit:4;stroke-dasharray:none;stroke-opacity:1"
       d="m 281.42857,460.93363 c 10.92828,0.96145 21.90944,1.57809 32.85714,2.14286"
       id="path6046"
       inkscape:connector-curvature="0" />
    <path
       style="fill:none;fill-rule:evenodd;stroke:#000000;stroke-width:2;stroke-linecap:round;stroke-linejoin:miter;stroke-miterlimit:4;stroke-dasharray:none;stroke-opacity:1"
       d="m 109.28571,442.3622 c -2.11735,-18.28133 1.63709,-37.47689 -1.67903,-55.98078 2.39127,-12.1304 -4.19156,-34.88759 6.85764,-40.62314 28.37196,2.40659 57.0677,-0.45788 85.53568,1.60392 17.16497,-1.43462 34.45141,-0.24791 51.61612,-2.28341 17.88548,-2.42051 35.9649,1.2461 53.7724,-2.63301 16.1358,-1.91454 32.1291,-1.6769 48.15342,-1.2051 22.66754,-2.08996 45.33835,3.42588 67.76765,3.79946 l 0.83327,0.89349"
       id="path6048"
       inkscape:connector-curvature="0" />
  </g>
</svg>
