<svg xmlns="http://www.w3.org/2000/svg" width="460.686" height="182.368" viewBox="0 0 431.893 170.97"><path d="M93.571 470.22c-2.224-11.358 2.806-31.804 1.334-46.52 2.924-24.263-3.95-48.455-.356-72.722 4.714-11.559-7.785-29.654 10.967-26.156 24.208-4.018 48.79-5.015 73.197-2.428 33.371-1.589 66.826-3.404 100.224-1.28 43.637 1.976 87.34 3.493 131.063 3.391 17.882-.97 36.142-2.064 53.691 1.744 17.287 2.029 34.849-1.55 52.023 1.827 14.87-.709 1.338 23.917 5.042 33.745 1.85 18.986-1.111 37.982-1.297 56.952-2.408 18.715-2.25 37.601-2.316 56.446-.995-1.927 5.026.706.714-2.857" style="fill:none;fill-rule:evenodd;stroke:#000;stroke-width:2;stroke-linecap:round;stroke-linejoin:miter;stroke-miterlimit:4;stroke-dasharray:none;stroke-opacity:1" transform="translate(-91.987 -307.252)"/><path d="M101.429 473.076c19.085 1.875 37.972-2.022 57.112-1.492 25.783-.443 51.47 1.867 77.182 2.983 17.372 3.273 35.044-1.056 52.5 1.649 13.254 1.376 26.45 1.392 39.59-.272 27.48 1.83 55.023-1.098 82.551-.028 26.904.562 53.866 1.614 80.695-.87 7.634.717 17.41-1.734 23.227-2.684M117.143 325.934c1.643 20.25 1.203 40.67 4.673 60.683 1.33 20.961-.98 42.355 1.203 62.98l.552-1.52M145 325.934c-.047 20.185-5.051 40.117-3.766 60.287-.381 14.015 1.219 35.089.195 43.284M174.286 327.362c1.728 24.324.935 48.73.36 73.067-1.336 5.144.528 15.346-.36 17.647" style="fill:none;fill-rule:evenodd;stroke:#000;stroke-width:2;stroke-linecap:round;stroke-linejoin:miter;stroke-miterlimit:4;stroke-dasharray:none;stroke-opacity:1" transform="translate(-91.987 -307.252)"/><path d="M173.571 443.076c-.052 8.212-1.937 26.98 0 28.572M207.143 324.505c1.156 14.826.7 29.748-.026 44.661 1.963 13.421-1.032 26.304-2.301 39.466l-.53.873M207.143 438.79c1.677 12.148-.034 31.866 3.571 37.858M243.571 325.934c.68 15.26-2.355 30.447-1.428 45.762-.331 7.541.815 16.148-.881 22.633l.449 1.472.432-1.296M242.857 425.934c-2.288 14.28-1.934 41.98-1.428 48.571M279.286 325.934c-1.805 20.673 1.587 41.494.834 62.045l-.946 3.568-.603 2.958M280 420.934c-2.233 17.478-3.825 35.796-1.423 52.91l.709-1.482M317.857 328.79c-3.36 15.364.271 30.998-1.428 46.43M320 400.22c.25 21.92-.463 43.827-1.429 65.714-.999.134-2.119 5.58-.714 2.142M357.857 327.362c-2.915 15.946-2.527 36.199-2.857 50M353.571 398.076c-.259 17.406-2.275 34.75-2.976 52.118-1.772 7.033.312 16.344.834 22.168M395.714 327.362c1.297 9.51-1.753 19.718 0 28.572M393.571 376.648c-.918 16.935-4.2 33.742-2.142 50.714-1.688 13.688-.573 27.743-2.143 41.429M432.143 323.076c2.38 6.809-2.217 21.063-.714 22.858M431.429 371.648c-.309 16.585-2.854 33.065-2.457 49.706-1.634 15.165-5.943 30.893-2.07 45.703.86 1.29-.25 6.716.24 1.02M467.857 356.648c1.756 30.192.519 60.432-.788 90.588.607 4.743-2.543 25.6-1.355 22.983M502.857 347.362c-6.301 20.48-5.321 42.223-8.557 63.242-.574 19.701-4.919 39.114-4.3 58.901-2.061 1.645.082 7.427.714 1.429" style="fill:none;fill-rule:evenodd;stroke:#000;stroke-width:2;stroke-linecap:round;stroke-linejoin:miter;stroke-miterlimit:4;stroke-dasharray:none;stroke-opacity:1" transform="translate(-91.987 -307.252)"/><path d="M101.429 462.362c16.603-.979 30.348-.08 41.428-13.571 7.597-18.752 27.746-16.406 43.826-19.515 15.09 3.637 26.69-13.433 38.632-20.769 12.926-5.595 30.549-3.174 44.97-3.622 13.326-7.873 23.344-21.626 38.007-26.584 19.677 2.971 41.602 3.105 60.74-1.969 14.434-10.155 27.648-23.978 46.88-21.639 17.737-.274 37.836 2.237 49.291-14.48 10.896-12.85 30.651-5.17 45.511-9.28H510" style="fill:none;fill-rule:evenodd;stroke:#000;stroke-width:2;stroke-linecap:round;stroke-linejoin:miter;stroke-miterlimit:4;stroke-dasharray:none;stroke-opacity:1" transform="translate(-91.987 -307.252)"/><path d="M142.857 464.505c13.106-7.379 15.758-28.357 33.696-23.203 18.028 1.223 34.873-2.528 46.304-17.511 11.183-8.745 25.795-6.184 38.938-8.536 16.348 1.888 26.36-12.535 40.253-18.324 14.34-9.849 31.715-6.46 47.95-7.394 16.6 2.92 28.457-9.478 41.641-16.879 12.757-8.684 29.085-4.683 43.641-6.724 16.993-2.431 27.807-23.457 46.41-20.358 11.642 3.739 27.356-6.751 31.881-11.07" style="fill:none;fill-rule:evenodd;stroke:#000;stroke-width:2;stroke-linecap:round;stroke-linejoin:miter;stroke-miterlimit:4;stroke-dasharray:none;stroke-opacity:1" transform="translate(-91.987 -307.252)"/><path d="M98.571 459.505c2.484-21.316 28.642-5.744 36.469-20.187 9.927-18.986 30.985-16.427 49.246-17.67 16.607-4.57 29.199-17.674 43.571-26.429 16.6-1.882 33.938 1.393 50-3.571 13.674-9.477 26.472-25.741 44.91-19.586 15.922-.93 33.342-.068 46.4-10.288 13.279-12.654 29.876-13.756 47.555-13.043 17.435 2.48 30.34-9.194 41.924-20.203 12.772-13.345 33.006-4.975 49.211-6.88 5.45-2.076 8.005 12.639 2.143 10.714" style="fill:none;fill-rule:evenodd;stroke:#000;stroke-width:2;stroke-linecap:round;stroke-linejoin:miter;stroke-miterlimit:4;stroke-dasharray:none;stroke-opacity:1" transform="translate(-91.987 -307.252)"/><path d="M95.714 366.648c21.516-1.218 43.213-1.191 64.713.714 24.114-2.47 48.348-.71 72.516-2.202 31.487 5.202 63.112-1.599 94.76.11 5.6.948 30.13-2.688 25.868 1.378M95.714 394.505c32.106 1.416 64.335.326 96.405 1.103 19.171-2.888 38.8-5.758 57.923-4.857l.672.897M95.714 417.362c21.73-1.569 43.536.667 65.323 0 10.2-.029 20.532.286 30.392-.714M218.571 438.076c21.163-.53 42.311-3.346 63.48-1.47 13.825-1.946 27.716-.528 41.452-1.697 29.51-2.198 59.171-1.054 88.61 1.705 26.493-.18 53.11-.41 79.395 2.972 1.625.1 20.233 2.658 11.35 1.348M293.571 412.362c23.15 1.338 46.374.367 69.52 2.086 24.218-.181 48.42 1.808 72.623.057 20.92 3.619 42.402-.333 63.322 1.144 4.11-.92 8.243-.349 12.393-.43M374.286 390.22c17.77 1.472 36.047-1.403 53.846 2.778 18.425.727 36.965 3.403 55.325 2.121 9.187-2.088 30.69.557 33.645.048l-2.102-.662M442.857 367.362c21.913.059 43.945.467 65.781 1.22.887 2.757 15.379 1.852 10.648 1.637" style="fill:none;fill-rule:evenodd;stroke:#000;stroke-width:2;stroke-linecap:round;stroke-linejoin:miter;stroke-miterlimit:4;stroke-dasharray:none;stroke-opacity:1" transform="translate(-91.987 -307.252)"/><path d="M391.429 417.362c-9.332 16.043-21.667 29.972-32.636 44.86l1.207-1.288" style="fill:none;fill-rule:evenodd;stroke:#000;stroke-width:2;stroke-linecap:round;stroke-linejoin:miter;stroke-miterlimit:4;stroke-dasharray:none;stroke-opacity:1" transform="translate(-91.987 -307.252)"/><path d="M361.429 418.076c5.712 14.703 25.41 24.303 27.857 39.286M422.857 421.648c-10.918 15.665-21.217 31.745-31.834 47.576l.406-1.148" style="fill:none;fill-rule:evenodd;stroke:#000;stroke-width:2;stroke-linecap:round;stroke-linejoin:miter;stroke-miterlimit:4;stroke-dasharray:none;stroke-opacity:1" transform="translate(-91.987 -307.252)"/><path d="M395 420.934c6.65 11.425 13.064 23.216 23.245 31.812 1.246 2.294 1.437 4.958 1.04 7.473M437.857 420.934c8.849 11.172 22.946 32.615 27.857 39.285" style="fill:none;fill-rule:evenodd;stroke:#000;stroke-width:2;stroke-linecap:round;stroke-linejoin:miter;stroke-miterlimit:4;stroke-dasharray:none;stroke-opacity:1" transform="translate(-91.987 -307.252)"/><path d="M462.143 420.934c-11.482 13.884-26.577 25-35.58 40.758-2.027 4.684.126 1.549 2.008.67M472.143 423.79c11.917 6.361 20.675 18.304 27.68 29.432 1.324 3.102 6.915 13.971 10.177 10.569" style="fill:none;fill-rule:evenodd;stroke:#000;stroke-width:2;stroke-linecap:round;stroke-linejoin:miter;stroke-miterlimit:4;stroke-dasharray:none;stroke-opacity:1" transform="translate(-91.987 -307.252)"/><path d="M501.429 420.934c-14.239 10.836-20.359 30.007-37.332 37.727l.072.605 1.545.24M325.714 421.648c12.695 6.995 14.12 24.813 22.546 36.239l1.74 2.332" style="fill:none;fill-rule:evenodd;stroke:#000;stroke-width:2;stroke-linecap:round;stroke-linejoin:miter;stroke-miterlimit:4;stroke-dasharray:none;stroke-opacity:1" transform="translate(-91.987 -307.252)"/><path d="M353.571 419.505c-12.379 13.426-24.388 27.283-36.01 41.332-1.326 2.045-2.499 4.208-3.275 6.525M283.571 422.362c13.436 5.284 14.456 24.413 28.085 31.355 1.037-.223 3.662 6.814 3.344 3.645" style="fill:none;fill-rule:evenodd;stroke:#000;stroke-width:2;stroke-linecap:round;stroke-linejoin:miter;stroke-miterlimit:4;stroke-dasharray:none;stroke-opacity:1" transform="translate(-91.987 -307.252)"/><path d="M317.857 418.076c-10.776 13.85-21.636 27.606-34.042 40.041l-1.12 1.818-.552 1.713M248.571 423.79c10.38 11.75 20.244 27.457 27.858 41.43" style="fill:none;fill-rule:evenodd;stroke:#000;stroke-width:2;stroke-linecap:round;stroke-linejoin:miter;stroke-miterlimit:4;stroke-dasharray:none;stroke-opacity:1" transform="translate(-91.987 -307.252)"/><path d="M277.857 423.076c-6.093 10.108-16.59 18.993-22.068 28.124-1.14 2.186-5.39 10.534-4.36 10.448M218.571 433.076c9.36 8.543 13.737 23.828 20.715 32.858" style="fill:none;fill-rule:evenodd;stroke:#000;stroke-width:2;stroke-linecap:round;stroke-linejoin:miter;stroke-miterlimit:4;stroke-dasharray:none;stroke-opacity:1" transform="translate(-91.987 -307.252)"/><path d="M239.286 424.505c-13.755 12.263-27.062 25.735-36.692 41.415l.977.014M152.143 374.505c5.659 12.36 10.554 25.46 21.428 34.286M97.143 374.505c6.418 13.718 19.778 23.754 23.571 38.571M120.714 375.934c3.801 11.817 12.36 21.035 20.758 29.754l.67 1.674M119.286 334.505c9.577 11.538 20.243 22.616 29.285 34.286M146.429 330.934c7.735 12.013 19.88 21.429 29.285 30.714M184.286 333.076c1.871 11.854 14.03 19.17 20.714 27.143M216.429 334.505c8.48 8.495 12.51 21.345 24.285 26.429M253.571 333.076c4.453 11.792 15.582 19.71 25 27.143M290 333.79c5.384 12.3 19.349 18.221 27.143 27.144M329.286 332.362c.359 11.746 12.56 18.749 20 25.714M365 334.505c8.434 2.987 7.022 14.943 14.286 19.286M218.571 376.648c2.427 6.09 5.298 12.403 10.715 16.428M183.571 377.362c5.467 10.877 11.024 21.862 19.286 30.714M157.143 310.934c-8.44 17.518 19.998 7.608 29.287 11.293 8.885.946 2.028-19.71-6.68-12.46-6.088 1.665-19.177-2.443-20.94.57l2.619-.832M100 333.076c5.885 10.87 13.09 21.725 22.143 30" style="fill:none;fill-rule:evenodd;stroke:#000;stroke-width:2;stroke-linecap:round;stroke-linejoin:miter;stroke-miterlimit:4;stroke-dasharray:none;stroke-opacity:1" transform="translate(-91.987 -307.252)"/><path d="M117.143 331.648c-9.251 7.31-9.898 23.671-15 30.714M142.143 326.648c-9.61 9.755-11.22 25.384-20 35M167.143 330.934c-5.978 10.332-11.949 20.985-18.572 30.714M196.429 332.362c-5.39 8.8-11.136 21.147-15.715 27.857M235.714 326.648c-6.232 11.6-14.334 22.596-22.857 32.143M273.571 335.22c-6.483 5.906-16.678 22.9-16.428 26.428M315 333.79c-11.26 8.656-18.307 21.68-28.571 31.43M346.429 334.505c-12.077 5.253-12.483 23.341-24.894 27.907l-.106-.764M382.857 333.79c-9.478 8.203-16.626 18.946-25.344 27.624l-.37-.48M170 375.934c-6.71 12.11-14.25 23.829-22.644 34.718l.501-.433M140 375.934c-3.244 11.225-13.691 21.239-15.714 32.142M116.429 377.362c-2.454 12.692-8.846 26.548-14.35 36.81l.064-1.096M115.714 420.22c-7.4 10.558-11.473 23.148-17.857 34.285" style="fill:none;fill-rule:evenodd;stroke:#000;stroke-width:2;stroke-linecap:round;stroke-linejoin:miter;stroke-miterlimit:4;stroke-dasharray:none;stroke-opacity:1" transform="translate(-91.987 -307.252)"/><path d="M100 423.076c2.445 7.845 8.08 14.116 13.571 20M199.286 376.648c-6.367 10.69-13.255 21.316-17.857 32.857M235 375.934c-5.645 8.343-12.243 16.551-20.714 22.142M272.143 371.648c-6.142 7.675-12.893 15.05-20 21.428M388.571 378.79c-8.085 8.439-13.44 19.445-22.142 27.858" style="fill:none;fill-rule:evenodd;stroke:#000;stroke-width:2;stroke-linecap:round;stroke-linejoin:miter;stroke-miterlimit:4;stroke-dasharray:none;stroke-opacity:1" transform="translate(-91.987 -307.252)"/><path d="M373.571 391.648c2.036 8.338 8.37 15.576 16.429 18.571M424.286 378.076c-5.58 10.582-16.696 22.248-22.143 30" style="fill:none;fill-rule:evenodd;stroke:#000;stroke-width:2;stroke-linecap:round;stroke-linejoin:miter;stroke-miterlimit:4;stroke-dasharray:none;stroke-opacity:1" transform="translate(-91.987 -307.252)"/><path d="M407.143 378.076c4.212 13.077 8.67 28.705 22.143 35M464.286 378.79c-11.525 9.075-18.227 22.879-29.306 32.286l-.694-.142" style="fill:none;fill-rule:evenodd;stroke:#000;stroke-width:2;stroke-linecap:round;stroke-linejoin:miter;stroke-miterlimit:4;stroke-dasharray:none;stroke-opacity:1" transform="translate(-91.987 -307.252)"/><path d="M442.143 376.648c6.914 14.046 14.963 27.832 26.428 38.571M495.714 379.505c-7.42 9.947-13.293 21.467-21.932 30.232l-.21-.232" style="fill:none;fill-rule:evenodd;stroke:#000;stroke-width:2;stroke-linecap:round;stroke-linejoin:miter;stroke-miterlimit:4;stroke-dasharray:none;stroke-opacity:1" transform="translate(-91.987 -307.252)"/><path d="M479.286 377.362c6.162 11.785 15.991 22.49 20.13 34.762l-.845.238M184.286 447.362c.745 11.8 12.928 20.723 20 27.143" style="fill:none;fill-rule:evenodd;stroke:#000;stroke-width:2;stroke-linecap:round;stroke-linejoin:miter;stroke-miterlimit:4;stroke-dasharray:none;stroke-opacity:1" transform="translate(-91.987 -307.252)"/><path d="M200 446.648c-6.44 6.441-12.968 12.973-17.857 20.714M281.429 460.934c10.928.961 21.909 1.578 32.857 2.142M109.286 442.362c-2.118-18.281 1.637-37.477-1.68-55.98 2.392-12.131-4.19-34.888 6.858-40.624 28.372 2.407 57.068-.458 85.536 1.604 17.165-1.434 34.451-.248 51.616-2.283 17.886-2.42 35.965 1.246 53.773-2.633 16.135-1.915 32.129-1.677 48.153-1.205 22.667-2.09 45.338 3.426 67.768 3.8l.833.893" style="fill:none;fill-rule:evenodd;stroke:#000;stroke-width:2;stroke-linecap:round;stroke-linejoin:miter;stroke-miterlimit:4;stroke-dasharray:none;stroke-opacity:1" transform="translate(-91.987 -307.252)"/></svg>