<?xml version="1.0" encoding="UTF-8" standalone="no"?>
<!-- Created with Inkscape (http://www.inkscape.org/) -->

<svg
   xmlns:dc="http://purl.org/dc/elements/1.1/"
   xmlns:cc="http://creativecommons.org/ns#"
   xmlns:rdf="http://www.w3.org/1999/02/22-rdf-syntax-ns#"
   xmlns:svg="http://www.w3.org/2000/svg"
   xmlns="http://www.w3.org/2000/svg"
   xmlns:sodipodi="http://sodipodi.sourceforge.net/DTD/sodipodi-0.dtd"
   xmlns:inkscape="http://www.inkscape.org/namespaces/inkscape"
   width="73.481621mm"
   height="32.674931mm"
   viewBox="0 0 260.36795 115.77731"
   id="svg6934"
   version="1.1"
   inkscape:version="0.91 r13725"
   sodipodi:docname="pyramide-du-louvre.svg">
  <defs
     id="defs6936" />
  <sodipodi:namedview
     id="base"
     pagecolor="#ffffff"
     bordercolor="#666666"
     borderopacity="1.0"
     inkscape:pageopacity="0.0"
     inkscape:pageshadow="2"
     inkscape:zoom="0.98994949"
     inkscape:cx="-182.20284"
     inkscape:cy="-52.272649"
     inkscape:document-units="px"
     inkscape:current-layer="layer1"
     showgrid="false"
     inkscape:window-width="1920"
     inkscape:window-height="1009"
     inkscape:window-x="0"
     inkscape:window-y="34"
     inkscape:window-maximized="1"
     fit-margin-top="0"
     fit-margin-left="0"
     fit-margin-right="0"
     fit-margin-bottom="0" />
  <metadata
     id="metadata6939">
    <rdf:RDF>
      <cc:Work
         rdf:about="">
        <dc:format>image/svg+xml</dc:format>
        <dc:type
           rdf:resource="http://purl.org/dc/dcmitype/StillImage" />
        <dc:title />
      </cc:Work>
    </rdf:RDF>
  </metadata>
  <g
     inkscape:label="Calque 1"
     inkscape:groupmode="layer"
     id="layer1"
     transform="translate(-214.47437,-205.96004)">
    <path
       style="fill:none;fill-rule:evenodd;stroke:#0000ff;stroke-width:2;stroke-linecap:butt;stroke-linejoin:miter;stroke-miterlimit:4;stroke-dasharray:none;stroke-opacity:1"
       d="m 215.16249,321.01176 c 9.96418,-9.44947 21.02338,-17.47244 31.542,-26.30497 7.53312,-6.54995 15.08729,-12.93881 21.72545,-20.41582 5.75699,-6.55054 12.54002,-12.25936 19.46724,-17.70882 8.69774,-8.38314 19.63472,-13.83021 28.68774,-21.62998 10.72202,-7.81824 19.85423,-17.42562 28.88725,-27.07749 7.1404,-4.46324 13.45802,8.49649 21.4639,10.01311 12.58079,8.83757 22.4772,20.95955 34.28132,30.61598 6.77736,5.6256 11.42596,13.35478 18.57202,18.42628 6.87446,6.08226 15.97688,13.52443 22.13225,20.07707 10.43259,7.57821 17.92255,19.0917 29.81958,24.91327 -0.0941,1.0217 2.58999,3.57307 2.0203,1.01015"
       id="path7634"
       inkscape:connector-curvature="0" />
    <path
       style="fill:none;fill-rule:evenodd;stroke:#0000ff;stroke-width:2;stroke-linecap:butt;stroke-linejoin:miter;stroke-miterlimit:4;stroke-dasharray:none;stroke-opacity:1"
       d="m 220.21325,318.99146 c 13.75234,-2.18904 27.6865,-2.08516 41.55088,-2.1777 19.16168,-2.30805 38.46327,-1.91635 57.71504,-1.82316 9.35364,-1.32126 18.74737,-1.08566 28.07414,-2.68947 14.32159,-1.18759 28.73138,-0.21044 43.02092,0.83493 8.96669,-1.78862 17.79301,-0.51083 26.72805,-0.19906 12.98495,-0.15776 26.00399,0.63843 38.8821,-1.34303 3.4303,-0.47015 16.32697,-0.36128 13.35088,-0.60452 -1.95714,-0.0859 -3.91665,-0.0918 -5.87524,-0.0792"
       id="path7636"
       inkscape:connector-curvature="0" />
    <path
       style="fill:none;fill-rule:evenodd;stroke:#0000ff;stroke-width:2;stroke-linecap:butt;stroke-linejoin:miter;stroke-miterlimit:4;stroke-dasharray:none;stroke-opacity:1"
       d="m 284.86302,258.3823 c 5.91011,3.37087 10.6873,8.39085 16.34788,12.12794 7.29899,3.79126 12.65654,10.12051 19.56505,14.34815 8.34926,2.96156 12.62532,11.2012 20.27115,15.25736 5.38562,3.00463 10.15678,9.12667 15.31835,11.05964 l -0.79175,-1.27531"
       id="path7638"
       inkscape:connector-curvature="0" />
    <path
       style="fill:none;fill-rule:evenodd;stroke:#0000ff;stroke-width:2;stroke-linecap:butt;stroke-linejoin:miter;stroke-miterlimit:4;stroke-dasharray:none;stroke-opacity:1"
       d="m 416.18285,264.44322 c -4.48241,3.74957 -8.80652,6.72137 -11.84671,11.95039 -4.66001,3.82737 -10.70097,9.67709 -15.71507,12.29777 -1.3225,2.67913 -5.32394,4.16242 -9.81387,8.07672 -2.00248,1.49227 -5.33961,1.57371 -6.06091,4.04061 -3.23752,1.7426 -6.05231,2.27062 -8.08122,5.05076 -3.88817,1.51356 -5.06993,2.62237 -8.08122,5.05077 -2.39567,0.59213 -2.3439,2.32189 1.01015,0"
       id="path7644"
       inkscape:connector-curvature="0" />
    <path
       style="fill:none;fill-rule:evenodd;stroke:#0000ff;stroke-width:2;stroke-linecap:butt;stroke-linejoin:miter;stroke-miterlimit:4;stroke-dasharray:none;stroke-opacity:1"
       d="m 254.55844,287.67673 c 1.04835,4.68171 6.02864,6.45772 9.08966,9.57453 2.31346,1.7163 4.84486,3.02326 7.00976,4.93504 3.62142,1.51997 5.01023,5.18549 7.67881,7.77292 2.35765,1.84355 5.18611,3.96861 8.21604,4.12405 l 0.33061,-0.14258"
       id="path7646"
       inkscape:connector-curvature="0" />
    <path
       style="fill:none;fill-rule:evenodd;stroke:#0000ff;stroke-width:2;stroke-linecap:butt;stroke-linejoin:miter;stroke-miterlimit:4;stroke-dasharray:none;stroke-opacity:1"
       d="m 443.45697,288.68688 c -5.38304,3.49365 -9.99323,7.76541 -14.67087,10.06871 -2.51199,2.1184 -5.22524,3.8104 -6.54234,5.08358 -1.80334,1.59597 -3.34936,2.80273 -5.5218,4.64128 0.56647,1.16333 -3.45967,3.18611 -4.7583,4.95517 0.0665,1.16697 1.52892,0.23997 2.19888,0.50507"
       id="path7648"
       inkscape:connector-curvature="0" />
    <path
       style="fill:none;fill-rule:evenodd;stroke:#0000ff;stroke-width:2;stroke-linecap:butt;stroke-linejoin:miter;stroke-miterlimit:4;stroke-dasharray:none;stroke-opacity:1"
       d="m 320.21836,233.12849 c 29.14458,28.31226 63.47647,50.72633 91.92388,79.80205"
       id="path7650"
       inkscape:connector-curvature="0" />
    <path
       style="fill:none;fill-rule:evenodd;stroke:#0000ff;stroke-width:2;stroke-linecap:butt;stroke-linejoin:miter;stroke-miterlimit:4;stroke-dasharray:none;stroke-opacity:1"
       d="m 383.85797,231.10819 c -4.73327,1.99619 -6.96327,6.03165 -11.11168,8.08122 -1.60168,1.47573 -5.16526,2.73305 -6.06092,5.05076 -3.9046,1.95896 -6.67867,4.74324 -9.09137,7.07107 -2.15259,1.22425 -6.20738,5.03125 -8.54931,7.16035 -1.26436,1.7958 -4.79232,3.45002 -6.60298,5.97163 -2.39977,1.21633 -3.33741,3.42785 -6.56599,5.55584 -2.80515,2.53033 -5.3661,4.21472 -8.05757,6.59881 -1.93752,1.55109 -3.415,2.52161 -6.58964,5.01795 -3.11587,2.45758 -7.85873,6.37358 -11.11168,10.10152 -1.8113,0.003 -3.60728,3.16735 -6.06092,4.04061 -2.18126,0.92362 -3.26966,3.15652 -5.05076,4.54569 -2.15144,2.72163 -3.32485,3.55026 -5.55584,5.55583 -1.57194,1.55477 -4.99955,2.17248 -5.83994,3.69337 -1.197,1.57968 -7.65054,4.13416 -1.80184,3.30402 l 0.0656,-0.93647"
       id="path7652"
       inkscape:connector-curvature="0" />
    <path
       style="fill:none;fill-rule:evenodd;stroke:#0000ff;stroke-width:2;stroke-linecap:butt;stroke-linejoin:miter;stroke-miterlimit:4;stroke-dasharray:none;stroke-opacity:1"
       d="m 366.68537,216.96605 c -11.94559,7.69935 -21.23045,18.80136 -32.66793,27.18793 -7.28574,7.22977 -14.97043,14.05998 -23.61884,19.64089 -4.90252,4.33616 -11.00064,7.13171 -15.52979,11.89408 -7.88861,7.58753 -16.99545,13.75943 -24.70063,21.54032 -7.23663,6.36441 -14.11971,13.10994 -21.45929,19.33089 -2.46836,2.04275 1.19115,-1.65544 0.79879,-0.59916"
       id="path7654"
       inkscape:connector-curvature="0" />
    <path
       style="fill:none;fill-rule:evenodd;stroke:#0000ff;stroke-width:2;stroke-linecap:butt;stroke-linejoin:miter;stroke-miterlimit:4;stroke-dasharray:none;stroke-opacity:1"
       d="m 335.37065,219.99651 c 3.42329,6.52414 12.05548,6.43896 16.59554,11.739 7.36146,1.89848 10.73321,9.54691 16.73949,13.51481 3.98053,5.06856 8.93057,9.34861 13.82211,13.46956 5.23765,4.00321 9.53512,9.1522 14.47034,13.40344 3.53042,3.66404 6.39969,7.97383 10.37824,11.29103 3.67308,3.62029 7.6068,6.77248 11.68998,9.98098 3.52573,3.24209 7.49831,6.13027 10.89074,9.20668 2.23843,2.00688 5.8186,6.31268 8.63978,8.95127 l -0.27454,0.24596 -0.92628,0.12115"
       id="path7662"
       inkscape:connector-curvature="0" />
    <path
       style="fill:none;fill-rule:evenodd;stroke:#0000ff;stroke-width:2;stroke-linecap:butt;stroke-linejoin:miter;stroke-miterlimit:4;stroke-dasharray:none;stroke-opacity:1"
       d="m 301.02546,247.27063 c 12.11679,9.53899 26.056,16.45801 38.30475,25.83228 15.67897,8.22016 24.25901,24.02231 37.52007,34.97043 l 2.01985,1.89149 1.95738,1.95556"
       id="path7670"
       inkscape:connector-curvature="0" />
    <path
       style="fill:none;fill-rule:evenodd;stroke:#0000ff;stroke-width:2;stroke-linecap:butt;stroke-linejoin:miter;stroke-miterlimit:4;stroke-dasharray:none;stroke-opacity:1"
       d="m 396.98995,248.28078 c -4.87327,4.71742 -9.05262,10.21601 -14.99128,13.71633 -6.14252,4.45981 -11.23232,10.1936 -17.45693,14.58022 -5.64081,6.02189 -12.81629,10.17183 -18.69232,15.92454 -7.16602,5.1927 -14.9893,9.45172 -21.64691,15.32736 -2.95775,2.42825 -7.34909,4.38152 -8.57048,8.09875 0.56661,0.50313 1.30389,-0.87509 1.55587,-0.97713"
       id="path7672"
       inkscape:connector-curvature="0" />
    <path
       style="fill:none;fill-rule:evenodd;stroke:#0000ff;stroke-width:2;stroke-linecap:butt;stroke-linejoin:miter;stroke-miterlimit:4;stroke-dasharray:none;stroke-opacity:1"
       d="m 383.85797,310.91024 c 6.91153,-5.03255 13.77685,-10.21968 21.09396,-14.60424 6.78978,-6.80724 14.33907,-12.77756 21.85007,-18.68183 1.10332,-0.3232 0.77289,-1.85388 -0.51763,-1.05912"
       id="path7678"
       inkscape:connector-curvature="0" />
    <path
       style="fill:none;fill-rule:evenodd;stroke:#0000ff;stroke-width:2;stroke-linecap:butt;stroke-linejoin:miter;stroke-miterlimit:4;stroke-dasharray:none;stroke-opacity:1"
       d="m 236.3757,301.81886 c 3.34138,2.92348 4.48275,5.25502 7.07106,8.08122 0.94717,2.30421 3.17441,3.05346 4.49021,5.1847 1.45752,-1.07736 4.59622,3.65904 4.60117,0.87622"
       id="path7682"
       inkscape:connector-curvature="0" />
    <path
       style="fill:none;fill-rule:evenodd;stroke:#0000ff;stroke-width:2;stroke-linecap:butt;stroke-linejoin:miter;stroke-miterlimit:4;stroke-dasharray:none;stroke-opacity:1"
       d="m 452.54834,298.78841 c -1.84576,2.61043 -4.10211,4.94815 -6.81137,6.66649 -0.7573,0.62691 -0.88311,1.70006 -1.85351,2.15174 -1.74614,1.22955 -3.75598,2.03702 -5.47726,3.3036 -0.0466,1.35893 -1.59634,1.94759 -2.44445,2.79012 -0.48807,0.58517 0.13297,0.28302 0.42415,0.24033"
       id="path7684"
       inkscape:connector-curvature="0" />
    <path
       style="fill:none;fill-rule:evenodd;stroke:#0000ff;stroke-width:2;stroke-linecap:butt;stroke-linejoin:miter;stroke-miterlimit:4;stroke-dasharray:none;stroke-opacity:1"
       d="m 268.70058,270.50414 c 4.08258,8.33778 14.12761,10.72138 20.62526,16.69936 5.86132,5.53582 13.00155,9.54826 17.99051,15.94427 2.8409,2.94276 6.69159,8.09156 9.87151,8.77262"
       id="path7686"
       inkscape:connector-curvature="0" />
  </g>
</svg>
