<svg xmlns="http://www.w3.org/2000/svg" width="214.482" height="424.083" viewBox="0 0 201.077 397.578"><path d="M277.792 299.799c-6.353 42.583-3.774 85.858-9.755 128.421-1.215 39.08-9.46 77.906-26.95 113.043-15.13 31.24-30.023 62.751-47.138 92.896M224.254 639.21c-2.11-21.983 16.807-38.691 32.53-50.841 21.35-11.876 50.915-13.657 69.74 3.93 15.208 10.731 20.495 33.53 29.89 45.32l.17-2.45M292.944 296.768c-8.129 56.01 9.987 111.131 13.048 166.773 8.639 44.45 30.158 84.977 49.063 125.617 10.816 15.99 18.43 34.815 32.844 48.032M275.772 491.728c8.05 5.92 23.394-7.623 18.35 10.083.78 14.079 20.79 45.524-7.73 36.447-9.138-3.044-25.637 9.032-17.691-8.54-.59-13.408 6.742-24.926 7.07-37.99z" style="fill:none;fill-rule:evenodd;stroke:#000;stroke-width:2;stroke-linecap:round;stroke-linejoin:miter;stroke-miterlimit:4;stroke-dasharray:none;stroke-opacity:1" transform="translate(-188.523 -247.178)"/><path d="M256.579 481.626c-7.077-17.508 27.16-10.771 37.66-13.873 11.123.861 27.732-.056 18.908 11.853" style="fill:none;fill-rule:evenodd;stroke:#000;stroke-width:2;stroke-linecap:round;stroke-linejoin:miter;stroke-miterlimit:4;stroke-dasharray:none;stroke-opacity:1" transform="translate(-188.523 -247.178)"/><path d="M283.853 390.712c1.65 23.634-2.32 46.315-5.644 69.424-.087 3.242-1.854 12.188.593 3.307" style="fill:none;fill-rule:evenodd;stroke:#000;stroke-width:2;stroke-linecap:round;stroke-linejoin:miter;stroke-miterlimit:4;stroke-dasharray:none;stroke-opacity:1" transform="translate(-188.523 -247.178)"/><path d="M283.853 387.682c1.053 22.431 6.688 44.094 8.754 66.392.268 2.028 1.33 15.515 1.347 12.4M278.802 269.494c-20.788 9.028 2.62 47.187 16.044 23.258 5.16-14.22 3.044-30.524-16.044-23.258z" style="fill:none;fill-rule:evenodd;stroke:#000;stroke-width:2;stroke-linecap:round;stroke-linejoin:miter;stroke-miterlimit:4;stroke-dasharray:none;stroke-opacity:1" transform="translate(-188.523 -247.178)"/><path d="M281.833 266.464c.746-9.868 3.879-30.105 4.91-9.102.528 3.353.742 6.744 1.15 10.112M223.244 612.946c8.921-14.191 18.386-29.836 34.43-36.777 9.45-3.437 19.57-4.727 29.529-5.784 12.56-.917 25.884-.153 37.225 5.783 9.467 5.714 17.435 14.725 20.034 25.666M231.325 545.266c23.132-1.284 46.875 3.706 69.727.106 10.137.064 40.93-.25 40.38-1.117M228.294 556.377c30.728-2.2 61.533-.645 92.272-2.299 5.5-1.827 24.91-2.062 22.886-.731M265.67 476.575c7.11.532 16.211-.599 23.234 0 2.378-.955 20.606.005 15.657-.505M274.761 281.616c3.746-1.459 9.365-2.552 13.638-2.02 2.145-.883 8.786 2.343 6.06 1.515M283.348 389.197c.236-14.249 1.632-28.777.505-42.931 2.175-6.87-.105-13.891.505-21.719-.575.989.663 1.893 1.515 1.516M262.64 487.182c12.166-.373 23.95 1.474 35.86-.505 2.231 1.613 11.255-.633 11.112 1.01M261.63 492.233c3.291.448 11.641-.934 10.606 0M299.005 493.748c3.355-2.018 11.829-.75 13.132-.505M225.77 578.6c3.783 3.667 14.186-.591 16.162 1.516M227.79 574.56c5.962.637 13.708.159 18.182 2.02v-.505M253.548 563.953c-2.776 4.627-4.665 11.388-8.08 14.648-.708 1.312-1.873 7.006-3.536 6.06" style="fill:none;fill-rule:evenodd;stroke:#000;stroke-width:2;stroke-linecap:round;stroke-linejoin:miter;stroke-miterlimit:4;stroke-dasharray:none;stroke-opacity:1" transform="translate(-188.523 -247.178)"/><path d="M320.218 563.448c2.221 3.824 2.7 8.967 6.061 11.112.97 1.892 1.526 3.14 2.02 5.05M328.3 573.045c5.109 2.362 13.908.233 17.677 1.01-1.094-.59.084 1.094-1.01.505M332.34 579.106c2.721.194 19.027-1.404 15.658-.505M343.452 598.804c2.805 9.407 7.388 18.17 12.493 26.48 2.07 5.045 4.066 10.15 6.7 14.936M224.254 612.44c-2.058 5.219-4.605 8.296-7.071 14.143-1.6 2.005-3.967 7.518-3.536 9.091" style="fill:none;fill-rule:evenodd;stroke:#000;stroke-width:2;stroke-linecap:round;stroke-linejoin:miter;stroke-miterlimit:4;stroke-dasharray:none;stroke-opacity:1" transform="translate(-188.523 -247.178)"/><path d="M192.94 634.16c-8.006 2.862-.08 6.826 4.545 5.05 7.728-.658 13.272.87 19.698 1.515 3.153-1.392 9.22.129 10.606-3.03-4.451-2.065-9.792-1.249-15.657-2.526-3.685-2.007-10.245-.644-14.142-.505-1.929-.718-11.997 2.384-5.05-.505zM361.635 638.705c-2.604.369-13.886.553-7.071 3.03 9.554 1.533 19.607 1.993 29.799 2.02 5.912-.702 5.694-4.91-1.01-5.555-7.75-.103-14.934-2.781-21.718.505z" style="fill:none;fill-rule:evenodd;stroke:#000;stroke-width:2;stroke-linecap:round;stroke-linejoin:miter;stroke-miterlimit:4;stroke-dasharray:none;stroke-opacity:1" transform="translate(-188.523 -247.178)"/></svg>