<?xml version="1.0" encoding="UTF-8" standalone="no"?>
<!-- Created with Inkscape (http://www.inkscape.org/) -->

<svg
   xmlns:dc="http://purl.org/dc/elements/1.1/"
   xmlns:cc="http://creativecommons.org/ns#"
   xmlns:rdf="http://www.w3.org/1999/02/22-rdf-syntax-ns#"
   xmlns:svg="http://www.w3.org/2000/svg"
   xmlns="http://www.w3.org/2000/svg"
   xmlns:sodipodi="http://sodipodi.sourceforge.net/DTD/sodipodi-0.dtd"
   xmlns:inkscape="http://www.inkscape.org/namespaces/inkscape"
   width="56.748299mm"
   height="112.20538mm"
   viewBox="0 0 201.07665 397.57813"
   id="svg8545"
   version="1.1"
   inkscape:version="0.91 r13725"
   sodipodi:docname="tour-eiffel.svg">
  <defs
     id="defs8547" />
  <sodipodi:namedview
     id="base"
     pagecolor="#ffffff"
     bordercolor="#666666"
     borderopacity="1.0"
     inkscape:pageopacity="0.0"
     inkscape:pageshadow="2"
     inkscape:zoom="1.4"
     inkscape:cx="-328.54915"
     inkscape:cy="115.95612"
     inkscape:document-units="px"
     inkscape:current-layer="layer1"
     showgrid="false"
     inkscape:window-width="1920"
     inkscape:window-height="1009"
     inkscape:window-x="0"
     inkscape:window-y="34"
     inkscape:window-maximized="1"
     fit-margin-top="0"
     fit-margin-left="0"
     fit-margin-right="0"
     fit-margin-bottom="0" />
  <metadata
     id="metadata8550">
    <rdf:RDF>
      <cc:Work
         rdf:about="">
        <dc:format>image/svg+xml</dc:format>
        <dc:type
           rdf:resource="http://purl.org/dc/dcmitype/StillImage" />
        <dc:title />
      </cc:Work>
    </rdf:RDF>
  </metadata>
  <g
     inkscape:label="Calque 1"
     inkscape:groupmode="layer"
     id="layer1"
     transform="translate(-188.52267,-247.17753)">
    <path
       style="fill:none;fill-rule:evenodd;stroke:#0000ff;stroke-width:2;stroke-linecap:round;stroke-linejoin:miter;stroke-miterlimit:4;stroke-dasharray:none;stroke-opacity:1"
       d="m 277.79195,299.79856 c -6.35326,42.58369 -3.77427,85.85859 -9.75513,128.42141 -1.21522,39.08049 -9.45915,77.90555 -26.94996,113.04347 -15.12937,31.23918 -30.02281,62.75088 -47.13757,92.89561"
       id="path9125"
       inkscape:connector-curvature="0" />
    <path
       style="fill:none;fill-rule:evenodd;stroke:#0000ff;stroke-width:2;stroke-linecap:round;stroke-linejoin:miter;stroke-miterlimit:4;stroke-dasharray:none;stroke-opacity:1"
       d="m 224.25387,639.20981 c -2.11081,-21.98304 16.80724,-38.69124 32.52942,-50.84092 21.35162,-11.8757 50.91547,-13.657 69.74069,3.92921 15.20807,10.73229 20.49513,33.53058 29.88956,45.32167 l 0.17031,-2.45057"
       id="path9131"
       inkscape:connector-curvature="0" />
    <path
       style="fill:none;fill-rule:evenodd;stroke:#0000ff;stroke-width:2;stroke-linecap:round;stroke-linejoin:miter;stroke-miterlimit:4;stroke-dasharray:none;stroke-opacity:1"
       d="m 292.94424,296.7681 c -8.12878,56.01075 9.98715,111.13113 13.0479,166.77256 8.63884,44.45031 30.15756,84.97702 49.06315,125.61714 10.81544,15.99076 18.42901,34.81504 32.84326,48.03171"
       id="path9137"
       inkscape:connector-curvature="0" />
    <path
       style="fill:none;fill-rule:evenodd;stroke:#0000ff;stroke-width:2;stroke-linecap:round;stroke-linejoin:miter;stroke-miterlimit:4;stroke-dasharray:none;stroke-opacity:1"
       d="m 275.77164,491.72754 c 8.04981,5.92055 23.39393,-7.62218 18.35131,10.08358 0.77984,14.07855 20.78831,45.52435 -7.73174,36.44646 -9.13702,-3.04377 -25.63593,9.03222 -17.69063,-8.53924 -0.58996,-13.40839 6.7422,-24.92672 7.07106,-37.9908 z"
       id="path9143"
       inkscape:connector-curvature="0" />
    <path
       style="fill:none;fill-rule:evenodd;stroke:#0000ff;stroke-width:2;stroke-linecap:round;stroke-linejoin:miter;stroke-miterlimit:4;stroke-dasharray:none;stroke-opacity:1"
       d="m 256.57875,481.62602 c -7.07712,-17.50842 27.16078,-10.77147 37.66065,-13.8732 11.1221,0.86114 27.73171,-0.0556 18.90789,11.85289"
       id="path9145"
       inkscape:connector-curvature="0" />
    <path
       style="fill:none;fill-rule:evenodd;stroke:#0000ff;stroke-width:2;stroke-linecap:round;stroke-linejoin:miter;stroke-miterlimit:4;stroke-dasharray:none;stroke-opacity:1"
       d="m 283.85287,390.71229 c 1.64993,23.63386 -2.31935,46.31482 -5.64348,69.4241 -0.0876,3.24136 -1.8546,12.18715 0.59271,3.30688"
       id="path9147"
       inkscape:connector-curvature="0" />
    <path
       style="fill:none;fill-rule:evenodd;stroke:#0000ff;stroke-width:2;stroke-linecap:round;stroke-linejoin:miter;stroke-miterlimit:4;stroke-dasharray:none;stroke-opacity:1"
       d="m 283.85287,387.68183 c 1.0533,22.43145 6.6882,44.09402 8.75434,66.39194 0.26809,2.02803 1.32985,15.51514 1.34718,12.39996"
       id="path9149"
       inkscape:connector-curvature="0" />
    <path
       style="fill:none;fill-rule:evenodd;stroke:#0000ff;stroke-width:2;stroke-linecap:round;stroke-linejoin:miter;stroke-miterlimit:4;stroke-dasharray:none;stroke-opacity:1"
       d="m 278.8021,269.49398 c -20.78771,9.02812 2.61924,47.18725 16.04377,23.2581 5.1594,-14.2209 3.04426,-30.52371 -16.04377,-23.2581 z"
       id="path9151"
       inkscape:connector-curvature="0" />
    <path
       style="fill:none;fill-rule:evenodd;stroke:#0000ff;stroke-width:2;stroke-linecap:round;stroke-linejoin:miter;stroke-miterlimit:4;stroke-dasharray:none;stroke-opacity:1"
       d="m 281.83256,266.46352 c 0.74662,-9.86782 3.87937,-30.10501 4.91059,-9.10118 0.52767,3.353 0.74204,6.744 1.15033,10.11134"
       id="path9155"
       inkscape:connector-curvature="0" />
    <path
       style="fill:none;fill-rule:evenodd;stroke:#0000ff;stroke-width:2;stroke-linecap:round;stroke-linejoin:miter;stroke-miterlimit:4;stroke-dasharray:none;stroke-opacity:1"
       d="m 223.24371,612.94585 c 8.92127,-14.19089 18.38646,-29.8362 34.43101,-36.77653 9.44857,-3.43734 19.56853,-4.72774 29.52828,-5.78457 12.56058,-0.91693 25.88412,-0.1523 37.22518,5.7833 9.46633,5.71431 17.43456,14.7249 20.03384,25.66612"
       id="path9157"
       inkscape:connector-curvature="0" />
    <path
       style="fill:none;fill-rule:evenodd;stroke:#0000ff;stroke-width:2;stroke-linecap:round;stroke-linejoin:miter;stroke-miterlimit:4;stroke-dasharray:none;stroke-opacity:1"
       d="m 231.32493,545.26563 c 23.13245,-1.28325 46.87526,3.70637 69.72707,0.10628 10.13739,0.0638 40.93083,-0.24939 40.37956,-1.11644"
       id="path9163"
       inkscape:connector-curvature="0" />
    <path
       style="fill:none;fill-rule:evenodd;stroke:#0000ff;stroke-width:2;stroke-linecap:round;stroke-linejoin:miter;stroke-miterlimit:4;stroke-dasharray:none;stroke-opacity:1"
       d="m 228.29448,556.3773 c 30.72739,-2.19998 61.53265,-0.64546 92.27124,-2.29918 5.50015,-1.82687 24.9103,-2.06168 22.88615,-0.73127"
       id="path9165"
       inkscape:connector-curvature="0" />
    <path
       style="fill:none;fill-rule:evenodd;stroke:#0000ff;stroke-width:2;stroke-linecap:round;stroke-linejoin:miter;stroke-miterlimit:4;stroke-dasharray:none;stroke-opacity:1"
       d="m 265.67012,476.57525 c 7.10959,0.53134 16.21117,-0.599 23.23351,0 2.37811,-0.95497 20.60657,0.005 15.65736,-0.50507"
       id="path9227"
       inkscape:connector-curvature="0" />
    <path
       style="fill:none;fill-rule:evenodd;stroke:#0000ff;stroke-width:2;stroke-linecap:round;stroke-linejoin:miter;stroke-miterlimit:4;stroke-dasharray:none;stroke-opacity:1"
       d="m 274.76149,281.61581 c 3.74597,-1.45842 9.3641,-2.5514 13.63706,-2.0203 2.1453,-0.88244 8.7866,2.34302 6.06092,1.51523"
       id="path9229"
       inkscape:connector-curvature="0" />
    <path
       style="fill:none;fill-rule:evenodd;stroke:#0000ff;stroke-width:2;stroke-linecap:round;stroke-linejoin:miter;stroke-miterlimit:4;stroke-dasharray:none;stroke-opacity:1"
       d="m 283.34779,389.19706 c 0.2363,-14.24902 1.63188,-28.77684 0.50508,-42.93148 2.1755,-6.86876 -0.1046,-13.89074 0.50507,-21.71828 -0.57512,0.98831 0.66266,1.89231 1.51523,1.51522"
       id="path9231"
       inkscape:connector-curvature="0" />
    <path
       style="fill:none;fill-rule:evenodd;stroke:#0000ff;stroke-width:2;stroke-linecap:round;stroke-linejoin:miter;stroke-miterlimit:4;stroke-dasharray:none;stroke-opacity:1"
       d="m 262.63966,487.18186 c 12.16682,-0.37302 23.95022,1.47396 35.86042,-0.50508 2.2314,1.61304 11.25514,-0.63316 11.11168,1.01015"
       id="path9239"
       inkscape:connector-curvature="0" />
    <path
       style="fill:none;fill-rule:evenodd;stroke:#0000ff;stroke-width:2;stroke-linecap:round;stroke-linejoin:miter;stroke-miterlimit:4;stroke-dasharray:none;stroke-opacity:1"
       d="m 261.62951,492.23262 c 3.29198,0.44828 11.64181,-0.93405 10.6066,0"
       id="path9241"
       inkscape:connector-curvature="0" />
    <path
       style="fill:none;fill-rule:evenodd;stroke:#0000ff;stroke-width:2;stroke-linecap:round;stroke-linejoin:miter;stroke-miterlimit:4;stroke-dasharray:none;stroke-opacity:1"
       d="m 299.00515,493.74785 c 3.35493,-2.01834 11.82881,-0.75061 13.13199,-0.50508"
       id="path9243"
       inkscape:connector-curvature="0" />
    <path
       style="fill:none;fill-rule:evenodd;stroke:#0000ff;stroke-width:2;stroke-linecap:round;stroke-linejoin:miter;stroke-miterlimit:4;stroke-dasharray:none;stroke-opacity:1"
       d="m 225.76909,578.60066 c 3.78371,3.66663 14.18692,-0.5918 16.16244,1.51523"
       id="path9245"
       inkscape:connector-curvature="0" />
    <path
       style="fill:none;fill-rule:evenodd;stroke:#0000ff;stroke-width:2;stroke-linecap:round;stroke-linejoin:miter;stroke-miterlimit:4;stroke-dasharray:none;stroke-opacity:1"
       d="m 227.7894,574.56005 c 5.9627,0.63733 13.70881,0.15892 18.18274,2.02031 l 0,-0.50508"
       id="path9247"
       inkscape:connector-curvature="0" />
    <path
       style="fill:none;fill-rule:evenodd;stroke:#0000ff;stroke-width:2;stroke-linecap:round;stroke-linejoin:miter;stroke-miterlimit:4;stroke-dasharray:none;stroke-opacity:1"
       d="m 253.54829,563.95345 c -2.77629,4.62681 -4.66567,11.38753 -8.08122,14.64721 -0.70732,1.31211 -1.87226,7.00679 -3.53554,6.06092"
       id="path9251"
       inkscape:connector-curvature="0" />
    <path
       style="fill:none;fill-rule:evenodd;stroke:#0000ff;stroke-width:2;stroke-linecap:round;stroke-linejoin:miter;stroke-miterlimit:4;stroke-dasharray:none;stroke-opacity:1"
       d="m 320.21836,563.44837 c 2.22071,3.82351 2.69965,8.96671 6.06091,11.11168 0.96952,1.8916 1.52553,3.14015 2.02031,5.05076"
       id="path9253"
       inkscape:connector-curvature="0" />
    <path
       style="fill:none;fill-rule:evenodd;stroke:#0000ff;stroke-width:2;stroke-linecap:round;stroke-linejoin:miter;stroke-miterlimit:4;stroke-dasharray:none;stroke-opacity:1"
       d="m 328.29958,573.04482 c 5.10928,2.36253 13.90795,0.23307 17.67767,1.01015 -1.09434,-0.58926 0.0842,1.09434 -1.01016,0.50508"
       id="path9255"
       inkscape:connector-curvature="0" />
    <path
       style="fill:none;fill-rule:evenodd;stroke:#0000ff;stroke-width:2;stroke-linecap:round;stroke-linejoin:miter;stroke-miterlimit:4;stroke-dasharray:none;stroke-opacity:1"
       d="m 332.34019,579.10574 c 2.72097,0.19388 19.02677,-1.4039 15.65736,-0.50508"
       id="path9257"
       inkscape:connector-curvature="0" />
    <path
       style="fill:none;fill-rule:evenodd;stroke:#0000ff;stroke-width:2;stroke-linecap:round;stroke-linejoin:miter;stroke-miterlimit:4;stroke-dasharray:none;stroke-opacity:1"
       d="m 343.45187,598.80371 c 2.80513,9.40698 7.3879,18.1711 12.49354,26.47966 2.06993,5.04575 4.06572,10.15078 6.69936,14.93657"
       id="path9259"
       inkscape:connector-curvature="0" />
    <path
       style="fill:none;fill-rule:evenodd;stroke:#0000ff;stroke-width:2;stroke-linecap:round;stroke-linejoin:miter;stroke-miterlimit:4;stroke-dasharray:none;stroke-opacity:1"
       d="m 224.25387,612.44077 c -2.05792,5.21808 -4.60535,8.29476 -7.07107,14.14214 -1.59954,2.00464 -3.96668,7.51807 -3.53554,9.09137"
       id="path9261"
       inkscape:connector-curvature="0" />
    <path
       style="fill:none;fill-rule:evenodd;stroke:#0000ff;stroke-width:2;stroke-linecap:round;stroke-linejoin:miter;stroke-miterlimit:4;stroke-dasharray:none;stroke-opacity:1"
       d="m 192.93914,634.15905 c -8.00559,2.86298 -0.0796,6.82679 4.54568,5.05076 7.7284,-0.65733 13.27187,0.87027 19.69798,1.51523 3.1535,-1.39218 9.2202,0.12882 10.6066,-3.03046 -4.45181,-2.06448 -9.79263,-1.24858 -15.65737,-2.52538 -3.68527,-2.0076 -10.24524,-0.64422 -14.14213,-0.50507 -1.92894,-0.71836 -11.99666,2.38387 -5.05076,-0.50508 z"
       id="path9267"
       inkscape:connector-curvature="0" />
    <path
       style="fill:none;fill-rule:evenodd;stroke:#0000ff;stroke-width:2;stroke-linecap:round;stroke-linejoin:miter;stroke-miterlimit:4;stroke-dasharray:none;stroke-opacity:1"
       d="m 361.63461,638.70474 c -2.6038,0.36882 -13.88582,0.55325 -7.07107,3.03045 9.55413,1.5327 19.6078,1.9932 29.7995,2.02031 5.9123,-0.70221 5.69415,-4.91117 -1.01015,-5.55584 -7.74945,-0.10298 -14.9342,-2.78108 -21.71828,0.50508 z"
       id="path9269"
       inkscape:connector-curvature="0" />
  </g>
</svg>
