<svg xmlns="http://www.w3.org/2000/svg" width="180.307" height="166.625"><path d="M10.48 7.274c15.714.538 31.364-2.36 47.047-1.629 9.81 1.86 19.755 3 29.675 1.274 11.068-1.317 22.223-.94 33.3-.427 11.296-.85 22.63-1.209 33.913-.152 5.866.06 11.94.36 17.57-1.59M3.54 29.355c4.083 2.345 13.646.725 19.887 1.052 27.122-.123 54.186 2.486 81.3 2.411 14-.679 27.927-3.327 41.995-1.864 8.41.721 16.835-.823 25.262-.337M10.48 11.69c-.044 3.165-.598 6.298-.631 9.464M169.46 12.321c1.738 2.927-.86 6.936 1.893 9.464M3.54 34.402c1.115 2.567 6.025 2.757 5.047 6.309M63.474 161.208c-4.541-17.44-2.637-35.663-3.349-53.454.758-12.897.78-28.071 11.783-36.983 9.086-8.883 24.412-12.486 35.182-4.479 7.66 5.864 9.257 16.346 8.2 25.351 1.461 19.443.573 38.92 1.203 58.378.028 1.282-.048 13.414-.026 9.925M10.48 51.436c1.258 12.69-1.968 25.4-.314 38.08-.684 22.18-3.267 44.302-3.036 66.498.212 2.246-2.232 9.873-.435 9.61" style="fill:none;fill-rule:evenodd;stroke:#000;stroke-width:2;stroke-linecap:round;stroke-linejoin:miter;stroke-miterlimit:4;stroke-dasharray:none;stroke-opacity:1"/><path d="M6.064 88.027C19.695 92 33.918 85.385 47.559 89.288c5.214-1.222 18.828.899 18.938-1.969-.58-.063-1.178.073-1.762.077M113.313 89.92c18.251-2.561 36.775-1.059 55.088-2.773.465.041 12.378.081 6.738.88" style="fill:none;fill-rule:evenodd;stroke:#000;stroke-width:2;stroke-linecap:round;stroke-linejoin:miter;stroke-miterlimit:4;stroke-dasharray:none;stroke-opacity:1"/><path d="M170.092 49.543c1.481 21.708 4.227 43.332 4.325 65.125.147 14.226 1.565 28.389 2.687 42.543-.097.674.07 1.724-.704 2.104M19.312 146.067c9.124-4.456 23.9 1.247 18.692 12.929-2.851 6.394-16.214 6.871-20.262 2.07-1.666-4.888-.112-10.328 1.57-14.999zM140.44 146.698c-5.552 8.027.347 20.396 10.244 16.203 10.017 3.867 14.494-11.27 7.558-16.302-4.555-2.134-12.506 4.862-15.278.099M24.99 132.188c-.662 3.277-2.324 6.236-3.154 9.463M31.93 128.403c-.905 3.244-4.126 6.669-1.893 10.094M24.99 113.262c-3.261 1.416-6.602 7.575-1.893 9.463M18.681 115.785c-3.552 4.301-4.726 11.408-.63 15.772M34.453 118.94c-1.07 5.203 5.913 10.41 1.262 15.14M42.024 128.403c2.282 2.915-.299 7.387-3.786 7.57M30.668 100.013c.267 3.99-8.86.254-3.154 5.678M30.037 110.738c1.97.733.4 5.068 3.154 4.416M35.084 104.43c2.153-.44 3.92 1.796 3.785 3.785M38.87 115.154c-.457.785-1.918 3.15 0 3.155M28.144 120.832c-1.213 1.603-1.566 3.724-1.261 5.678M16.789 61.53c-6.236 9.81 4.87 20.814 14.51 15.595 9.138 3.776 22.718-.594 18.256-12.44-6.567-8.323-19.084.462-28.17-2.63a88 88 0 0 1-4.596-.525zM130.346 61.53c-6.735 6.498-.661 21.106 8.846 14.014 8.074-1.925 19.93 5.387 25.095-3.599 1.505-6.601-1.731-16.522-9.995-11.647-7.988-.007-16.088-.548-23.946 1.232zM9.849 49.543c11.054-2.573 22.62-.467 33.649-3.31 11.177-1.734 22.491-.285 33.679-.393 23.177-1.306 46.614-1.564 69.582 2.255 6.505.947 16.6 1.378 20.89-.161l-1.343.347M177.031 31.879c-.911 3.567-5.912 4.784-5.678 8.832M142.333 132.188c-1.427 2.69-1.688 5.858-1.262 8.832M150.534 131.557c-.491 2.95 4.02 5.335 1.893 8.201M154.32 103.798c.998 1.938 5.497 5.159 1.892 6.94M144.226 104.43c-2.855-2.882-4.356 5.67-1.262 5.047M147.38 108.215c-4.097.933 3.02 2.872 0 3.785M137.286 117.047c-3.34 3.611 7.791 2.529 2.524 6.309M156.843 119.57c-5.83 3.595 5.805 7.824 1.893 11.987M147.38 122.094c-3.997-1.053-2.586 3.54-2.523 5.678M135.393 129.033c-1.668.795-1.942 3.82 0 4.417M154.95 131.557c-.541 1.172 1.013 3.145-.63 3.785M152.427 112.63c-.313.528-1.575 2.63-1.893 3.155M23.097 103.798c-.245 2.014-4.983 8.296.631 6.31M19.312 137.235c-3.406-2.784-2.2 2.033-2.523 3.785M2.279 146.067c4.26 1.705 8.988-.435 13.248 1.262M38.87 146.698a139.5 139.5 0 0 0 20.818 1.262" style="fill:none;fill-rule:evenodd;stroke:#000;stroke-width:2;stroke-linecap:round;stroke-linejoin:miter;stroke-miterlimit:4;stroke-dasharray:none;stroke-opacity:1"/><path d="M117.098 148.59c7.95 1.166 15.998.376 23.973 0M160.628 147.96c6.08.75 12.292-.967 18.296.63M65.997 161.839c-1.053-2.636 1.54-14.118-.54-19.977.499-14.688-.344-29.545 2.43-44.05 3.044-6.938 4.942-16.155 14.064-17.081 6.54-2.681 16.125-4.052 21.615 1.48 4.902 5.002 5.393 12.79 6.567 19.385.863 8.818 2.937 17.614 1.252 26.473-1.863 8.242-.716 16.59-.709 24.929-.616.766.615 9.694-.202 5.056" style="fill:none;fill-rule:evenodd;stroke:#000;stroke-width:2;stroke-linecap:round;stroke-linejoin:miter;stroke-miterlimit:4;stroke-dasharray:none;stroke-opacity:1"/><path d="M71.044 75.094c2.725-3.337 12.93-8.606 11.905-8.224-2.689 3.59-13.47 6.553-11.708 10.268 5.402-5.39 13.082-8.293 20.484-9.93-6.92 3.022-14.345 6.313-19.699 11.549 8.13-4.237 20.503-12.584 27.614-12.523-5.056 2.906-19.71 9.526-18.93 10.689 4.378-2.583 17.192-9.998 18.015-7.29-4.056 2.598-16.43 5.229-15.581 7.976 5.082-.961 15.547-5.913 16.726-5.375-2.453 1.178-14.75 5.426-5.704 2.777 3.494-1.613 15.616-4.728 6.52-.389-8.138 3.988 12.15-4.447 3.103.179-7.972 3.973 12.162-2.256 1.96 2.912-2.986 3.641 10.85-2.652 2.959 2.556-6.692 4.846 9.414-1.67 1.135 3.657-2.345 1.877 6.028.35.315 3.154-2.031 2.44 5.877.816.316 3.47.697 2.333 3.15 2.11.49 5.19 2.848 3.13 1.272 8.495 1.846 11.324 2.11 2.4 3.16 5.785 1.449 8.721" style="fill:none;fill-rule:evenodd;stroke:#000;stroke-width:2;stroke-linecap:round;stroke-linejoin:miter;stroke-miterlimit:4;stroke-dasharray:none;stroke-opacity:1"/><path d="M65.366 82.98c2.814-3.113 9.721-7.334 3.194-1.5-3.212 3.046-7.834 8.356-1.075 3.362 3.102-2.73 10.42-6.294 3.5-1.065-3.261 1.616-9.813 9.009-2.813 3.94 3.875-3.158 6.07-5.353 1.313-.353-2.739 1.463-8.267 11.206-2.037 5.7 2.553-3.544-6.94 8.064-.505 1.587-1.79 2.245-6.305 7.977-1.796 4.75-1.342 2.382-5.624 6.904-.545 4.003-.688 1.112-3.813 6.919-.182 3.549-1.69 4.031-1 9.255-.316 13.88M14.58 59.637c-.917 4.061-2.545 16.816 1.082 20.497 10.414-1.475 20.95-.11 31.409-.94 7.92 2.282.674-11.093 3.77-15.397 1.191-11.778-13.614-2.93-20.414-5.322-3.401-.602-16.781 2.556-13.954.216M125.615 59.006c2.166 6.585-3.931 20.94 5.076 21.432 9.592 1.827 19.324 1.426 28.996.74 11.003 1.05 3.283-14.004 8.066-19.927-4.342-6.343-14.58-3.514-21.52-5.052-6.408-.412-18.593 2.249-21.014 1.535l.367.02.029-.325M22.151 12.637c1.386 2.991.084 6.372.946 9.463M38.554 12.006c-.866 3.127 1.21 7.257 1.262 9.779M53.38 12.006c-.114 3.266-.832 6.5-.631 9.779M67.574 12.952c.868 3.954-1.803 8.327.631 11.987M81.769 12.952c.617 3.033 1.6 7.241-1.262 9.463M96.594 14.214c.605 2.592.09 5.567 1.578 7.886M111.105 13.583c.592 3.014.216 6.103.315 9.148M123.722 12.637c1.056 2.922-1.729 6.557 0 9.148M137.917 12.321c.16 3.285-2.118 7.062-.316 10.094M150.85 13.268c2.31 2.219-.376 6.018 1.892 8.201M164.73 12.952c-1.45 2.593.666 6.51-1.894 8.517M58.742 54.275c-.977 5.96-3.23 15.514-.946 18.61" style="fill:none;fill-rule:evenodd;stroke:#000;stroke-width:2;stroke-linecap:round;stroke-linejoin:miter;stroke-miterlimit:4;stroke-dasharray:none;stroke-opacity:1"/><path d="M56.85 76.04c6.363-7.224 13.2-13.869 21.522-18.956 2.979-2.01 13.668-1.19 5.363-4.403-7.628.097-19.23 1.658-24.362.963M93.44 55.221c9.917.974 18.628 6.879 24.604 14.51.83 3.259 3.757 14.439 4.41 5.27.624-8.648 3.734-24.75-10.131-22.355-6.296-.127-15.504-.677-20.057.192l1.49.806M22.151 66.577c-4.036-2.93-3.226 5.392.316 2.839M26.567 67.208c-5.805-.12 5.794-6.347 3.173.098 1.028-.338-.863 2.47.297 2.425" style="fill:none;fill-rule:evenodd;stroke:#000;stroke-width:2;stroke-linecap:round;stroke-linejoin:miter;stroke-miterlimit:4;stroke-dasharray:none;stroke-opacity:1"/><path d="M31.93 67.523c-.104 3.51-6.14 1.344-6.624 4.732M29.722 75.094c.15-1.217 1.373-1.848 2.208-2.524M37.292 68.785c-.623-.93-4.117-2.469-.946-3.155M41.708 65.946l1.262.63M40.131 71.308c-.188.696-2.357-.593-2.208.631M41.077 74.778c.924-.951.785-2.931 2.84-1.892M45.809 68.47c1.496-1.41-.75-2.046-1.577-1.262M39.816 68.154c-1.868-2.136.314-4.243 0 0zM20.89 71.624c.141.414.983 1.886 1.261 2.208M136.34 66.261c-.423.656-4.033.739-2.208 1.893M139.81 70.993c-3.69-1.146.86 3.55.595-.386.351-.15.866 1.736.666.386M143.595 67.208c.098-.846-1.763-2.33.63-1.578M148.326 66.892l1.262 4.416M9.218 9.483c16.498-.9 32.963.758 49.457.565 11.633-1.146 23.202 2.182 34.848.993 8.725.812 17.573 1.81 26.137-.73 8.602-1.36 17.314 1.59 25.99.125 8.723-.605 17.657.1 26.255-.316.666-.536 8.247 1.786 3.549-.007M1.017 28.724c-.55-6.494 12.031-.851 16.832-2.507 16.157-.136 32.37.951 48.445-.9 10.295-.92 20.63-.25 30.931.568 14.716-.357 29.495 1.95 44.162-.315 10.317.88 20.657-.715 30.998-.426 4.129-.195 9.708-1.638 5.32 3.653l-.674 1.189v-.315M18.681 14.845c-6 .23-1.271 7.085.45 1.346-.032-.648-2.523-1.793-.45-1.346zM33.507 14.53c-8.288 1.313 4.54 4.968.076-.54-1.304-.201-1.7 1.555-2.284 1.486M48.017 14.845c-7.04-.918-.9 7.498.21 1.085.11-1.295-1.504-2.548-2.418-1.085M62.212 15.791c-7.788-1.776.12 6.836 1.399.22.17-2.249-2.867-2.787-3.292-.85M74.83 13.268c-8.42 2.934 4.39 6.782.643.312-1.151-.986-2.637.214-1.905 1.58M89.655 15.16c-6.508-1.562 1.628 5.899 1.168-.454-.125-1.074-3.833-1.259-2.43.139M104.165 15.16c-7.53-.835 2.693 6.7 1.684-.582-.637-1.46-2.705-.403-3.261-.048M116.783 15.476c-7.174 5.5 9.813 1.059 1.557-1.867l-1.242.605h.315M133.185 15.476c-5.01-3.568-4.068 6.072-.316 1.262.177-1.209-1.165-3.321-2.523-2.208M145.172 16.422c-8.022.116 4.276 6.043 2.14-1.546-.915-1.639-3.446.25-2.14 1.546zM160.313 14.845c-7.67-1.49-.929 6.717.072.51-.21-1.558-2.244-2.065-3.226-.825M9.218 42.288c3.053 2.382 10.077-.044 8.68.233-.296.484-.834 1.031-.478 1.66M23.413 42.288c.75 5.89 9.942-3.877 4.06 1.102 1.155 2.024 6.816 1.456 6.35-1.417M34.769 42.288c4.533-1.007-2.458-.11 3.695-.054 2.594-.933 11.066.485 8.922-.261 3.63 1.938 8.305-1.044 12.302.63M62.527 43.865c-.486-3.814 4.252 1.282 5.994 0M73.252 41.973c-4.983 4.428 8.406-1.845.557-.417-1.802.802.805 1.348 1.336 1.047M85.239 42.603c-5-.898-.107 3.013 1.577 1.262M90.286 43.234c.979-1.174 2.865-.51 4.1-1.261M93.44 41.657c.472.065 2.365.275 2.84.316M99.749 41.657c5.47-.476 6.558.436 11.04.946M112.051 44.18a43 43 0 0 1 2.208-.63M136.34 42.919c-4.063.907 3.304 3.13 3.47.946M142.648 44.18l2.524.632M150.85 43.865c.14-2.386 2.63-.805 3.785-.315M157.474 41.973c-1.437-.486-3.009-.355-4.416-.947M142.018 41.026c-1.257.396-2.9.4-3.786 1.577M134.132 42.603l-7.255-.63M127.507 40.71c-1.445-1.05-3.549.863-.63.947M155.581 44.496c6.982-2.943-3.807.555 2.208.946M164.414 42.603c-1.51 1.977 1.248 1.568 2.208 1.578M167.568 42.288c-.812.314-1.346 2.902.315 2.524M155.266 65.315c4.233-3.169-.83-1.313.315 1.262M156.843 67.839c-1.016.717-1.546 2.686.316 2.838M153.058 71.94c3.093-1.722-2.506-4.008-2.524-1.263M131.924 70.362c-1.156.763-.68 3.23.946 2.839M110.158 58.06c-.842-1.572-3.58-.72 0 0zM103.85 53.013c-.149 3.701 6.49.73.1.715.324 2.46 6.963 2.125 9.996 3.316l.313.07M115.205 55.221v5.047M114.259 63.107c2.832-.192 3.615-3.49 5.047-5.362M118.36 59.322l-.316 5.047M119.937 65.63l-2.524-4.731M111.42 58.69c-4.06.484 1.106-.785.316 1.263M118.99 54.275c-2.746.038-.673 1.653.631 1.892M62.212 58.69c-.875.919-4.023 3.761 0 2.209M60.635 62.792c-.845 1.613 1.371 1.843 2.208.946M65.682 58.06l1.577.63M68.205 56.483c6.35 1.741-1.397 5.004-3.154 6.94M5.117 90.866c13.391.989 26.874-1.064 40.176 1.288 6.018.401 12.484.537 18.262-.395l.234-.263M116.152 92.758c13.059-1.08 26.115 1.356 39.144 1.147 5.195-.48 14.718-1.489 17.319-1.462M121.514 96.543c-1.02 11.556-.041 23.081-.197 34.669.006 7.685-1.311 15.547-.765 23.213-.086.289.737 3.434.331.159M57.796 96.228c-1.388 10.744.676 21.716-1.467 32.424-.473 9.303-1.162 18.565-2.003 27.825.913-.073.1 3.715 1.262 1.577M11.11 4.75c.402-5.734 3.902-2.99 5.048-1.576M25.936 3.174c-.237-2.96 2.621-2.271 2.208 0M38.238 2.858c2.513-4.267 1.863 1.013 3.47.631M52.749 3.49c1.645-2.372 2.53-1.916 3.47.63M67.574 4.436c.805-3.103 2.872-3.679 4.416-.631M81.453 2.858c.258-3.195 2.634-1.545 2.84.316M94.386 3.805c2.272-3.13 2.938-3.258 4.732-.947M107.32 3.174c.873-3.73 4.344-1.519 4.731-.631M123.407 3.49c.532-2.768 3.482-1.613 3.47-.316M137.286 3.174c.677-1.472 3.937-3.887 3.47-.316M151.165 3.49c3.428-4.534 1.797-1.798 3.786 1.26M164.73 4.12c.835-3.56 4.655-2.024 4.1 0M9.218 39.134c.034-.53 2.974-.225 3.155-.316.133-.066.182-.249.315-.315.094-.047.21 0 .315 0 .355 0 1.983.075 2.208 0 .224-.075.408-.241.631-.316.1-.033.21 0 .316 0 .243 0 1.7.065 1.892 0 .223-.074.408-.24.631-.315.27-.09.984.07 1.262 0 .228-.057.403-.258.63-.316.307-.076.648.1.947 0 .223-.074.403-.258.631-.315.408-.102.854.102 1.262 0 .228-.057.4-.27.63-.315.516-.103 1.052 0 1.578 0 .21 0 .427.05.63 0 .229-.057.404-.259.632-.316.204-.05.42 0 .63 0h1.262c.21 0 .432-.066.631 0 .141.047.183.25.316.316.094.047.21 0 .315 0h3.785c.316 0 .647.1.947 0 .14-.047.174-.269.315-.316.174-.058 1.625 0 1.893 0 .105 0 .215.033.315 0 .223-.074.403-.258.631-.315.248-.062 1.565 0 1.893 0h28.389c.21 0 .427.05.631 0 .228-.057.403-.259.63-.316.307-.076.632 0 .947 0h2.524c.328 0 1.644-.062 1.892 0 .228.057.4.27.631.316.516.103 1.052 0 1.577 0h1.893c.21 0 .425.041.63 0 .327-.065.62-.261.947-.316.311-.052.631 0 .946 0h9.463999999999999c.21 0 .426-.05.63 0 .229.057.4.27.631.316.31.062.631 0 .947 0h2.208c.21 0 .424-.042.63 0 .327.065.619.26.947.315.311.052.63 0 .946 0 .479 0 2.1-.07 2.524 0 .328.055.618.26.946.316.519.086 1.052 0 1.577 0h5.047c.21 0 .425-.042.631 0 .326.065.62.25.946.315.413.083.842 0 1.262 0h11.987c.21 0 .427-.051.63 0 .229.057.404.258.632.315.547.137 1.345-.136 1.892 0 .228.058.403.259.631.316.204.05.42 0 .631 0h1.577c.21 0 .427-.051.631 0 .228.057.403.258.63.315.205.051.422 0 .632 0h4.731c.316 0 .637.062.947 0 .23-.046.402-.258.63-.315.205-.051.421 0 .631 0 .526 0 1.062.103 1.578 0 .23-.046.4-.27.63-.316.516-.103 1.052 0 1.578 0 .21 0 .427.051.63 0 1.638-.409-.336-.315 1.262-.315h2.208c.106 0 .216-.033.316 0 .223.074.408.241.63.315.1.034.211 0 .316 0h6.309000000000001c.328 0 1.644.063 1.893 0 .228-.057.402-.258.63-.315.204-.051.421 0 .631 0h5.047000000000001c.105 0 .241-.074.316 0 .074.074-.075.241 0 .315.076.076 1.186-.075 1.261 0s-.074.242 0 .316c.013.013 1.146 0 1.262 0h2.208c.105 0 .241-.074.316 0 .074.074-.075.241 0 .315.074.075.24-.074.315 0 .075.075-.047.222 0 .316.067.133.21.21.316.315.105.105.182.25.315.316.094.047.221-.047.315 0 .133.066.167.315.316.315s.21-.21.315-.315" style="fill:none;fill-rule:evenodd;stroke:#000;stroke-width:2;stroke-linecap:round;stroke-linejoin:miter;stroke-miterlimit:4;stroke-dasharray:none;stroke-opacity:1"/><path d="M8.272 32.825c-.42.21-.886.349-1.262.63-.026.02-.029.918 0 .947.074.074.241-.074.316 0 .074.074-.075.241 0 .316.074.074.21 0 .315 0h.315c.254 0 1.064.066 1.262 0l.631-.316c.105 0 .216.033.315 0 .224-.074.403-.258.631-.315.204-.051.427.05.631 0 .228-.057.408-.241.631-.316.1-.033.216.033.316 0 2.504-.835-1.243.204 1.261-.63.1-.034.216.033.316 0 .223-.075.408-.242.63-.316.1-.033.222.047.316 0 .133-.067.182-.249.315-.316.095-.047.222.047.316 0 .133-.066.182-.248.315-.315.094-.047.316-.105.316 0 0 .523-.443.221-.631.315-.266.133-.383.466-.63.631-.197.13-.436.185-.632.316-.247.165-.349.537-.63.63-.2.067-.432-.066-.632 0-.239.08-.971 1.117-1.261 1.262-.094.047-.241-.074-.316 0-.074.075.075.242 0 .316-.074.074-.315.105-.315 0s.21 0 .315 0h.631c.105 0 .222.047.316 0 .962-.481-.577-.25.946-.631.204-.051.427.051.63 0 .229-.057.421-.21.632-.315l.63-.316 3.155-1.577c.42-.21.816-.482 1.262-.631.1-.033.215.033.315 0 .223-.074.408-.241.63-.315.2-.067.444.094.632 0 .133-.067.167-.316.315-.316.105 0 .047.222 0 .316-.348.697-.196.097-.63.315-.267.133-.35.537-.631.63-.2.067-.432-.066-.631 0-.141.048-.192.234-.316.316-.195.13-.42.21-.63.316l-.632.315c-.105 0-.215-.033-.315 0-2.285.762.497-.09-.946.631-.094.047-.222-.047-.316 0-.133.067-.182.249-.315.316-.094.047-.241-.075-.316 0-.074.074.075.24 0 .315-.074.074-.42 0-.315 0 .225 0 1.731.054 1.893 0 .14-.047.17-.28.315-.315.306-.077.637.061.946 0 .23-.047.413-.229.631-.316.309-.123.638-.192.947-.315.218-.088.412-.228.63-.316.92-.367 1.9-.633 2.84-.946l.946-.316c.315-.105.618-.26.946-.315.311-.052.635.052.946 0 2.77-.461-.482-.116 1.577-.63.204-.052.427.05.631 0 .228-.058.403-.26.631-.316.306-.077.631 0 .947 0 .105 0 .22-.047.315 0 .448.224.448.722 0 .946-.094.047-.221-.047-.315 0-.133.067-.21.21-.316.315l-.315.316c-.106.105-.175.268-.316.315-.2.067-.427-.05-.63 0-.572-.19-.587.511-.947.631-1.436 0-.018-.148-.946.316-.094.047-.222-.047-.316 0-.133.066-.174.268-.315.315-.2.067-.42 0-.631 0-.105 0-.221-.047-.315 0-.133.067-.183.249-.316.316-.094.047-.315.105-.315 0 0-.21.442.094.63 0 .78-.39-.108-.316.631-.316.21 0 .427.051.631 0 2.06-.515-1.192-.17 1.577-.63.312-.053.636.051.947 0 .328-.055.618-.262.946-.316.311-.052.635.052.946 0 .656-.11 1.24-.5 1.893-.631.506-.101 1.072.101 1.577 0 .23-.046.408-.241.631-.316.183-.06.988 0 1.262 0h.315c.105 0 .316-.105.316 0 0 .21-.443-.094-.631 0-.133.067-.183.25-.316.316-.094.047-.221-.047-.315 0-.668.334.037.297-.63.63-.095.048-.217-.032-.316 0-2.285.762.497-.09-.947.632-.094.047-.215-.034-.315 0-.223.074-.408.24-.631.315-.1.033-.221-.047-.315 0-.133.067-.183.249-.316.316-.094.047-.24-.075-.315 0-.075.074-.075.24 0 .315.074.074.21 0 .315 0 .38 0 .907.071 1.262 0 .326-.065.62-.25.946-.315.206-.042.424.034.631 0 .428-.072.833-.255 1.262-.316.312-.045.634.045.946 0 .43-.061.832-.262 1.262-.315.417-.053.845.06 1.262 0 .329-.047.617-.269.946-.316.416-.06.844.052 1.262 0 .43-.054.832-.254 1.261-.315.313-.045.636.052.947 0 .328-.055.62-.25.946-.316.356-.07 1.164 0 1.577 0h.316c.105 0 .315-.105.315 0 0 .21-.443-.094-.63 0-.134.067-.183.25-.316.316-.188.094-.443-.094-.631 0-.133.066-.182.249-.315.315-.095.047-.216-.033-.316 0-.223.075-.408.241-.63.316-.2.066-.444-.094-.632 0-.133.066-.182.249-.315.315-.094.047-.221-.047-.316 0-.133.067-.182.249-.315.316-.094.047-.241-.075-.315 0-.075.074.074.24 0 .315-.075.074-.316.105-.316 0s.241-.074.316 0c.074.074-.075.241 0 .315.074.075.21 0 .315 0h1.893c.21 0 .424.042.63 0 .327-.065.619-.26.947-.315.311-.052.635.052.946 0 .656-.11 1.237-.522 1.893-.63.31-.053.634.044.946 0 .43-.062.833-.255 1.262-.316.312-.045.635.052.946 0 .328-.055.619-.261.946-.316.312-.052.637.062.947 0 .23-.046.4-.27.63-.315.317-.063 1.483 0 1.893 0 .105 0 .241-.075.316 0 .217.217-.234.59-.316.63-.094.048-.221-.046-.315 0-.133.067-.174.27-.316.316-2.092 0 .447-.149-.946.316-.399.133-.854-.102-1.262 0-1.638.409.337.315-1.261.315-.106 0-.222-.047-.316 0-.78.39.11.315-.63.315-.106 0-.316.106-.316 0 0-.007 2.165.011 2.208 0 .228-.057.4-.269.63-.315.31-.062.636.052.947 0 .328-.055.618-.26.946-.315.312-.052.636.051.947 0 .328-.055.618-.261.946-.316.622-.104 1.274.124 1.893 0 .23-.046.402-.258.63-.315.205-.051.421 0 .631 0h2.524c.105 0 .315-.105.315 0 0 .21-.442-.094-.63 0-.133.066-.183.249-.316.315-.094.047-.241-.074-.315 0s-.075.241 0 .316c.074.074.21 0 .315 0h1.262c.413 0 1.221.07 1.577 0 .326-.066.62-.25.946-.316.516-.103 1.059.087 1.578 0 .327-.055.618-.26.946-.315.726-.121 1.48.104 2.208 0 .33-.047.618-.261.946-.316.311-.052.635.052.947 0 .328-.054.618-.26.946-.315.518-.087 1.062.103 1.577 0 1.91-.382.13-.316 1.577-.316h.631c.105 0 .221.047.316 0 .133-.066.182-.249.315-.315.094-.047.315-.105.315 0s-.24-.074-.315 0c-.074.074.074.241 0 .315-.149.15-.443-.094-.63 0-.134.067-.183.25-.316.316-.188.094-.443-.094-.631 0-.133.066-.175.268-.316.315-.2.067-.431-.066-.63 0-.142.047-.316.167-.316.316 0 .105.221-.047.315 0 .133.066.167.315.316.315s.174-.268.315-.315c.32-.107 1.49.08 1.893 0 2.257-.753-.345.004 1.893-.316.429-.061.832-.254 1.261-.315.313-.045.634.044.947 0 .429-.062.831-.262 1.261-.316.418-.052.845.053 1.262 0 .43-.053.833-.254 1.262-.315.312-.045.63 0 .946 0h1.893c.176 0 1.433-.048 1.577 0 .141.047.249.182.315.315.131.261-.11.529-.315.631-.094.047-.221-.047-.315 0-.133.067-.183.25-.316.316-.337.168-.293-.17-.63 0-.134.066-.183.249-.316.315-.094.047-.216-.033-.316 0-.223.074-.407.241-.63.316-.057.018-1.079-.133-.631.315.074.074.21 0 .315 0 .362 0 .935.082 1.262 0 .228-.057.4-.27.63-.315.62-.124 1.271.103 1.893 0 .328-.055.619-.261.947-.316.31-.052.634.045.946 0 .43-.061.833-.254 1.262-.315.312-.045.635.052.946 0 .328-.055.618-.261.946-.316.312-.052.631 0 .947 0 .315-.105.62-.25.946-.315.258-.052 1.415.08 1.577 0 .133-.067.183-.25.316-.316.094-.047.315-.105.315 0 0 .21-.443-.094-.63 0-.134.067-.183.25-.316.316-.094.047-.222-.047-.316 0-.133.066-.174.268-.315.315-.2.067-.42 0-.631 0-.105 0-.221-.047-.315 0-.133.067-.183.25-.316.316-.094.047-.21 0-.315 0-.21.105-.436.185-.631.315-.074.05-.539.408-.316.631.075.074.21 0 .316 0h2.208c1.446 0-.333.066 1.577-.315.206-.042.425.04.63 0 .327-.066.62-.261.947-.316.311-.052.635.052.947 0 .328-.055.62-.25.946-.315.206-.042.425.04.63 0 .327-.066.621-.25.947-.316.206-.041.427.051.63 0 .229-.057.404-.258.632-.315.248-.062 1.564 0 1.892 0 .433 0 1.022-.166 1.262.315.13.261-.11.529-.315.631-.094.047-.222-.047-.316 0-.133.067-.182.249-.315.316-.094.047-.216-.034-.316 0-.223.074-.407.24-.63.315-.1.033-.216-.033-.316 0-1.087.362-.234.315-.946.315-.105 0-.222-.047-.316 0-.082.041-.533.414-.315.631.074.075.21 0 .315 0h4.101c.316 0 .634.045.946 0 .43-.061.833-.254 1.262-.315.312-.045.634.044.946 0 .8.03 1.453-.505 2.209-.631 2.969-.495-1.545.757 2.208-.315.639-.183 1.236-.522 1.892-.631.311-.052.637.062.947 0 .46-.093.805-.517 1.261-.631.204-.051.42 0 .631 0h.631c.105 0 .315-.105.315 0s-.22-.047-.315 0c-.133.066-.21.21-.315.315-.74.74.223-.074-.947.316-.14.047-.182.249-.315.315-.094.047-.21 0-.316 0-.21 0-.426-.05-.63 0-.229.057-.408.241-.631.316-.1.033-.216-.034-.316 0-.223.074-.408.24-.63.315-.1.033-.222-.047-.316 0-.133.066-.183.249-.316.315-.094.047-.24-.074-.315 0-.433.433.557.316.63.316.211 0 .432.066.632 0 .223-.074.403-.259.63-.316 2.248-.561-1.597.955 1.578-.315.218-.087.412-.228.63-.315.794-.318 2.35-.832 3.155-.947.312-.044.635.052.946 0 .328-.054.631-.21.947-.315s.637-.192.946-.316c.218-.087.413-.228.63-.315 3.176-1.27-.669.246 1.578-.316.228-.057.403-.258.631-.315.204-.051.42 0 .63 0 .106 0 .222.047.316 0 .082-.041.385-.562.631-.315.075.074.075.24 0 .315-.074.074-.221-.047-.315 0-.133.067-.183.249-.316.315-.094.047-.221-.047-.315 0-.133.067-.21.21-.316.316-.36.36-.373.44-.946.63-.939.314.647-.746-.946.316-.577.385-.032.402-.947.631-.204.051-.43-.066-.63 0-.283.094-.35.537-.631.631-.2.066-.432-.067-.631 0-.141.047-.21.21-.316.315-.105.106-.315.167-.315.316 0 .105.21 0 .315 0h1.262c.21 0 .424.034.631 0 1.183-.197 1.158-.331 2.208-.631 1.35-.386 2.74-.606 4.1-.946.421-.105.857-.164 1.263-.316 4.704-1.764-2.011.35 2.523-.946a20 20 0 0 0 1.893-.631c.218-.087.402-.258.63-.315.205-.051.432.066.631 0 1.17-.39-.384-.316.631-.316.105 0 .316-.105.316 0 0 .523-.443.221-.631.316-.133.066-.183.249-.316.315-.094.047-.221-.047-.315 0-.266.133-.383.466-.63.63-1.594 1.063-.008.003-.947.316-2.285.762.497-.09-.947.631-.094.047-.22-.047-.315 0-.133.067-.182.25-.315.316-.094.047-.222-.047-.316 0-.133.066-.182.249-.315.315-.094.047-.241-.074-.316 0-.074.074.075.241 0 .316-.074.074-.24-.075-.315 0-.074.074-.074.24 0 .315.074.074.21 0 .315 0s.222.047.316 0c.133-.067.182-.249.315-.315.094-.047.21 0 .316 0 .21 0 .426.05.63 0 .229-.057.4-.27.631-.316.31-.062.637.062.947 0 .23-.046.412-.228.63-.315.31-.124.638-.192.947-.316.735-.294.68-.481 1.577-.63.311-.053.637.061.946 0 .23-.047.421-.21.631-.316.316-.105.62-.25.947-.316.206-.04.426.051.63 0 .457-.114.816-.482 1.262-.63.1-.034.216.033.316 0 1.087-.363.233-.316.946-.316.105 0 .315-.105.315 0s-.24-.074-.315 0c-.074.075.047.222 0 .316-.067.133-.21.21-.315.315s-.183.249-.316.315c-.094.047-.21 0-.315 0-.21.106-.436.186-.631.316-.577.385-.032.402-.947.63-.204.052-.43-.066-.63 0-.283.095-.384.467-.631.632l-.631.315c-.105 0-.222-.047-.316 0-.133.067-.182.249-.315.316-.094.047-.241-.075-.315 0-.653.652.997-.026-.316.63-.094.047-.241-.074-.315 0-.075.075-.075.242 0 .316.074.074.21 0 .315 0h1.577c.316 0 .635.052.947 0 .656-.11 1.236-.522 1.892-.631.311-.052.634.045.947 0 .986-.14 1.309-.374 2.208-.63.833-.24 1.69-.394 2.523-.632.955-.273 1.897-.632 2.839-.946.315-.105.62-.25.946-.316.207-.04.427.051.631 0 .228-.057.408-.24.631-.315.2-.066.443.094.631 0 .133-.066.167-.315.315-.315.106 0 .075.24 0 .315-.074.074-.221-.047-.315 0-.133.067-.182.249-.315.315-.094.047-.222-.047-.316 0-.168.085-.78.78-.946.947-.361.36-.374.44-.947.63-.1.034-.22-.046-.315 0-1.313.657.337-.021-.315.632-.653.652.025-.998-.631.315-.047.094.074.241 0 .315-.075.075-.316.106-.316 0 0-.105.21 0 .316 0h.631c.105 0 .221.047.315 0 .133-.066.174-.268.315-.315.2-.067.427.051.631 0 .228-.057.413-.228.631-.315.309-.124.638-.192.947-.316.218-.087.412-.228.63-.315.31-.124.638-.192.947-.316.218-.087.42-.21.63-.315s.413-.228.631-.316c3.176-1.27-.67.247 1.578-.315 1.523-.38-.016-.15.946-.631.094-.047.21 0 .315 0h.316c.105 0 .315-.105.315 0 0 .149-.21.21-.315.315l-.316.316c-.246.246-.674.765-.946.946-.725.484-.852.148-1.577.631-.287.192-.667.807-.946.946-.094.047-.222-.047-.316 0-.133.067-.182.25-.315.316-.094.047-.241-.074-.316 0-.074.074-.074.24 0 .315.075.075.21 0 .316 0 .105 0 .221.047.315 0 .133-.066.175-.268.316-.315.2-.067.426.05.63 0 .229-.057.403-.259.631-.316.204-.05.427.051.631 0 .228-.057.413-.228.631-.315 1.949-.78.098.109 1.577-.63.21-.106.4-.27.631-.316 1.25-.25.613.327 1.577-.316 1.48-.986-1.269.423.947-.315.092-.031.377-.57.63-.316.075.075 0 .21 0 .316 0 .105.075.24 0 .315-.074.075-.24-.074-.315 0-.14.14.245.596-.315.316-.133-.067-.21-.21-.316-.316l-.315-.315" style="fill:none;fill-rule:evenodd;stroke:#000;stroke-width:2;stroke-linecap:round;stroke-linejoin:miter;stroke-miterlimit:4;stroke-dasharray:none;stroke-opacity:1"/></svg>