<svg xmlns="http://www.w3.org/2000/svg" xml:space="preserve" width="522.135" height="850.689" viewBox="0 0 138.148 225.078"><path d="M95.436 157.999c-.663-.707-1.682-1.458-2.107-2.435-1.073-2.469-.283-6.472.865-8.762.322-.64.886-1.137 1.242-1.755.475-.825.883-1.946 1.652-2.548 3.026-2.37 10.124-3.806 13.904-2.901 3.924.94 6.19 7.418 6.842 10.87.23 1.22.28 2.322.204 3.554-.04.66-.556 1.126-.944 1.613-.157.199-.43.902-.393.651.04-.27.162-.748.236-1.047m-76.329 69.007c5.061 1.118 9.906-1.415 14.58-3.03 1.59-.549 3.497-.913 4.986-1.712.996-.535 2.045-1.036 2.988-1.656.842-.555 1.705-1.45 2.595-1.84.68-.299 2.99-.38 3.224-.893m12.206-5.393q.738-.327 1.477-.65c1.59-.694 3.422-1.444 4.688-2.676.799-.776 1.244-1.83 2.029-2.605 1.218-1.2 2.707-2.485 4.231-3.256 1.678-.848 3.45-2.656 4.262-4.358.31-.651.331-1.115.85-1.743.208-.253 2.89-.084 3.822-.226 1.29-.196 2.591-.675 3.885-.792.393-.036.702.138 1.084.07.519-.093 1.002-.467 1.527-.467.085 0-.026.18.016.255.155.28.496.497.738.694 1.626 1.326 3.379 2.522 5.05 3.794 3.379 2.572 7.43 5.354 11.418 6.836 1.384.514 2.657 1.246 4.09 1.657.312.089 2.106.621 1.383.48m13.574 4.841c2.892 1.083 5.745 2.856 8.871 3.2 1.977.218 4.146.465 6.087.877 2.518.535 5.015 1.6 7.502 2.293 1.255.35 2.814.22 4.105.072.4-.046.81.089 1.226.041.155-.017.532-.235.457-.098-.235.426.557 4.997.755 5.577.072.212.55.691.85.963.222.202-.618.04-.882.183a7.2 7.2 0 0 0-2.343 1.983c-.552.714-.95 1.823-1.023 2.73-.031.398-.016.76.063 1.148.02.093.027.377.016.283-.057-.51.052-.235-.267-.694m-130.702-3.256c.21.614.375 1.244.63 1.84.244.571.943.817 1.257 1.345.384.644.299 1.562.755 2.153.095.122.145-.363.3-.355.424.023.897-.054 1.304.086.42.144.534.818.645 1.174.574 1.84.693.98.346 2.534m5.883 11.607c4.617-2.974 11.67-2.385 15.225 1.996.864 1.065 1.53 2.42 2.044 3.68.146.359 1.02 2.719.928 2.095m76.99-2.193c.772-2.745 4.82-8.056 7.408-9.372 1.787-.908 3.453-1.056 5.348-1.5 1.798-.422 3.706-.891 5.567-.666.47.057.481.855.803 1.148.557.506 3.438.516 4.041.113 1.236-.826-.824-1.317-.99-1.77-.17-.462 1.09-1.074 1.305-1.302.308-.325 2.797-2.01 1.92-2.194" style="opacity:1;fill:none;stroke:#000;stroke-width:1.664;stroke-linecap:round;stroke-linejoin:round;stroke-dasharray:none;paint-order:stroke markers fill" transform="translate(-37.888 -47.26)"/><path d="M142.292 232.017c4.179-1.858 7.775-4.672 12.36-5.633 1.893-.397 4.17.198 6.056.41 3.573.402 6.468-.927 9.201 1.981 1.594 1.697 1.518 1.757 1.558 4.092.041 2.401-2.571 4.591-5.002 3.765-.756-.257-1.919-2.024-2.076-2.874-.067-.36.55-1.148-.095-1.16-.7-.014-1.596.458-2.264.665-2.64.817-4.988 1.207-7.596 2.349-2.629 1.15-5.457 1.6-7.692 3.553-1.243 1.087-2.65 2.653-3.445 4.063-.08.143.26-.202.394-.298m-75.213.043c-1.374-2.316-2.808-2.801-5.222-3.51-.855-.251-1.457-.733-2.39-.864-.744-.105-1.576.033-2.312-.113-1.383-.275-2.114-.784-3.775-.821-.953-.022-1.823.509-2.752.509-.68 0-1.369-.368-2.03-.368-.3 0 1.594 1.546.598 2.534-1.296 1.284-3.605 1.844-5.316 1.203-2.146-.804-3.232-3.996-1.808-5.917.722-.974 1.825-1.64 2.83-2.279 4.513-2.862 9.934-2.294 15.021-1.712.867.1 1.878-.008 2.721.24 1.427.42 3.232 1.238 4.45 1.854m-23.639 9.004c-.476 2.687 2.353 1.79 2.941 2.845.765 1.374-.5 3.335 1.763 3.113m40.798-22.124c1.56-1.75 2-3.901 2.737-6.03.506-1.461 1.662-2.762 2.233-4.247 1.114-2.897.6-6.613 3.067-8.832 1.687-1.518 3.535-1.34 5.63-1.698.937-.16 1.888-1.437 2.91-1.205.738.168 1.316 1.296 1.763 1.856.834 1.044 1.807 2.154 2.374 3.383.478 1.034.729 2.158 1.243 3.184.383.763 1.088 1.291 1.368 2.137.639 1.93 1.15 3.522 2.406 5.11.515.651 3.74 6.357 3.476 6.596-.122.112-.192-.27-.283-.409" style="opacity:1;fill:none;stroke:#000;stroke-width:1.664;stroke-linecap:round;stroke-linejoin:round;stroke-dasharray:none;paint-order:stroke markers fill" transform="translate(-37.888 -47.26)"/><path d="M94.98 237.41c.967-2.923 1.702-5.919 2.376-8.918.268-1.193.304-12.715.722-13.022.859-.629 1.622 1.218 1.889 1.797 2.007 4.364 8.137-.163 8.634-3.326.035-.218.942 1.343 1.069 1.726.515 1.559.99 3.205 1.762 4.671 1.698 3.224 2.892 6.66 3.508 10.263.206 1.209.393 2.514.69 3.695.15.593.427.54.662.934.282.474.56 2.348.33.595m-46.413 9.894c-.296-2.638.396-3.988 1.824-6.044.304-.439.496-.968.912-1.33.726-.634 1.774-.976 2.595-1.473.616-.373 1.062-.864 1.761-1.061m5.568-1.969c3.565-2.552 8.386-4.639 12.803-4.416m21.469-.552c1.302.262 2.54-.023 3.823-.142 1.141-.105 1.776.385 2.878.596 1.16.22 2.589-.065 3.68.424.126.057 4.23.734 2.58.892" style="opacity:1;fill:none;stroke:#000;stroke-width:1.664;stroke-linecap:round;stroke-linejoin:round;stroke-dasharray:none;paint-order:stroke markers fill" transform="translate(-37.888 -47.26)"/><path d="M73.746 233.304c-.892 1.114-1.658 2.335-1.288 3.808.367 1.465 1.023 2.96 1.07 4.488.054 1.808-.494 3.627-.567 5.436-.016.39-.113 1.01.016 1.373.025.07.422.464.267.608-.543.506-1.558.744-1.825 1.515-.18.522.343 1.12.236 1.698-.185 1-1.347 3.277-1.903 4.176-.242.392-1.157.83-1.054 1.373.167.88.885.956.85 2.01-.006.161-.935 1.71-.881 1.854.057.154.7.208.802.228.268.052.504.49.74.353.213-.124 2.834-5.279 2.847-5.407.038-.402-.466-.28-.205-.836.245-.52.993-.643 1.131-1.23.152-.644-.656-1.502-.454-1.997.218-.538 1.02-.671 1.178-1.259.472-1.757.786-4.558.834-6.384.01-.381-.22-.835-.188-1.204.05-.572.377-.99.314-1.599-.064-.618-.534-1.076-.63-1.656-.07-.433.185-.857.064-1.316-.104-.396-.53-.527-.787-.779-.303-.295-.164-1.119-.299-1.5-.21-.593-.79-1.236-.675-1.912.105-.62.272-1.227.407-1.84m5.396-.693c.745.17 1.53.213 2.233.51.711.298 1.113 2.192 1.588 2.816.815 1.07 2.073 1.567 3.036 2.463.8.745 1.218 1.852 2.171 2.435.833.51 1.788.476 2.564 1.117.23.191.383.785.645.907.835.391 1.957-.1 2.815-.1.974 0 1.908.794 3.004.794.462 0 1.19-.294 1.62-.184.48.122.122 1.01 1.117 1.145 2.195.298 4.038-.518 6.15-.593.9-.032 1.803.06 2.705.028.856-.03 1.77-.35 2.626-.269.272.026.117.397.362.438 1.512.255 3.454-.399 4.86-.948 1.185-.464 2.747-1.021 3.76-1.797 1.1-.842 1.712-1.994 2.909-2.634.705-.376 1.004-1.055 1.604-1.527.672-.53 4.607-2.127 5.097-2.833.146-.21.125-.528.283-.764.256-.383.267-.455.644-.694.21-.133.765-.163.645-.382-.124-.224-1.506.756-1.808.68-.523-.13-1.318-1.05-1.936-.75-.556.271-.928.847-1.51 1.103-.564.249-1.183.258-1.762.482-1.15.446-2.116 1.276-3.301 1.657-.794.255-1.603.3-2.376.65-1.242.564-2.64.934-3.837 1.557-.455.237-1.036.719-1.416 1.047-.056.05-.194.215-.126.185.255-.112.575-.634.094-.694-.614-.076-2.998.728-4.01.765-1.577.058-3.025.501-4.577.68-1.442.166-4.36-.15-5.835-.496-.228-.054-.035-.304-.283-.368-.631-.163-2.257.478-2.706.127-1.249-.976-1.124-1.11-2.878-1.457-.006-.001.077-.476.047-.538-.121-.262-.564-.354-.755-.425-1.616-.603-3.316-.655-4.907-1.472-.474-.244-.612-.873-1.101-1.033-.793-.259-3.94-.635-4.482-1.26-.21-.243-.25-.865-.755-.821-.752.065-1.479.302-2.218.453m1.195-6.711c-.93.309-3.002 1.886-4.277 1.431-.321-.114-.454-.558-.551-.835-.494-1.412-.19-2.643 1.116-3.497 3.56-2.327 5.67-.678 8.998 1.062.445.232.839.39 1.21.735.345.321 3.558 4.736 3.854 3.935m30.56-1.882c1.643-3.192 8.76-7.67 12.393-6.822 1.627.38 2.456 4.065.063 4.529-1.779.344-2.549-2.34-.471-2.095m5.772 12.131c.63.076 1.26.133 1.887.226 1.144.172 4.729 6.578 4.64 5.295m-3.711-13.985c-.179-.58-.429-1.144-.536-1.742-.245-1.37 2.39-.726 1.934.057-.366.631-1.268.967-1.399 1.685-.19 1.044.403 2.086.52 3.141.089.808-.334 2.31-.583 3.1-.112.357-1.916 3.165-.361 1.402m-71.501-3.695.708-1.6c.84-1.89-2.118-.972-1.825-.338.313.677 1.124 1.192 1.117 1.938-.01 1.069-.878 1.957-1.164 2.987-.139.498.347 1.789.409 2.336.066.587 1.572 6.88 1.572 5.081M87.4 260.356c-.583-1.74-.217-3.542-.363-5.309-.034-.42-.317-.992-.236-1.415.122-.627 1.216-1.953 1.747-2.35 2.22-1.662 1.67.228 2.784-.396.686-.385 1.947-1.978 2.894-1.698.251.074.393.445.58.622.604.568 1.344.875 1.905 1.515.496.565.778 1.274 1.257 1.854.377.455.926.689 1.338 1.104.615.62.388 1.298.724 2.024.157.342 2.016 2.079 1.163 1.43m9.264.397c.978-3.351 2.253-5.808 5.064-7.786.398-.28.724-.726 1.243-.779 2.09-.21.613 1.569 1.887 1.415 1.041-.125 2.286-1.52 3.35-1.23 2.151.587 1.938 7.255 2.784 8.776.148.267.911.549.63.666-.134.054-1.058.404-.583.055m6.937 1.769c1.252-1.391 2.915-3.19 4.765-3.906 1.287-.498 3.041-1.38 4.436-.665.535.274-.154.99.393 1.246.4.188 1.452-.207 1.494.552.087 1.61-.176 3-.817 4.473-.24.55-.663.964-.834 1.542-.067.225-.385 1.533.252 1.345.073-.022-.692-.332-.787-.353" style="opacity:1;fill:none;stroke:#000;stroke-width:1.664;stroke-linecap:round;stroke-linejoin:round;stroke-dasharray:none;paint-order:stroke markers fill" transform="translate(-37.888 -47.26)"/><path d="M73.496 263.569c-1.407-2.36-1.015-1.11-1.243-2.704-.565-3.947 4.612-1.229 6.04-.325 1.386.878 1.88 2.087 2.69 3.355.16.25 1.72.418.66.028m-4.389-5.493c.11-.627.19-1.26.33-1.882.034-.148.535-1.048.441-1.218-.08-.145-.213.275-.236.44s.411.36.504.367c.559.047 1.418-.12 1.887-.466.765-.566.454-2.138 1.573-2.053 1.524.115 3.286 1.63 4.089 1.515m14.203-2.01c.363-1.749.055-1.08.707-2.18.834-1.408 1.691-2.872 3.523-1.36.305.253.447.663.85.808 1.09.391 1.249-1.875 3.413-1.36 1.652.394 2.318 2.12 3.697 2.747m15.13 2.732c.587-.619 1.21-1.205 1.761-1.855.383-.45.492-.946.803-1.402.427-.626 2.338 1.56 2.516 1.601.78.182 2.02-.878 2.674-.496 1.374.8.082 5.213 1.478 3.483m-56.166 10.786c2.999-.722 5.793-2.118 8.76-2.945 9.27-2.584 21.051-2.618 30.593-1.628 3.734.387 7.552.952 11.198 1.755.452.1 5.531 2.288 4.452 2.081M38.72 205.787c1.813 3.272 2.078 7.02 3.02 10.56.296 1.113.782 1.825.63 2.987-.081.611-.605 2.935.125 3.143m56.622-48.539c.914-.18 1.766.872 2.69.907.962.036 1.618-.563 2.5-.638.664-.057 1.748.19 2.343-.17.605-.364.012-.619.566-.438m65.854 28.48c-.13.92-.407 1.814-.55 2.732-.352 2.251-.457 7.29.047 9.61.143.66.53 1.709-.189 1.784m-132.399-9.907c.492-.227 1.704-.187 1.478-.68-.227-.493-2.012.584-1.478.68.91.163 1.82-.337 2.736-.454.704-.09 1.369.292 2.108.084 1.671-.47 4.22-2.085 5.772-3.042.326-.202.726-1.15.96-1.19 1.264-.208 2.207.17 3.523.17 1.601 0 3.707-.596 5.222-1.16.682-.255 2.359-.87 2.893-1.402.338-.337.201-.96.646-1.288.388-.285 1.309.06 1.76-.028.944-.184 1.857-.548 2.8-.736 1-.198 4.823-3.247 5.678-4.148.321-.339.45-.707.708-1.047.085-.112.367-.175.299-.298-.047-.085.058.205.142.255.22.13.573.172.818.227 1.17.263 2.388.252 3.46-.369 1.788-1.035 2.282-2.539 3.507-4.063.38-.473 1.058-.69 1.463-1.131.517-.564.91-2.34 1.556-2.634.387-.176.859.604 1.37.581 3.508-.16 6.487-2.492 8.666-5.194.365-.453.158-.96.424-1.416.216-.37.61-.697.866-1.033.366-.484 1.295-2.036.8-2.548m8.761-.552c1.318.996 2.156 2.412 3.35 3.525 1.344 1.252 2.737 1.66 4.421 2.123.368.1 2.166-.28 2.28.24.02.093-.187.514-.11.778.337 1.146 1.02 2.723 2.044 3.398 1.025.674 2.075.5 3.21.736 1.618.338 2.94 1.945 4.75.849.158-.096-.127.378-.063.552.146.394.48.845.77 1.147.897.938 2.08.612 3.05 1.273.29.196.432.552.756.708.459.222 3.51.169 4.043-.028.06-.023.402-.326.456-.24.226.354-.435.944-.22 1.443.758 1.757 4.04 2.717 5.71 3.2 1.2.348 2.537.22 3.727-.127.284-.083 1.052-.354.77-.44-.026-.008.13.17.141.185.335.414.638.673 1.086 1.004 1.145.845 2.965 1.557 4.388 1.713 1.646.18 3.696.156 5.364.114.446-.011 1.483-.414 1.855-.269.23.09-.174 2.006 1.007 2.73 1.388.852 3.843 1.54 5.442 1.785 1.275.195 2.475-.103 3.744-.085 1.44.02 3.108.357 4.529.1M50.17 220.749c-1.503-3.76-1.03-5.969-.848-9.64.048-.973-.316-2.288.031-3.212.247-.659.844-1.271 1.242-1.841.447-.641.956-2.57 2.138-2.35.38.072.719.5.976.75 3.516 3.415 5.277 9 5.835 13.774.063.536.407-1.002.614-1.501m12.898-7.53c-.326-.69-.801-1.326-.976-2.067-.148-.63.224-1.278.252-1.925.196-4.517-.99-5.949 2.075-9.498.528-.61 1.237-1.333 2.172-1.16.366.067.731.168.974.466.64.786.595 2.055.928 2.987.866 2.415 3.334 7.455 2.517 10.036" style="opacity:1;fill:none;stroke:#000;stroke-width:1.664;stroke-linecap:round;stroke-linejoin:round;stroke-dasharray:none;paint-order:stroke markers fill" transform="translate(-37.888 -47.26)"/><path d="M92.275 199.36c-.865-3.337-.487-6.775-.504-10.177-.007-1.444-.368-3.142.079-4.558.335-1.063 1.149-1.928 1.652-2.915.805-1.58 1.708-.246 1.981.792.45 1.709 1.328 3.284 1.684 5.026.315 1.544.327 3.124.502 4.685.06.526.529 2.995.488 2.703m13.086-2.533c0-.623-.027-1.247 0-1.87.162-3.609.844-6.372 3.21-9.03.073-.083.824-1.29 1.162-.85.846 1.105.398 3.452.488 4.714.221 3.096.584 6.25.976 9.329.054.43.031 1.103.251 1.542.039.077.488.413.488.567 0 .174-.274.454-.204.595.154.312.608-.067.755-.2m11.403 6.37c-.12-4.45 2.115-7.736 4.057-11.48.42-.81.385-1.84 1.494-1.457.64.221 1.396.532 1.62 1.245.57 1.816.236 4.086.472 5.974.26 2.084.736 4.477 1.416 6.469.257.752.898 3.364 1.981 2.803m13.071 4.826c.369-1.967-.47-3.877-.393-5.831.075-1.941 1.341-9.827 4.686-9.201.503.094 2.024.903 2.296 1.288.652.923 1.88 4.25 2.014 5.293.225 1.755.02 3.413.425 5.167.03.129 2.29 8.6 1.494 5.592m-17.978-17.679c-.2.877-.604 1.732-.598 2.632.018 2.67.928 5.468 1.18 8.154.144 1.526-1.006 4.432-.125 3.17m-81.898-10.532c.355 5.466-.038.42.393 4.247.319 2.827.022 5.926.771 8.69.252.93.483.596.425-.04m19.235-24.036c-.22 2.024-.253 1.514-.157 3.34.192 3.654.704 7.343 1.164 10.97.042.327.732 2.896.488 3.242-.104.147-.493.427-.472.651.015.167.292-.166.425-.269m37.732-19.831c-.148.826-.267 1.657-.441 2.477-.552 2.6-.498 1.015-.801 4.062-.203 2.036.712 4.544-.048 6.201m-42.765 7.36c1.909-2.764 2.218-6.027 2.72-9.23.139-.88.517-2.065.378-2.958-.347-2.234-.773-4.703-.708-6.992.016-.566.154-1.345-.047-1.869-.048-.125-.199-.595-.315-.68-.056-.04-.502-.28-.502-.325 0-.27.51-.18.77-.255" style="opacity:1;fill:none;stroke:#000;stroke-width:1.664;stroke-linecap:round;stroke-linejoin:round;stroke-dasharray:none;paint-order:stroke markers fill" transform="translate(-37.888 -47.26)"/><path d="M130.683 183.946c.422 1.39.614 2.788.582 4.232-.078 3.552.014 7.26.488 10.787.214 1.59.617 3.256 1.007 4.812.11.44.063 1.041.299 1.43.054.09.152.373.157.27.013-.24-.156-.748-.204-.922" style="opacity:1;fill:none;stroke:#000;stroke-width:1.664;stroke-linecap:round;stroke-linejoin:round;stroke-dasharray:none;paint-order:stroke markers fill" transform="translate(-37.888 -47.26)"/><path d="M83.23 186.224c-2.644-1.693-3.887-5.025-3.82-8.11.01-.458-.288-.873-.22-1.331.356-2.399 3.534-4.14 5.331-5.365 3.351-2.284 7.169-3.617 11.167-4.303 1.352-.231 2.733-.187 4.09-.396 1.671-.258 3.281-.78 4.954-1.02 3.909-.559 7.776.141 11.638.638 1.115.144 2.266.083 3.366.31 1.528.316 9.81 4.107 10.68 5.153 1.139 1.37 2.121 3.44 2.8 5.069.769 1.844-.09 4.659-1.086 6.241-.188.3-1.377 1.991-1.007.991" style="opacity:1;fill:none;stroke:#000;stroke-width:1.664;stroke-linecap:round;stroke-linejoin:round;stroke-dasharray:none;paint-order:stroke markers fill" transform="translate(-37.888 -47.26)"/><path d="M81.281 182.544c-.531-2.732 1.01-3.756 2.988-5.308 6.493-5.093 14.273-5.319 22.162-5.195 4.477.07 8.67.314 13.038 1.416 3.38.853 7.869 1.237 10.476 3.835 1.079 1.076 1.58 2.21 2.091 3.625.163.451.078 1.29-.016 1.741-.022.108-.108.425-.063.325.015-.032.021-.066.032-.099l.252-.552" style="opacity:1;fill:none;stroke:#000;stroke-width:1.664;stroke-linecap:round;stroke-linejoin:round;stroke-dasharray:none;paint-order:stroke markers fill" transform="translate(-37.888 -47.26)"/><path d="M98.77 175.453c-.218 1.523-.21 3.066-.141 4.6.149 3.34.552 6.614.535 9.965 0 .105-.056 8.564.346 5.124m7.628-20.129c-.11 1.138-.228 1.752-.142 2.846.29 3.679.996 7.328 1.243 11.013.04.59-.073 3.416-.063 3.425.112.099.457-.336.598-.452m-67.726 16.434c3.293.689 6.089 2.703 9.28 3.652 1.077.32 2.152.307 3.24.495.651.112 1.055.549 1.636.792.888.373 1.923.502 2.847.766 1.291.368 2.834 1.274 4.214 1.117m87.324-4.005c1.634-1.036 3.456-1.666 5.284-2.265 2.009-.658 4.202-.535 6.166-1.203 1.545-.526 2.581-1.698 4.168-2.152.884-.252 1.94-.461 2.69-1.02.48-.357.525-.572 1.054-.82.52-.245 1.073-.427 1.588-.68.138-.068.538-.29.393-.24-.302.103-.596.224-.834.439m-49.874 13.461c-.25-1.124-.96-2.431-.802-3.652.097-.755 2.152-6.257 3.02-6.257.271 0 1.507.249 1.856.467.953.596.789 2.432.943 3.384.325 2 1.141 5.721.268 7.7-.424.96-.996 1.677-2.045 1.811-.54.07-1.1.021-1.636.142-.097.022-.366.131-.268.127.48-.019.807-.174 1.29-.325m21.454 4.261c-.732-3.308 2.386-7.307 5.961-6.157.221.07.393 1.37.425 1.585.173 1.152-.577 3.298-1.227 4.303-.508.784-1.303 1.391-1.698 2.251-.37.806-.166 1.084-.3 1.797-.033.18-.555.437-.377.396.077-.017.158-.235.189-.282m-61.875-8.989c-.595-1.086-1.043-2.11-1.274-3.312-.182-.946-.254-4.861.299-5.308.267-.217 1.34-.167 1.682-.185.848-.044 2.223.354 2.894.878.65.509 2.24 4.334 2.486 5.422.14.62.114 1.151.47 1.712.314.493.325 1.243.709 1.643.541.562 1.71.76.031.226M65.6 227.911c-1.973-1.845-1.95-2.715-1.51-5.067.069-.364.123-1.24.613-1.402 2.602-.855 2.054 2.698 2.47 4.007.095.299.832 1.725.88.694m-10.207 4.544c.614-.295 6.713-1.626 6.888-1.94.054-.097-.177-.132-.266-.198" style="opacity:1;fill:none;stroke:#000;stroke-width:1.664;stroke-linecap:round;stroke-linejoin:round;stroke-dasharray:none;paint-order:stroke markers fill" transform="translate(-37.888 -47.26)"/><path d="M90.923 214.776c1.735-1.875 4.15-2.906 5.945-4.699.74-.74.84-1.654 1.4-2.422.993-1.364 2.768-2.201 3.79-3.552.123-.163.415-1.006.63-1.006.549 0 1.196.006 1.745.086 1.702.247 6.24 5.375 8.146 6.568.546.341 1.2.366 1.763.65.688.349 1.283 1.064 2.013 1.302.24.08 4.746 1.393 3.193.228m30.859 12.669c1.175.77 2.644.695 3.9 1.217.185.076.716.268.519.298-.276.041-.852-.018-1.037-.029m-24.364-9.682c1.32-2.869-.394-5.315 1.887-7.602.238-.238.309-.759.645-.778.45-.025 1.897-.08 2.344-.482.16-.144.255-.496.188-.707-.062-.199-.543-.408-.361-.51 1.349-.757 2.904-1.097 4.467-.623.603.184.714 1.163 1.226 1.544 1.47 1.094 4.363 1.944 3.917 4.147-.014.066.382.489.393.65.064.892-.497.369-.77 1.048-.013.03.006.355 0 .355-.071 0-1.872-1.18-1.872-.652 0 .194.412.125.504.297.558 1.056.372 1.295.565 2.435.061.363.668.543.692.85.005.062-.329.354-.362.509-.138.641.384 1.021.063 1.784-.074.175-1.51 1.151-1.069 1.231.276.05-.506-.311-.786-.297-.22.01-.839.231-.646.127.164-.088.336-.16.504-.24" style="opacity:1;fill:none;stroke:#000;stroke-width:1.664;stroke-linecap:round;stroke-linejoin:round;stroke-dasharray:none;paint-order:stroke markers fill" transform="translate(-37.888 -47.26)"/><path d="M137.95 212.058c.34.51.513 1.87 1.023 1.53s-.682-1.02-1.023-1.53m-2.658.694c-.289.65-.566 1.307-.866 1.953-.085.184-1.06 1.124-.975 1.188.518.397 1.247.226 1.73.737.987 1.044.316 2.982 2.155 3.54.278.083-.577.054-.864.098m-68.734 1.09c.927-.364-.442-2.944-.015-3.284.091-.074 1.117-.307 1.07-.467-.124-.416-1.154-.219-1.21-.623-.177-1.258 1.294-1.577.06-3.27-.782-1.073 1.305-2.846 2.393-3.058.373-.072.796.29 1.226.185.713-.175 1.536-.934 1.62-.963.65-.225 1.567-.038 2.233-.084.23-.016 1.143-.372 1.354-.255.345.193.665.66 1.021.877 2.674 1.632 3.77 1.64 4.358 5.336.066.416.86.845.816 1.09-.109.609-1.173 1-1.65 1.317" style="opacity:1;fill:none;stroke:#000;stroke-width:1.664;stroke-linecap:round;stroke-linejoin:round;stroke-dasharray:none;paint-order:stroke markers fill" transform="translate(-37.888 -47.26)"/><path d="M72.583 214.493c.665-.129 1.739-.8 2.548-.595 1.78.45 3.52 3.335 2.784 5.153-.18.446-.665.696-1.023 1.018m-5.819-3.184c.509-.005 1.53.494 1.526-.014-.005-.51-1.017.01-1.526.014m-.55 6.653c.52-.028 1.04-.037 1.557-.086.282-.026.616.16.85 0 .385-.263 1.028-1.474.613-1.258-1.997 1.037 2.585-.473.377-.156m58.226 12.145c-.21 2.626-1.373 4.777-2.595 7.035-.368.68-.14 1.527-.519 2.166-.296.499-1.198.508-1.604.891-.147.14-1.493 1.77-1.668 1.981-.107.131-1.964 2.922-1.902 2.987.367.384 1.979-.449 2.374-.622 1.739-.76 2.196-2.456 3.555-3.568 1.155-.944 2.677-1.565 3.931-2.406.104-.07-.24.247-.157.34.362.414.582.92.928 1.345.59.725 1.606 2.146 1.543 3.057-.035.504-.26.934-.268 1.444-.007.39.214.731.189 1.118-.032.48-1.028 1.943.189 1.6 1.686-.475 1.936-1.81 2.532-3.213.142-.336.59-.871.582-1.26-.015-.64-.71-1.025-.818-1.614-.1-.534-.07-1.125-.268-1.64-.195-.508-.544-.877-.944-1.218-.307-.262-1.424-1.166-1.588-1.36-.201-.238 1.265-3.365.927-4.062-.135-.279.17-.844.22-1.133.036-.205-.266-.576-.063-.622 2.16-.491 1.718 6.859 3.005 3.935.227-.516.167-1.153.031-1.685-.237-.927-.86-1.72-1.226-2.59-.294-.7-.055-1.623-.472-2.265-.247-.38-1.03-1.257-1.448-1.911-.188-.296.223.522.645.057.631-.695 1.535-1.257 1.668-2.336.038-.303-2.106-1.893-2.484-2.095-.308-.163-.857.126-1.118.282-2.442 1.466-.826 3.296-1.29 3.851-.255.306-1.776-.053-2.217.07-2.044.57-3.481 2.804-4.169 4.658-.02.057.121-.025.173-.057.435-.265.796-.481 1.149-.848 1.248-1.298 1.33-.948 3.177-.312m-56.433-.453c-.498.226-1.721.18-1.494.679.226.498 1.817-.238 1.494-.68-.548-.75-1.756-.61-2.642-.89-.077-.025-.357.047-.393-.1-.244-.985 1.102-1.757 1.73-2.208.312-.226.9-.038 1.29-.085 2.333-.278 1.583 1.748 2.658 2.618.549.444 1.563.528 2.248.595.719.07 2.06 1.821 2.58 2.363.316.33.785.491 1.101.822.049.05.21.167.142.155-.628-.108-1.46.244-2.044 0-.218-.09-.603-.682-.882-.58-.496.18-.516.548-.74.934-.137.24-.557.55-.534.85.062.841 1.393 2.268 1.888 2.888 1.263 1.583 3.085 6.408 3.177 8.436.038.815.04 2.274.392 2.987.19.382.001.682-.093 1.075-.025.103.016.383-.063.312-.365-.332-.367-1.081-.613-1.472-.36-.57-1.02-.894-1.464-1.388-.467-.52-1.004-1.298-1.147-1.98-.215-1.024-.791-.932-1.165-1.715-.357-.749-.773-1.978-1.369-2.519-.984-.895-1.298 1.47-1.336 1.77-.07.564-.372 1.037-.472 1.6-.306 1.727-.143 5.645-1.337 6.95-.196.214-.176-.56-.33-.807-.444-.716-1.157-1.441-1.29-2.307-.102-.667.013-1.513.095-2.166.118-.95-.023-2.132.173-3.044.123-.573.56-1.023.74-1.585.191-.605-.055-1.154.078-1.741.057-.252.322-.448.3-.737-.016-.187-.985-.732-1.134-1.103-.39-.97-.285-1.908-.897-2.818-.687-1.023.848-2.82-.299-2.704m39.022-181.54c-3.883 2.415-4.648 6.82-5.394 10.956-.248 1.372-.578 2.718-.457 4.134.41 4.806 2.227 8.62.929 13.291a57 57 0 0 0-1.604 7.871c-.117.883-.17 1.762-.252 2.646-.012.133-.351 1.025-.362 1.006-.114-.209.149-.452.22-.68-.86.656-1.766 1.256-2.58 1.968-.667.582-1.41 2.992-2.107 3.935-1.407 1.9-3.558 3.005-4.97 4.912-1.436 1.94-2.179 4.423-3.948 6.143-1.08 1.05-2.587 1.474-3.54 2.69-.997 1.273-1.205 2.997-1.886 4.417-.574 1.197-1.338 2.101-2.17 3.1-.899 1.078-2.622.766-3.744 1.302-1.175.56-3.188 2.532-3.083 3.95.03.399.734.476.913.636.99.885 4.96-1.917 6.008-2.704.202-.151.673-.111.911-.184.799-.246 1.43-.845 2.03-1.387 1.008-.909 1.65-2.259 2.485-3.327 1.278-1.635 2.703-2.869 4.215-4.231.407-.368.725-1.049 1.18-1.345 4.616-3.008 10.186-6.55 12.63-11.17m-3.602 4.743c1.673 2.408 1.744 5.056 2.028 7.926.101 1.023.551 2.16.551 3.143 0 2.04-2.054 4.532-2.91 6.327-.874 1.835-.598 4.173-1.147 6.101-.269.944-.598 1.977-1.039 2.817-.427.817-1.409 1.32-1.51 2.265-.119 1.105.446 2.139.614 3.228.06.392.256.31.456.58.137.185.032.89.126.68.12-.27.22-.548.33-.822" style="opacity:1;fill:none;stroke:#000;stroke-width:1.664;stroke-linecap:round;stroke-linejoin:round;stroke-dasharray:none;paint-order:stroke markers fill" transform="translate(-37.888 -47.26)"/><path d="M111.81 59.606c-.845 1.533-1.4 2.766-1.4 4.459 0 .412.409.777.409 1.231 0 1.918-.52 3.859-.52 5.747 0 1.755 1.13 3.31 1.621 4.997.222.763.84 3.28 1.257 4.077.158.3.754 1.127 1.008 1.317.436.327.796.929.802.906.026-.092.021-.19.032-.284m-2.141 22.054c.221 2.813.772 5.605.772 8.437 0 2.341-.529 4.547-1.73 6.567-.198.333-.618.621-.74.949-1.313 3.548-1.738 5.61-3.79 8.847-.965 1.522-2.146 3.352-2.234 5.238-.064 1.397 1.04 2.42 1.04 3.822 0 .055.008 1.545.078 1.513.237-.107.417-.75.518-.948" style="opacity:1;fill:none;stroke:#000;stroke-width:1.664;stroke-linecap:round;stroke-linejoin:round;stroke-dasharray:none;paint-order:stroke markers fill" transform="translate(-37.888 -47.26)"/><path d="M115.584 78.347c.149 2.012.408 1.633 1.7 2.166.61.252 1.296.55 1.933.242.098-.048 2.448-3.561 2.406-3.936-.115-1.037-.35-3.36-1.194-4.034-3.137-2.503-3.601-.235-6.606.877-.21.078-1.903.572-1.903.878 0 .772.612.43.927.255 6.436 7.723-.307 1.891 3.004.142" style="opacity:1;fill:none;stroke:#000;stroke-width:1.664;stroke-linecap:round;stroke-linejoin:round;stroke-dasharray:none;paint-order:stroke markers fill" transform="translate(-37.888 -47.26)"/><path d="M121.42 75.94c.306.457 1.195 3 1.226 2.932.135-.297-2.462.572-2.343.55.306-.055.503-.301.74-.48m-.221-13.562c-1.054 1.796-1.143 3.683-1.369 5.663-.052.456-.135.584-.52.892-.068.056-.264.235-.204.17.39-.415.447-.552.913-1.175" style="opacity:1;fill:none;stroke:#000;stroke-width:1.664;stroke-linecap:round;stroke-linejoin:round;stroke-dasharray:none;paint-order:stroke markers fill" transform="translate(-37.888 -47.26)"/><path d="M117.377 66.43c1.349.799 1.507 2.501 2.942 3.07.372.148.798.064 1.148.284.445.28-.246 1.172 1.085.977" style="opacity:1;fill:none;stroke:#000;stroke-width:1.664;stroke-linecap:round;stroke-linejoin:round;stroke-dasharray:none;paint-order:stroke markers fill" transform="translate(-37.888 -47.26)"/><path d="M117.141 69.926c.065-.341 7.205-1.863 4.876-1.558m-4.199 13.023c.685.115-.653 4.58-.488 3.34 3.568.174.882 2.847 1.714 4.02.873 1.23 2.898 3.249 4.53 3.114 1.076-.088 2.309-1.303 3.24-1.783.558-.287 2.706-.745 3.02-1.316.486-.883-.477-2.736-.11-3.17.564-.667 2.388.156 2.784.607.27.308.46 1.674.41 2.082-.05.396-.51 1.478-.803 1.74-.914.82-9.507 5.381-10.523 4.926-.828-.371-1.358-1.33-2.548-1.628-.301-.075-.748-.183-1.053-.183-.084 0-.321.033-.252-.014.358-.241.723-.484 1.069-.737" style="opacity:1;fill:none;stroke:#000;stroke-width:1.664;stroke-linecap:round;stroke-linejoin:round;stroke-dasharray:none;paint-order:stroke markers fill" transform="translate(-37.888 -47.26)"/><path d="M117.944 86.883c.108 2.084.614 3.625-.598 5.422-.429.635-.996 1.272-1.385 1.925-.38.64-.36 1.625-.502 2.335-.15.754-1.462 4.018-1.872 4.87-.297.614-.832 1.052-1.163 1.627-.721 1.25-2.605 2.51-3.98 2.406-.31-.023-1.308.092-1.495.284-.065.066-.187.323-.142.241a4.5 4.5 0 0 1 .535-.736" style="opacity:1;fill:none;stroke:#000;stroke-width:1.664;stroke-linecap:round;stroke-linejoin:round;stroke-dasharray:none;paint-order:stroke markers fill" transform="translate(-37.888 -47.26)"/><path d="M113.445 95.448c.057.047-1.87 3.459-.283 1.825m-6.952-3.001c-.086.269 2.895 1.411 1.998 1.217m1.509-15.457c-.201.212-.778.238-.958-.084-1.298-2.32-2.136-4.801-4.169-6.71-.988-.929-2.301-1.314-3.476-1.968-1.558-.866-2.687-2.358-4.01-3.496-1.272-1.094-3.703-1.759-5.254-2.307-.513-.182-1.065-.137-1.588-.255-1.861-.419-4.972-1.48-6.512-2.662-.607-.466-.567-.936-.991-1.84-.457 2.304-.284 2.524.66 4.034 1.674 2.677 3.462 4.574 6.686 5.11.507.084 6.62 1.712 4.105 1.458m-6.134-.339 1.871 1.047c1.93 1.085 3.491 2.05 5.6 2.76.244.083 2.46 1.318 1.494.808m-5.427-.368c1.53 1.111 2.893 2.746 4.688 3.467.678.273 2.391.448 2.673.779m-4.435-.171c-.228 2.904 6.24 1.058 6.605 1.501.135.163-.407.116-.612.17m-3.177 2.024c1.068.424 4.822-.89 4.529-.494m-3.366 4.019c.55-.208 1.091-.445 1.652-.623 1.083-.344.43.105 1.43-.41.355-.182 2.057-1.546.662-.878m-1.401 3.27c1.237-.677 2.255-1.536 3.303-2.434.671-.576 1.499-.921 1.275-.906-.47.032-.848.229-1.243.466m-3.02 5.026c.33.594 6.492-4.067 4.499-3.68m-2.14 3.964c.828.52 2.92-2.939 2.612-2.577m-2.235 5.138c1.97-.213 1.755-1.2 2.33-1.798m5.127-38.983c-.881-.578-1.719-.05-1.84-.708-.06-.327-.133-.403-.378-.581-.157-.114.422-.11.58 0 .57.396 1.567 1.98 1.637 1.289.372-3.63-.99-1.71-1.794-2.548-.238-.248-1.041-.675-.706-.751 1.007-.229 1.989.524 2.957.524.047 0-1.204-1.307-.96-1.218 1.357.494 4.482 1.874 3.444 3.667-.143.247-2.843.312-2.94.326m-.52.948c.278.322.58 3.96 1.133 1.6m1.745-2.181c-.02.52-.582 1.537-.063 1.558.52.021.042-1.038.063-1.558m-2.107 7.22c-.183.41.878 4.346 2.044 3.921.244-.088-.012-3.323-.031-3.666-.02-.347-.37-1.27-.205-1.572.09-.163 1.34.411 1.37.227.14-.89-.224-1.013-.693-1.5-.161-.168-.315-.855-.315-.623 0 .212 1.568.627 1.432.382-.138-.249.02-.97-.047-1.048-.276-.317-1.679-1.038-1.747-1.033M123.543 82.1c.262.518.268 1.818.787 1.556.519-.263-1.263-1.89-.787-1.557.365.256 2.859 4.141 2.516 1.628-.13-.953-.05-1.079.567-1.459" style="opacity:1;fill:none;stroke:#000;stroke-width:1.664;stroke-linecap:round;stroke-linejoin:round;stroke-dasharray:none;paint-order:stroke markers fill" transform="translate(-37.888 -47.26)"/><path d="M127.397 86.048c-.047-.552-.062-1.108-.142-1.656-.08-.551-1.965-1.738-1.81.226.01.129.005.508.142.581.587.315 1.207.566 1.81.849" style="opacity:1;fill:none;stroke:#000;stroke-width:1.664;stroke-linecap:round;stroke-linejoin:round;stroke-dasharray:none;paint-order:stroke markers fill" transform="translate(-37.888 -47.26)"/><path d="M127.757 85.51c-.518.042-1.598-.392-1.556.127s1.038-.085 1.556-.127m-6.872 1.5c.734.415 4.067 2.613 0 0" style="opacity:1;fill:none;stroke:#000;stroke-width:1.664;stroke-linecap:round;stroke-linejoin:round;stroke-dasharray:none;paint-order:stroke markers fill" transform="translate(-37.888 -47.26)"/><path d="M124.361 88.497c-3.36-1.905-2.97 1.023-1.84.75.643-.155 1.227-.5 1.84-.75" style="opacity:1;fill:none;stroke:#000;stroke-width:1.664;stroke-linecap:round;stroke-linejoin:round;stroke-dasharray:none;paint-order:stroke markers fill" transform="translate(-37.888 -47.26)"/><path d="M126.484 88.03c-4.823-.263-2.384 2.548-1.416 1.797.603-.467.944-1.198 1.416-1.797m2.847.255c-2.355-.981-2.79.953-2.123.778.73-.191 1.415-.519 2.123-.778m.205-1.969c2.574 2.997 4.333 1.008 0 0m-.473-.254q-2.99-1.274 0 0M115.6 75.319c2.07-.927 3.245-.477 3.743-2.45m.032.425c.44 1.149.493 2.299 1.715 2.591m-3.193 1.811 1.493.34m-6.165.524c.763.03 4.516-.737 0 0m-26.581 90.89c2.67-2.073 6.287-5.069 9.642-6.085 1.984-.602 4.232-.779 6.307-.977.704-.068 1.428-.328 2.139-.284.369.023.679.207 1.07.212 1.395.019 3.04-.543 4.387-.368 2.801.364 5.642.996 8.321 1.799 1.312.392 3.129 1.408 4.278 2.18 1.242.835 2.79 3.13 4.278 3.41" style="opacity:1;fill:none;stroke:#000;stroke-width:1.664;stroke-linecap:round;stroke-linejoin:round;stroke-dasharray:none;paint-order:stroke markers fill" transform="translate(-37.888 -47.26)"/><path d="M96.207 163.194c-.467-.51-1.001-.964-1.4-1.529-.87-1.23 2.138-4.129 2.846-4.884 2.83-3.016 10.78-1.53 14.361-.807 1.205.244 2.25.147 3.288.935 1.098.833 2.042 2.783 2.327 4.148.161.771.182 1.268-.126 1.953-.066.147.318-.066.472-.113m-31.11 85.785c.287-.19-1.292.349-1.023.134s.793.121 1.023-.134c.26-.288.058-.784.197-1.147.218-.572 1.2-1.982 1.62-2.456.231-.262 1.8-.817 1.501-.375m-.676 8.324c1.237 1.938 1.903 3.832 1.447 6.15-.088.447-.603 1.502-.669 1.82m6.15-8.777c-.217.417-.56.79-.652 1.252-.226 1.135 1.043 4.904 2.123 5.464.257.134.566.123.85.184m-10.444-3.914c.463 1.54 2.205 4.668.574 5.945m-11.993.765c.893 1.17.643 4.605 2.572 4.636m32.888-10.907c.65-.189 1.756 2.853.668 2.994-.09.012.012-.182.04-.268m.999-5.118c.197-1.472 1.2 6.2.762 5.01m2.021-7.367c.037 2.005 1.037 5.383-1.054 6.696m7.086-5.351c-1.169 1.295-2.437 4.415-.283 5.514" style="opacity:1;fill:none;stroke:#000;stroke-width:1.664;stroke-linecap:round;stroke-linejoin:round;stroke-dasharray:none;paint-order:stroke markers fill" transform="translate(-37.888 -47.26)"/><path d="M123.512 254.74c-.262.194-.619.302-.787.58-.696 1.161-.626 3.255.134 4.353m-28.374-7.056c-.258-.697-.428-.632-.236-1.111.011-.027-.013.057-.007.085.073.344.252.675.243 1.026-.015.671-.332 1.318-.314 1.989.06 2.344 1.69 4.064 3.656 5.01m1.283-4.536c-.162 1.1-.765 4.415 1.006 4.473m33.792.509c-1.284.833.088 3.422-.102 3.632m2.768-5.86c-1.054 1.41-2.029 3.211-1.942 5.032.016.338.174.696.558.615" style="opacity:1;fill:none;stroke:#000;stroke-width:1.664;stroke-linecap:round;stroke-linejoin:round;stroke-dasharray:none;paint-order:stroke markers fill" transform="translate(-37.888 -47.26)"/><path d="M139.106 257.727c-.521.352-1.138.592-1.565 1.054-1.113 1.208-2.495 3.71-1.533 5.337m6.055-3.242c-.702-.85-5.124 4.425-3.476 4.318m.716.496c-1.5.11 1.49-2.307 1.793-1.918zm-22.02-35.318a9.2 9.2 0 0 0-.369 4.509m2.375-4.233c.004.889-1.144 4.638-.638 5.174.086.09.247.033.37.05m1.707-4.389c.16 1.245-1.334 2.807-.747 3.956m3.349-4.395c-.547 1.428-.646 2.72-1.588 3.936m3.838-3.235c-.211 1.04-1.091 1.628-1.699 2.315m-30.654-2.605c.35.6 2.009 4.196.543 4.275m-2.533-3.723c0 .488-.086.984 0 1.465.107.586 1.553 1.759 1.22 2.392-.035.066-.502.096-.536.1m-2.563-3.681c-.47 1.38.444 2.403 1.14 3.525m-3.491-2.584c-.122.802 1.548 1.505 1.713 2.138m82.338-1.062c.226.347.546.648.677 1.04.123.37-.44 1.358-.52 1.735-.08.38.29 1.446.103.686m-127.313 4.282c.896.38.834.054.858.51m50.7-82.773c.205.474 1.427 3.316.982 3.432m.968-5.208c.065.327 1.865 3.62.527 4.154m1.329-4.395c.68 1.285 1.348 3.1 1.085 4.303m1.219-5.407c.423 1.436 1.31 3.108.983 4.67m1.99-4.833c.16.999 1.184 3.806.385 4.686m2.296-4.332c.192 1.4.715 2.934.079 4.282m2.721-3.78c.354 1.369-.785 2.913-.291 4.24m3.562-4.53c-1.163 1.332-.37 3.02-.794 4.48m2.942-2.526c-.12 1.02-.956 2.185-.567 3.234m24.693 34.766c-.43-.478-1.01-.705-.896-1.345.387-2.164 3.473.686 3.06 2.399-.407 1.68-3.62 5.977-3.5 7.177.094.947.304 1.023.841 1.57" style="opacity:1;fill:none;stroke:#000;stroke-width:1.664;stroke-linecap:round;stroke-linejoin:round;stroke-dasharray:none;paint-order:stroke markers fill" transform="translate(-37.888 -47.26)"/><path d="M140.734 200.32c1.388-.745 2.985-1.096 3.916.432.252.413.55.854.56 1.366.016.924-.552 1.467-1.071 2.13-.14.179-.282.773-.377.567-.203-.444-.335-.956-.677-1.33-.194-.215-1.215-.033-1.163-.46.03-.253.483-.414.636-.603m6.442.63c-.076.45.661 1.996-.355 1.678-.306-.096-.8-.321-1.07-.517-.678-.494-.683-1.91-.117-2.449.347-.331.925-.432 1.368-.538.196-.046.668-.22.881-.106 1.021.548 1.473 1.625 2.052 2.541.494.78.815 1.412.905 2.35.1 1.03.217 2.05.252 3.086.015.433.064.806-.205 1.175-.63.866-3.624 2.456-4.624 1.479-.658-.644-.708-2.088-.26-2.86.067-.113.492-.576.622-.516.054.024.136.173.228.205m2.407-6.292c-.75-1.44-1.084-3.604.927-4.077.867-.203 2.008.946 1.95 1.777-.015.232-.197 1.502-.495 1.57-.49.114-.953-.509-1.195-.841-.063-.086-.287-.272-.181-.262.217.022.25.029.425.057m6.299-.687c-.54 1.414-.598 1.114-.582 2.393.018 1.463.313 2.892.338 4.352.025 1.443-.404 2.831-.48 4.268-.023.432-.01.865-.055 1.295-.03.29-.417 1.947.008.764m-104.79-7.75q.268 1.498.496 3.002c.392 2.595 1.001 5.347.81 7.976-.05.683-.161 1.361-.032 2.045.13.683.49.884.339.064M76.46 195.55c-.097 1.582-.119 1.3-.094 2.555.057 2.797.552 5.581.448 8.373-.034.935-.37 1.919-.306 2.845.042.604.2.373.212-.007m-4.003-2.824c-.11.311-.288.607-.33.934-.066.504.226 2.198.779 2.428.607.252 1.462.013 1.958-.382.544-.433.618-.826.676-1.508.02-.246.212-1.47.016-1.692-.06-.066-1.563-.441-1.691-.396-.632.224.655-.141-.362.29-.336.143-1.109-.034-1.046.326.269 1.535 1.155 1.108 1.84.906m3.775-1.642c.616.27 1.111.234.983-.502-.082-.472-1.365-.747-1.336-.46.345 3.437.826-2.282-.543 2.194-.416 1.357 2.903 3.226 4.128 1.372" style="opacity:1;fill:none;stroke:#000;stroke-width:1.664;stroke-linecap:round;stroke-linejoin:round;stroke-dasharray:none;paint-order:stroke markers fill" transform="translate(-37.888 -47.26)"/><path d="M68.172 206.046c-2.62.073-.848-4.392 1.116-4.02.386.073.672.538.92.786 1.142 1.14 1.74 1.844 2.265 3.433.103.311.17 1.792.472.976m-2.532-5.754c-.251-.399-.552-.77-.755-1.196-.585-1.226 1.115-2.68 1.825-2.145.473.356.462 1.35.605 1.876.087.316.507.77.236.955-.333.227-.745-.083-1.07.036-.302.11-.56.316-.84.474m-10.531 3.248c-.15.255-.703.615-.448.765s.712-.632.448-.765c-.365-.183-.747.41-1.156.41-.041 0-.433-.636-.48-.77-.204-.585.366-.941.731-1.288.813-.773 1.393-.607 2.069.41.375.564.479 1.04.378 1.72-.042.277-.231.811-.3 1.075-.195.756-.2 1.5-.338 2.259-.155.857-.616 1.64-.762 2.505-.089.526.062 1.016.086 1.536.066 1.376.084 3.133 1.613 3.737.21.083.338.313.558.375.628.177 2.2-.585 2.594-.97.418-.407.75-1.169.89-1.712.136-.534-.066-1.35-.032-1.912.025-.42-.452-.426-.779-.545-.4-.145-.906-.448-1.352-.29-.323.115-1.596.975-.834 1.16" style="opacity:1;fill:none;stroke:#000;stroke-width:1.664;stroke-linecap:round;stroke-linejoin:round;stroke-dasharray:none;paint-order:stroke markers fill" transform="translate(-37.888 -47.26)"/><path d="M60.418 207.717c.577-.665.683-.845 1.188-1.31.931-.858 2.624-2.064 3.6-.424.082.136.494 1.517.363 1.648-.107.108-.604.08-.653.078-.63-.008-.536-.048-1.038.007-.062.007-.22.09-.181.043.438-.54.408-1.205-.425-.814m105.648 5.379c.78.201.544 1.027-.166.764-.89-.329-.74-1.674.032-2.052.884-.433 1.675-.658 2.477.007 1.558 1.294.545 2.857-.472 4.056-.278.327-.49.789-.842 1.047-.422.31-.956.073-1.455.127-2.531.276-3.774-2.5-3.813-4.657-.03-1.642.682-3.08 1.462-4.472.773-1.38 1.972-1.953 3.555-1.713-.307.491 1.083 1.52.928 2.208-.092.408-.928.672-1.196.432m-34.869-15.741c-.43 1.458-.39 2.962-.472 4.459-.056 1.014-.242 2.047-.126 3.065.078.682.304 1.311.401 1.988.105.732-.023 2.387-.023 2.767m-7.841-9.25c-1.036.44-1.44.043-1.589-.92-.164-1.068.118-1.684 1.235-1.882.1-.018.409-.096.503.02.54.663 1.14 1.34 1.416 2.166.23.69.266 1.408.511 2.102.75 2.12 1.917 4.1-.251 5.755-.531.405-.986.586-1.683.545-.506-.03-.66-.925-.865-1.267-.336-.56-.984-.838-.842-1.572.082-.425.387-1.654.913-1.755 1.125-.216 1.48 1.2.762.9m1.534-5.94c-.213-.339-.468-.655-.637-1.018-.643-1.379 1.181-2.417 1.816-2.046.055.032 2.255 4.016-.102 2.824m-5.843-5.832c-1.389-.178-2.082.706-2.902 1.67-.423.498-.98.855-1.36 1.388-1.102 1.544-.948 4.432-.606 6.172.168.851-.058 1.722.527 2.448.52.644 1.835 1.494 2.658.906.456-.326 1.109-1.659.59-2.2-.225-.236-1.366-.754-1.675-.461-.2.19-.23.424-.33.666-.02.045-.1.167-.064.134.167-.15.207-.2.347-.354" style="opacity:1;fill:none;stroke:#000;stroke-width:1.664;stroke-linecap:round;stroke-linejoin:round;stroke-dasharray:none;paint-order:stroke markers fill" transform="translate(-37.888 -47.26)"/><path d="M119.525 188.005c-1.632-.646-1.09-1.86.393-2.222.247-.06.245.45.314.694.39 1.37.837 2.104-.393 3.227.47.106.954.16 1.408.318.986.345 1.734 1.952 1.242 2.895-.237.455-.654-.35-.723-.481m-28.579-7.892c1.116 3.34 2.616 6.686 2.116 10.326-.073.53-.858 2.143.134 2.195m20.297-13.391c-.354.424-.843.766-1.062 1.274-.341.793-.407 1.68-.573 2.527-.546 2.776-.968 6.407.518 8.847m-26.077-1.798c-1.408.343-2.017-.035-2.25-1.422-.03-.19-.153-.625-.046-.829.152-.291.508-.49.77-.665.378-.25.729-.45 1.196-.34 2.062.491 2.195 3.409 2.618 5.012.33 1.25 1.056 3.116.583 4.43-.233.647-1.652 2.317-2.486 2.088-.519-.143-1.616-1.559-1.533-2.208.019-.153.486-1.025.519-.97.07.117-.033.38-.071.503m-3.9-5.683c-.488.018-1.093.01-1.51.339-.91.717-1.027 1.992-1.313 3.03-.583 2.106-.711 2.908-.457 5.095.093.798.063 1.591.401 2.343.258.572 1.781 2.346 2.477 2.364.873.022 1.722-.968 2.108-1.621.178-.3.439-.386.039-.446" style="opacity:1;fill:none;stroke:#000;stroke-width:1.664;stroke-linecap:round;stroke-linejoin:round;stroke-dasharray:none;paint-order:stroke markers fill" transform="translate(-37.888 -47.26)"/><path d="M80.566 194.41c-1.406.517-1.486-2.086-.315-2.236 1.34-.172 1.868 2.263 1.73 3.178-.084.557-.286.928-.574 1.408-.102.17-.553.558-.385.454l.283-.178m7.267-8.266c3.493-.393-1.692-3.015-1.463-.056.025.319.068.644.188.94.146.36.37.685.598.999.574.792 1.37 1.303 2.187 1.804m-6.378 2.598c.79.514.913.377 1.187 1.154.155.44.164.815-.087 1.245-.8 1.375-2.236.31-3.303.036-.364-.094.749-.082 1.118-.156m25.778-12.988c-.846-.533-.888-.245-.88-1.04.003-.476.133-1.145.503-1.479.998-.903 1.919 2.493 1.997 2.993.313 2.018.616 4.133.456 6.18-.075.965-.198 1.319-.354 2.2-.029.163-.181.492-.016.496.262.006.448-.37.551-.51m-7.801-14.728c-1.514.39-2.78 1.42-2.713 3.12.162 4.138 6.343 2.46 5.536-1.287-.809-3.757-5.15-1.692-5.269 1.182m1.981 5.52c-.311.01-.623.04-.935.029-.242-.008-.4-.083-.464-.305-.169-.582 1.008-.786 1.117-.56 1.338 2.793-3.128 3.671-.606 6.647.357.422.798.76 1.376.701.698-.071 1.303-.463 1.92-.765.512-.25 1.71-.224 1.855-.92.03-.148-.297-.24-.37-.333-.597-.754-1.04-1.646-1.682-2.384-.409-.47-1.314-.942-1.314-1.643 0-1.037.83-1.57 1.691-1.84.155-.049.35-.19.48-.092.163.124-.016.535-.158.595m-32.543 80.251c.85 1.865 1.49 3.447 3.728 3.61.24.017.672-.265.724-.03.075.339-.393 1.068-.393 1.515 0 .136-.228-.172-.362-.184m4.45-.495c12.447-5.138 26.24-3.933 39.368-3.071 2.043.134 4.06-.148 6.04.353.957.242 1.705.203 2.532.737.215.138 1.494 1.175 1.038.693" style="opacity:1;fill:none;stroke:#000;stroke-width:1.664;stroke-linecap:round;stroke-linejoin:round;stroke-dasharray:none;paint-order:stroke markers fill" transform="translate(-37.888 -47.26)"/></svg>