<svg xmlns="http://www.w3.org/2000/svg" xml:space="preserve" width="588.734" height="628.017" viewBox="0 0 155.769 166.163"><path d="M77.587 61.921c-.638.839-.94 2.27-2.047 2.633-1.23.404-2.587.623-3.77 1.16-2.86 1.3-5.525 3.57-7.218 6.226-1.172 1.839-2.32 3.896-2.68 6.096-.115.697-.093 1.41-.245 2.102-.04.181.237-.29.378-.41M81.39 61.671c.34.685.335 1.657.912 2.232.53.527 1.294.658 1.958.941 1.049.45 1.993 1.047 3.091 1.401.983.318 2.065.38 2.981.91 1.845 1.07 3.333 3.866 4.404 5.666.765 1.286.747 2.534 1.056 3.965.069.317-.223 1.409.212 1.38M56.11 79.718c-1.073.439.027.917-.055 1.362-.038.207-1.587.702-1.423 2.03.082.666.725.743 1.167 1.082.91.697.47.865.79 1.57.059.13.36.131.3.291-.03.083.484-.348 1.201-.46 1.173-.183 2.462-.419 3.648-.43 2.007-.018 3.978-.404 5.972-.44.883-.017 1.763.06 2.647-.02 1.301-.118 2.62-.413 3.926-.431 4.57-.064 9.077-.103 13.658.16 1.699.097 3.372.553 5.06.641 2.902.151 6.268-.17 8.997.72M58.569 87.194c.356.314.753 1.298 1.067.942s-1.346-1.326-1.067-.942c1.299 1.788 1.643.937 1.612 2.032-.006.238-1.21 1.97-.946 2.102.298.15 3.962-.83 4.727-.87 3.881-.208 7.733-.517 11.623-.65 2.612-.09 5.413-.321 7.985.21M60.081 93.22c-.32.724-.939 2.092-.612 2.973.092.249.681.128.88.52.186.37-.17 1.046-.101 1.162 1.22 2.071 1.547 3.976 1.624 6.315.044 1.364-.299 2.69-.245 4.044.099 2.517.246 5.139.078 7.668-.162 2.43-.662 4.71-.334 7.156.174 1.3-.014 2.728-.133 4.024-.096 1.055.048 2.19.023 3.262-.006.242-.441 3.988.01 3.885.204-.047-.136-.55-.188-.642M65.52 133.407c.03.077.385.711.31.711-.085 0-.26-1.723-.278-1.862-.282-2.24.245-4.35 0-6.615-.145-1.343-.396-2.727-.444-4.075-.034-.963.29-1.892.29-2.842 0-.774-.024-2.345-.145-3.063-.147-.873-.438-1.668-.467-2.562-.06-1.804.22-3.625.178-5.415-.03-1.258-.497-2.413-.412-3.694.056-.845.541-2.903.29-3.603-.077-.212-.49-.288-.646-.36-.38-.176 1.05-1.5.99-1.532-1.63-.847.636-2.68 1.757-2.632.97-.046 3.071-1.186 4.015-.04.261.316.198.84.29 1.22.305 1.275.938 2.543.922 3.894-.006.523-.218.948-.323 1.441-.177.832.09 1.843.09 2.693 0 1.016-.12 2.019-.133 3.033-.009.674.156 1.342.143 2.012-.007.357-.189.722-.221 1.081-.153 1.7.144 3.526.221 5.225.037.817-.09 1.628-.11 2.442-.037 1.6.138 3.224.188 4.824.034 1.073-.368 2.142-.455 3.204-.067.81-.332 1.548-.4 2.352-.126 1.466.028 2.946-.056 4.414-.047.815-.316 1.827-.167 2.632.047.251-.09-.504-.156-.75M61.349 95.743c-.077.91 1.383-.607 1.646-.16.071.12-.105.338-.244.34-.472.006-1.338-.647-1.402-.18-.259 1.87.734 1.796 1.435 1.57M71.414 94.831c2.248-.844.399 1.163 1.435 1.452.37.103 1.318-.538 1.556-.61M72.504 98.065c1.132-.248 1.723-.63 2.347.24M61.627 98.145c-.317-.017 2.207-.354 1.857.16" style="opacity:1;fill:none;stroke:#000;stroke-width:1.402;stroke-dasharray:none;stroke-opacity:1" transform="translate(-1.093 -46.288)"/><path d="M61.415 94.252c2.912-.463 5.824-.5 8.753-.591 1.25-.04 2.49-.33 3.738-.39 3.081-.15 6.164.097 9.241.21 1.22.045 2.35-.191 3.57-.21 1.59-.025 3.104.26 4.671.49 2.133.314 6.038-.014 7.963 1.051M11.658 96.163c1.223 1.302 1.822 2.32 2.057 4.044.122.89-.22 1.7-.167 2.572.036.574 1.107 1.15 1.024 1.492-.13.535-.511.856-.567 1.46a28 28 0 0 0-.067 4.135c.069 1.153.336 2.21.245 3.382-.174 2.237-1.094 4.296-1.213 6.537-.113 2.128.415 1.411.612.17M16.385 116.121c1.356-2.75 1.649-6.094 3.87-8.388 1.87-1.93 4.915-2.409 7.384-3.062 1.013-.269 2.548-.91 3.615-.91.339 0 1.055.269 1.346.039.027-.022.155-.472.189-.52.567-.802 1.19-1.81 2.157-1.622M23.203 89.848c.22 1.487-.083 2.465-.79 3.793-.73 1.37-1.851 3.53-2.848 4.754-.25.306-.619.049-.8.51-.18.458.088 1.027-.111 1.432-.51 1.037-1.444 1.46-1.591 2.742-.165 1.426.631 2.44.767 3.804.107 1.071-.5 2.18-.69 2.932M22.19 116.041c.36-2.149.004-1.199 1.056-3.022.948-1.643 1.854-3.354 3.482-4.425 1.168-.768 2.63-.834 3.959-1.03.172-.026.51.363.801.21.237-.125.228-.373.288-.6" style="opacity:1;fill:none;stroke:#000;stroke-width:1.402;stroke-dasharray:none;stroke-opacity:1" transform="translate(-1.093 -46.288)"/><path d="M28.596 91.498c-1.181.295-1.568.155-2.302.832-1.09 1.005-.214 2.712-.69 3.212-.433.456-2.319 1.47-2.936 1.642-1.012.284-2.294.118-2.992 1.121M37.527 100.567c1.311-.906 2.522-1.634 2.913-3.262.24-1.004-.175-1.524-.145-1.513.587.222 1.131.463 1.747.601M10.801 86.904c2.39 1.38 2.217 3.167 2.525 5.526M104.011 99.666c-.345 1.308-.616 1.272-.211 2.283.374.934 1.082 1.705 1.546 2.592.563 1.077.54 2.335 1.1 3.403.398.757 1.34 1.397 1.513 2.242.155.76-1.901 2.82-2.135 3.994-.397 1.99-.162 4.433.189 6.406.206 1.158.393 1.32.378 2.491-.02 1.561-.598 2.85-1.123 4.285-.02.055-1.2 3.609-.534 2.773M113.921 137.4c3.376-1.555 5.404-5.02 9.086-5.954 3.826-.972 7.95-.064 11.845-.38.786-.064 1.569-.176 2.346-.311.624-.108 1.182-.513 1.813-.56.145-.011.294.42.467.28.238-.19.163-.28.144-.55M118.925 91.84c3.487 2.822 2.964 6.303 3.126 10.278.032.797.165.782.111 1.512-.085 1.152-1.957 1.506-2.391 2.652-.722 1.905 1.247 3.568 1.2 5.426-.037 1.471-1.542 3-2.224 4.233-1.386 2.508-2.158 5.26-3.147 7.927-.547 1.476-.817 2.895-.656 4.474.093.921.334 1.794.244 2.734-.107 1.117-.677 2.022-1 3.063-.284.913-.157.84-.245 0" style="opacity:1;fill:none;stroke:#000;stroke-width:1.402;stroke-dasharray:none;stroke-opacity:1" transform="translate(-1.093 -46.288)"/><path d="M110.584 93.15c-.414 2.06-.43 2.608.968 4.064 2.76 2.875 2.977 2.844 4.36 6.276.439 1.09 1.252 2.05 1.467 3.223.226 1.229-.429 2.603-.166 3.793.211.96.455 1.64.434 2.623-.02.891-.098 1.873-.357 2.732-.248.823-1.912 1.727-1.012 2.693M123.696 102.329c1.4-1.716.479-.896 1.758-1.691.967-.602 1.785-1.465 2.858-1.883 1.541-.6 3.265-.295 4.87-.5.186-.023 3.2-1.704 1.759-1.021M130.358 84.172c-.504.27-1.078.438-1.512.811-1.293 1.114-2.229 2.789-3.36 4.073-1.173 1.334-2.8 2.646-3.524 4.325-.52 1.204-.199 2.563-.523 3.733M9.11 117.542c.015-1.79 2.846-2.56 3.682-.95.684 1.317.12 5.095 2.903 4.033.707-.27 1.747-1.13 1.79-1.94.012-.21-.38-.671-.289-.832.094-.165.482-.48.59-.56.984-.739 2.144-1.225 3.28-1.682.273-.11.56-.186.835-.29.165-.063.446-.405.478-.23.008.04-.037.073-.055.11-.004.08-.03.162-.012.24.151.616 1.431.863 1.947.67.575-.215-.35-1.81-.412-2.172-.106-.628 5.165-.11 5.495-.04 1.11.24.144 1.72.566 2.363.44.672 1.344.578 1.968.92.31.17.082.403.58.57 1.308.444 2.325-.618 3.336-1.27.193-.124.695-.55.6-.34-1.131 2.49 2.267 1.04 3.437 1.41.261.083.488 1.659.7 1.953.49.678 1.172.733 1.79 1.22.328.259-.052.817.279.931.474.164 1.196.031 1.68.01.603-.025 1.455.122 2.046-.07 1.044-.338 1.63-.796 2.847-.64.37.048.283 1.507.667 1.861.595.55 1.453.404 2.169.542.208.04-.346.329-.334.54.023.388.461.598.723.801.533.412 1.109 1.136 1.48 1.691.647.97-1.01 2.518.289 3.243.234.131-1.964 2.551-1.102 2.522.726-.024.462-1.233-.078-.85" style="opacity:1;fill:none;stroke:#000;stroke-width:1.402;stroke-dasharray:none;stroke-opacity:1" transform="translate(-1.093 -46.288)"/><path d="M32.666 144.888c2.78-4.357 3.687-5.259 8.52-3.083.706.318.453 1.57 1.145 1.592.5.016 1.177-.099 1.646-.3.08-.034.793-.72.89-.691.334.102 1.396.625 1.712.28.355-.386-1.85-3.639-2.124-4.153-.838-1.58-1.098-.305.968-.632.607-.095 1.763-.367.757-1.16-1.046-.825-2.784-1.232-4.104-1.332-.124-.009.126-.242.089-.36-.09-.283-.25-.538-.367-.81-.238-.55-.445-1.223.077-1.703.806-.74 3.25.267 3.904.842.18.158.25.418.434.57.298.249-.055-.782-.178-1.15-.253-.76-.641-1.097-.011-1.773.323-.347 5.874-2.638 3.48-3.363-.137-.042 1.014-.191 1.223.34.258.653.6 1.512.701 2.213.056.382-.221.86-.055 1.21.474 1.003 4.29.132 4.96.02.309-.05.585-.494.867-.36.256.122-.133 1-.111 1.201.085.785 1.132 1.291 1.157 1.482.049.367-.415.807-.39 1.27.034.606.483.85.401 1.483-.053.412-.383 2.789.112 2.762.297-.016.575-.066.7-.37.123-.296-.193-.754-.11-1.102.293-1.241.856-2.961 1.634-3.913.017-.021-.263-.73.19-1.19 1.047-1.07 3.032 1.393 3.38 2.271.164.416-.421 1.087-.245 1.37.358.578 2.12-.24 2.38-.67.108-.178-.09-.68.1-.8.254-.16.585-.204.824-.4.176-.146.155-.264.389-.35 1.332-.49-2.302 2.04 1.19.42.044-.021 1.406-.573 1.378-.201-.043.566-.764.834-.61 1.502.13.571 1.507.266 1.868.21.167-.027.584-.247.5-.1-.303.521-1.067 1.128-.856 1.851.349 1.2 2.41.124 3.169.03.21-.025.223 1.14.745 1.262.534.125 1.018.1 1.557.11.174.002.697 0 .523.01-1.443.081 1.55 1.694 1.679 2.512.15.949-2.002 2.932-1.68 3.273.736.779 2.427-.1 3.315.64 2.342 1.954-.634 2.223 3.492 2.223.227 0-.395.23-.556.39-.43.427-.75.996-.445 1.602.1.199 1.071 1.022 1.035 1.241-.027.164-.89.098-1.002.09-1.213-.086.223.006-.422-.08-.032-.004.059.886.055.92-.042.408-.374.684-.288 1.121.181.927 3.265 1.426 3.68 2.733.13.409-.18.35-.277.64-.084.25.35.65.122.782-.285.165-2.09-.808-1.634.29.899 2.166 3.29 2.025 2.657 4.875-.203.914-.17 1.36-.934 1.981-.833.677-2.523 1.535-2.603 2.673-.04.594 1.29.348 1.046.96-.156.394-2.058 1.527-1.535 1.322M76.952 138.623c.576-.011 1.879.137 1.78-.822-.101-.977-.66-2.224-1.301-2.982-.119-.14-.254-.324-.423-.41-.022-.012-.39-.078-.39-.09 0-.145 1.034-.708 1.147-.832.66-.729-.084-.99-.078-1 .14-.255 4.292-.698 4.86-.941 1.723-.737.092-2.307.467-2.582.512-.377 1.137-.376 1.546-.912.154-.201.47-.889.3-.7-.694.772 2.851.325 3.003-.641.023-.148.07.329.2.4.415.228.863.243 1.323.19.577-.065 1.338-.127 1.857-.409.091-.05.557-.965.612-.922 1.06.832 1.116 1.609 2.814 1.311.79-.138 1.418-.903 1.802-1.55.365-.614.54-1.029.6-.971.74.706 1.52 1.07 2.402 1.47.082.038-.125.136-.154.22-.067.19-.135.382-.156.582-.074.69.324 1.266.867 1.651.63.448 1.325-.33 1.823-.64.198-.124.755-.452.657-.24-.128.276-.3.355-.367.69-.15.744.113 1.349.167 2.072.021.294-.331 1.271-.078 1.482.238.198 2.036.26 1.924 0-.356-.824-1.02 1.27-1.023 1.39-.03 1.174 1.55 2.37 1.512 2.703-.069.623-3.623.983-2.28 3.444.567 1.038 1.88 1.675 2.325 2.582.23.471-.563.967.078 1.35.837.502 1.868.585 2.814.702.184.022.555-.146.555.04 0 .265-.326.373-.322.71.004.283.502 1.07.266 1.292-.28.265-2.228.73-1.59 1.541.87 1.106 2.01 1.022 1.48 2.682-.126.392-.512 1.178-.512 1.552 0 .27.441.212.5.43.1.372-.288 1.092-.288 1.532 0 .29.265.832-.022.87-.99.13-2.052-.354-3.07-.28-1.215.088-2.408 1.264-3.015 1.331-.8.088-1.728-.46-2.524-.14-.759.307.178 1.27-.055 1.802-.6 1.365-1.168 2.239-1.102 3.824.032.765.199 1.225-.534 1.651-.25.147-1.077.336-.789.37.425.051.908-.075 1.334-.12M107.526 141.305c.43-.123 4.872-1.368 5.104-1.132.576.586.029 1.851 1.913 2.844.693.365 2.104.528 2.736 1.07.134.114-1.32 2.43-.656 3.623.602 1.084 1.984 1.592 2.369 2.793.53 1.655-1.106 3.445.055 5.075.82 1.151 4.486-1.26 5.228-2.372.338-.508.928.672.967.891.144.81.483 1.64.523 2.462.072 1.454-.186 3.068 1.624 3.573 1.634.456 2.896-1.865 4.448-2.022.28-.028-1.26.766-.855 1.132.35.317 3.064.556 3.591.6.244.02.794-.256.734-.02-.478 1.867.631 2.824 2.536 3.013.191.019 1.389-.164 1.59.11.497.67-.185 1.28 1.469 1.781.132.04.062 1.022.078 1.112.101.59.616 1.137.712 1.65.118.635-1.775 1.009-.657 2.203.385.41.998.633 1.346 1.071.203.257.24.798.356 1.092.325.82 1.125 1.728.378 2.401-.28.252.684.34 1.056.4 1.525.253 2.362-.134 2.936 1.392.061.162.344.561.267.73-.173.383-3.51.654-3.593.721-.27.22.565.427.89.551.938.358 2.45.784 3.015 1.692.166.265-.013.616 0 .89.009.194.382.45.211.54-.636.338-1.187.267-1.557 1.022-.035.071-.12.487-.178.55-.177.19-.556.161-.767.35-.627.563-.25 4.074-.045 4.565.411.98 1.43 1.395 1.646 2.432.104.5.14 3.39.212 3.463.479.482 1.729.183 1.679.3-.218.511-.517.526-.623 1.182-.068.418.171 1.201-.045 1.591-.416.75-2.117.886-2.202 1.812-.113 1.23 2.967.307 1.936 3.653-.445 1.444-.331 2.593-.178 4.054.032.306-.085.99.033 1.33.17.493.865.92.767 1.493-.057.331-.22.639-.278.97-.03.168.043 2.568-.544 1.572M55.855 80.338c1.248-1.68 1.194.744 1.423.65.766-.313.994-1.312 1.847-1.51.557-.13.687 1.394 1.1 1.44.252.03 1.493-1.346 1.647-1.14.192.258.307.806.756.66.696-.225.856-1.425 1.735-1.31.646.083.713.807 1.09 1.15.528.48 1.513-.457 1.991-.57.94-.222 2.398.463 2.902.31.74-.224 1.059-1.974 2.147-1.631.896.283 1.161 1.308 2.29 1.251.71-.036 1.13-1.02 1.802-.95.692.07.727.896 1.391.86.364-.02.82.03 1.156-.12.363-.163.371-.456.623-.67.406-.347 1.934-.831 2.447-.571.307.155-.044.77.4.96 1.307.558 1.48.519 2.825.47.094-.003.57.048.679-.03.14-.1.218-.372.49-.31.555.126.772.631 1.456.631.576 0 2.465-1.512 3.191-1.461.028.001.311.781.423.89.138.136.538.166.735.24.255.097.312.42.633.431 1.748.064 1.306-.539 2.003-1.15.437-.385.1.91.143.94.252.173.871.158 1.124.04.71-.331 1.004-1.133 1.935-1.101.685.023.605 1.089 1.08 1.331.643.328 1.735.102 2.479.34.285.093.221.555.467.59.225.033.843-.291.957-.24.565.258.803 1.018 1.167 1.042M64.174 81.559c-.349.227-1.272.332-1.045.68.227.35.795-1.012 1.045-.68.335.446-.264 1.087-.323 1.642-.013.122 1.336-.091 1.09-.54-.214-.393-.511-.735-.767-1.102zM57.534 82.13c-.185.38-.385.754-.555 1.142-.35.791 1.461.212 1.445.18-.236-.476-.593-.881-.89-1.321zM72.637 81.31c-.307.436-.656.847-.922 1.31-.269.468 1.738.49 1.59-.01-.139-.467-.445-.867-.668-1.3zM82.236 81.209q-2.138 1.462 0 0z" style="opacity:1;fill:none;stroke:#000;stroke-width:1.402;stroke-dasharray:none;stroke-opacity:1" transform="translate(-1.093 -46.288)"/><path d="M91.822 81.46c-3.252.254-.821 2.199-.39 1.22.173-.39.26-.813.39-1.22zM98.362 82.13c-.703-1.98-1.76 1.418-1.301 1.131.487-.304.867-.754 1.3-1.13zM59.68 83.851c1.089-.454 2.586-.367 3.538-.31M66.22 82.94c1.3-.153 2.825-.95 4.182-.66.489.105.11.178.233.29.135.123.369-.032.546.01" style="opacity:1;fill:none;stroke:#000;stroke-width:1.402;stroke-dasharray:none;stroke-opacity:1" transform="translate(-1.093 -46.288)"/><path d="M75.173 82.86c1.323-.326.87-.312 1.79-.32 2.691-.021 5.366.413 8.041.38 2.832-.033 5.63.038 8.453.1 1.688.038 3.523-.205 5.194.051 1.226.188 2.368.538 3.525.82M87.218 89.417c3.34-.082 6.712-.284 10.02.37.852.168 2.312.978 3.114.67.084-.032-.285-.814-.3-1.02-.058-.803-.026-1.78.111-2.583.037-.215.8-.075.957-.08 1.246-.034 1.178-.855 1.156.1M116.19 82.18c-.565.12.481-.091.155-.23-.336-.144-.993.272-1.168-.27-.06-.189.104-.712.034-.851-.117-.231-1.051.113-1.035-.42.024-.798 1.182-.34 1.413-.76.08-.146-1.28-1.253-1.413-1.542-.31-.68.82-.916 1.257-.722.457.203.845.535 1.268.802 2.162-2.748 1.423-2.53 3.737-2.583.314-.007.844-.159 1.145-.05.21.075.615.468.735.66.061.1.038.586.156.6.472.06 1.35-.387 1.378-.329.105.22-.014.627.078.89.533 1.519.86.438 1.79.161.128-.038-1.012.095-1.2.58-.154.398.93.678.655.32" style="opacity:1;fill:none;stroke:#000;stroke-width:1.402;stroke-dasharray:none;stroke-opacity:1" transform="translate(-1.093 -46.288)"/><path d="M122.307 87.315c-.286-.514-.581-1.023-.857-1.542a11 11 0 0 1-.378-.78c-.112-.259-.39-.887-.39-1.241 0-.47 1.963-.251 1.99-.24.476.177 1.323.94 1.648-.021.196-.582-.43-1.041-.345-1.632.034-.243.335-.545.244-.81-.232-.68-.624-.65-.244-1.521.055-.128-.044-.343.078-.41.2-.113.54-.115.722-.131 1.882-.172 1.404.73 2.78.79.681.03 1.003-.707.68-1.29-.083-.148-.45-.203-.368-.351.195-.351.806-.025 1.2-.1.132-.025.767-.4.869-.38.61.11.44.861 1.512.79 1.62-.107 1.432-1.065 2.336-2.14.232-.278.876-.614 1.045-.922.038-.069-.177-.145-.122-.2.433-.433 1.403-.677 1.969-.89.112-.044.434-.192.344-.111-1.269 1.137 1.09 1.187.611 2.532-.085.241.024.578-.165.75-.215.195-3.459-.769-2.048-.01.664.357 2.873 1.098 3.56.721.151-.083.048-1.587.356-1.261.218.231.329.454.644.6.392.183 1.017.242 1.369.52.127.102-.73.994-.824 1.142-.184.29-.17.704-.4.95-.6.644-2.02-.016-2.769.452-.52.325.69.45.778.53.184.167-1.626.365-1.223.991.367.57 1.674 1.082 1.746 1.781.042.407-1.876 1.353-2.247 1.401-.155.02.021-.316-.01-.47-.087-.41-.402-.624-.802-.71-1.213-.26-2.19.57-2.902.48-.204-.025-.307-.225-.5-.25-.015-.002.23.58.189.67-.191.412-.83.912-1.268 1.061-.35.12-3.427-1-2.747-.01M101.931 78.657c.17-.47.288-.964.512-1.411 1.04-2.078.565 1.092 2.558.35 1.174-.437.123-1.224 1.357-1.882.104-.055.814-.333.934-.38 1.02-.397-.325.845.6 1.351.514.281 1.218.24 1.78.18.135-.014.313-.232.389-.12.148.22.149.51.323.74.34.45.847.724 1.09 1.211.071.143-.758.67-.768.562-.044-.526-.44-.801-.967-.801-.607 0-1.234.47-1.635.47-.389 0-.588-.376-1.056-.28-.22.045-1.2.811-.902 1.13.014.015.562.274.557.291-.048.16-.555.465-.356.69.35.4.965.507 1.324.872.281.286-.37.663-.29.9.2.586 1.403.289 1.246.47-.265.307-1.295.826-.68 1.442.566.565 1.64-.586 2.07-.781.072-.033.09.149.166.17.598.173 1.258.079 1.846-.079.748-.2-.435-.695.724-.641M130.592 90.408c1.385.626 1.755.743 2.78-.21.73-.679.295-1.29.278-1.232-.158.534 1.6.528 1.813.54 1.133.067.602.595 1.424 1.232.347.268.741.287 1.09.51.445.286-1.863.624-1.546 1.272.14.285 3.31 1.96 3.124 2.162-.17.184-1.254.422-.933.95.672 1.109 2.365-.495 2.792-.01.502.573.654 1.192.588 1.932-.013.154-.232 1.031.078 1.031.07 0-.141-.007-.211 0-.245.024-1.076.167-1.19.19-.882.18-2.194.276-2.647 1.192-.347.7.348.891.378 1.56.013.283-.245.687-.178.941.147.556 1.066-.403.39.642-.14.215-.08.298-.29.46-.706.545-2.174.027-3.035.23-1.623.381-.381.985-.579 1.24-.885 1.147-3.672 1.1-3.725 2.974-.024.827.227 2.162.978 2.582.205.115 1.737.466 1.813.67.126.345-.669 1.048-.401 1.442.347.51 3.423-.018 3.649-.23.295-.277-.302-.803-.29-1.111.016-.388.49-1.159.601-1.362.479-.867.993-2.224 2.113-2.341.361-.038.835.116 1.19.01.385-.116.646-.585.934-.75.158-.091.356-.029.522-.1.575-.251.616-1.167.802-1.663.017-.047.079-.138.11-.1 1.12 1.328.673 2.357.19 3.813-.133.4-.207 1.326-.6 1.603-.404.283-3.455.894-2.715 1.701.298.326.73.473.857.94.278 1.031-2.129 2.88 1.078 3.755.115.031-.17.169-.232.27-.199.317-.215.511-.223.9-.004.167-.013.34.033.5.148.513.407.601.69.972.278.365.048.99.5 1.31.67.475 2.983-.81 3.892-.85.31-.013-.121.743-.066 1.01.175.86.856 1.231 1.612 1.513.666.248.784-.079 1.435-.181.712-.112 3.09-.393 3.681-.01.707.46 2.026.92 2.47 1.612.162.254-.498 3.252.534 2.783.081-.037-.184-.062-.268-.03-.397.147-.719.57-.845.96-.086.267.071.662-.09.89-.263.376-.703.57-.9 1.022-.107.248.116.48-.155.38-.428-.157-.623-.463-1.002-.66-1.63-.847-3.773-1.166-5.571-1.191-1.479-.022-.448.677-.812 1.441-.338.708-1.32 1.017-1.702 1.701-.02.035.4.023.479.151.08.13.047.656.044.67-.076.46-.53 1.07-.801 1.402-.348.427-.605.605-1.112.84-2.447 1.134-1.454-1.726-3.326-1.1-.331.11-1.619 2.182-.911 1.85.685-.32-2.003-.58-1.48.782.3.778 2.33 1.586 1.99 2.161" style="opacity:1;fill:none;stroke:#000;stroke-width:1.402;stroke-dasharray:none;stroke-opacity:1" transform="translate(-1.093 -46.288)"/><path d="M119.192 143.416c.325-1.424.573-3.539 1.768-4.564.085-.073.137.177.212.261.356.403.544.447 1.124.57.027.007 1.357.041 1.4.12.085.153-1.336.968-.534 1.411.256.141.727.167.98.19 1.496.14.612-1.923.833-2.732.08-.295.488-.553.734-.7 2.054-1.23 1.653 1.815 2.025 1.661 1.786-.742-1.17-4.059 1.779-4.624.51-.097 1.42-.288 1.913-.23.066.008-.349.714 0 1.29.348.577 1.108.312 1.535.712.793.741.234 1.993 1.301 2.652.48.297 1.579.096 1.579-.6 0-.077.06.142.111.2.232.261.546.433.88.52.903.237 2.614.416 3.458-.09.079-.047.31-2.097.779-2.522.105-.096-.106.28-.078.42M79.11 101.528c-.23.357-1.047.841-.69 1.07s1.107-.991.69-1.07c-.712-.135-1.312.635-2.013.821-.228.06-.465-.084-.7-.1-1.248-.084-2.046.334-2.647 1.47-.223.422-.335.919-.134 1.382.465 1.069 3.01.069 2.447-.44-1.17-1.06-1.363 1.975.678 2.042.522.017 2.537-.77 2.814-.591.792.51 1.363 1.302 2.136 1.822.728.49 1.647.782 1.6.84-.39.498-1.629 2.005-.044 1.783.904-.127 2.512-.748 2.48-1.873-.009-.334-.253-.633-.233-.95.022-.353.722-.732 1.001-.43.262.282.393 2.362.255 2.762-.106.308-.824.667-.7 1.03.12.349.888.345 1.168.502.256.143.118.597.411.78 1.491.934 2.43-1.762 2.503-1.752.538.074.91.488 1.412.591.232.048 2.287-.148 2.213-.27-.29-.479-1.24 1.126-1.3 1.38-.27 1.145 1.055.765 1.556 1.422.187.245.036.763.211 1.071.086.15.606.58.612.781.013.365-2.56.458-.979 1.882.68.612 2.593.537 3.315.04.46-.316.703-.568.778-1.112.024-.177-.323-.609-.323-.43 0 .039 1.05.359 1.169.43.479.291.336 1.015.81 1.432.051.044 1.234.753 1.136.841-.221.199-2.005 1.062-1.224 1.612.163.114 1.775.964 1.97 1.03.413.143 1.01.043 1.4.26.301.168-.118.705.145.982.197.207.436.283.644.45.137.109.642 1.41.601 1.541-.098.316-1.085.524-1.345 1.242-.247.679.338 1.406.167 2.132-.197.832-.744 1.527-.824 2.401-.043.472.332.497.445.091M80.656 97.123c.193.522 1.133 2.56 2.18 1.742.432-.337-.224-2.931-.456-3.022-.1-.04-.342.086-.322-.02.051-.276.11-.459-.023-.73-.26-.535-.587-1.005-.9-1.503-.072-.113-.38-.328-.246-.32.605.037 1.226-.047 1.78.26.433.241 1.038.934 1.557.982.084.007-.169-.943-.122-1.942.027-.58-.03-1.12-.345-1.622-.134-.214-.612-.462-.423-.63.126-.111 1.67.048 1.002-.67-.225-.242-.562-.4-.79-.642-.123-.13.502.257.968-.11.068-.053.13-.248.255-.27.242-.045.384.313.6.43.466.252 1.28.464 1.624.921.13.172.574 4.26 1.902 3.353.89-.608.575-1.743.845-2.592.194-.61 1.08-1.568 1.59-1.912.336-.227.04 1.933 1.258 2.513.058.027.656.251.867.18.038-.014-.096-.022-.123.01-.181.215-.356.605-.388.86-.12.951 1.072 1.193 1.078 1.242.039.313-.168.593.167.84 1.021.755 1.629-.722 1.468-.78-.555-.202-.744 1.688-.534 2.162.09.205.337.28.434.48.678 1.407.541.976 1.89 1.18.43.066.49.52 1.157.452.996-.1 3.157-.612 2.425-2.073-.354-.707-.873-.896-1.558-1.22-.133-.063-.53-.032-.422-.131.047-.042 1.447.59.389-.87-.51-.704-1.278-1.296-1.045-2.232.045-.183.43-1.523.679-1.411.66.296 1.374 1.354 1.868 1.831.229.222.735.967.7.65-.046-.413-.19-.648-.177-1.11.018-.619.812-1.334.578-1.962-.014-.035.895.81 1.123.48.406-.584.414-1.89.379-2.552-.022-.406-.109-.581-.457-.811-.736-.487-.978.413-1.39.38-.802-.064-1.293-1.257-1.991-1.3-.31-.02-1.892.478-1.646-.28.043-.131.134-.24.2-.36.06-.161.132-.317.178-.481.143-.502-.16-1.375.401-1.613 2.436-1.029 1.769.404 2.98.652.354.072.753.031 1.068-.151.538-.311-.549-.41-.5-.38.242.147.496.183.745.38.203.16.828.87 1.112.921.193.036.59-.227.59-.03 0 .07-.083.157-.112.21M109.55 96.824c-1.312 1.06-1.456 2.182-2.035 3.643-1.028 2.593-1.335 1.919-.79 4.724.185.952.494 2.128.512 3.084.011.6-.112 1.21-.045 1.811.132 1.175.882 2.324.956 3.503.208 3.32.36 6.671.545 10 .031.55-.257 1.073-.222 1.61.042.642.654.636.901 1.082.282.508.15 1.222.378 1.771.428 1.033 1.171 1.887 1.49 2.973.348 1.182.162 2.494.635 3.633.182.44.708.485.9.851.184.35-.636 1.324.367.13M1.611 79.811c.4-.438.7-.86 1.15-1.204.293-.225.337.467.785.482.315.01 1.359-.339 1.55-.58.516-.656-.047-1.596-.48-2.095a1.1 1.1 0 0 0-.275-.227c-.084-.05-.291.07-.291-.028 0-.11.15-.402.165-.51.106-.808.629-.96 1.423-1.154 2.001-.487 1.355 2.552 2.304 1.65.529-.503.744-1.259.771-1.968.03-.77-.954-.439-.944-.446.549-.368 1.1-.525 1.487-1.133.193-.305.238-.818.157-1.16a1.6 1.6 0 0 0-.236-.488c-.043-.066-.239-.096-.181-.149.233-.212.629-.07.936-.142.322-.075.64-.168.96-.254.142-.039.891-.288 1.132-.227.766.194.326 1.862 1.761 1.862.11 0 1.132-.063 1.33-.05.365.023.825.274 1.187.205.313-.06.057-.581.228-.637.85-.274 1.774-.142 2.438-.715.574-.494 1.264-.745 1.903-1.125.14-.083.404-.459.385-.297-.097.83 1.155 1.19 1.715 1.373.652.213 1.254.132 1.053.297-1.472 1.212 1.003 2.617 1 2.626-.025.067-1.24.784-.339 1.494.588.462 2.001-.305 2.446-.68.534-.45-.064-1.009.841-.92.731.071.92 1.038 1.337 1.514.433.495 1.29.496 1.274.56-.14.542-.489 1.16-.165 1.734.263.464 1.42-.172 1.14-.248-1.046-.284-2.618.928-1.1 1.36 1.286.365 2.66-.06 3.208-1.318.071-.163.183-.333.157-.509-.015-.106-.121.184-.141.29-.081.428.046.81.251 1.182 1.195 2.164-.018 1.638.276 2.909.146.633 1.393.626 1.258.807-.513.685-2.278.251-2.454 1.295-.084.5.73.761 1.062.878.445.156.657.102.574.204-.201.245-.993.722-.85 1.12.233.64 1.745-.172 1.967-.312.645-.407 1.63-1.245 1.958-1.94.074-.158.024-.367-.055-.51-.018-.03-.105-.046-.08-.07.208-.187.538-.154.811-.212 1.381-.297.39.131 1.432 1.09.372.342 1.062.47 1.368.863.256.33-.665 1.055-.763 1.373-.217.705 1.924.412 2.17.333 1.87-.597-.08-2.61 2.847-1.784.035.01.029.566.04.602.092.301.294.555.55.736.46.323.693.39 1.22.467.306.045.77.041.77.07 0 .383-.398.683-.338 1.063.092.587 1.272.739 1.227 1.096-.03.237-.457.526-.284.786.324.486 2.593.188 2.524 0-.049-.134-.264.128-.36.233-.494.54-.723 1.075-.103 1.657 1.253 1.177 2.363-.907 3.365-1.225.124-.039 1.042-.445 1.055-.368.064.4-.219.787-.166 1.204.028.213.603 1.062.456 1.245-.55.688-1.325.134-1.18 1.5.099.927.482 1.89.67 2.81.018.092-.218.04-.252.128-.083.21-.143.816-.063 1.033.23.63.749.882.833 1.62.122 1.07-.915 1.014-1.447 1.622-.156.178-.522 1.755-.306 1.515.29-.323-.731-.583-1.165-.581-.994.004-1.65.28-2.516.686-.221.104-.827.475-1.148.446-.062-.006.234.083.181.05-.446-.27-.973-.91-1.573-.524-1.218.783.617 2.46.833 3.305.177.69-1.589 2.006-1.132 2.258.18.1.33-.09.236-.254-.33-.582-1.214-.939-1.856-.836-.625.1-1.245 1.008-1.707 1.423-.406.365-1.975-.03-2.044 1.068-.077 1.245 3.05 2.231 3.727 3.25.346.518-.286 1.102-.133 1.662.172.631 1.047.02 1.218-.269.342-.574.032-1.36.22-.849.236.636 2.354.43 2.36.78.014.72-.605 1.201-.48 2.108.028.2.173.622.3.814.04.06.213.16.141.163-.463.021-1.735.23-1.494 1.012.147.48 1.333.21 1.69.481.542.41.596 1.162 1.227 1.522.38.216.82.064 1.172-.1.104-.048.388-.23.315-.14-.352.429-.744 1.563-1.227 1.811-.178.091-1.313.341-.944-.085M77.36 52.442c-1.392-.17-1.55.149-2.376.997-.16.164-.533.435-.558.716-.023.262.442.177.408.431-.017.134-.371.508-.14.623.523.26 1.411-.189 1.87.085.041.024-.034.28.016.347.208.276.646.179.897.353.14.097-.283.46-.307.581-.041.21.613.068.606.382-.01.467-.26.473.031.87.085.117-.441.458-.275.673.047.06.206.075.236.156.023.062-.468-.146-.629.007-.124.118-.196.67-.118.8.096.16.416.108.543.254.109.126.124.443.306.474.211.037.725-.2.802-.12.117.12.685-.013.873.015.221.031 2.033.152 2.187.091.077-.03-.066-.181-.016-.247.064-.085.165-.135.26-.184.086-.045.241-.008.275-.1.005-.012-.308.03-.228-.148.075-.17.228-.23.228-.432 0-.038-.177-.057-.173-.134.003-.068.173-.302.079-.318-.165-.028-.347.064-.512.07-.18.008-.356-.136-.543-.148-.552-.038-1.228.133-1.754.014-.165-.038-.82-.315-.29-.248M81.755 57.998c.186-.262.413-.5.558-.786.142-.28-.183-.617-.101-.885.107-.352.535-.416.81-.58.09-.055.26-.332.22-.233-.092.223-.007.34.267.134.097-.072.192-.472.306-.481.155-.013.664.352.818.12.22-.33-.727-.97-.354-1.579.157-.255.39-.462.653-.594.062-.031.243.022.205-.035-.205-.307-.98-.827-1.361-.807-.096.005-.55.269-.55.27.287.086.555-.352-.472-.468-.71-.08-1.444 0-1.266.269.063.096.042-.15.031-.17-.022-.041-.204-.216-.15-.276.36-.397-.176-.29-.456-.425-.094-.046.573-.989.646-1.104.211-.336.032-.253.062-.474.004-.025.62-.221.37-.418-.162-.127-.833-.157-.755-.496.027-.116.55-.58.456-.615-.434-.16-1.32 1.02-1.384.474-.061-.528-.697.478-.692.481.286.189.586-.5.7-.63.148-.167.498-.12.59-.275.087-.15-.138-.43-.18-.56-.165-.5-.008-.988-.67-.835-.362.084-1.564.438-1.675.807-.15.504.105.617.449.899.066.054.164.767.228.65.038-.068-.735-.463-.818-.438-.035.01-.03.346-.181.41-.047.021-.828.086-.81.213.021.15.506.658.645.885.032.053.322.264.322.262 0-.077-.158.1-.15.177.021.177.636.283.457.283-1.187 0-.288.62-.315.658a7 7 0 0 1-.503.623c-.218-.488.808-.254.952-.078.1.123-.268.237-.268.396 0 .108.29.269.181.269-.074 0 .228-.09.283-.084" style="opacity:1;fill:none;stroke:#000;stroke-width:1.402;stroke-dasharray:none;stroke-opacity:1" transform="translate(-1.093 -46.288)"/><path d="M76.462 53.56c.024-1.414-1.372.67-1.053.559.375-.13.656-.567 1.053-.56.442.01.762.461 1.18.603.2.068-.044-.542-.251-.58-.304-.059-.62-.015-.929-.022zM82.943 53.574c-.354.028-.715.01-1.062.085-1.222.265-.308 1.274.833 1.02.178-.04 1.56-.567.229-1.105l-1.337.297q-.04.03-.079.057M80.12 53.999c-.119.28-.327.539-.355.842 0 .008.667.297.661.297-.374.028-1.076.12-.873.708.055.159.969.503 1.164.68.096.087.003.287.016.396.011.092.197.136.188.177-.033.149-.669.221-.345.24M66.86 69.11c-.173-1.191-.206-2.132-1.549-1.614-.076.03-.22.039-.212.12.018.19.394.065.574 0 .35-.127.13-.767.424-.976.184-.131 1.261-.619 1.369-.602.343.053.615.578.952.084.37-.54-.47-.96-.236-1.316.154-.234.487-.353.691-.537a1.6 1.6 0 0 0 .37-.433c.024-.04 0-.134.047-.134.213 0 .659.715.905.333.164-.255-.409-.6-.44-.786-.066-.383.897-1.087 1.132-1.415.019-.027.183-.376.244-.404.24-.107.594-.018.84-.014.179.003.495-.18.646-.134.14.042.298.436.59.155.564-.542.586-1.41 1.36-1.79.506-.248.88 1.028.952 1.273.012.043-.012.132.031.128.179-.016.459-.905 1.109-.708.415.126.024.62.645.305.09-.046-.326.101-.252.17.06.054.374-.03.386.014.046.164.211.402.361.17M81.41 60.9c.713.59.582.924 1.108.594.245-.154.506-.548.346-.849-.084-.157-.58-.343-.401-.354.358-.021 1.514.037 1.557.091.078.1 0 .255.04.362.142.386.66-.986.676-1.027.024-.065.125.063.189.093.006.003.423.151.432.176.034.099.168.504.141.588-.032.1-.3.36-.173.48.123.117.4.129.559.129.378 0 .354-.292.558-.474.094-.084.176.208.3.226.165.024.633-.033.754.07.291.25-.203.66.267.744.141.025 1.006-.01 1.054.049.085.103.047 2.49.362 2.64.154.074.445-.068.504.092.035.096 1.26 1.178 1.281 1.182.192.033.459.036.653.036.634 0-.12-.335-.174-.616-.042-.22.07-.512.33-.347.273.172.418.525.583.772.19.284-.308.502-.236.736.104.335.656.006.857.148.044.031-.003.333.055.411.033.044.2.046.213.07.064.137-.184.26-.19.41-.005.152.402.18.386.482-.008.173-.254.414-.346.552-.209.313.25.293.189.319-.193.08-.369.085-.534.226-.783.67.232.523-.056.453M75.605 101.193c-.373-.683-.125-1.192-.102-1.89.013-.375-.36-.72-.322-1.076.047-.44.347-.748.33-1.168-.037-.939 2.69-2.356 3.508-2.046.437.166.88.25 1.329.376.272.076.389.372.652.481.312.13.644.094.96.191.437.135-.366.47.18.566.326.057.287.052.401-.042M87.118 112.375c-.968.69-1.068 1.5-1.132 2.583-.085 1.437.225 2.852.236 4.29.012 1.565-.349 3.224-.04 4.77.11.544-.317.94-.361 1.48-.017.198-.22 2.602-.165 1.91M90.516 111.3c-.727 2.284-.464 4.678-.464 7.02 0 .837-.266 1.652-.22 2.499.044.824.251 1.622.267 2.456.016.87-.263 2.967.078 3.687M76.022 106.691c-.186 1.916-.699 3.88-.723 5.811-.012.931.305 1.818.165 2.753-.222 1.483.122 3.077.196 4.58.056 1.114-.028 2.243.048 3.355.145 2.126.228 4.225.015 6.356-.09.905-.211 1.803-.18 2.717.04 1.177.19 2.3.07 3.49-.042.42-.206 2.095-.33 2.32-.094.171.026-.39.07-.58M89.525 101.816c3.902.53 8.54 3.19 10.679 6.476.929 1.426 1.305 3.258 2.47 4.465.525.544 3.31 1.18 2.862 2.123" style="opacity:1;fill:none;stroke:#000;stroke-width:1.402;stroke-dasharray:none;stroke-opacity:1" transform="translate(-1.093 -46.288)"/><path d="M89.934 106.359c1.077-.142 2.096-.622 3.2-.559.66.038 3.663 1.312 4.6 1.741.348.16.623.435.953.622.221.126.423.292.676.355.094.023.264-.025.283.07.023.112-.098.207.024.284.44.277.74.344.825.566M80.765 98.128c-.666-.006-2.202-.027-2.572.764-.33.706 1.443.405 1.415.644-.033.281-.464.363-.534.623-.085.313.133.505.118.792-.015.277-.732.397.055.39.15 0 .298-.024.448-.036M81.77 170.227c.194.245.336.93.582.736s-.29-.847-.582-.736c-.47.178-.499.879-.818 1.267-.577.7-2.265 1.37-1.699 2.66.42.955 1.28.647 1.92 1.197.08.07-.703.904-.268 1.359.373.39 1.976.651 2.013 1.189.018.266-.2.433-.22.694-.05.667.458 1.322.534 1.988.074.639-.162 1.282-.26 1.904q-.058.377-.094.757c-.012.123.087.436-.016.368-.37-.245-.53-.63-.974-.842-.257-.122-2.888-.89-2.816-.269.096.82 3.336 1.743 1.156 1.649-.304-.013-.61-.025-.912-.064a4.3 4.3 0 0 1-.676-.141c-1.474-.44-2.531-1.67-4.058-1.989-.123-.025-.473-.033-.574.128-.106.166-.135.488-.15.686-.049.643.144.152.433-.063M97.648 142.39c-.867.916-1.182 1.164-1.872 2.237-2.99 4.647-4.885 10.123-5.804 15.549-.042.25-.192 1.957-.22 2.435-.01.153-.008.614-.016.46a3.4 3.4 0 0 1 .087-.857" style="opacity:1;fill:none;stroke:#000;stroke-width:1.402;stroke-dasharray:none;stroke-opacity:1" transform="translate(-1.093 -46.288)"/><path d="M91.946 152.716c.043-2.467-.2-4.934.07-7.395.18-1.637.447-3.244.41-4.898a34 34 0 0 0-.103-1.834c-.029-.372-.23-.75-.133-1.11.034-.13.267.007.4 0 .343-.018.678-.068.952-.29.763-.622 1.974-2.568 2.501-3.483" style="opacity:1;fill:none;stroke:#000;stroke-width:1.402;stroke-dasharray:none;stroke-opacity:1" transform="translate(-1.093 -46.288)"/><path d="M91.953 146.488c-.359-.368-.71-.744-1.077-1.104-1.039-1.019-2.885-2.576-3.287-4.02-.092-.33-.01-.727-.118-1.083-.442-1.457-.792-2.53-.676-4.112.011-.152.066-2.584.715-1.77M109.774 167.331c-.413.115-.645.476-.975.701l.118-.085c.288-.201.505-.6.857-.616 1.68-.072 1.067.923 1.84 1.664.101.097 1.36.722 1.305.814-.197.336-1.885 1.825-1.643 2.088.467.508 1.813.077 2.351.091 1 .028-.751 2.132.747 1.53.337-.136.664-.306.96-.517 1.203-.86.063-1.274 2.398-2.42.17-.084.416-.339.535-.192.564.694-.218 2.279-.094 2.605.24.633 1.444-.195 1.777-.248.105-.017-.785.564-.37.906.199.163.647.113.41.495-.261.42-1.566 1.802-1.188 1.975.403.185 1.015-.304 1.274-.524.103-.087.318-.425.275-.297-.846 2.505 4.052 2.991 4.255 3.977.094.456-.18.544.11 1.098.059.113.822.782.62.991-.551.576-2.82.534-2.767 1.614.046.922 2.189.977 2.784 1.323.805.468-.528 1.864-.205 2.59.464 1.044 1.422.868 2.092 1.558.373.383.385.779.952.99.135.05.89.16 1.006-.063.181-.35.101-1.008.41-1.643.372-.769 1.045-3.428 1.517-3.828.686-.583 1.942-.248 2.28-1.281.195-.593.242-1.344.174-1.96-.051-.47-.617-1.506-.22-1.961.545-.626 3.252-.45 3.404-1.133.09-.407-.347-.262-.518-.417-.065-.06.167-.081.212-.156.262-.435.225-.619.196-1.118-.022-.385-.533-2.47 0-2.69.549-.226 2.09.162 2.344.814.07.181.004.486.181.63.151.123.374.18.566.148.585-.096.596-1.053 1.117-1.344.613-.343.845 1.18 1.313 1.083.345-.072.624-.389.708-.715.03-.12-.198-.154-.181-.205.086-.27.487-.323.637-.517.08-.105-.247-.1-.378-.12M99.055 166.759c-.567.85-1.062.98.346 1.386.518.15 3.045-.787 2.988-1.04-.03-.132-.557.248-.4.545.354.673 1.378.538 1.792 1.33.434.831.147 1.902.401 2.782.09.312.449.575.386.892-.118.596-.888 1.049-.11 1.628.506.377 1.736.438 2.265.07.259-.18.725-.785.416-.849-.816-.168-.699 1.258.244 1.565.371.12 2.09.114 2.273.623.253.7.006 1.422.37 2.151.203.408 1.032.824.999.913-.183.482-1.157.667-1.503 1.097-.984 1.226.715 2.033 1.196 2.923.214.397.228.868.362 1.295.311 1 .49 1.18-.567 1.267-.6.05-1.169.25-1.77.277-.294.012-.587-.016-.856-.15-.121-.059-.273-.382-.315-.254-.157.48.876 2.004 1.006 2.54.35 1.435-.909 1.16-1.36 1.996-.275.51.454 1.323.543.743.329-2.135-2.645-2.196-3.98-2.413-.167-.027-1.666-.463-1.698-.064-.041.509.61.896.833 1.303.083.151.361.481.19.481-.274 0-.488-.522-.843-.495-.193.014-.755.57-.573.814.368.493 1.203.555 1.667.948.346.293.657 1.017.896 1.352.517.725 1.594 1.508 1.557 2.449" style="opacity:1;fill:none;stroke:#000;stroke-width:1.402;stroke-dasharray:none;stroke-opacity:1" transform="translate(-1.093 -46.288)"/><path d="M92.252 181.26c.696.117 3.765-.838 4.192-.198.373.56.29 1.389.716 1.982.268.374.918.594 1.1.991.328.711-.342 1.384-.086 2.11.054.153.74 1.383.858 1.478.095.078.71.115.723.15.145.403-1.704 1.706-.85 2.158.535.282 1.243-.053 1.747.276.106.07.162.274.235.353.44.479 1.195 1.114 1.793 1.374.267.116 1.467.19 1.416.438-.088.423-1.378 1.238-.7 1.706.2.138.459.167.676.276.524.263.715.82 1.33.984.478.128 1.194.01 1.627.24.263.141.708 1.355.858 1.643.217.417.74.638.904 1.076.16.429-.04.9.126 1.33.2.52.48 1.04.7 1.557.295.694.332 1.14.4 1.876.096 1.034.575 1.479.08 2.505-.784 1.622-1.932 1.89-2.32 3.9-.15.774-2.342 1.634-1.652 1.451M122.108 121.328c.148-.182.252-.412.444-.546.162-.111.373-.13.568-.155.925-.122.957.43 1.395 1.086.102.153 1.025 1.122.546 1.271-.07.022.033-.147.077-.205.247-.321.615-.496.818-.85.058-.103.08.154.122.22.096.149 1.117 1.142 1.123 1.136.06-.052.03-.163.084-.22.149-.162 1.212-.754 1.184-1.002-.021-.192-.316-.375-.372-.57-.06-.208-.042-1.138.4-.951.731.309.861 1.12 1.218 1.742.053.094.195.138.211.245.052.356.093.62.3.93.134.201.608.653.584.711-.179.442-1.84.539-.572 1.081.687.295 1.438.35 2.135.601.216.078-.544.413-.423.62.272.468 1.149.555 1.607.676.423.112-.57-.254-.45-.77.128-.555.715-.956 1.04-1.397.232-.315.168-.576.167-.565-.111.599.463 1.23.978 1.431 1.122.437 1.221-.12 1.018-.12-.181 0 .084.401.245.485.534.279 1.2.273 1.434-.37.478-1.317-.373-1.718-.956-2.567-.134-.196-.035-.564-.128-.796a2.5 2.5 0 0 0-.19-.366c-.058-.095-.214-.164-.194-.275.021-.113.22.073.328.11.182.063.366.118.545.186.73.276 1.699.626 2.23 1.25.41.482.292.852.956 1.142.283.123.929.344 1.035-.14.116-.532-1.327-1.51-1.624-2.112-.35-.71.663-1.398.011-2.062-.637-.65-1.705-.355-1.963-.61-.532-.529.511-.744.378-1.112-.156-.433-.956-1.362-1.45-1.376-.664-.02-2.423.834-2.526-.31-.102-1.146 1.934.248 2.292.325.257.056 1.668-.518 1.562-.665-.101-.141-.561-.027-.467.085.163.192 1.64.315.845.145" style="opacity:1;fill:none;stroke:#000;stroke-width:1.402;stroke-dasharray:none;stroke-opacity:1" transform="translate(-1.093 -46.288)"/><path d="M67.073 70.353c1.584-.341 3.179-.695 4.798-.821.704-.055 1.41-.058 2.115-.117.732-.061 1.46-.167 2.19-.23 1.873-.162 3.746-.053 5.615.014 1.264.046 2.539-.063 3.799.07 1.328.142 2.649.745 3.924.932M64.946 73.102c2.12-.523 4.324-.55 6.492-.718 1.016-.079 2.028-.207 3.047-.227.961-.018 1.922.075 2.883.075 2.644 0 5.323-.037 7.958.202 1.264.114 2.506.178 3.763.385.199.033 1.763.34 1.64.17M64.919 75.94c2.176-.332 4.394-.675 6.602-.7 1.262-.014 2.519.073 3.782.039 3.5-.097 6.967-.099 10.463.092 1.37.075 2.722.008 4.07.269.197.038 1.737.43 1.66.25M71.985 66.347c1.474.019 2.938-.207 4.412-.213.279 0 .56 0 .837.036.287.036.31.124.582.106.048-.003-.077-.057-.118-.081M79.487 61.05c-.062.632-.05.233-.02.703.022.321.243.9.103 1.2-.017.036-.254.31-.26.318-.202.27-.41.797-.393 1.147.013.278.31.456.283.733-.016.17-.2.42-.087.583.136.194.466.132.358.407-.238.612.084 1.038-.106 1.597-.012.036-.122.281-.07.357.062.091.94.011 1.143.205.132.126.353-.18.476-.152.062.014.48.152.508.018.035-.178-.136-.393-.118-.595.061-.7.388-1.013.184-1.734a1.1 1.1 0 0 0-.2-.41c-.025-.031-.101-.056-.079-.089.098-.142.406-.009.496-.244.103-.271-.028-.644-.032-.927-.003-.268.069-.532.028-.8-.123-.799-.409-2.38-1.321-2.608-.04-.01-.807.263-.893.29M82.106 66.39c.203-.075.412-.007.617-.022.634-.049 1.269-.17 1.907-.096.373.044 1.319.232 1.577.075M23.357 160.895c.275-.434.553-.866.824-1.302.723-1.167.8-1.66 2.29-1.841.184-.022.652-.136.712.22.105.619-.794 3.444-.033 3.533.938.109 1.195-1.17 1.669-1.692.102-.113.207.253.355.29.422.109.69-.064 1.057-.32 1.11-.775 2.428-3.039 2.324-4.524-.016-.234-.26.486-.144.691.02.038.737.176.777.2 1.122.687.344.47 1.614 1.07.167.08 2.955 1.192 2.269.072-.07-.113-.645-.604-.724-.29-.24.956.935 1.273.935 2.05 0 .34-.462 1.467.077 1.612 1.088.292 1.169-2.779 1.268-3.323.114-.62.497-2.474.345-1.861-.214.869.606 2.065 1.546 1.321 1.195-.946.445-2.79 2.28-3.073.073-.011.876-.152 1.023.08.34.54-.054 1.797.055 2.382.174.927 1.217 1.11 1.436 1.852.262.887-1.447 1.94-.646 3.243.325.527 2.085.826 2.125 1.18.054.49-.573.78-.535 1.292.023.3.324.429.29.75-.041.387-.483.898-.468.892 1.985-.716 3.87-2.667 5.584-3.324 1.12-.43-1.532.852-.968 1.822.487.837 3.721.009 3.726.02.233.63.309 1.559-.056 2.142-.377.604-1.421 1.142-1.312 1.371.37.776 2.56-.362 3.025.341.2.3-2.147 1.219-2.413 1.552-.53.663.627 1.443.8 2.061.095.34-.25 1.919.033 1.992 2.431.63 6.11-.395 7.886-2.082.254-.241.576-.634.645-1.011.03-.171-.178-.444-.023-.52.543-.267 1.589-.053 2.203-.18.22-.046.735-.382.656-.17-.158.427-.989.78-.567 1.38.406.58 2.387 1.423 2.213 2.313-.151.774-1.235 1.208-1.724 1.76-.718.813 1.293.8 1.057.912-.308.146-2.235.702-1.602 1.28.566.518 2.58 1.158 3.315.722.266-.158.965-2.03 1.4-1.752.09.057.012.722.212.901.369.332.865.43.857 1.01-.034 2.473-1.7 2.294 1.701 3.994.479.24-1.75.077-1.424.861.274.657 2.48 1.144 2.169 1.942-.239.612-.972 1.636-1.546 1.982-.589.355-1.473.385-2.113.641-1.02.41-3.277 1.376-3.503 2.673-.19 1.093.87 1.97.623 3.072-.204.911-.96 1.523-1.18 2.433-.105.436.673 1.245.646 1.3-.269.554-.94.875-1.213 1.452-.498 1.053.255.92-.078.801M136.693 181.532c.326.034.653.064.979.1 1.417.158 2.821.4 4.254.34 1.405-.058 2.616-.374 3.981.156M139.379 176.222c1.537-.067 2.951.643 4.465.69M128.73 194.094c1.287-.205 2.61-.17 3.893-.38.061-.01.66-.139.656-.136-.138.126.37.066.556.055.171-.01 1.034-.157 1.173-.195.47-.126-.095-1.038-.25-1.301-.074-.127-.464-.305-.317-.305.543 0 1.084.114 1.624-.035.375-.104-.016-.359.311-.376q.206-.009.412-.01c.53-.007 1.025-.005 1.545-.11.109-.022.496-.24.234-.13-.197.083.149.233.55.275.871.092 1.677.055 2.542-.045 1.06-.122 2.114-.215 3.18-.135.468.035 1.254.15.479.205M132.968 188.539c.962-.363 1.547-.725 2.468-.806 1.012-.088 1.593.94 2.664.55 1.086-.394-.28-.771-.384-.865-.056-.052.152.002.228 0 .43-.01.297-.016.846-.056.9-.065 1.813-.118 2.69-.35.134-.034.27-.07.39-.135.226-.12-.09-.231-.05-.235.517-.046 1.07.028 1.585.05.247.01.968.114.74.02-.141-.058-.38-.065-.468-.13M139.651 197.922c.241-.002.483.012.724-.005.847-.057 1.805-.474 2.657-.33.703.12 1.246.516 1.991.406.125-.019.331-.068.456-.03.09.027-.054.192-.022.28.042.112.232.304.256.115M141.42 201.861c.391-.09.779-.196 1.173-.27.926-.176 2.04-.304 2.987-.22.38.033.738.216 1.112.29.358.07.607-.06.928-.175.03-.011.208.216.34.02.04-.062-.149-.02-.223-.025M129.353 204.489c.583-.754 1.256-1.06 2.197-.997.473.032.77.504 1.256.536.573.038.978-.08 1.54-.21.07-.016 1.374-.359 1.33-.68-.045-.32.05-.457.11-.792.036-.195-.302-.366-.2-.605.128-.295.64-.376.829-.645.263-.374-.874-.203-.712-.35.307-.28 1-.039 1.135-.516.031-.112.005.44.311.2M115.934 203.154c1.064-.726 2.33-.378 3.515-.57.27-.044.46-.197.695-.286.377-.142.734.086 1.134-.22.575-.44-.523-.873-.712-1.076-.109-.117.24-.214.367-.31.287-.217.295-.576.29-.911-.007-.399-.01-1.05-.379-1.321-.047-.036-.22-.103-.255-.175-.115-.231.724-.787.817-.831.167-.081.813-.385 1-.316.108.04.123.199.212.27.232.189.902.471 1.207.32.134-.066.022-.225.117-.28.331-.19 1.342-.176 1.751-.265.54-.116 1.09-.27 1.608-.375.59-.12 1.51.218 1.918-.35M119.348 194.426c.742-.804.47-1.77.334-2.762-.021-.156-.095-.313-.061-.466.005-.024 1.784-.22 1.674-.616-.07-.25-.714-.093-.673.036.096.301 1.272-.138 1.496-.22.162-.061 1.05.266 1.557.129.04-.01.12-.057.089-.085-.063-.057-.15.125-.006.21.17.1.446.106.623.09.303-.026.457-.26.728-.33.245-.063.484-.005.728-.005.09 0 .123-.24.229-.285.048-.02.779-.152.7-.175-.106-.031-.095.09.028.125M118.77 209.68c-.01-1.05-.07-.083.345-1.461.171-.569-.177-1.597.361-2.002.43-.324 1.128-.662 1.691-.556.393.074.682.414 1.117.34.31-.052.395-.875.306-1.11-.051-.139-.492-.31-.35-.27.37.099 2.4-.131 2.808-.246.012-.003-.104-.067-.006-.12.343-.182.71-.31 1.068-.456.19-.077.405-.037.573-.164.177-.135.167-.363.278-.536.066-.105.32-.083.423-.175.21-.19-.196-.628.288-1.126.262-.27.762-.202 1.101-.29.054-.015.289-.08.334-.176.078-.163-.3-.152-.261-.065.207.455 1.534-.503 1.718-.626.185-.122-.566-.014-.64-.064-.003-.003.265-.801.29-.891.1-.367.296-.705.384-1.071.064-.268-.13-.309-.167-.53-.031-.189.038-.384.006-.576-.097-.567-.315-.618-.612-.996" style="opacity:1;fill:none;stroke:#000;stroke-width:1.402;stroke-linecap:round;stroke-linejoin:round;stroke-dasharray:none;paint-order:stroke markers fill" transform="translate(-1.093 -46.288)"/></svg>