<svg xmlns="http://www.w3.org/2000/svg" width="3359.569" height="2453.53" viewBox="0 0 888.886 649.163"><path d="M-147.023-55.796c9.29-1.759 17.982-6.465 26.141-11.166 10.497-6.047 20.903-13.347 31.938-18.394 5.906-2.701 12.293-4.272 18.336-6.61 2.804-1.085 4.97-2.872 7.623-4.187 6.048-2.999 12.643-4.41 18.93-6.734 5.664-2.094 10.933-5.206 16.651-7.146 6.066-2.057 12.38-3.331 18.477-5.298 8.718-2.813 17.188-6.723 25.777-9.934 13.878-5.189 27.594-10.203 41.153-16.096 3.744-1.627 9.421-3.044 12.225-4.556m52.738-2.672c11.188 14.538 31.524 17.944 48.225 23.075 45.24 13.898 87.725 35.333 130.798 54.61 8.558 3.83 17.602 6.785 26 10.922 4.296 2.116 7.726 5.136 11.817 7.39 3.184 1.754 13.266 5.702 15.1 7.925 1.458 1.768-4.338-1.481-6.523-2.174m-419.991 1.929c6.183-9.027 12.7-18.283 20.984-25.54 2.94-2.575 7.114-3.912 10.585-5.585C-17.57-86.862 1.893-88.944 26.157-93.116c6.779-1.165 13.443-2.938 20.257-3.941 1.183-.175 10.127-.656 8.76-.905" style="fill:none;stroke:#000;stroke-width:5.07499943;stroke-dasharray:none;stroke-opacity:1;stroke-linecap:round" transform="translate(351.896 245.798)"/><path d="M-38.898-52.92c4.626-4.941 6.058-12.873 10.677-17.78 3.067-3.259 7.496-4.703 10.855-7.594 1.497-1.289 2.627-2.973 4.153-4.228 2.787-2.293 6.468-3.311 9.764-4.602 2.735-1.071 5.208-3.062 8.029-3.859 7.708-2.178 16.034-3.269 23.904-4.763 8.423-1.6 16.92-2.866 25.411-4.062.14-.02 9.229-.096 7.573-.287" style="fill:none;stroke:#000;stroke-width:5.07499943;stroke-dasharray:none;stroke-opacity:1;stroke-linecap:round" transform="translate(351.896 245.798)"/><path d="M-8.014-55.916c1.195-8.88 5.73-13.753 11.316-19.955 2.023-2.245 3.529-4.85 5.473-7.145 6.52-7.696 17.56-9.736 26.871-11.249 5.018-.815 10.174.058 15.237-.821 4.537-.789 10.748-1.553 9.353-1.644" style="fill:none;stroke:#000;stroke-width:5.07499943;stroke-dasharray:none;stroke-opacity:1;stroke-linecap:round" transform="translate(351.896 245.798)"/><path d="M31.406-60.107c2.102-4.1 2.101-8.714 3.738-12.934 1.854-4.778 3.433-9.448 4.975-14.286 1.353-4.243 19.748-10.278 23.814-11.004 3.634-.65 4.71.376 7.938.697.722.071 7.793-.944 4.697-.204m13.095-2.792c-1.95.703-3.366 2.64-5.29 3.531-6.558 3.035-8.822 12.52-10.54 18.847-.207.764-2.519 15.855-.958 9.772m28.378-31.577c3.378.907 6.233 1.279 8.759 3.614 4.278 3.954 5.984 18.84 6.249 25.046.073 1.717 1.187 5.788-1.232 5.502m11.133-33.831c3.998 2.764 8.817 1.41 13.137 2.913 10.145 3.532 16.673 13.678 20.896 22.913.731 1.6 1.627 3.42 2.008 5.17.401 1.842.063 5.036.64 5.793m-13.416-31.697c7.048.226 14.276.078 21.125 2.008 9.566 2.697 24.282 11.24 29.15 20.407.257.484 8.468 17.177 7.161 13.058" style="fill:none;stroke:#000;stroke-width:5.07499943;stroke-dasharray:none;stroke-opacity:1;stroke-linecap:round" transform="translate(351.896 245.798)"/><path d="M179.905-90.775c16.351 5.95 34.83 8.476 46.44 22.498 4.175 5.043 6.222 12.517 10.265 17.124m-25.456-32.274c8.847 2.782 19.239 3.743 27.054 9.158 6.705 4.646 13.007 12.103 17.793 18.68 2.234 3.07 3.012 6.224 5.61 9.034M-86.027-7.098c1.982-1.97 4.118-4.91 6.98-6.038 4.611-1.817 8.926-1.658 13.734-2.502 3.123-.547 5.983-1.812 9.033-2.548 6.43-1.55 13.438-2.046 19.98-2.954 3.5-.486 7.116.168 10.63 0 17.585-.842 35.273-1.07 52.83-2.382 21.657-1.617 43.199-3.168 64.877-4.025 4.436-.175 9.11.863 13.639.739 6.364-.174 12.99-.805 19.344-.41 2.497.154 4.736 1.114 7.3 1.149 7.036.094 14.259-.53 21.26-.204 1.908.09 3.705.953 5.656 1.025 2.177.08 4.73-.277 6.888.208 5.067 1.137 10.376 1.087 15.511 1.93 2.529.414 4.852 1.523 7.44 1.725 7.303.572 14.805.698 21.988 2.46 5.137 1.262 10.711.178 15.966.698 5.24.519 10.42 1.707 15.602 2.382 5.703.743 11.9-.182 17.519 1.15 2.4.568 4.729 1.419 7.208 1.85 4.078.71 10.209 2.445 10.676 6.651M-14.674-43.393c8.722 3.779 20.406 6.985 27.968-.66m18.568-3.365c2.144.862 4.25 1.824 6.432 2.585 9.112 3.18 14.198 1.011 23.402-.37 1.719-.257 7.019-5.17 2.739-4.8m13.456-1.274c3.312 3.554 3.087 3.842 6.3 5.996 4.358 2.922 15.359 3.312 19.979 1.519 2.303-.895 8.348-3.561 8.348-6.693 0-.36-.553.572-.913.572m18.341 1.56c6.942 3.15 15.89 8.895 24 5.872 1.218-.454 8.736-6.211 7.025-3.9m17.929-.042c5.192 5.155 13.528 10.827 21.35 7.639 2.128-.868 3.94-2.307 6.161-3.162.892-.344 2.23-3.08 1.822-2.216.208.138-.333.598-.365.656m12.867 1.805c1.048 1.615 1.932 3.35 3.145 4.846.22.27 2.52 1.288 2.83 1.436 4.31 2.054 9.851 3.063 14.145.042 1.197-.842 1.743-2.054 2.324-3.324.727-1.59 1.225-.739-.593-.739m10.539 4.104c2.786 4.592 5.779 7.218 11.087 5.05 1.843-.753 1.974-2.914 3.739-3.652.492-.205 1.991-.755 1.506-.535-.59.269-1.245.365-1.871.535M-50.396-41.63c.35 1.616.506 3.286 1.05 4.847 1.07 3.068 9.705.43 11.407-.905 1.358-1.066 2.229-2.495 3.465-3.651.562-.527 1.757-.57 1.825-1.154.094-.801-1.006-.589-1.323-.614m-40.968 7.639c1.612 1.217 3.087 2.64 4.835 3.652.436.252 13.046-5.07 3.377-4.025m-24.27 6.282c-3.033 6.784 13.787 3.877 9.581.083" style="fill:none;stroke:#000;stroke-width:5.07499943;stroke-dasharray:none;stroke-opacity:1;stroke-linecap:round" transform="translate(351.896 245.798)"/><path d="M-92.23-40.767c-.548 1.347-4.888 5.104-4.427 7.926.131.807 1.124 1.336 1.46 2.091.354.797-.06 1.528.137 2.303.236.929 1.602 1.074 2.008 1.764.54.915-4.775 1.575-2.419 3.448 3.373 2.68 4.615.73 5.477 5.215.465 2.418.592 4.94 1.05 7.308.432 2.23 2.24 3.81 1.502.041m8.121-36.461c-9.567 2.129-1.521 6.146-.137 4.93.706-.62-2.76.944-2.233 1.722.453.667 2.07.351 2.507.328m22.996-14.287c-3.536 2.836-6.852 3.87-2.556 5.46.662.246 1.53.392 1.825 1.192.617 1.662-5.15 4.426-4.016 5.215 1.212.846 3.065.123 3.788-.7m32.664-16.092c-.758.852-4.85 4.239-3.51 6.689.65 1.189 1.88 1.804 3.145 2.137.34.09 1.373-.018 1.05.124-3.3 1.45-4.564 1.428-2.83 5.212.823 1.795 2.358 3.821 2.693 5.75.073.422-.849 2.072-.685 2.258.36.409.798-.237.959-.41M19.68-64.252c-.216.642-6.485 4.957-4.743 7.556.732 1.092 1.972 2.462 2.917 3.407 1.366 1.366 3.294.739 2.693 1.149-1.274.868-5.403 2.006-5.154 4.394.255 2.45 1.89 3.365 3.008 5.378 1.14 2.05.287 3.383 1.096 1.684M70.73-65.032c-3.303 1.039-6.36 1.312-6.25 4.967.091 3.007 1.357 2.443 3.059 4.27.655.702-2.042.321-2.693 1.028-1.103 1.198-.167 3.388-.411 4.967-.48 3.112 0 6.307 0 9.486 0 .374.248-.714.456-1.025m57.847-21.478c-3.912.025-5.823 1.258-7.8 4.353-1.212 1.896 3.824 2.2 3.103 4.191-.423 1.169-1.918.954-2.465 1.888-.48.82.51 2.403 0 2.954-.923 1-1.792 1.362-2.008 2.917-.279 2.01.578 7.242 2.42 4.843m50.547-18.515c-1.505 1.423-3.114 2.744-4.514 4.27-2.644 2.882 2.708 3.04 2.643 4.842-.05 1.404-1.276 2.642-.959 4.067.26 1.162 1.9 1.034 2.1 1.846.09.367-1.992 2.676-1.871 3.984.12 1.312 2.474 4.846 2.1 1.477m46.809-18.967c-1.476 1.395-5.823 2.71-4.428 4.187 1.396 1.475 4.726-6.196 4.428-4.187-.428 2.887-3.45 4.724-4.884 7.265-1.917 3.396 8.524-.813 5.112 3.942-1.813 2.527-1.478 5.845-1.598 8.868-.049 1.231-.697 4.77-.091 3.697.155-.275.023-.631.046-.946m35.402-15.025c-3.293 1.65-4.773 1.234-5.792 4.187-1.214 3.515 2.986 4.827 3.145 7.842.13 2.448-1.92 5.163-2.19 7.718-.162 1.523.671 2.486 1.323.946m29.975-10.838c-1.506 1.874-3.345 3.523-4.519 5.622-1.25 2.235 3.486 4.778 3.971 6.49.261.918-2.348 10.377.366 8.498M53.21-128.838c6.96-3.944 14.859-5.429 22.769-5.913 7.097-.434 14.108-.317 21.211-.41 3.612-.048 7.297-.82 10.905-.573 4.47.306 8.799.958 13.32 1.066 5.078.122 20.033 1.84 22.494 7.432.113.257-.288.165-2.967-.245m-93.661 25.66c14.73-8.295 32.194-5.667 48.358-5.871 9.082-.115 18.02-.36 27.054.863 6.093.825 12.162 2.054 18.112 3.406 1.088.248 2.054 1.847 3.15 1.847.436 0-2.569-1.437-2.968-1.64m-81.39-23.447c1.004 1.67 2.21 3.236 3.012 5.012 1.063 2.353-5.141 3.987-5.61 5.091-.64 1.508-3.502 10.795-2.19 10.428 1.208-.338 2.092-3.129 2.555-4.228m16.013-17.573c.654 1.532 1.488 3 1.963 4.597.046.157-11.317 9.926-7.303 10.142" style="fill:none;stroke:#000;stroke-width:5.07499943;stroke-dasharray:none;stroke-opacity:1;stroke-linecap:round" transform="translate(351.896 245.798)"/><path d="M89.024-128.796c-.242 4.958-2.469 11.054-4.56 14.821m22.856-13.755c-.746 1.479-1.499 2.954-2.237 4.436-.628 1.259-1.624 3.173-1.461 4.639.096.864.793.808 1.187 1.436 1.098 1.752.552 3.25.684 5.09.071.988 1.822 1.519-.274 1.233m16.424-16.751c1.925 5.846-3.97 12.128 2.556 14.328 3.62 1.22 3.262 7.54 3.423 4.93m7.892-17.162c-.517 1.614-1.124 3.202-1.552 4.842-.054.207 1.128 7.441 1.233 7.639.5.943 7.722 6.796 4.651 6.61m-84.49-16.917c-3.98 1.24-1.185 8.745-3.925 11.087-.884.756-2.413.456-3.146 1.394-.41.527.5 5.259 1.552 2.216" style="fill:none;stroke:#000;stroke-width:5.07499943;stroke-dasharray:none;stroke-opacity:1;stroke-linecap:round" transform="translate(351.896 245.798)"/><path d="M140.622-119.394c-5.713 10.597.075 6.994 1.689 9.606.53.857 1.806 3.084 1.871 3.162m-69.025-35.27c11.633-5.012 33.664-5.895 44.934-.531m-25.046-36.092c.548 1.642 1.26 3.238 1.643 4.926.26 1.147-.514 3.715-.684 4.846-.363 2.403.01 1.852-2.233 2.424-2.184.556-1.31.501-1.689 1.19-.157.286-.575-.305-.867-.452-.9-.453-1.9-.77-2.921-.494-1.678.454-3.555 1.718-5.245 1.888-.922.094-3.522-2.097-4.473-.369-.17.31.624.333.913.535 1.264.883 2.45 1.48 3.15 2.913 1.234 2.533.746 6.004 3.875 7.27.48.194 1.889.717 1.506.37-1.658-1.509 6.454-3.014 8.349-4.188.424-.262-1.184-3.93-.685-4.024 2.611-.495 6.042.773 5.02 4.103-.15.494-1.02 1.209-1.049 1.643-.108 1.646 6.622 1.92 7.755 1.727 2.497-.426 4.116-5.299 5.017-6.98 1.147-2.139 3.91-2.164 5.797-3.863.66-.594-1.453-.244-1.826-.286-1.2-.137-2.08-.915-3.332-.983-2.12-.117-2.58.007-4.56.203-1.431.142-2.236-1.933-3.606-2.465-.704-.274-3.986-.355-4.286-.9-.182-.33.48-.617.593-.739 3.603-3.897-4.49-7.615-6.162-8.295zm.685-57.934c-2.705 3.028-5.422 6.213-3.921 10.266.373 1.008 1.944.378 2.597 1.15.214.252-2.588.425-3.602 1.638-2.164 2.59-2.481 4.069-2.693 7.104-.06.864-1.45 1.016-1.323 1.81.48 3.024 3.836-.156.045 2.626-.569.418.553 2.64.776 1.97.104-.31-1.368-2.574-1.415-2.667-1.748-3.537-1.15-2.418-4.742-3.12-.342-.067-.747-.525-1.004-.291-2.978 2.707 8.578 6.962-.913 8.705-2.476.455-.21 1.254-.32 1.274-1.745.329-4.136-.979-6.02-.946-1.15.02-1.709 1.814-3.15 2.137-.713.16-1.79-.187-2.145.452-.73 1.318 4.903 3.982 5.249 4.187 1.967 1.167-1.146 2.669.821 3.942 1.45.939 2.65.154 4.013.656.709.26 1.697 6.311 1.643 6.942-.08.921-3.033 1.079-3.51 2.216-1.67 3.977 2.762 2.216 4.058 3.983.05.069-3.438.664-3.606 2.71-.257 3.122 8.84 1.338 12.958 1.477m13.776-66.76c-1.783 3.027-1.943 4.14-2.05 7.02-.104 2.813 2.531 1.567 3.74 3.324.767 1.117-.64 2.513-.138 3.739.22.538 2.082 2.745 1.826 3.24-.448.867-2.158.423-2.465 1.482-.328 1.134 1.422 2.29-.091 2.257-2.096-.044-4.618-.434-4.332.204.592 1.317 2.624 1.11 3.556 2.054.05.05-.382 6.791-.365 7.39.03 1.076-1.801 4.395-1.548 4.68 3.055 3.437 2.6.533 3.1-.328.387-.665.97-.464 1.46-.904 1.27-1.138-1.196-4.926 2.237-4.473 5.142.678-3.033 10.307-.183 11.373 1.514.566 3.177.465 4.697.984 1.068.364-1.091 2.75 1.78 2.75 1.67 0 1.32-1.746 2.42-2.053.707-.198 1.764.155 2.556-.245 1.37-.693-.356-1.643 2.095-1.643.168 0 .502-.127.502.041 0 .625-.83 1.44-1.186 1.768-1.265 1.165-2.86 2.766-4.378 3.573-2.139 1.136-4.076 1.026-3.743 1.228.841.51-.221 1.718.365 2.095.881.567 1.722.69 2.374 1.602.252.353 1.124 7.917.913 8.129-.777.779-3.165 2.622-3.926 3.037-.093.051-7.305.554-7.207 2.137.084 1.369 4.64.473 9.079-.125.414-.055 1.963 4.507 2.693 4.64.78.141-1.59-.281-2.374-.162-2.17.328-10.23 1.809-10.494.614" style="fill:none;stroke:#000;stroke-width:5.07499943;stroke-dasharray:none;stroke-opacity:1;stroke-linecap:round" transform="translate(351.896 245.798)"/><path d="M78.165-173.1c4.088 1.16 8.428.086 12.548.656 1.587.22.35 1.097 1.552.863m7.39-59.863c-.791 1.765-1.718 3.475-2.373 5.294-.607 1.685 3.387.93 3.286.042-.204-1.793-.609-3.558-.913-5.336zM-146.019-37.401c12.966-3.242 24.792-8.964 37.046-14.042 4.96-2.055 8.668-4.955 13.365-7.349 8.71-4.438 17.105-9.404 25.685-14 7.43-3.98 16.061-5.124 23.544-8.83 10.184-5.043 20.987-8.513 31.34-13.178 4.91-2.212 9.539-5.426 14.507-7.432 2.86-1.155 5.933-1.761 8.76-2.996 9.184-4.013 17.808-8.512 27.373-11.415 4.15-1.26 7.312-3.034 11.133-4.597.737-.302 5.397-1.464 3.83-.66m92.249 1.768c6.452 5.365 14.515 6.33 21.988 9.32 2.714 1.085 4.77 3.179 7.299 4.555 5.303 2.888 11.363 5.951 17.245 7.64 6.34 1.82 12.83 3.07 19.207 4.925 1.951.567 3.206 2.126 4.975 3 3.69 1.821 7.54 3.41 11.266 5.128 4.788 2.208 10.386 2.308 15.058 4.847 7.752 4.213 16.157 7.301 23.768 11.743 2.502 1.46 4.67 3.401 7.162 4.888 9.223 5.502 19.714 10.278 29.519 14.614 4.55 2.012 9.502 2.541 14.14 4.228 3.827 1.392 7.355 3.823 11.088 5.465 6.19 2.722 13.493 5.428 18.751 8.212M84.966 1.607c.316-8.969 14.836-11.54 18.245-3.328.777 1.871-.89 4.436.183 6.776M42.26.703c1.066-1.56 2.118-3.129 3.196-4.68 1.337-1.927 3.052-2.84 5.381-3.038C57.204-7.555 54.34-2.45 57-.65c1.22.825 1.734.11 2.233-.125M-4.27-.53C-2.69-1.61-1.045-2.6.471-3.77c4.243-3.277 9.26-4.942 11.315 1.722.242.782.687 1.944 1.278 2.547.387.394 1.949.719 1.415.86-1.111.292-2.53.304-3.697.41M-35.98.744c3.636-1.899 13.257-6.149 15.377-.697m148.59-.287c5.955-3.85 9.765-7.016 17.336-4.643 3.51 1.1 4.547 7.749 5.245 6.407m28.606-.452c5.09-2.997 8.045-4.598 12.316-.942.233.2 1.245.765 1.415 1.15.893 2.015.158 2.733 2.83 3.489m20.345-3.697c2.192-.032 8.892-1.35 11.223.738.466.418.83 2.178 1.278 2.835m122.221-1.764c5.33.496 10.68.222 16.013-.041 13.615-.672 27.126 1.155 40.739.858 5.25-.114 10.46-.983 15.697-.983.765 0 5.787-.414 3.236.083m-659.05-3c4.253-.203 8.517-.314 12.776-.245 13.677.222 27.217-.51 40.876-.904 3.606-.104 7.242 1.056 10.859.369 1.525-.29 7.515.618 4.88.618m-52.374-88.565c.927 3.511 1.315 7.152 3.423 10.141 2.01 2.851 4.075 4.327 7.207 4.598.736.064 2.972-1.51 3.557-.78.198.248-.101 1.923-.088 2.137.136 2.115 1.366 5.167.91 7.224-.186.832-1.202 1.325-1.32 2.178-.088.628 1.74 1.291 2.14 1.764.009.01-2.936 1.59-3.236 1.809-1.026.75-2.977 4.107-3.332 5.008-.4 1.018.456 1.765-.365 2.834-1.269 1.654-9.631 3.267-4.378 2.996 5.427-.279-4.517-.45-4.838-.655-1.008-.645-2.174-5.494-4.012-7.146-1.533-1.377.458 3.616.684 3.984 1.503 2.443 5.97 1.416 6.888 4.145 1.007 2.993-10.054 8.133-2.327 8.133.958 0-1.917.094-2.876.079-1.133-.019-7.983-2.764-7.983-2.668 0 3.178 11.45 5.308 14.054 9.278 1.508 2.3 4.18 3.309 3.464 3.572-2.312.852-4.78.82-7.161 1.316-2.318.481.111 1.145 1.414.328.753-.472-4.157-1.14-5.199.327-2.471 3.48 6.841 1.005 2.552 4.229-1.682 1.264-4.562-.262-5.93 1.44-.774.964 6.671 2.656 5.61 2.87-1.518.308-8.83.898-8.485 3.532.324 2.472 9.246 1.564 10.585 1.357.954-.148 3.795.614 2.83.614-1.848 0-5.963.624-6.98 2.548-.35.666.761 1.911.092 2.257-2.894 1.494-12.366 5.24-15.058 2.792-.643-.584 1.98.773 2.602.166" style="fill:none;stroke:#000;stroke-width:5.07499943;stroke-dasharray:none;stroke-opacity:1;stroke-linecap:round" transform="translate(351.896 245.798)"/><path d="M-211.256-18.227c9.341 1.104 26.362 4.784 35.266 1.315.579-.225-.762.983-1.187 1.436m-27.236-65.2c-1.318-6.418-3.53-12.375-4.52-18.846-.238-1.565-.579-3.165-1.049-4.68-.052-.168-.178-.67-.178-.495 0 2.325 13.477 19.266 14.597 19.096.405-.061.849-8.093.959-9.033.113-.967 1.338 1.543 1.506 2.502.41 2.33-.368 7.886 2.78 8.83.294.088.712.352.913.12.984-1.137.277-2.756.958-3.98 1.869-3.354 11.336-19.288 12.822-19.626.7-.159 1.242.846 1.959.9.175.014-.339.172-.411.333a52 52 0 0 0-1.32 3.199c-1.38 3.702-2.333 7.324-4.062 10.884-4.527 9.32.457 8.178.457 9.481 0 .88-1.378 1.685-1.826 2.261-.585.753.052 1.947-.32 2.3-.77.728-2.144.484-2.875 1.149-.12.11-.208 2.366-.27 2.502-.338.741-2.334 1.27-1.689 1.767 3.29 2.543 5.197-.375 5.702 4.556.66 6.445-4.66 4.214-6.25 7.349-1.013 1.998 1.922 2.912 3.191 3.531 2.679 1.306-3.195 2.003-.547 3.531 1.882 1.087 4.032-.174 5.888.78 1.678.864-2.114 1.637.776 3.739 1.579 1.148-9.026 4-8.668 6.855.36 2.868 5.004 3.889 5.199 6.079.334 3.75-6.685 3.138-2.967 5.336.086.05 1.274.7 1.46.697.407-.006 4.073-.758 4.245-.78 1.239-.156 2.494-.285 3.739-.203.28.018.009 1.024.091 1.19.727 1.47 4.14 1.134 3.697 4.722-.153 1.238-6.34.86-6.249 1.353.212 1.142 3.187.258 3.693 1.519 1.053 2.622-.996 4.92-.958 5.091.369 1.666 3.273-.738 3.834-.738.418 0 .115.99.502 1.149.738.302-2.21-.49-2.374.29-.153.736 1.26 1.264 1.644 1.805 1.046 1.475 1.532 2.885 2.83 4.27 3.18 3.397 5.866 3.154 1.456 1.15" style="fill:none;stroke:#000;stroke-width:5.07499943;stroke-dasharray:none;stroke-opacity:1;stroke-linecap:round" transform="translate(351.896 245.798)"/><path d="M-158.106-105.352c3.9 2.9 7.99 6.238 8.075 11.498.038 2.391-.5 4.639.365 6.896.075.196-1.419.07-2.693 1.025-1.54 1.156-4.196 3.656-6.203 3.656-1.18 0-.8-2.414-2.1-2.133-1.044.225-.98 2.674-.776 3.407.305 1.096 1.924 2.964 2.784 3.572 1.84 1.302 4.21-.359 5.747.573.604.366.495 1.356.959 1.888.315.362 1.183.789.867 1.15-1.626 1.851-6.52.42-8.12 2.547-.18.238-.468 1.393-.411 1.643.293 1.285 1.905.763 2.46 1.56.497.714-.884 1.354-.639 2.013.22.59 1.516 1.067 1.872 1.56.416.576-.495 2.256-.411 2.913.078.613.652 1.187.73 1.643.136.798-5.228-.174-5.382 2.174-.14 2.158 7.91-.12 8.303.577.163.289-.628 1.296-.684 1.643-.09.55.519 1.822-.046 2.216-.787.55-1.83.607-2.739.618-12.618.155-.074-5.623-5.336-7.68-2.199-.86-4.627.976-6.75 1.19-.753.077 2.138-2.757-.503-2.543-2.128.172-6.825-.694-8.348-.29-.04.01-3.633 1.738-3.47 1.44.063-.113 9.3-3.056 9.992-3.49 2.645-1.659-4.117-6.53-4.153-9.034-.023-1.585 2.107-2.734 1.78-4.024-.233-.918-1.714-3.502-.639-4.229 1.016-.686 5.302-1.033 5.523-2.423.539-3.391-2.077-6.632-2.647-9.402-.512-2.486 1.525-4.013 2.556-6.038.235-.463.102-3.475.32-3.776.917-1.274 8.824-2.176 9.717-2.34zm504.389.78c-.53 5.972-6.98 12.341-5.153 18.598.46 1.575 2.024 2.423 2.738 3.78 1.135 2.153 2.028 2.67 4.606 3.365 1.784.48 2.011.414 3.56-.41 5.192-2.765-2.177-5.01-2.738-8.13-.195-1.084.753-2.05 1.004-3.078.203-.833-.724-2.27-.593-2.507.211-.384 4.831 2.167 5.245 1.519.788-1.237-2.52-2.277-2.142-3.98.417-1.876.1-4.587 1.142-6.161.766-1.158 3.294-1.32 4.468-1.805.505-.208 1.461-1.284 1.461-.739 0 2.427-2.87 8.176 1.506 9.034.486.095 1.655.495 2.05 0 .543-.681-6.976 4.817-2.37 7.39 1.985 1.108 4.366.744 6.387 1.846.122.067.203 1.994.913 2.34.976.476 4.25.902 3.19.66-6.759-1.542-3.367.018-7.755 1.598-.356.128-2.636.362-2.826.618-.752 1.015 3.708 2.695 3.967 2.875.848.59-.337 1.867 1.187 2.669.213.111 2.993.85 3.423 1.31.222.238-9.62-1.56-7.435.167 1.173.928 7.126 1.422 7.39 2.174.414 1.18-.393 2.754-.229 3.983.034.25.787 1.443.685 1.81-.232.832-1.256.494-1.095 1.722.04.315 1.075 1.44 1.05 1.477-1.084 1.557-9.514.356-10.266.166-3.914-.992 5.63.115 5.199.577-1.227 1.31-9.058.584-9.992-1.399-.398-.845-1.365-2.152-1.365-3.079 0-1.758 5.782-2.888 2.689-5.502-1.711-1.446-3.851-1.09-5.838-1.643-.435-.121.468-2.586-.457-2.34-.794.211-1.761 1.09-2.236 1.601-3.2 3.442.056 6.748 2.83 8.009.797.362-4.542-.287-3.88 1.846.352 1.133 2.747 1.589 3.651 2.216.569.394 4.069 7.727 4.743 5.544.003-.009-4.247-6.164-6.02 1.846-.671 3.029 9.94-.54 10.995-.738 2.167-.408 5.923.9 5.793.821-.318-.192-.73-.135-1.096-.203" style="fill:none;stroke:#000;stroke-width:5.07499943;stroke-dasharray:none;stroke-opacity:1;stroke-linecap:round" transform="translate(351.896 245.798)"/><path d="M406.504-109.087c-4.19 6.85-8.92 13.323-13.32 20.034-.31.473-4.286 5.094-3.651 5.71 3.04 2.947-.305-4.706-1.64-5.009-.57-.13-.26 1.552 1.05 1.27.67-.144-2.788-4.138-3.24-4.515-.045-.037.257 5.556-.822 4.515-2.065-1.993-2.917-5.152-3.743-7.76-1.29-4.08-3.432-3.945-6.112-6.776-.44-.465-.576-2.115-1.004-1.639-.964 1.074 3.587 15.725 4.884 17.86.434.714 2.485 2.229 2.552 3.12.053.696-.372 2.348-.502 2.917-1.883 8.24-.795-7.737-5.154-.208-4.78 8.258 6.212.571.822 9.361-1.914 3.12.203 4.413 1.734 7.598 1.185 2.464 2.863 3.514 2.735 3.573-.934.424-2.378 0-3.237.655-2.768 2.11 1.378 9.102-.867 12.112-.804 1.079-2.838 1.007-3.24 2.548-.541 2.07 3.636.659 2.236 2.34-.83.997-.83.769-2.054.984-.98.172-2.045 1.376-2.871.821-1.958-1.312-4.354-13.447-8.532-12.892-2.531.336-2.696 4.269-.821 5.46 1.026.653 6.434 1.347 5.884 3.08-2.028 6.386-2.01 5.073-6.98 8.253-.38.243-2.142 1.115-2.1 1.767.033.496 1.222 1.396 1.187.9-.096-1.38-3.367-3.406-4.062-1.846-1.387 3.118 3.329 4.983 2.784 7.349-.169.736-3.754 2.114-3.286 2.71 1.136 1.446 4.355.904 6.025.904 2.403 0 .968 1.455 1.278 2.257 0 0 2.88 1.952 4.15.946m37.821-72.922c-3.491 6.417-1.094 14.411-4.153 20.901-.966 2.049-4.726 4.158-4.971 6.361-.184 1.653 4.56 3.65 4.56 6.204 0 5.057-5.238 1.989-5.93 3.859-.853 2.307 3.273 5.567 4.059 7.51.528 1.307 2.19 4.701 2.19 6.282 0 1.09-1.95 1.355-1.551 2.751.475 1.67 3.011 1.896 4.336 2.013 7.829.69.648-2.545 2.738-7.021.037-.08 5.306-7.196 5.975-6.98 1.244.403 1.09 1.54 1.37 2.548 1.21 4.356-4.462 9.487-4.2 10.183.441 1.166 5.666 2.97 5.57 3.24-.647 1.81-3.503 3.164-3.652 5.175-.076 1.016 9.796-1.928 8.257 1.602-.326.747-1.111 4.135-1.552 4.435-.628.429-1.53-.11-2.282 0-4.817.704-2.123 1.698-8.03 1.436-.73-.032-2.625-.506-3.373 0-1.094.74 3.047 1.506 3.83 1.15.123-.056-3.31-.411-6.249-.287-4.75.201-9.125-.21-13.867-.577-5.891-.455-5.245 1.839-4.108.619M366.86-11.285c12.89.08 25.862-.066 38.69-1.232.268-.025 1.095 2.155 2.825 1.518m-680.308 59.702c-.016 3.888-.097 18.836-.045 22.295.07 4.7-1.682 10.092 2.552 6.282m22.95-27.058c.998 1.223-4.267 21.342.685 12.975m85.951-12.361c.762 6.152.228 12.239-.959 18.27-.14.706-.894 1.702-.32 2.137.268.202 1.682-2.16 2.009-2.835m30.062-16.834c1.515 5.4 1.425 3.403 1.096 9.117-.503 8.719-1.952 17.317-1.917 26.07.016 4.173.282 9.857 1.871 9.444.717-.186.616-1.31.64-1.763m69.527.328c4.416-3.377 21.894-5.175 23.493-.619m72.221-3.241c1.626.068 3.252.191 4.88.204 4.628.036 9.399-.596 14.008.125 5.922.925 1.578 1.93-.867 1.56m74.772-3.942c1.522.26 3.025.672 4.564.78 4.681.328 9.35-.306 14.05.124 2.635.242 4.063 1.848 6.751 1.93m64.374-.618c7.785 2.29 15.985.702 24.042 1.356 1.375.112 5.441.143 4.108.494-.93.246-1.925.314-2.876.448m73.134-45.411c1.287 12.605.21 25.256 1.274 37.942.136 1.624-.54 3.424.182 4.884.602 1.219 3.69-3.065.822-6.938m30.386-35.025c1.108 6.819-3.612 15.042-1.415 21.843.828 2.564 2.917-.234 3.332-1.353m80.336-15.071c-3.092 4.802 1.342 11.103.503 15.934-.118.676-2.597 5.44-2.37 5.502 1.047.288 1.908-2.03 2.233-2.834m31.481-19.012c-6.134 10.012-.31 21.455-1.689 31.29-.21 1.498-2.844 6.262-1.825 7.635 1.276 1.722 2.043-1.524 2.1-2.095" style="fill:none;stroke:#000;stroke-width:5.07499943;stroke-dasharray:none;stroke-opacity:1;stroke-linecap:round" transform="translate(351.896 245.798)"/><path d="M-281.057 96.7c6.594-15.795 22.32-19.93 36.859-25.868 6.915-2.825 14.101-5.878 21.262-8.009 2.473-.735 13.406-3.175 14.323-4.842.48-.873-4.824-4.115-3.008-6.158.733-.824 5.189-4.175 6.386-3.572.243.122 2.759 2.905 2.784 2.871 1.896-2.499-5.377-4.905 2.05-7.718 1.547-.586 3.966 4.166 3.88 5.46-.093 1.393-2.089 5.302-1.643 5.669.803.661 5.045-.1 5.112 0 .5.743 1.643 4.528 1.73 5.336.033.304-.537 1.991-.41 2.137 1.052 1.216 4.521-1.483 5.75-1.03.992.367 1.186 1.273 2.46 1.561 5.016 1.134 10.153 1.442 15.196 2.71 2.503.629 4.187 2.362 6.568 3.161 1.76.591 3.613.69 5.337 1.399 1.554.639 8.582 4.581 9.535 5.502 1.98 1.914 2.883 4.777 4.61 6.896 1.364 1.674 12.085 13.238 12.863 13.137" style="fill:none;stroke:#000;stroke-width:5.07499943;stroke-dasharray:none;stroke-opacity:1;stroke-linecap:round" transform="translate(351.896 245.798)"/><path d="M-272.663 104.214c6.412-2.401 7.355-9.421 12.452-13.303 4.734-3.605 11.422-5.514 16.88-7.884 8.018-3.482 14.622-6.434 23.179-8.498 1.979-.478 3.991-1.607 6.02-1.81 16.233-1.618 33.904 4.37 48.723 10.266 3.007 1.197 6.178 1.59 9.261 2.507 9.432 2.802 17.473 9.405 20.897 18.431.41 1.08-2.269-.556-3.423-.53-2.856.06-5.632.048-8.486-.287-6.13-.72-12.426-1.13-18.523-2.013-3.783-.547-7.473-1.839-11.357-1.44-7.974.82-15.907 2.744-23.954 3.453-7.287.641-14.57-.362-21.851-.29-5.24.05-10.376 1.232-15.648 1.232-10.177 0-24.422-2.145-34.17.166zm600.834.369c1.43-1.15 2.995-2.15 4.29-3.448 1.518-1.52 2.188-3.728 3.607-5.34 4.147-4.716 11.162-5.757 16.514-8.54 3.087-1.605 5.306-3.875 8.577-5.378 6.548-3.008 12.413-4.905 19.477-6.157 7.257-1.286 20.591 2.187 28.333 3.448 3.196.52 6.484.453 9.672 1.066 1.788.344 3.245 1.59 5.062 2.013 1.831.425 5.315.083 6.984 1.066 2.308 1.36 4.944 2.318 7.39 3.573 4.909 2.518 10.312 3.943 13.776 8.622 1.503 2.03 2.305 4.7 4.199 6.407.526.474 4.935 5.098 4.423 5.378-1.058.577-5.008-.14-5.93-.166-7.469-.221-14.745-.618-22.128-1.847-3.132-.521-5.694-1.593-8.984-1.726-31.691-1.278-63.632-1.846-95.262 1.029z" style="fill:none;stroke:#000;stroke-width:5.07499943;stroke-dasharray:none;stroke-opacity:1;stroke-linecap:round" transform="translate(351.896 245.798)"/><path d="M319.823 95.591c6.812-8.27 17.458-18.743 27.875-22.295 3.2-1.09 6.757-1.544 9.992-2.464 3.173-.903 11.192 1.034 13.278-.328 1.824-1.191 3.928-1.798 5.793-2.959.715-.445.337-1.369 1.415-1.805 2.966-1.2 7.317.938 10.22-.821.866-.525-3.647.615-7.212-2.627-.42-.382 11.019-2.194 11.224-2.71 1.455-3.644-1.923-1.198-2.236-3.161-.135-.847.913-2.772.867-3.9-.11-2.728-2.687-6.58 2.373-6.777 3-.116 5.696 4.913 5.839 7.515.074 1.355-.908 2.806-.776 4.025.085.787 1.386 1.094 1.962 1.228.544.127 6.975 1.253 7.573 2.506.681 1.43.451 2.257 1.506 3.49 1.038 1.212 2.143 1.764 3.606 2.34.198.078.746.25.548.328-1.208.476-5.218-.083-6.07-.12-1.279-.056-4.562.8-3.83-.25.464-.667 1.774-1.025 2.46-1.56.273-.212 1.051-.608.73-.738-.064-.026-.952-.021-.821.042a77 77 0 0 0 15.377 5.46c1.873.451 4.758-.391 6.34.328 5.099 2.317 6.27 5.668 9.947 8.008 3.396 2.161 7.136 4.392 10.722 6.158 2.21 1.089 4.887 1.61 6.933 3.037 4.655 3.244 8.006 7.448 12.179 11.088 1.037.904 3.89 10.825 3.423 6.485m-588.884-74.357c-7.114 2.587-22.782-1.829-32.39-1.436-25.223 1.032-50.35 2.64-75.644 2.954-10.49.131-21.808-1.353-32.39-1.888-8.8-.444-17.755.307-26.415-1.435 1.643 3.832 3.417 7.612 4.93 11.498.184.473-.092 1.064.136 1.518.34.678 10.9.465 10.9 2.503 0 .07-2.541.505-2.688.535m151.827-8.378c-.822 1.725-1.736 3.409-2.465 5.174-.203.493.246 1.64-.045 2.054-.422.601-8.618 1.607-5.108 2.834m-136.774-1.809c2.403.137 4.808.246 7.208.411 9.771.674 19.535 1.117 29.333 1.274.198.003 14.059-1.255 8.85.452m29.199-1.846c4.619-.178 9.124.87 13.69 1.311 10.815 1.046 22.104 1.223 32.938.494 1.71-.115 4.387-.808 6.157-.37 1.673.415 6.013 3.576 2.009 1.644" style="fill:none;stroke:#000;stroke-width:5.07499943;stroke-dasharray:none;stroke-opacity:1;stroke-linecap:round" transform="translate(351.896 245.798)"/><path d="M326.578 48.948c4.578-.54 9.183-.371 13.776-.618 10.865-.585 26.46-3.28 36.955-1.56.83.135 6.475 2.552 8.85 2.012 1.323-.3 5.312.732 3.967.904-1.333.171-2.51-.004-3.83-.124" style="fill:none;stroke:#000;stroke-width:5.07499943;stroke-dasharray:none;stroke-opacity:1;stroke-linecap:round" transform="translate(351.896 245.798)"/><path d="M403.906 49.072c5.938 1.648 11.89.102 17.93 0 8.856-.15 17.551 2.583 26.37 1.971.37-.025 18.51 2.393 17.016-.29-.419-.752-.973-4.926-.73-5.581.87-2.35 5.66-2.12 6.888-4.108.947-1.532-.793-3.529-.64-4.228.086-.386 3.309-1.975 2.511-2.424-7.13-4.01-39.352-2.407-49.411-2.257-8.945.134-18.047-1.41-26.959-2.095-9.905-.762-19.855-.95-29.792-1.191-11.95-.291-23.83.286-35.768.286-1.437 0-20.134-.397-20.075.29.082.955.257 5.263 1.14 5.913.19.14 4.163.568 4.246.942.193.87-3.302 3.017-2.1 4.191 2.546 2.488 4.2.854 4.2 4.801M-279.51 19.263c1.135-.459 3.905-2.081 5.797-1.93 2.474.199 4.547 1.325 7.117 1.52 7.681.58 15.538-.498 23.22-.698 6.6-.172 13.161.573 19.755.573 12.11 0 24.166-1.357 36.27-1.685 19.541-.53 39.127-1.182 58.668-1.436 10.882-.141 21.757.563 32.619-.124 12.296-.778 24.916-1.395 37.228-1.025 5.295.16 10.529 1.149 15.83 1.232 15.636.247 31.27-.478 46.901-.41 12.788.054 25.645 1.656 38.411 2.298 18.814.947 37.683-.657 56.482-.083 8.777.268 17.511 1.723 26.278 2.013 20.337.67 40.632 1.09 60.996 1.19 16.814.084 33.194-2.848 49.91-3.614 6.867-.314 13.7 1.197 20.576.494 9.005-.92 21.244-2.974 30.245-1.601 2.168.33 4.23 1.27 6.432 1.56 8.194 1.077 20.3.755 28.606.697a3185 3185 0 0 0 40.195-.531c3.252-.064 6.448-1.273 9.668-1.108 3.324.17 6.614.868 9.947.942 3.633.08 7.266-.745 10.904-.656 3.564.088 7.237 1.516 10.86 1.764 10.279.703 20.677.813 31.02 1.19 9.448.346 19.03.42 28.47.208 2.13-.048 7.77-.43 8.759.041.383.183 3.62 1.333 1.917.449m-587.382 17.614c37.35 1.502 74.737 1.09 112.138.373 13.483-.258 26.839-2.402 40.377-2.137 9.274.182 18.531 1.322 27.785 1.888 15.15.928 30.301 1.065 45.436 2.34 3.766.318 7.446 1.185 11.224 1.399 5.57.315 11.167-.16 16.743-.083 10.475.144 20.903.626 31.39.573 5.5-.029 10.887.674 16.378.78 9.102.175 18.27-.51 27.328-1.229 8.016-.635 15.968 1.093 23.95.49 11.134-.841 22.52-2.35 33.714-2.012 9.013.271 17.887.486 26.917.41 3.29-.027 16.486 1.025 12.316-.572M-89.948 54.82c-4.234 1.004-7.743 2.53-10.722 5.705-8.344 8.892-6.145 19.069 7.208 19.506 6.642.217 8.982-2.826 10.31-9.652.275-1.409 2.416-9.128 1.598-11.373-1.07-2.938-5.563-2.858-8.394-4.187zm88.777 2.095c-15.508 5.22-16.961 18.889.593 23.033.983.232 5.139 1.023 6.664.41 6.273-2.516 3.103-11.613 2.78-16.464-.076-1.149.579-2.585-.182-3.448-.717-.813-2.224.092-3.237-.29-2.298-.868-4.412-2.161-6.618-3.241Zm96.536 1.477c-6.868 3.034-11.999 6.514-8.988 14.821.542 1.496 1.383 3.906 2.83 4.806 2.972 1.847 7.506 1.616 10.768 1.56 1.763-.03 4.11-.049 5.838-.905 3.237-1.604 6.201-16.427 5.382-17-1.903-1.33-4.479-1.404-6.66-1.971m86.315.083c-4.757.468-9.192 1.503-11.037 6.407-1.12 2.976-.877 5.866-.045 8.867 2.878 10.384 18.276 8.02 23.859 1.888 4.957-5.445 3.359-20.39-6.843-18.843-2.032.309-3.955 1.12-5.933 1.681zm96.582-.9c-6.86.505-20.436 2.37-18.888 12.56 1.06 6.975 11.355 13.244 17.93 14.456 2.013.372 4.032-.198 5.386-1.809 1.975-2.35 5.799-11.382 4.834-14.987-1.215-4.542-5.944-7.487-9.262-10.22zm-409.044-8.378c14.96-.164 29.952 2.058 44.938 1.763 2.556-.05 5.11-.167 7.664-.286 4.24-.198 5.45-.49 5.158-.328-1.197.667-1.263.326-1.552 1.888m36.27-.245c14.573 1.86 29.266-.689 43.888-.369 4.274.094 8.172 1.722 12.316 1.722m38.917-2.419c16.384-.702 32.915.167 49.27-1.19 1.21-.101 8.156-1.744 7.207.203m38.233 2.668c15.235 1.817 30.341-.896 45.44-2.133 1.312-.108 4.802-.58 6.295.12.866.406-.95 1.326 1.187 1.03m40.83 2.09c14.952-1.13 30.101-.809 45.12-.572.595.01 5.595-.384 6.386.983.49.846-1.956-.09-2.92-.245m-423.46 57.441c1.536-.507 3.02-1.22 4.61-1.519 5.296-.996 11.422.222 16.834 0 13.606-.559 27.29-.286 40.876-1.066 14.703-.845 29.422-2.028 44.116-2.751 6.787-.334 13.545.344 20.349-.042 14.904-.846 29.806-2.095 44.751-2.095 4.194 0 8.314.816 12.502.904 19.443.411 38.912-.072 58.35.37 4.721.107 9.338 1.084 14.053 1.19 17.176.388 34.392-.188 51.553-.041 6.106.052 12.151.863 18.249.863 8.022 0 16.05-.839 24.087-.78 10.726.078 21.44 1.38 32.116-.41 12.044-2.022 24.894 2.165 36.818 3.696 3.548.456 7.101.686 10.63 1.311 1.205.214 4.215-.36 3.603.698-.178.306-1.759-.095-2.146-.204m-434.77 14.947c12.759.634 25.482-1.682 38.228-1.399 6.242.138 12.395 1.201 18.66 1.315 25.786.47 51.467.785 77.237 1.316 18.2.375 36.505 2.156 54.702 2.012 11.383-.09 22.722-.523 34.124-.452 7.17.045 14.238 1.235 21.395 1.311 16.663.178 33.104-1.668 49.776-1.56 4.27.027 8.36 1.104 12.59 1.481 15.842 1.414 32.053 1.71 47.95 1.805 5.316.032 10.535-1.619 15.83-1.97 13.928-.927 28.238-1.698 42.2-1.358 2.521.062 15.132 1.59 18.02.29 1.351-.606 7.059-2.448 5.336.042m21.673-1.892c11.733 2.514 23.644 1.177 35.494 1.233 5.31.025 10.554 1.072 15.875 1.029 15.491-.127 30.944-.965 46.445-.494 6.934.21 16.599 3.525 23.128 1.477m-722.465-4.966c19.171 1.825 38.301-.3 57.44-.495 9.005-.091 18.05.71 27.05.125 11.75-.764 22.98-2.843 34.855-2.63 3.183.056 6.19 1.556 9.353 1.85m-129.794 11.124c-.076 6.008.688 6.526 4.473 4.805.586-.266-.632 1.14-.776 1.768-.52 2.28-.3 2.699-.32 5.42-.043 6.147.433 11.83 1.005 17.941.45 4.812-.636 8.437-1.506 13.054-.837 4.44-.193 8.88-.822 13.307-.4 2.822-1.33 5.567-1.597 8.415-.679 7.222-.264 9.902 1.369 16.59.646 2.644-.883 5.98-1.232 8.54-.548 4.015.035 8.014-.274 12.028-.343 4.454-1.067 8.818-1.141 13.303-.038 2.28 1.268 5.136.867 7.307-.186 1.008-.48-1.992-.685-2.995m22.449-110.736c1.735 7.515.254 15.185-.32 22.747-1.6 21.058-2.292 42.203-3.788 63.27-.56 7.889-1.065 15.932-2.37 23.735-.474 2.836-1.14 5.607-1.14 8.498 0 .508-.005 2.007.136 1.519.477-1.646.128-2.76 0-4.64m81.614-113.855c2.344 7.425 4.141 15.59 3.379 23.444-.638 6.567-2.293 12.847-2.602 19.461-.368 7.86.975 15.383.913 23.2-.063 7.792-2.417 15.32-1.963 23.157.208 3.596 1.406 7.087.913 10.714-.488 3.593-1.708 6.994-1.552 10.677.242 5.694.39 3.493-.867-.864m26.643-107.942c-3.292 8.653-2.506 17.946-2.643 27.058-.238 15.9 1.01 31.723.867 47.585-.053 5.849-.64 11.678-.684 17.536-.053 7.092-1.464 13.569-2.009 20.527-.114 1.464.797 11.36.913 6.651m92.885-115.129c.9 9.024-1.036 17.908-1.78 26.855-.584 7.013.773 13.987.09 20.98-.489 5.018-2.104 9.742-2.597 14.738-.942 9.55-.713 18.727-2.693 28.129-1.429 6.788.645 13.378-.228 20.158-.136 1.06-.285 3.635-1.141 2.996-1.584-1.184-1.055-3.669-1.004-5.42m26.46-113.731c1.394 5.763 2.044 11.471 1.735 17.407-.518 9.943-3.514 19.423-3.834 29.44-.171 5.355.66 10.514.73 15.85.105 8.037-.41 16.069-.41 24.1 0 3.137 1.064 6.53.73 9.648-.33 3.079-1.877 5.91-1.506 9.116.136 1.184 1.172 2.494 1.05 3.656-.191 1.8-1.027 3.649-.777 4.473M35.19 148.268c-1.89 5.822-2.514 11.858-2.735 17.942-.248 6.85-.663 13.846-.319 20.697.165 3.276.848 6.44.822 9.73-.034 4.118-1.039 8.19-1.096 12.275-.055 3.942.87 7.771.73 11.742-.198 5.607-1.031 11.223-.639 16.835.45 6.438-.128 12.917.092 19.381.07 2.095.167 4.188.228 6.283.02.672-.16 2.615.137 2.012.876-1.781.45-4.428-.137-6.24m21.349-108.52c.38 6.177 2.147 12.331 1.825 18.556-.272 5.264-1.21 10.474-1.643 15.726-.564 6.838-.28 13.726-.684 20.573-.575 9.744-2.469 19.992-1.918 29.768.13 2.286 1.033 4.102 1.279 6.282.513 4.552-1.016 10.594-1.598 15.191-.248 1.957 1.182 8.242-.456 5.091m77.013-111.27c-.004 8.36.267 16.684.045 25.046-.306 11.556.968 23.018.909 34.531-.05 9.87-1.937 19.359-1.274 29.233.168 2.495.792 7.393 0 9.979-1.236 4.038-2.197 6.302-2.237 10.593-.003.347-.054 4.229.913 4.229 1.414 0-.21-2.855-.684-4.187m23.128-108.727c1.121 6.704.02 13.307-.182 19.996-.424 14.04-.4 28.12-.685 42.166-.1 4.953.2 9.675-.456 14.619-1.148 8.64-.915 17.227-.64 25.909.09 2.774-.058 5.562-.182 8.336-.053 1.203-.18 2.403-.137 3.61.006.151.046.604.046.452 0-1.308-.23-2.171-.452-3.61m75.092-109.507c2.913 6.893 1.882 13.936 1.14 21.145-1.048 10.196-.51 20.213-.775 30.424-.169 6.5-2.54 12.485-3.013 18.888-.244 3.311.831 6.409.913 9.689.189 7.559-.863 15.278-.73 22.913.04 2.346-.186 4.645-.365 6.98-.08 1.038-.555 3.897-1.005 2.958-.527-1.104-.2-2.439-.319-3.656m23.087-109.461c2.692 6.5 2.225 13.863 2.643 20.813.566 9.385-.989 18.22-1.639 27.552-.383 5.508.143 11.108-.09 16.631-.293 6.905-1.157 13.521-.412 20.444.786 7.302 1.169 14.101.046 21.394-.194 1.26.258 8.78.046 5.337m88.365-114.308c1.112 6.89.58 13.745 1.233 20.693.738 7.861.135 15.697.365 23.568.222 7.607 1.287 15.062 1.141 22.706-.14 7.32-1.907 14.405-2.83 21.64-.578 4.536 1.493 8.423 1.096 12.767-.268 2.919-.953 5.702-.913 8.664.053 3.92 1.103.585 1.232-1.233m20.12-108.888c-2.196 7.593-1.566 15.386-1.414 23.158.142 7.275-.171 14.617.228 21.884.278 5.058 1.321 10.055 1.643 15.112.683 10.725-1.768 19.96.593 30.585.839 3.77-.365 7.276-.639 11.046-.2 2.745.777 4.941 1.141 7.514.3 2.111-.065 4.294.229 6.407.136.985.873 3.879.639 2.913-.298-1.229-.56-2.768-.776-3.9m75-116.566c-1.202 7.535.371 15.047.137 22.623-.176 5.72-1.075 11.374-1.46 17.079-.423 6.265.107 12.707-.776 18.93-.72 5.062-.923 2.14-1.092 7.02-.252 7.316.52 15.07.727 22.42.157 5.587 1.165 15.557-.183 20.858-.45 1.766-.866 3.412-.909 5.254-.02.887.09 3.46.407 2.63.414-1.083.243-2.315.182-3.452m22.038-110.2c.338 4.496.589 5.094.274 9.116-.451 5.76-1.571 11.448-2.054 17.204-.962 11.456.237 22.764-.183 34.158-.138 3.759-1.098 7.364-1.323 11.087-.173 2.849.744 5.476.776 8.295.025 2.294-1.194 4.4-1.142 6.61.062 2.6 1.088 4.986.868 7.597-.397 4.71-2.811 16.917-.411 21.063.809 1.397 3.025 2.261 4.29 2.954m-676.843-135.412c2.06-.167 10.914-.908 13.046-.983 9.344-.33 18.484-.777 27.739.49 1.769.241 3.5.667 5.295.618 1.47-.04 5.168-1.818 4.377-.577-.754 1.183-2.619 1.007-3.925 1.519m65.104 2.381c3.252-.371 4.608-.621 7.755-.655 10.292-.111 20.523 2.053 30.839 2.133.324.003 11.791-.027 10.31.331m46.354-.618c13.42-2.087 27.07-.425 40.602-.821 5.027-.148 5.925-2.107 5.523.618m46.12-1.726c6.468-1.089 4.702-1.007 10.768-1.274 10.146-.447 20.297.121 30.432-.614 3.296-.24 6.986-.948 10.261-.125 1.314.33 4.873 1.21 4.063.125-.26-.347-2.36.608-2.648.738m42.93 1.847c1.963-.123 3.923-.304 5.888-.37 10.625-.352 21.869-.485 32.345 1.399 1.709.307 3.382.83 5.108 1.025.926.104 7.989-.735 3.88.124m45.942.411c5.748-.927 4.881-1.025 10.307-1.07 11.013-.092 21.776 1.83 32.85 1.522 3.053-.085 5.928 1.447 8.988.984.85-.129-1.762 0-2.556.328m-439.248-32.561c-.084 4.837.751 9.436 1.689 14.083.189.935-3.265 2.243-3.602 3.494-.72 2.68 3.012 7.126 2.963 7.432-.16 1.005-.88 1.855-1.141 2.83-1.496 5.58-1.437 12.006-1.32 17.697.263 12.7-1.478 25.238-1.232 37.938.069 3.56.882 6.97.959 10.51.092 4.246-.85 8.533-.822 12.814.05 7.838.655 15.373-.365 23.195-.87 6.666-.475 12.943-.822 19.585-.152 2.921-.522 5.826-.684 8.747-.057 1.012-.115 2.024-.137 3.037-.008.357.397 1.132.045 1.07-.412-.07-.334-.765-.502-1.149m-151.1-168.959c2.975 10.96 5.41 3.989 6.983 5.419 2.17 1.973 1.065 30.666 1.004 35.64-.084 6.863.38 13.804 1.228 20.613.44 3.529 1.563 7.155 1.644 10.714.101 4.481-.689 8.936-.73 13.428-.125 13.318.32 26.658.09 39.95-.201 11.691-3.46 23.352-1.323 35.063" style="fill:none;stroke:#000;stroke-width:5.07499943;stroke-dasharray:none;stroke-opacity:1;stroke-linecap:round" transform="translate(351.896 245.798)"/><path d="M315.308 95.878c.69 2.016-2.964 9.391-2.83 10.717.037.367 1.9 2.2 2.1 2.544 2.092 3.608 5.04 10.523 5.61 14.37.691 4.667-.297 8.852-.502 13.468-.136 3.046.958 5.848.958 8.83 0 5.83-1.403 11.966-1.684 17.86-.395 8.24 1.049 16.469.908 24.676-.169 9.911-2.07 19.757-1.867 29.643.11 5.334 1.169 10.133.685 15.523-.298 3.316-.16 6.67-.457 9.975-.443 4.937-1.911 9.623-1.369 14.702.148 1.388.36 11.777 2.465 8.128m145.167-141.407c-.533 2.175-1.24 4.316-1.598 6.527-.805 4.99.622 10.564.594 15.602-.032 5.538-1.176 11.093-.685 16.63.237 2.67 1.235 5.07 1.278 7.801.05 3.147-1.066 6.25-1.278 9.403-.556 8.245-.662 16.984-.593 25.253.096 11.662 1.253 23.236.639 34.855-.332 6.268.714 12.753 1.05 19.013.124 2.322-.315 4.281-.548 6.527-.03.286.184 1.036-.046.863-.31-.233-.548-.548-.822-.822m-748.561 14.619c1.78.657 3.488 1.56 5.34 1.97 4.877 1.082 10.562-1.568 15.465-1.887 6.63-.433 13.335.196 19.984-.125 6.803-.328 13.618-1.582 20.436-1.519 13.864.13 28.154.133 42.016 1.025 2.582.166 5.006 1.114 7.577 1.274 13.855.866 27.935.663 41.789.946 5.833.12 11.68-.974 17.519-1.153 8.364-.257 16.903.062 25.274.124 30.904.229 61.804 1.388 92.702 1.191 5.19-.033 10.326-1.022 15.51-1.274 7.425-.36 15.253-.216 22.677 0 7.687.224 15.352 1.345 23.037 1.685 10.087.446 20.284-.022 30.34.863 9.049.796 18.183 2.769 27.279 2.585 9.235-.187 18.432-.858 27.647-1.274 13.76-.621 27.577-.154 41.333-.78 7.418-.337 14.886-1.423 22.311-1.56 3.915-.072 7.842 1.005 11.772 1.112 11.328.308 24.137-.836 35.216.286 3.08.312 6.013 1.276 9.124 1.477 6.28.407 12.759-1.36 19.025-1.273 6.464.089 12.895 1.488 19.345 1.398 11.443-.16 22.619-2.428 34.125-2.054 4.683.152 9.424 1.732 14.095 2.257 15.896 1.789 32.058 2.356 48.042 3 8.184.33 16.366-.488 24.544-.041 7.113.388 14.195.445 21.307.738 2.56.106 4.976.954 7.573.905 5.191-.098 11.182-1.75 15.967-1.44m-699.063 79.449c-6.556-8.8-2.672-19.85-1.594-29.971.55-5.154-.51-11.086.913-16.096.707-2.49 2.661-4.352 3.784-6.61 1.604-3.224 3.374-6.818 6.067-9.32 5.492-5.102 16.519-6.874 23.68-4.722 6.576 1.976 11.535 10.037 12.133 16.586.312 3.415-.156 6.88.046 10.307.124 2.1.821 4.535.548 6.651-.628 4.854-3.193 9.214-3.83 14.083-.616 4.71.842 9.469.137 14.25-.294 1.987-4.274 14.984-3.606 5.377" style="fill:none;stroke:#000;stroke-width:5.07499943;stroke-dasharray:none;stroke-opacity:1;stroke-linecap:round" transform="translate(351.896 245.798)"/><path d="M-237.717 363.336c-2.788-7.47 1.112-13.845 2.324-21.063.512-3.046.14-6.4 1.232-9.32.623-1.66 1.665-3.047 2.237-4.763 1.234-3.702 1.069-7.995 2.1-11.784.285-1.048 5.736-11.683 6.888-13.22 6.732-8.99 17.169-9.956 27.647-10.062 1.674-.017 4.073-1.628 5.017-.245 2.3 3.37 6.463 4.734 9.398 7.598 1.943 1.894 4.847 5.01 6.204 7.348 1.36 2.345-.465 6.426-.183 9.075.382 3.588 1.867 6.625 1.597 10.344-.529 7.299-2.766 13.861-2.506 21.312.14 4.011.501 8.016.544 12.029.013 1.26-1.075 3.886-.091 4.066m53.104 9.772c.807-11.072.115-22.16 1.278-33.179.536-5.081-1.576-11.047-.366-15.888.442-1.765.972-3.5 1.142-5.377.15-1.659.302-5.022 1.369-6.448 3.891-5.206 16.977-10.571 23.311-11.947 1.54-.334 3.218.24 4.747.287.992.03 3.002-.519 3.967-.083 1.245.561 2.407 2.991 3.378 3.983 7.158 7.313 7.876 11.367 10.31 20.942.78 3.062 1.993 6.182 1.868 9.403-.148 3.822-1.318 7.58-1.502 11.452-.166 3.478.843 7.785 0 11.17-1.2 4.823-4.356 8.714-4.884 13.793-.178 1.712 1.086 5.834-1.095 4.722" style="fill:none;stroke:#000;stroke-width:5.07499943;stroke-dasharray:none;stroke-opacity:1;stroke-linecap:round" transform="translate(351.896 245.798)"/><path d="M-125.442 352.742c-1.035-9.964-.683-20.46 1.689-30.261.543-2.243 1.688-4.216 2.278-6.444.664-2.508 1.01-6.977 2.647-9.158 3.564-4.749 12.923-9.334 18.888-9.772 2.444-.179 4.81.473 7.253.287 1.358-.104 2.933-.96 4.287-.9.277.011 11.65 6.196 12.274 6.77 3.12 2.88 5.519 7.197 6.203 11.333.525 3.173-.785 21.431 2.054 22.706m40.146 33.381c-1.277-1.806-2.996-3.37-3.83-5.419-1.433-3.518-2.217-16.768-.685-20.53 1.224-3.01 2.493-4.686 3.013-8.13 1.115-7.39.385-21.627 5.381-27.589 4.7-5.608 16.168-8.762 23.357-8.378 2.003.107 11.606 2.854 13.37 3.49 1.365.492 4.359 12.326 4.651 14.042.599 3.515 1.438 7.842 3.332 10.92.787 1.28 2.09 2.375 2.602 3.822 1.456 4.117-1.52 17.884-2.328 22.826-.675 4.137-1.605 8.378-1.46 12.606.054 1.589 4.375 18.643 0 12.278" style="fill:none;stroke:#000;stroke-width:5.07499943;stroke-dasharray:none;stroke-opacity:1;stroke-linecap:round" transform="translate(351.896 245.798)"/><path d="M-33.014 329.132c1.267-5.433 1.432-13.234 5.2-17.942 2.89-3.611 7.011-5.986 10.082-9.402.682-.758 3.034-5.284 3.834-5.502 8.15-2.223 9.376-1.233 18.067-1.191 6.668.032 9.823 3.654 14.871 7.556 1.426 1.101 3.606 2.174 4.702 3.655 1.16 1.57 1.994 3.966 2.871 5.706 3.221 6.39 1.585 6.148 1.187 13.178-.147 2.584 1.143 4.741.776 7.312-.499 3.485-2.092 6.745-2.374 10.261-.496 6.188-.285 12.485-.502 18.685-.271 7.767-2.909 15.911-1.821 23.647.269 1.917.718 2.642.32 4.644-.205 1.024-1.734 3.744-1.05 2.954 1.304-1.508-.017.027.684-1.108m44.751-17.328c-.5-7.725-4.83-15.722-4.103-23.569.42-4.542 2.457-8.26 2.51-13.137.033-3.032-.55-6.043-.228-9.074.606-5.73 3.624-17.577 8.029-21.229 2.435-2.018 6.011-2.566 8.987-3.365 7.733-2.075 14.233-.516 21.304 3.407 8.092 4.49 8.15 11.992 8.805 20.365.261 3.35 1.748 6.404 1.917 9.772.43 8.599-1.378 17.29-2.328 25.784-.586 5.242.979 10.515.32 15.602-.4 3.078-1.602 7.207-2.602 1.81" style="fill:none;stroke:#000;stroke-width:5.07499943;stroke-dasharray:none;stroke-opacity:1;stroke-linecap:round" transform="translate(351.896 245.798)"/><path d="M63.568 330.858c-.541-7.188 4.249-11.28 6.888-17.452 3.447-8.063 2.57-4.218 7.846-10.469.666-.788.966-2.186 1.643-2.913 3.941-4.227 15.186-2.957 19.619-1.892 7.673 1.844 15.369 15.687 17.61 22.46.45 1.361 2.78 2.256 2.328 3.615-.462 1.386-1.79 2.726-2.602 3.942m-163.05-28.826c-6.245-4.84-19.63 1.39-16.2 9.813 2.157 5.297 16.63 7.687 19.755 1.93.66-1.214-3.074-9.785-3.556-11.743zm95.987-1.681c-1.932-.397-3.827-1.305-5.796-1.19-3.274.19-10.418 11.35-9.353 14.286 1.318 3.634 17.01 1.649 18.112-1.846.973-3.083-2.114-8.846-2.963-11.25zm87.955-1.232c-4.456.715-10.568 6.796-7.755 12.03 1.476 2.746 7.851 8.55 11.27 8.908 1.79.187 3.136-.426 4.788-.942 1.68-.525 3.735-.469 5.204-1.56 1.14-.847 1.01-2.69 1.05-3.9.225-7.019.634-6.283-4.245-10.963-1.069-1.025-1.75-3.276-3.009-3.984-1.862-1.047-6.275.254-7.303.411zm98.636 2.627c-6.86-2.884-17.073 6.344-12.726 12.975 1.541 2.351 4.802 3.137 7.162 4.353 2.061 1.062 1.09 2.703 4.286 2.543 4.88-.244 14.932-9.384 10.996-14.656-2.009-2.69-6.964-3.942-9.718-5.215zm-69.984 77.477c-.685-1.683-1.537-3.307-2.054-5.05.068-1.154.221-1.909-.137-3.037-.631-1.988-2.41-3.331-3.008-5.299-.773-2.538.993-5.293 1.187-7.8.477-6.18-.721-12.236.273-18.395.483-2.989 2.515-5.677 3.283-8.622 1.425-5.468 3.436-13.891 8.074-17.735 5.184-4.295 20.422-1.8 26.324.573 7.363 2.959 9.206 22.633 8.12 29.274-.342 2.092-1.142 4.08-1.369 6.203-.257 2.405.437 4.933.548 7.349.239 5.213-.435 15.706-1.05 21.228-.256 2.301-3.413 9.656-1.593 11.66 1.035 1.14 1.886-3.575 1.776-4.15" style="fill:none;stroke:#000;stroke-width:5.07499943;stroke-dasharray:none;stroke-opacity:1;stroke-linecap:round" transform="translate(351.896 245.798)"/><path d="M157.593 341.452c2.885-3.846-2.425-10.293-.821-14.083.829-1.96 2.447-2.977 2.83-5.299.604-3.67 3.094-10.796 5.518-13.755 2.764-3.375 6.132-3.203 10.083-4.39 8.036-2.415 17.331-5.458 25 .12 4.617 3.357 10.148 11.076 11.042 16.793.329 2.1-.394 4.161-.365 6.282.025 1.857 1.063 3.696.776 5.543-.26 1.667-1.034 3.16-1.187 4.888-.204 2.309 1.196 4.186 1.004 6.324-.273 3.05-2.254 5.445-2.19 8.623.04 2.043 2.614 5.518.045 5.008m49.316 18.598c-.11-5-2.592-10.892-1-15.93.954-3.02 2.364-5.607 2.734-8.826.265-2.302-.389-4.615-.045-6.9 2.157-14.355 3.73-31.172 18.614-37.855 4.098-1.84 9.663-2.61 14.1-1.519 8.546 2.101 12.214 16.188 11.676 23.444-.192 2.594-1.064 5.15-1.278 7.76-.677 8.254 4.039 6.354.365 16.668-.843 2.366-1.426 3.517-1.871 5.913-.912 4.904-.568 10.163-1.32 15.153-.037.245-.334 1.809.046 2.092 1.677 1.246 1.776-1.885 1.821-2.502" style="fill:none;stroke:#000;stroke-width:5.07499943;stroke-dasharray:none;stroke-opacity:1;stroke-linecap:round" transform="translate(351.896 245.798)"/><path d="M254.13 359.97c-2.606-8.171 2.17-15.929 3.742-24.103 1.034-5.375-.244-11.384 1.639-16.627 3.483-9.7 15.986-17.08 25.822-18.602 5.097-.788 9.76-2.33 14.282.697 2.962 1.984 4.067 8.263 5.29 11.374.786 1.996 2.842 3.33 3.333 5.42.451 1.923-.41 3.897-.366 5.833.059 2.6 1.44 4.779 2.054 7.266.699 2.828-.65 5.829.046 8.54.419 1.631 2.572 1.603 2.734 3.161.207 1.98-1.537 3.783-1.05 6.116m18.432-58.835c-6.826 17.92-6.432 38.642-5.381 57.566.486 8.77 2.604 17.39 1.87 26.236-.466 5.631-1.51 8.116-4.244 13.303-1.268 2.407-3.41 4.685-3.19 4.843 1.128.81 2.38-1.433 3.555-2.175m-459.455-102.237c-.868 1.67-1.966 3.238-2.602 5.008-1.705 4.744-.777 10.051-1.228 15.071-1.438 16-3.135 31.43-2.556 47.503.271 7.547 2.63 17.684-3.697 23.693m611.925-85.773c1 6.428-.025 13.207 1.05 19.627.466 2.784 1.619 5.476 1.548 8.336-.085 3.389-1.23 6.656-.64 10.1.33 1.92 1.472 3.809 1.324 5.83-.277 3.797-2.258 6.835-2.095 10.88.336 8.38 1.809 16.558.59 25.004-.546 3.774-2.145 7.383-2.553 11.17-.462 4.298 1.741 9.168.183 13.303-.55 1.46-.839 2.638-.64 2.996m-88.232-15.108c-1.11-1.63-2.466-3.117-3.332-4.888-1.192-2.44.494-9.537.684-12.237.62-8.756.771-17.436 1.78-26.153.23-1.982 1.717-3.625 2.1-5.623.354-1.845-.455-3.605-.182-5.465.388-2.648 1.4-10.976 1.962-12.726 1.365-4.255 16.072-12.966 20.71-11.701 2.305.628 5.717 1.239 7.8 2.423 1.741.99 1.38 5.068 2.374 6.813 1.905 3.341 4.128 6.703 5.021 10.51.514 2.192.688 4.103 1.776 6.163 1.131 2.142 3.108 3.657 3.788 6.074.659 2.342-.393 22.406-.73 24.677-.797 5.365-.917 11.051-.502 16.465.136 1.769-.21 3.535-.274 5.299-.028.777.293 3.068.41 2.298.15-.974-.025-1.972 0-2.958" style="fill:none;stroke:#000;stroke-width:5.07499943;stroke-dasharray:none;stroke-opacity:1;stroke-linecap:round" transform="translate(351.896 245.798)"/><path d="M366.176 340.506c-1.209-7.273 4.353-13.105 5.157-19.996.315-2.697-.417-5.535.092-8.212 2.151-11.33 13.08-13.303 23.037-13.303 3.258 0 9.727-.787 12.179 1.56 2.177 2.085 2.425 5.248 3.925 7.722 3.504 5.78 7.52 11.522 10.174 17.818 1.016 2.41 1.469 6.768 2.556 8.378m-696.735-42.374c3.118 7.59 3.938 15.505 5.61 23.403 1.12 5.292-.45 10.907-.32 16.261.061 2.466.924 5.37.503 7.842-.558 3.276-2.432 5.94-2.465 9.361-.017 1.728.715 3.362.776 5.092.116 3.298-.769 6.49-1.004 9.772-.244 3.4.301 6.858-.046 10.224-.372 3.612-2.249 6.864-3.054 10.386-.498 2.182-.082 4.45-.456 6.776-.154.957-1.117 3.58-.457 2.871.725-.777.908-2.538 1.233-3.531m51.049-206.321c-3.867 8.992-3.012 18.873-3.696 28.415-.87 12.132-2.388 24.264-3.328 36.42-1.061 13.72.38-6.501-.64 9.605-.07 1.125-.196 2.246-.273 3.37-.016.232-.045.925 0 .697.394-2.005.205-4.031-.091-6.038m46.988-71.851c-5.779 17.53.267 36.564-4.697 54.075-1.59 5.61-6.16 13.056-4.971 19.216m80.154-69.718c-2.602 13.03-4.505 26.432-4.789 39.743-.216 10.135.765 8.16 1.141 18.56.17 4.72-.09 5.553-1.643 9.648-.424 1.118-2.427 3.415-1.232 3.369.32-.012.578-.274.867-.41m45.897-68.736c-.624 1.848-1.355 3.663-1.872 5.544-3.69 13.43-3.112 28.547-2.921 42.374.064 4.672.04 6.72.959 11.207.875 4.273.724 1.55.228.125m55.659-57.113c-2.39 15.74-2.574 31.886-2.281 47.793.025 1.345 1.813 12.954.958 15.353-.336.945-5.85 1.048-4.701-1.722.219-.528.578-.985.867-1.477M18.95 192.16c-2.078 20.065 1.412 40.423-2.785 60.275-.426 2.014-5.38 14.646-1.365 16.137 1.467.545 2.124-2.376 2.734-3.818m55.204-72.183c-5.688 18.036.754 37.173-1.506 55.47-.214 1.727-1.57 6.16-2.374 8.008-.606 1.393-3.422 5.246.365 3.697m47.084-66.27c-3.205 6.35-3.281 4.918-3.743 12.029-.854 13.15-.39 26.72.548 39.867.26 3.642 1.08 8.472 1.004 12.154-.005.238-2.293 6.492-1.004 4.436m52.921-67.009c-.064 4.497-.104 9.717-.32 14.166-.705 14.603-3.033 29.073-3.51 43.685-.021.658 1.781 14.54-1.278 9.361m43.889-67.747c-.226 11.489-.36 23.053.273 34.531.477 8.632 3.187 18.106.868 26.689-.853 3.155-5.36 11.763-3.287 9.237m59.308-67.868c-1.476 8.935-1.551 7.338-1.46 17.859.117 13.753 3.402 27.062-.183 40.606-.988 3.73-6.036 17.303-1.233 12.73m45.258-74.606c-.366 4.89-1.272 9.711-1.826 14.577-1.693 14.877-1.762 30.04-2.506 45-.072 1.454.556 13.074-.046 14.29-.32.649-.94-1.11-1.506-1.56m73.494-72.838c-1.987 7.776-3.504 15.867-2.825 23.938.41 4.88 2.178 9.602 2.414 14.494.388 8.015-2.213 13.687-4.286 21.145-1.186 4.27-1.388 11.967.137 10.303 1.155-1.26.409-5.644-.548-6.938m46.947-64.871c-.457 3.201-.881 6.408-1.37 9.605-1.414 9.259-2.518 18.28-2.647 27.677-.14 10.155 1.66 21.474-.685 31.448M-200.447 140.96c-2.402 1.096-4.856 2.085-7.207 3.287-13.343 6.823-8.908 29.77 7.481 27.673 12.57-1.61 9.603-18.65 6.39-26.362-1.038-2.49-4.361-3.19-6.664-4.597zm108.263 5.461c-8.572-1.093-11.868 3.886-13.73 11.743-.41 1.724-1.36 5.12-.503 6.776 1.345 2.602 5.24 3.596 7.664 4.515 1.326.502 4.716 2.77 6.34 2.423 2.625-.56 4.03-2.797 5.839-4.519 4.287-4.08 11.187-6.37 7.116-14.369-2.055-4.038-9.103-5.393-12.726-6.569zm92.108-1.107c-4.689 1.564-7.757 3.899-9.855 8.336-4.559 9.644 8.654 20.6 17.61 15.19 7.82-4.723 10.628-20.236.73-23.692-1.098-.384-2.077-1.42-3.236-1.312-1.81.17-3.5.985-5.249 1.478zm94.573 1.066c-1.444.301-2.881.636-4.332.905-1.234.228-2.26-.212-3.514.286-6.953 2.759-4.376 11.625-2.872 16.959.714 2.529.816 6.884 3.557 8.253 1.683.84 3.863.963 5.705.983 5.893.065 17.01-13.486 13.228-19.46-2.465-3.895-8.074-6.124-11.772-7.926zm94.03 2.465c-5.348-2.505-9.073-1.795-11.635 3.651-1.22 2.593-1.323 5.435-1.323 8.253 0 11.69 9.51 12.615 17.93 7.104 1.242-.814 3.095-1.365 3.879-2.75 1.177-2.082 1.933-18.365-3.697-17.532-1.75.259-3.436.85-5.154 1.274zm97.217-1.108c-4.254-2.381-6.684-2.52-10.9-.618-3.532 1.592-5.922 4.106-8.167 7.145-2.402 3.25.04 11.338 3.51 13.469 2.276 1.397 14.093 3.441 16.698 1.97 2.27-1.28 4.37-5.099 4.975-7.472.653-2.562.413-7.286-1.278-9.2-1.584-1.79-3.226-3.53-4.838-5.294zm105.569.573c-20.475 4.728-6.88 32.026 11.133 22.294 9.192-4.966 5.447-8.842 5.792-17.9.024-.615.84-3.323-.274-3.818-5.15-2.288-11.297-1.297-16.651-.577zm-622.461 28.373c17.622-1.5 35.142 3.727 52.785 2.46.601-.042-.483 1.448 0 1.81 1.58 1.185 4.293.66 5.746-.37m50.503-1.726c15.608-2.885 32.33 4.352 47.677.166 1.238-.337 2.21 1.412 3.464 1.68 2.175.466 4.491.147 6.664-.327m34.399-.9c19.925 1.46 39.94-.985 59.764.817m33.303-.286c9.095 1.477 18.286-1.038 27.328.249 3.756.534 7.408 1.7 11.178 2.174 5.657.712 13.755.052 17.93-.37m40.876-1.929c12.626-.891 25.165 2.412 37.772 2.013 5.897-.187 12.548-1.65 17.473-2.179m40.561.453c16.209 1.9 32.527-1.92 48.63-1.15 1.595.076 3.163.871 4.747 1.067 1.67.205 1.799-.742 3.465-.08m51.279 1.15c15.97 1.064 31.946 1.841 47.859.12 3.715-.401 7.706-2.436 9.353-.655" style="fill:none;stroke:#000;stroke-width:5.07499943;stroke-dasharray:none;stroke-opacity:1;stroke-linecap:round" transform="translate(351.896 245.798)"/><path d="M-285.621 262.783c2.706.917 5.34 2.087 8.12 2.751 4.34 1.038 9.113-.414 13.506.287 3.04.484 5.964 1.805 9.08 1.805 3.853 0 7.609-.727 11.493-.573 5.692.226 11.05 1.096 16.788.822 4.087-.196 8.072-2.096 12.092-2.096 13.408 0 26.819.046 40.237.41 3.767.103 7.275.626 10.95 1.4 4.453.936 9.783.286 14.37.613 3.147.225 6.376 1.36 9.535 1.191 1.643-.088 3.135-.863 4.792-.863 16.69 0 32.916 0 49.499-.203 10.371-.128 21.005-2.384 31.386-1.523 6.055.503 12.22 1.398 18.34 1.564 1.894.052 4.015-1.223 5.751-.904 7.356 1.35 15.538 4.33 23.038 4.104 11.04-.335 21.852-2.808 32.892-3.652 5.303-.405 10.51.346 15.784.41 8.06.1 16.423-.79 24.411.121 1.973.225 3.854.935 5.838 1.108 6.057.528 11.989-2.067 17.884-1.68 5.931.388 12 1.825 17.884 1.888 5.46.058 11.158-.873 16.698-.988 4.098-.085 8.099 1.326 12.228 1.03 13.556-.976 27.243-.947 40.647-2.013 6.581-.524 13.584 1.755 20.258 1.643 2.426-.041 4.876-.535 7.299-.535 2.303 0 4.517.98 6.796.78 3.361-.296 7.664-2.036 10.95-1.52 5.102.803 8.872 3.004 14.096 3.163 7.261.22 14.558-1.794 21.988-1.56 2.615.082 5.771-.538 8.349 0 2.765.576 5.496 1.54 8.352 1.643 1.182.042 2.468-.36 3.648-.166 2.015.33 3.744 1.425 5.838 1.477 4.904.122 10.069-.747 15.012-.942 7.754-.306 15.64.162 23.312.162 4.323 0 8.935-.9 13.274-.9 2.67 0 5.275.637 7.942.572 1.817-.044 3.551-.634 5.336-.863 3.406-.438 6.984.332 10.357-.286.234-.043 1.409-.771 1.78-.697 3.901.777 8.06 1.323 12.041 1.435 8.021.227 16.507-1.73 24.453-.49 2.957.462 5.664 1.7 8.668 2.092 2.123.277 3.135-.876 5.02-1.025 2.856-.225 6.016-.144 8.897-.083 9.473.2 18.714 1.26 28.058 2.548 1.388.191 12.576-.461 13.685-.701 1.772-.384 3.743.08 5.245.863.207.107.826.36.593.369-1.74.06-2.114-.203-3.282 1.232M-83.686.167C-72.264-5.44-59.7-9.76-47.056-11.737c3.163-.495 6.356-.027 9.536-.208 8.232-.469 16.386-1.68 24.635-1.97 3.973-.141 7.932.417 11.909.369 8.03-.097 15.879-1.91 23.859-2.461 9.684-.67 20.455.739 30.34.739 11.486 0 23.03-.66 34.536-.66 14.33 0 28.711 1.615 43.02 1.809 7.343.1 14.68-1.003 22.034-.535 10.046.638 19.994 1.321 29.975 2.75 18.513 2.652 37.311 3.659 55.885 5.258 9.197.792 18.242 4.058 27.373 5.664 3.168.557 6.472 2.194 9.581 2.548.353.04-.179-.687-.274-1.03M-231.318 2.18c4.56-2.632-7.54 1.055-6.253 2.917 1.307 1.892 4.24-4.03 6.253-2.917 1.072.593-.128 13.601 1.639 9.73m76.785-6.693c9.137-1.118 18.043 1.716 27.14 2.262 7.756.465 15.775.401 23.499.49 14.143.16 28.294-2.296 42.428-2.872 6.135-.25 12.169.262 18.294.53 5.323.235 10.625-.335 15.922-.202 4.2.104 8.23 1.128 12.41 1.352 6.492.348 13.11-.07 19.615-.12 15.273-.119 30.554.657 45.805.942 7.419.139 14.838-.248 22.262 0 20.48.684 40.796.78 61.27.78 3.127 0 5.857 1.256 8.942 1.315 7.435.144 14.496-1.445 21.855-1.888 1.95-.117 3.858.557 5.792.697 6.24.455 12.334.944 18.615.698 4.015-.158 8.028-1.836 12.045-2.175 5.464-.46 12.142.804 17.565 1.233 4.386.346 9.437-1.774 13.867-1.892 6.797-.182 13.504 1.485 20.257 1.767 8.005.335 16.038.343 24.042.656 3.633.142 14.494-1.033 18.477-1.93 2.029-.456 4.5.472 6.615.166 10.888-1.574 16.295-.304 27.008.287 5.494.302 11.657.314 16.789 1.066m80.751-1.232c-1.58-.398-7.644 7.415-5.203 5.626" style="fill:none;stroke:#000;stroke-width:5.07499943;stroke-dasharray:none;stroke-opacity:1;stroke-linecap:round" transform="translate(351.896 245.798)"/><path d="M-236.339-1.024c.196 7.219 7.497 5.531 9.672 10.843m71.719-23.407c1.504-.163 3.029-.198 4.514-.49 4.438-.872 9.084-3.568 13.415-5.012 3.014-1.005 6.172-1.492 9.17-2.544 5.973-2.094 11.66-5.385 17.52-7.759 4.747-1.923 10.327-3.386 14.825-5.05m356.716-18.315c16.24 10.41 34.515 16.834 51.78 25.211 1.938.94 3.472 2.531 5.428 3.49 3.175 1.557 6.914 2.895 9.81 4.93 1.101.774 1.828 2.08 3.057 2.71 1.928.985 7.713 3.12 8.12 3.489M-130.724.786c1.885-.316 3.811-.445 5.656-.946 6.19-1.683 12.83-7.313 19.755-9.486 4.42-1.387 14.607-2.595 16.925-3.98m369.31-1.439c17.647 4.101 33.219 18.655 48.083 25.087m-447.181 91.108c15.166 1.669 30.801 1.835 46.12 1.893 2.655.01 8.666-.783 9.125.037.036.066-.29 1.035.046 1.565m36.269-2.22c17.76 4.054 36.025.484 53.926 2.054 1.527.133 4.394-.076 5.473.369m32.664-4.187c9.788.111 3.84.12 12.594-.041 11.945-.22 23.752.752 35.676.9 3.692.046 7.976.448 11.544-.203.833-.152 6.402-1.544 3.876-.166m32.618-.942c17.312.77 35.603-1.392 52.283 2.216m41.382-.245c5.624 1.18 4.4 1.315 9.394 1.15 9.926-.331 19.955-1.008 29.884-.287 2.53.184 12.843 2.389 15.191 2.216m-356.99-42.577c-1.46-.74-3.638-3.68-4.378-2.22s3.696.733 4.378 2.22c1.073 2.338-.013 5.152.182 7.717.044.576.66 1.077.548 1.644-.101.515-2.906 1.741-3.328 2.012-.432.277-.933.479-1.278.859-.243.268.476 1.283.183 1.07-2.897-2.106-7.61-2.856-7.436-2.423.911 2.257 5.187 2.063 5.975 4.104.602 1.558-5.932 2.268-4.332 4.68 1.626 2.451 6.998 2.038 9.395 1.602.707-.129 2.533-1.02 1.825-1.15-1.582-.287-.116.91 1.552.864 1.113-.031 3.486-1.348 3.332-.245-.01.08-1.112 2.564-.091 2.257 2.35-.704 2.16-5.658 2.324-7.514.104-1.19.009-4.561-.594-3.531-1.375 2.35 2.984 6.116 3.926 4.639.938-1.472-7.87-7.995-8.532-9.32-.451-.903 1.382-2.322 1.69-3.12.324-.844-.745-2.04-.138-2.71.594-.655 3.304-.053 3.602-.655.912-1.846-3.082-6.197-4.195-7.432-1.54-1.708-1.6-4.752-4.017-2.137m93.665 4.639c.811 2.108-5.794-.948-6.618 1.15-1.056 2.685 4.713 3.272 4.29 5.174-.505 2.274-5.54 5.723-2.784 8.498.523.527 1.942.173 2.236.618.769 1.165-4.937-.274-4.518 2.299.205 1.266 3.212 1.629 3.332 2.543.338 2.582-8.906 3.667-7.664 5.092 2.738 3.142 7.917 4.56 11.863 4.477 1.597-.034 6.231-.117 4.743-.697-1.031-.402-2.227-.124-3.241.124-.873.214 1.68.678 2.419 1.187 1.516 1.044 3.762.375 5.336.042.674-.143 1.79 1.147 2.008.493.433-1.297-3.053-4.602-3.601-5.83-1.13-2.53-.868-5.546-2.146-7.966-.489-.927-2.998.874-1.506 2.261.574.533 1.92.61 2.374-.124 1.408-2.28-3.92-2.817-4.656-4.067-.433-.735 8.172-2.009 7.03-6.568-.515-2.051-2.852-9.09-1.507-10.635m85.357.083c-2.502-.897-8.504-3.511-7.527 1.888.166.917 1.512 2.23 1.187 3.327-.466 1.574-2.765 1.535-3.012 3.407-.556 4.2 4.039 4.492 6.705 5.83.273.137-4.277 2.01-5.2 4.805-.846 2.568 3.605 2.325 4.287 3.859.082.183-3.187.541-4.651 1.764-1.518 1.266-1.641 3.97.274 4.929 1.182.592 1.536.564 2.551 1.394 2.08 1.7 9.824-2.455 13.187-1.68 1.72.396 3.404.486 5.154.655.219.021.859.166.639.166-.307 0-.249-2.923-.913-3.572-1.109-1.084-2.912-1.433-3.83-2.631-1.01-1.32-.367-2.706-.73-4.145-.13-.516-1.37-.29-1.37-.822 0-.735.96-1.175 1.142-1.888.096-.38-.23-2.235-.046-2.465 1.96-2.454 4.764-.915 2.967-4.514-2.772-5.552-13.585-8.645-10.814-10.307 2.219-1.331 4.378 2.765 6.66 3.983.878.468-2.069-1.877-1.415-2.626 1.683-1.928 8.303-2.88 1.507-3.12m87.639 2.501c-4.389 1.664-5.212.483-6.02 4.187-1.734 7.942 3.627 6.814 2.414 11.004-.78 2.696-6.187.51-6.705 2.751-.351 1.518 2.094 2.927 2.328 4.519.08.55-1.322 5.534-.868 5.83 1.926 1.255 9.433 1.426 11.864 1.394 2.045-.026 5.108 1.473 5.61 1.108 6.69-4.866-2.873-3.4-3.424-4.639-.296-.666.192-2.788 0-3.531-.083-.323-2.173-3.602-2.095-4.021.213-1.145 4.217-.41 4.925-1.19 1.789-1.97-3.184-4.894-3.83-6.61-.856-2.28 9.005-8.82 1.776-10.474-1.944-.445-3.983-.218-5.975-.328zm-349.782 1.316c2.14-.549-7.096.924-6.889 3.49.208 2.565 4.612-4.691 6.889-3.49 7.738 4.08-8.372 13.005-4.56 13.713 1.571.293 3.588.008 5.016-.738 5.877-3.07 1.642-8.985-.456-12.975zm42.382 2.054c-8.797 8.129.759 3.087-.457 8.211-.546 2.3-5.284 6.741-.498 7.349 1.867.237 3.607-2.203.909-1.519-2.593.657 5.18 1.408 6.983-5.382.274-1.03 2.174-13.858-.593-8.415m46.988-.041c-10.992 2.525-4.124 2.017-3.374 7.967.184 1.457-1.161 4.515-.365 5.871 1.3 2.212 9.234 2.54.046-1.93-1.032-.501 4.512.488 6.842-2.672 2.078-2.817-2.755-8.46-3.15-9.236zm39.054 3.9c-11.36 4.249-5.03 4.363-.182 7.677 3.523 2.409-4.78 7.335-3.059 8.211 6.092 3.102 4.55-6.46 5.615-8.784 2.292-5.004 9.593-8.901-2.374-7.104zm56.523-7.842c-11.562 3.682-10.871 5.028-1.871 9.32 1.977.942-1.198 2.361-1.365 3.41-.206 1.293 4.545 1.696 6.158-1.274.818-1.507 1.524-3.612 2.053-5.257.477-1.48-1.096-.563-1.688-1.311-1.219-1.54-2.191-3.259-3.287-4.888zm44.756 3.407c.105-.24-7.221-4.48-7.573-1.233-.129 1.19.807 2.336 2.191 2.382 1.833.06 4.638-2.826 5.382-1.15 1.072 2.415-3.654 7.93-1.643 11.54 1.377 2.473 7.914-6.61 7.39-7.925-.838-2.102-3.818-2.432-5.747-3.614zm49.316 3.161c.201-3.426-6.11-3.384-5.839-.655.045.447.365.821.548 1.232 1.764-.192 5.038-2.332 5.29-.577 1.188 8.246-4.269 5.72-4.834 10.39-.287 2.383 4.576 5.422 6.432 3.615 1.329-1.294-.984-3.195-.32-3.905 1.678-1.791 2.574-3.928 4.063-5.909 3.301-4.393 1.517-3.403-5.34-4.19zm40.606-2.049c-4.025 6.041-3.556 7.65 2.186 10.303 3.6 1.662-.204 2.907.137 2.875 3.01-.284 2.627-3.989 1.643-6.079-1.154-2.452-2.644-4.733-3.966-7.1zm54.698.614c-3.856-.944-5.25-1.762-7.208 1.19-2.936 4.427 2.411 5.299 2.51 9.117.044 1.687-3.645 2.045-3.606 2.05 3.628.44 6.152-1.34 7.12-5.092.614-2.375.789-4.843 1.183-7.265zm38.962 0c5.988 3.66-9.266-3.307-8.942-.328.397 3.654 5.715 6.541 7.71 9.361 1.211 1.712 2.325 3.813 3.15 5.747.168.396-.993 1.408-.731 1.066 1.184-1.546 5.537-6.15 4.514-8.373-1.309-2.847-3.8-4.982-5.701-7.473zm-640.253 13.755c-.624 1.56-1.118 3.179-1.872 4.68-1.45 2.89-3.637 5.435-5.108 8.337-.713 1.406-4.704 16.686-3.377 17.49.138.083.614-.537.912-.656 2.412-.962 5.82-1.024 8.35-1.398 3.248-.482 6.467-.22 9.717-.532 3.707-.355 7.323-1.381 11.037-1.643 2.86-.201 5.437.622 8.349.411 3.882-.28 7.617-.96 11.407-1.602.306-.052 5.78-.697 3.606-.697m-37-22.133c14.9-3.996 30.272 1.676 45.303.739 6.33-.395 8.567-.912 8.53-.78-.309 1.125-2.844 1.644-3.742 1.93m-62.137 34.817c5.644-1.904 11.261-.63 17.016-.286 10.51.627 21.05.41 31.573.535 3.062.036 5.812.898 8.942.697.804-.052 2.628-1.216 2.374-.452-.201.602-.717.766-1.142 1.108m-56.07 8.17c-3.774 1.691 4.238 9.564 3.332 9.61-.686.034-2.283.453-2.283 1.436 0 .458 6.367 4.319 3.424 1.643-.476-.432-1.82-1.412-1.187-1.519 10.896-1.834 22.398-.85 33.394-1.232 10.165-.354 9.793-2.129 7.162.203-.045.04 4.071.285 2.145.66m-41.104 15.726c1.163 6.888.15 13.799-.045 20.776-.148 5.285-.959 10.522-.959 15.805 0 2.947.874 5.906.502 8.83-.463 3.645-2.183 6.718-2.464 10.51-.729 9.828.36 19.87.273 29.727-.014 1.628-2.834 26.242-1.551 26.112 1.078-.109 1.2-1.807 1.734-2.75m13.365-78.711c9.699-7.18 20.175-17.854 32.851-19.295.176-.02-.548.404-.548.328 0-.29 3.122 1.473 3.739 1.764 2.88 1.357 7.707 3.64 9.444 3.406m-39.826 14.125c11.037.374 22.083-.29 33.12-.531 1.384-.03 2.807-.416 4.15-.083.584.144-.855.846-1.278 1.273m-37.955 13.179c-3.23 17.276-3.64 34.868-1.278 52.27.602 4.431-.883 8.98-1.369 13.382-.207 1.875 1.17 4.914-.183 3.49m-21.896 7.68c-1.592-.606-8.142 8.61-4.473 10.47 1.636.829 4.308.866 6.025.617 1.301-.188 2.562-.598 3.83-.946.298-.081.76-.617.867-.327.705 1.891 8.836 1.077 10.63 1.19 9.288.588 18.351 1.418 27.694 1.025 1.126-.047 2.62-1.083 3.373-.245.834.928 1.306 1.356 2.602 1.56m-40.694-17.904c9.355 2.252 6.202 2.283 14.005 1.892 8.12-.407 16.302-.806 24.407-1.481 2.027-.169 4.038-.81 6.066-.656 1.168.088 3.26 2.24 1.278 2.465m-52.146 30.548c1.264-9.91 7.44-3.883 5.387-2.257-1.526 1.208-4.863.382-5.386 2.257-.86 3.083 1.534 6.218 2.145 9.36.55 2.83-.419 2.002.685 4.806.686 1.744 3.342 3.82 3.286 5.747-.004.138-5.223 15.177-.183 2.71m56.889-33.503c-1.918 12.498-3.978 26.399-1.963 39.129.149.937-.185-1.89-.274-2.834m-4.925-25.867c-15.175-8.034-17.682-1.068-34.581 5.83 11.237 2.285 22.69.721 34.079 1.273 2.997.146 3.514-.609 3.514 1.602m-34.216 5.253c.308 2.252.252 4.555.042 6.818m793.317-19.544c12.857-5.26 12.17-4.472 24.863 2.382.728.393 7.452 3.992 8.257 5.05m-31.249.941c2.098-.095 4.196-.371 6.295-.286 6.365.259 13.657 2.402 19.8 3.448 1.836.313 7.301.756 5.474 1.112M503.737 327c-.719 13.603.679 27.83-1.187 41.386-.143 1.037-5.488 13.24-3.739 15.15 2.425 2.645 5.119-1.136 2.37-3.86m-24.453-52.062c8.486-2.21 16.85 2.095 25.229 2.095.587 0-1.264.43-1.46.984m-19.25-54.034c5.322-1.644 21.385 1.721 23.95.124m-38.78-103.511c2.816-.117 5.456-.746 8.12-1.56 10.908-3.333 11.83-6.264 20.304-1.311 1.994 1.166 14.814 8.037 12.817 7.141m-31.478 8.992c10.847-5.617 23.687-.28 35.084 1.357m-31.706 8.784c1.772-.926 18.023-.433 18.067-.37 3.741 5.485 2.441 39.794 1.73 48.001-.62 7.15 1.326 9.93 1.46 15.726.032 1.339-.972 11.327-.273 12.274.614.832 1.961-.53 2.373-1.066m-24.909-152.574c16.128-3.151 32.446 1.474 48.586-1.029 1.018-.158 2.07-.748 3.058-.452.722.216 7.264 3.264 5.427 1.19m-61.772-35.473c14.486.37 29.117 2.266 43.569.494.537-.066 7.577 1.696 7.577 1.15 0-.1-.839-.03-.73.452.095.426 1.133 1.177 1.365 1.56 1.388 2.293 2.195 4.442 2.282 7.183.11 3.448 1.951 6.817 2.647 10.265.427 2.114-.15 4.338.593 6.407.473 1.316 1.296 7.408 1.963 5.913m-9.353 13.178c4.392 4.9.163 7.577.776 12.399.342 2.688 4.325 2.723.502 2.22" style="fill:none;stroke:#000;stroke-width:5.07499943;stroke-dasharray:none;stroke-opacity:1;stroke-linecap:round" transform="translate(351.896 245.798)"/><path d="M472.077 141.123c14.554.943 29.237.241 43.888.493 2.935.051 9.158-1.015 11.083 1.436m1.096 13.797c-4.82 7.956-.972 15.9-1.324 24.307-.283 6.757-.636 13.382-.502 20.162.083 4.19 1.164 8.261 1.37 12.44.157 3.206-.505 6.438-.183 9.647.281 2.809 1.362 5.329 1.734 8.088.44 3.264-1.216 6.14-.867 9.402.247 2.315.835 4.512.867 6.86.038 2.766-.452 5.462-.502 8.21-.062 3.4.847 6.595.685 10.017-.052 1.102-2.726 11.743-1.37 11.743.525 0-.003-1.713.137-2.34m.594 16.386c-.137 2.326-.47 4.65-.411 6.98.767 6.039.821 4.83.821 10.427 0 9.1-.801 18.127 0 27.224.535 6.066 2.94 11.849 2.785 17.984-.162 6.383-1.872 12.56-2.556 18.842-.223 2.047-.14 6.869-.183 6.984m-47.581-92.304c14.89.33 29.466 2.083 44.34.905 1.116-.089 4.104.349 5.843-.656.21-.121-3.616-1.104-4.108-1.191-2.135-.375.406-3.558-.274-4.187-.715-.661-5.076-1.875-2.465-2.423M-28.076 338c-3.666 14.147-2.61 28.61-2.735 43.033-.054 6.31 1.683 6.935-.958 7.02m-250.371 7.636c21.163-3.767 42.815-3.225 64.233-4.187 5.563-.25 11.036-1.53 16.606-1.726 5.621-.197 11.044 1.954 16.651 1.768 2.982-.1 5.836-1.152 8.85-1.233 9.516-.254 19.015.55 28.516.863 13.82.456 27.57.556 41.377 1.233 7.035.344 14.014 1.518 21.034 2.05 13.418 1.015 26.92.708 40.328 2.053 6.217.624 12.41 1.907 18.66 2.137 15.476.57 31.125-.728 46.581-1.481 20.085-.979 40.255.184 60.357-.245 12.646-.27 25.168-1.778 37.864-1.519 4.673.096 9.408 1.44 14.1 1.805 12.268.956 24.469 1.393 36.767 1.685 5.763.137 11.445 1.602 17.2 1.602 9.564 0 18.818-2.422 28.469-2.179 4.217.107 8.274 1.024 12.456 1.44 10.16 1.013 20.808 1.792 31.021 2.013 12.639.273 24.402-5.293 37.092-5.092 20.814.33 41.51 2.312 62.32 2.751 10.57.224 20.984-.611 31.523-1.07 7.317-.319 14.71.357 22.037.41 8.76.064 17.566.227 26.32.125 2.915-.034 5.844-.544 8.763-.328 5.844.433 16.32 1.541 20.208.245m-806.819-83.942c3.698 22.229-8.46 40.014-4.24 63.025.003.022 1.554 6.211 1.684 7.062.157 1.03-.853 3.003.183 3.12.565.065.87-1.074 1.46-1.024 9.382.8 18.598-1.793 27.967-1.643 5.391.086 10.714 1.2 16.104 1.273 2.373.033 2.823-.008 4.838-.166.32-.025 1.164-.329.959-.083-.186.223-4.426 1.55-3.834 1.971 1.158.826 1.372-.235 2.327-1.149" style="fill:none;stroke:#000;stroke-width:5.07499943;stroke-dasharray:none;stroke-opacity:1;stroke-linecap:round" transform="translate(351.896 245.798)"/><path d="M-315.539 320c-2.29 16.394-3.185 33.04-2.917 49.597.053 3.23 1.622 9.476.046 12.772-.53 1.109.541-2.4.73-3.614" style="fill:none;stroke:#000;stroke-width:5.07499943;stroke-dasharray:none;stroke-opacity:1;stroke-linecap:round" transform="translate(351.896 245.798)"/><path d="M471.537 386.693c16.29 1.623 32.519 2.678 48.89 2.202 4.605-.135 7.615 2.268 9.831-.522" style="fill:none;stroke:#000;stroke-width:5.07499943;stroke-dasharray:none;stroke-linecap:round" transform="translate(351.896 245.798)"/></svg>