<svg xmlns="http://www.w3.org/2000/svg" width="277.726" height="123.496" viewBox="0 0 260.368 115.777"><path d="M215.162 321.012c9.965-9.45 21.024-17.473 31.542-26.305 7.534-6.55 15.088-12.939 21.726-20.416 5.757-6.55 12.54-12.26 19.467-17.709 8.698-8.383 19.635-13.83 28.688-21.63 10.722-7.818 19.854-17.425 28.887-27.077 7.14-4.464 13.458 8.496 21.464 10.013 12.58 8.837 22.477 20.96 34.281 30.616 6.778 5.625 11.426 13.355 18.572 18.426 6.875 6.082 15.977 13.524 22.133 20.077 10.432 7.578 17.922 19.092 29.82 24.913-.095 1.022 2.59 3.573 2.02 1.01" style="fill:none;fill-rule:evenodd;stroke:#000;stroke-width:2;stroke-linecap:butt;stroke-linejoin:miter;stroke-miterlimit:4;stroke-dasharray:none;stroke-opacity:1" transform="translate(-214.474 -205.96)"/><path d="M220.213 318.991c13.753-2.189 27.687-2.085 41.551-2.177 19.162-2.308 38.463-1.917 57.715-1.823 9.354-1.322 18.748-1.086 28.074-2.69 14.322-1.187 28.732-.21 43.021.835 8.967-1.789 17.793-.51 26.728-.199 12.985-.158 26.004.638 38.882-1.343 3.43-.47 16.327-.361 13.351-.605-1.957-.085-3.916-.091-5.875-.079M284.863 258.382c5.91 3.371 10.687 8.391 16.348 12.128 7.299 3.792 12.656 10.12 19.565 14.348 8.35 2.962 12.625 11.202 20.271 15.258 5.386 3.004 10.157 9.126 15.318 11.06l-.791-1.276" style="fill:none;fill-rule:evenodd;stroke:#000;stroke-width:2;stroke-linecap:butt;stroke-linejoin:miter;stroke-miterlimit:4;stroke-dasharray:none;stroke-opacity:1" transform="translate(-214.474 -205.96)"/><path d="M416.183 264.443c-4.483 3.75-8.807 6.722-11.847 11.95-4.66 3.828-10.7 9.678-15.715 12.298-1.322 2.68-5.324 4.163-9.814 8.077-2.002 1.492-5.34 1.574-6.06 4.04-3.238 1.743-6.053 2.271-8.082 5.051-3.888 1.514-5.07 2.623-8.081 5.051-2.396.592-2.344 2.322 1.01 0M254.558 287.677c1.049 4.681 6.03 6.457 9.09 9.574 2.314 1.717 4.845 3.024 7.01 4.935 3.621 1.52 5.01 5.186 7.679 7.773 2.357 1.844 5.186 3.969 8.216 4.124l.33-.142M443.457 288.687c-5.383 3.494-9.993 7.765-14.67 10.069-2.513 2.118-5.226 3.81-6.543 5.083-1.804 1.596-3.35 2.803-5.522 4.641.566 1.164-3.46 3.187-4.758 4.956.066 1.167 1.529.24 2.199.505" style="fill:none;fill-rule:evenodd;stroke:#000;stroke-width:2;stroke-linecap:butt;stroke-linejoin:miter;stroke-miterlimit:4;stroke-dasharray:none;stroke-opacity:1" transform="translate(-214.474 -205.96)"/><path d="M320.218 233.128c29.145 28.313 63.477 50.727 91.924 79.803" style="fill:none;fill-rule:evenodd;stroke:#000;stroke-width:2;stroke-linecap:butt;stroke-linejoin:miter;stroke-miterlimit:4;stroke-dasharray:none;stroke-opacity:1" transform="translate(-214.474 -205.96)"/><path d="M383.858 231.108c-4.733 1.996-6.963 6.032-11.112 8.081-1.601 1.476-5.165 2.733-6.06 5.051-3.905 1.96-6.68 4.743-9.092 7.071-2.153 1.224-6.207 5.031-8.55 7.16-1.264 1.796-4.792 3.45-6.602 5.972-2.4 1.217-3.338 3.428-6.566 5.556-2.805 2.53-5.366 4.215-8.058 6.599-1.937 1.551-3.415 2.521-6.59 5.018-3.115 2.457-7.858 6.373-11.111 10.101-1.811.003-3.607 3.168-6.061 4.04-2.181.925-3.27 3.157-5.05 4.547-2.152 2.721-3.326 3.55-5.557 5.555-1.572 1.555-5 2.173-5.84 3.694-1.197 1.58-7.65 4.134-1.801 3.304l.065-.937M366.685 216.966c-11.945 7.7-21.23 18.801-32.668 27.188-7.285 7.23-14.97 14.06-23.618 19.64-4.903 4.337-11.001 7.133-15.53 11.895-7.889 7.587-16.996 13.76-24.7 21.54-7.237 6.365-14.12 13.11-21.46 19.331-2.468 2.043 1.191-1.655.799-.599" style="fill:none;fill-rule:evenodd;stroke:#000;stroke-width:2;stroke-linecap:butt;stroke-linejoin:miter;stroke-miterlimit:4;stroke-dasharray:none;stroke-opacity:1" transform="translate(-214.474 -205.96)"/><path d="M335.37 219.997c3.424 6.524 12.056 6.438 16.596 11.739 7.362 1.898 10.733 9.546 16.74 13.514 3.98 5.069 8.93 9.349 13.822 13.47 5.237 4.003 9.535 9.152 14.47 13.403 3.53 3.664 6.4 7.974 10.378 11.291 3.673 3.62 7.607 6.773 11.69 9.981 3.526 3.242 7.499 6.13 10.891 9.207 2.239 2.007 5.819 6.313 8.64 8.951l-.275.246-.926.121M301.025 247.27c12.117 9.54 26.056 16.459 38.305 25.833 15.68 8.22 24.26 24.022 37.52 34.97l2.02 1.892 1.958 1.955" style="fill:none;fill-rule:evenodd;stroke:#000;stroke-width:2;stroke-linecap:butt;stroke-linejoin:miter;stroke-miterlimit:4;stroke-dasharray:none;stroke-opacity:1" transform="translate(-214.474 -205.96)"/><path d="M396.99 248.28c-4.873 4.718-9.053 10.217-14.991 13.717-6.143 4.46-11.233 10.194-17.457 14.58-5.641 6.022-12.817 10.172-18.693 15.925-7.166 5.193-14.989 9.452-21.646 15.327-2.958 2.428-7.35 4.382-8.571 8.099.567.503 1.304-.875 1.556-.977M383.858 310.91c6.912-5.032 13.777-10.22 21.094-14.604 6.79-6.807 14.339-12.778 21.85-18.682 1.103-.323.773-1.854-.518-1.059M236.376 301.819c3.341 2.923 4.482 5.255 7.07 8.081.948 2.304 3.175 3.054 4.491 5.185 1.457-1.078 4.596 3.659 4.601.876M452.548 298.788c-1.845 2.61-4.102 4.949-6.811 6.667-.757.627-.883 1.7-1.854 2.152-1.746 1.23-3.756 2.037-5.477 3.303-.046 1.36-1.596 1.948-2.444 2.79-.488.586.133.283.424.24M268.7 270.504c4.083 8.338 14.128 10.722 20.626 16.7 5.861 5.535 13.001 9.548 17.99 15.944 2.841 2.943 6.692 8.091 9.872 8.772" style="fill:none;fill-rule:evenodd;stroke:#000;stroke-width:2;stroke-linecap:butt;stroke-linejoin:miter;stroke-miterlimit:4;stroke-dasharray:none;stroke-opacity:1" transform="translate(-214.474 -205.96)"/></svg>