<svg xmlns="http://www.w3.org/2000/svg" width="159.124" height="300.651" viewBox="0 0 149.179 281.86"><path d="M340.926 345.255c-.364 2.502 2.444 3.456 4.041 2.02m.505-7.575c-1.439 1.96-1.655 5.735.505 5.808.493 1.24.321-.78 1.01-.253m-.505-10.101v5.556c1.184.925.932 1.965 1.516 2.525m2.02-2.525c2.006 2.09.172 4.273-1.786 4.59-.383.115-.276-.38-.234-.55m1.01 2.526c-.502 2.355-1.826 4.824-3.094 3.22.165.405-.25 1.118.568.82m-1.515 2.021c-.232 1.762-1.956 3.845-.197 4.616 1.89-.238 2.237 1.449 2.722 2.707.195 1.465 1.345 2.048 1.768 3.283.69.92.787 2.391 1.768 3.03.362 1.425.819 2.59 1.582 3.761.33 1.11.942 2.235 1.954 2.806.487 1.107 1.537 1.808 2.805 1.953 1.087 1.216 3.835.809 3.508 3.097 1.07 1.463-.725 4.878-.505 5.556.559 1.588 1.171 1.813 2.778 2.526 1.702.755.487 3.51.067 4.826-1.586.971-.056 4.158 1.448 2.75-.352 2.645-1.51 4.59-1.466 7.564-.628 2.41-1.166 3.792-1.06 6.397-.003 2.078.006 4.177 0 6.242-1.393.25.376 3.486-1.054 3.77.106 2.607.011 5.233.045 7.847-1.027 1.01-1.533 2.34-2.02 4.33-.432 1.468-1.633 2.68-2.526 3.498-1.816.42-2.747 1.762-2.526 4.293-.03.883-.115 4.545.506 2.02" style="fill:none;fill-rule:evenodd;stroke:#000;stroke-width:1.5;stroke-linecap:round;stroke-linejoin:miter;stroke-miterlimit:4;stroke-dasharray:none;stroke-opacity:1" transform="translate(-297.42 -334.393)"/><path d="M346.482 347.78c2.09-2.383 4.025-1.895 5.556-.504l-.19.063-.315-.063m-5.051 5.05c3.57-.59-.546 4.265 2.67 4.548.053.64 1.939 3.804 2.381 5.049.872.93.995 2.539 1.768 3.535.482 1.142 1.621 2.566 1.768 4.041 1.866.346 4.213 1.909 6.081 2.02 1.427.174 3.528-.343 4.525.253.61-.14 3.3 1.194 3.03.252m1.011-1.01c-.02 2.345-.86-2.127-1.011-2.236-.222-2.292-1.49-3.067-2.592-4.554-1.374-1.403 1.099-2.204.572-2.301.32-2.32 1.065-2.625 2.526-3.536-.995 3.043 2.594 2.457 1.629-.134 1.623-2.12 4.078-1.44 4.937-.37 1.397.289 1.513 2.688 2.273 3.535-.426 2.261 1.513 3.459 1.01 5.05-.71.891-1.778 1.422-2.273 2.526-2.372 1.905.564 3.226 3.22 1.986 2.161-.147 3.209.431 4.076 1.617 1.185.193 2.183 1.1 2.3 2.458 1.434 1.581.702 5.443 1.516 7.576 1.258.946 2.294 2.518 2.458 3.816.807.947 1.343 1.867 1.582 3.255 1.734.57 1.206 3.29 1.768 5.05.292.707.71 3.736-.253 4.042.119 1.673-.024 3.322-.438 4.32-.334 1.163-.908-.471-.572-.785" style="fill:none;fill-rule:evenodd;stroke:#000;stroke-width:1.5;stroke-linecap:round;stroke-linejoin:miter;stroke-miterlimit:4;stroke-dasharray:none;stroke-opacity:1" transform="translate(-297.42 -334.393)"/><path d="M387.394 392.228c.004 1.85-.006 3.719 0 5.555.55.97 1.062 2.012 2.02 2.526.966 1.84 2.224-2.81 1.01-3.283-1.803-.128-.492-3.112-2.77-2.97a8.5 8.5 0 0 0-.26-1.828zM363.15 414.45c2.076-1.713 2.547-1.81 3.535-3.535 1.405-2.499 1.729-5.672 3.536-7.576 1.001-1.05.707-1.894 1.515-2.525m-.333-19.911c-1.374.242-2.203 1.317-2.814 1.808-.604 1.097-1.516 2.284-2.01 3.474-.555.137-1.131 1.454-1.8 2.364.05.449-.81 1.626-.41 1.8m10.049-9.245c1.487-.582 2.326 1.781 3.014 3.014.253.996 1.007 2.176 1.608 3.216.66 1.088 2.331 1.334 3.216 2.411 1.098.536 1.585 2.135 2.411 3.015.448.975.974 2.2 1.206 3.417.316-.21.342 1.711 0 1.607m-12.863-12.46c1.256 1.937.8 4.66.604 6.895.274 2.345-.626 4.093-.603 6.215.074 1.384-.315 3.231.603 3.772.928 1.21-.186 3.597.603 4.823.326 1.57 1.843 1.52 2.813 2.211 1.214.208 1.314.91 2.01 1.608.005 2.263 2.903.141 3.417 2.814.62 1.725 1.981 1.814 1.808 3.416.77.786.855 3.612 1.394 1.398.58-1.394-.13-3.48-.032-5.001-.785-2.426-.05-5.59-.759-7.651-1.173-1.325-.826-3.564-1.205-5.025-.557-1.959-.555-3.618-1.206-5.225-.557.147-.153-.865-.603-.804m10.651 9.848c.276-1.53.837 4.815.804 6.23-1.038 1.644-1.009 3.89-.402 5.828-.244 1.852.587 2.954.402 4.73-.057 2.505.296 4.936-.804 6.927-.067 1.28-1.147 2.104-1.808 2.813-.429 1.303 2.326 2.065 1.206 3.819-.577.93-1.75 1.35-2.412 2.01-.636.614-1.265 1.058-1.809 2.01-1.064.661-1.25-1.03-1.608-2.211-1.106-1.183-1.266-2.464-1.215-4.456.184-1.902 1.641-5.225-1.598-3.985-1.267 1.074-.5 3.517-.603 5.426-.675.117-.21 4.7.2 2.21m-29.744 5.829c-.464-.389-4.567 2.156-2.411 1.809m9.244-.603c2.37-1.171 7-1.944 9.245-.804m5.828-.603c5.366-.59 11.398 1.584 16.079 2.613m-34.569-4.22c8.849-1.87 18.256-2.468 27.237-1.071.138.225 5.826 1.541 4.317 1.875" style="fill:none;fill-rule:evenodd;stroke:#000;stroke-width:1.5;stroke-linecap:round;stroke-linejoin:miter;stroke-miterlimit:4;stroke-dasharray:none;stroke-opacity:1" transform="translate(-297.42 -334.393)"/><path d="M355.124 438.382c9.25-2.26 19.166-4.3 28.517-1.46.461.796 3.3.092 2.835 1.46m-9.848-23.917c-2.147.382-3.988.418-5.426 1.407-.726.377-2.338 1.59-1.206 2.412 1.015.408 2.072 1.299 3.54 1.206 1.173-.278 2.76 1.442 1.083 1.809-1.059.783-2.144 1.238-3.216 1.607-.64.6-2.02.969-2.412 2.211.116 1.583 1.615 3.227 0 3.819-1.719.813-1.003 1.765.402 1.809-2.449.742-4.138 3.127-4.622 4.823.134-.067.57.167.402-.201m11.254-24.921c.876 1.275-.084 3.518 1.005 4.421" style="fill:none;fill-rule:evenodd;stroke:#000;stroke-width:1.5;stroke-linecap:round;stroke-linejoin:miter;stroke-miterlimit:4;stroke-dasharray:none;stroke-opacity:1" transform="translate(-297.42 -334.393)"/><path d="M369.594 406.627c.854 2.496.253 5.687-.2 7.838.098.657-.771 4.602.2 4.02m0 2.814c0 1.391-.671 3.3-.2 4.421v.201m5.225-9.848c.098 1.877.456 4.699.603 5.829m5.225-7.437c-.403 2.068-.395 4.113-.603 6.215-.136 2.156.4 4.608-.603 6.447-.318 2.458-.874 4.964-.2 7.235m2.009-17.082c.019 2.433.802 4.555.603 7.08-.146 2.283.347 4.302.2 6.585-.272.63-1.054 2.068-.2 2.211" style="fill:none;fill-rule:evenodd;stroke:#000;stroke-width:1.5;stroke-linecap:round;stroke-linejoin:miter;stroke-miterlimit:4;stroke-dasharray:none;stroke-opacity:1" transform="translate(-297.42 -334.393)"/><path d="M375.222 416.676c.786.421 3.66-1.735 2.813-.603-1.772 1.528-2.614 3.149.201 1.206 1.814-1.809-1.426 1.96-1.608 1.608-2.61 2.109.708.698 2.01.2.062.919-2.54 2.663-3.015 3.82 1.001.652 4.496-2.385 2.01.2-1.365 1.73-5.679 3.512-1.608 1.005 2.951-1.434-.144-.4-1.543.47-1.355.77-4.622 2.222-1.672.535 2.503-1.87 2.359-1.787-.402-.402-2.053 1.025-1.728.869.2-.2 1.79-.97 2.918-1.286.805.401-1.345 1.26-1.957 1.088-2.412 2.412 1.806-.356 4.185-2.475 5.581-2.45-1.99 1.573-4.827 2.884-6.78 4.28-2.075 2.11 4.283-1.673 5.425-2.119 2.18-1.52 3.956-1.412.597.289-2.184 1.58-4.08 1.896-6.632 4.22 2.232 0 5.26-2.922 7.838-3.416-.895.644-4.61 2.796-6.23 4.22-3.231 3.055 3.039-1.267 4.657-1.725 4.075-1.77-2.859 1.276-4.054 1.926-2.064.319-5.806 2.92-1.809 1.407 2.332-1.218 6.461-2.968 7.838-3.818-1.092 1.233-5.418 2.53-6.029 4.02 1.117-.84 3.523-1.778 4.622-2.212 1.495-.178-2.4 1.305-2.612 2.211 1.06.21 3.582-2.039 2.813 0-.024.374.86.744 1.206.201m-8.441-24.72c-.789 1.866-1.391 3.34-2.01 5.426-1.088 2.804-1.974 5.675-2.813 8.441-.4 1.65-1.29 2.73-1.809 4.22-.777 1.876-.795 3.898-1.809 5.628.341.484-1.996 3.253-1.206 2.01" style="fill:none;fill-rule:evenodd;stroke:#000;stroke-width:1.5;stroke-linecap:round;stroke-linejoin:miter;stroke-miterlimit:4;stroke-dasharray:none;stroke-opacity:1" transform="translate(-297.42 -334.393)"/><path d="M363.364 415.671c-1.985.558 1.876-1.995 3.015-2.813 2.026-.938-2.456 1.532-3.015 2.813-2.007 1.43-.86 2.19 0 0 1.6.31 4.862-3.506 3.618-1.406-2 1.645-3.94 3.747-5.628 5.426.706-.78 5.867-4.27 4.22-2.814-2.082 2.056-3.688 2.995-4.42 4.22-.424 1.257 3.862-1.926 3.416-1.406-1.372 1.766-4.307 4.653-1.608 2.613 2.696-1.664-.753 1.305-1.407 2.21-.15 1.2 3.359-1.489 1.005.603-1.74 1.27-.317 2.329.201 2.412-1.978 1.4-2.446 3.285-1.809 3.015-.437.982-2.055 2.753-1.005 1.808.207.367-3.846 2.856-1.808 2.211 2.334-1.214-3.177 1.285-.603 1.005m4.622-51.45c1.963-2.209 4.197-4.366 7.235-5.426 1.645-1.163 3.258-1.76 5.226-1.206" style="fill:none;fill-rule:evenodd;stroke:#000;stroke-width:1.5;stroke-linecap:round;stroke-linejoin:miter;stroke-miterlimit:4;stroke-dasharray:none;stroke-opacity:1" transform="translate(-297.42 -334.393)"/><path d="M364.77 382.711c2.307-.494 1.372-2.55 0 0-2.797.788-1.45 2.781 0 0 2.105-.062 3.571-1.626.805.804-1.955 1.226-1.85 2.581.603.402 2.378-1.074-2.397 2.365-1.81 3.015 1.23-.636 6.04-3.582 1.81-1.206m2.412-21.504c.545.15 2.336-.49 1.808-.402m3.618-.201c.057.812 1.251.335 1.808.603m-4.019 1.808c-1.5 1.541 1.543-.095.804.201m-1.809 3.216c1.42-.128 2.127.512 3.015-.402m-2.211-8.441c1.34.223 2.97-1.696 4.22-.603.664.189.615 1.445 1.608 1.206m1.005-2.211c.518 1.25.176 1.75-.603 2.21m-7.234 77.979c-2.197 1.82-1.543 4.472-1.842 4.874 2.601 3.763 9.078-.925 3.449-3.266" style="fill:none;fill-rule:evenodd;stroke:#000;stroke-width:1.5;stroke-linecap:round;stroke-linejoin:miter;stroke-miterlimit:4;stroke-dasharray:none;stroke-opacity:1" transform="translate(-297.42 -334.393)"/><path d="M356.53 444.21c-1.952.632-3.177 1.406-4.823 2.21-.386 1.555 2.534 2.1 4.02 2.412 5.166.766 10.018-.907 15.138-.402 4.806.162 9.439-.45 14.003.201 1.522-.295 5.342-1.265 2.814-1.808-.377-1.273-2.468-.825-3.417-1.81 1.975.231 4.97 2.076 7.236 1.207 1.251-.318 1.028-2.686 3.014-1.81.807.764 2.312 2.98 1.206 4.422-2.172 1.602 1.705 1.577 1.005 3.819-.341 3.876-2.128 2.228-4.22 1.206-2.192-.975-4.389-1.644-6.03-2.814-2.08-.286-2.719-1.317-4.957-1.206-1.14.08-3.094.678-3.484.603" style="fill:none;fill-rule:evenodd;stroke:#000;stroke-width:1.5;stroke-linecap:round;stroke-linejoin:miter;stroke-miterlimit:4;stroke-dasharray:none;stroke-opacity:1" transform="translate(-297.42 -334.393)"/><path d="M350.903 444.813c-1.721 1.746-5.123-.037-4.622 3.215-.151 1.537 2.678 1.815 1.005 3.216-.624.865-2.123 2.12-2.01 2.814.632.895 3.026 1.897 4.02.804 1.773-.603 2.62-2.228 4.421-2.814 2.062-.458 4.434-.878 6.833-.603 2.005-.278 3.88-.689 5.628-.603 2.881-.06 4.936-1.664 8.24-1.407 1.864-1.033 2.619.789 4.02 1.005h-.402" style="fill:none;fill-rule:evenodd;stroke:#000;stroke-width:1.5;stroke-linecap:round;stroke-linejoin:miter;stroke-miterlimit:4;stroke-dasharray:none;stroke-opacity:1" transform="translate(-297.42 -334.393)"/><path d="M350.3 445.617c1.804-.351-6.348 3.387-1 1.206 4.658-2.46 4.04-1.099-.387.329-3.824 2.037 5.799-1.086.584 1.48-5.655 2.692 7.176-1.595-.603 1.607-7.697 3.668 9.715-2.939 1.127.794-9.447 5.533 10.857-4.503 1.716.974-9.33 5.902 10.91-5.546 4.194-.55 3.855-1.236 8.974-.844 12.86-1.017m14.872-.2c1.895-.675 10.116-1.986 3.818-.805 6.046-2.612 1.528-3.839-.198-.287 2.673-1.254 9.852-4.562 3.519-.146-9.5 5.145 9.587-4.385 1.032.3-5.12 3.633 7.114-1.267-.735 2.143-1.045 1.305 4.735-1.67.657 1.116 3.866.177.772-.972 2.558 1.095m-24.117-11.858c.794.56 3.25-.424.603 1.809 4.495-2.554-2.015 3.081 2.01.804m-36.377 19.294c.488-2.026 2.032-2.787 3.646-4.059 1.36-.494 2.253-1.6 3.59-2.172 2.571-1.15 5.254-2.883 8.44-2.813 4.647-.853 8.854-1.566 13.868-1.407.98-.695 1.75-1.518 2.813-2.211 3.317-1.099 7.763-1.036 11.054.402.38 3.183 1.66.496 4.823 1.809 2.906.595 6.51.416 8.843 1.407 2.722-.153 4.705 1.076 6.23 2.21 1.422.492 2.537 1.78 4.221 2.211 1.62 1.18 2.517 2.563 2.613 5.225.58-.017.011.547-.201.603m-70.342-1.406c-.544 2.788.49 2.824 2.211 3.818" style="fill:none;fill-rule:evenodd;stroke:#000;stroke-width:1.5;stroke-linecap:round;stroke-linejoin:miter;stroke-miterlimit:4;stroke-dasharray:none;stroke-opacity:1" transform="translate(-297.42 -334.393)"/><path d="M406.574 464.307c.669 1.343-2.45 3.74-1.809 3.216m-61.298 6.431c-1.201-1.746-1.291-3.17-3.617-3.215-1.54-1.057.999-2.873-.201-4.02-.338-2.001 1.66-1.698 2.412-3.014 2.763-1.373 6.535-2.078 9.847-3.015 2.794-.381 5.235-.71 8.24-1.005 2.862-.764 6.02-.875 9.044-1.608 2.526-.128 5.015.032 7.436.603 2.241.722 5.383.264 7.637.804 2.441 0 4.484.806 7.035.804 2.158.269 4.07 1.182 5.627 2.01 1.233.756 2.855.79 3.818 2.01 1.692.158 2.779 1.723 3.216 3.014.24 1.844-1.62 2.348-2.21 3.417-.883.057-.961 1.101-1.81 1.607M368.79 456.67c-1.301-1.887 1.085-2.771 3.015-3.014 2.366-.364 3.716.674 4.622 1.809.386.534-.855 1.857-.402 1.406" style="fill:none;fill-rule:evenodd;stroke:#000;stroke-width:1.5;stroke-linecap:round;stroke-linejoin:miter;stroke-miterlimit:4;stroke-dasharray:none;stroke-opacity:1" transform="translate(-297.42 -334.393)"/><path d="M344.673 478.577c2.09-2.378 5.47-2.695 8.24-4.02 2.279-.217 4.713-1.746 7.637-1.407v.201m23.916.402c2.914.392 6.221 1.376 9.245 2.01 1.776.481 3.174 1.398 4.623 2.01.91 1.127 3.94.964 2.01-1.005-.8-.877-3.283-1.2-3.618-1.407m-9.044-9.044c2.364-.282 4.696.706 6.833 1.407 1.333 1.494 3.078 1.795 4.422 2.814.033.439.732.417.603 1.005m-54.465-.603c1.496-2.067 4.522-3.037 6.632-3.618.95-.242 2.122-.783 3.015-1.206.511-.769 5.068.047 4.22-.402m8.04-2.21c.56 1.899-2.743 2.78-3.819 2.612m14.47-1.809c-1.34 2.674 2.344 4.446 4.422 3.618m-17.887 3.015c.84 1.904.527 4.218 1.407 6.23 1.483.907 1.74 3.042 3.014 3.416 2.286.962 4.978.332 7.034.603 1.287-.432 2.082-1.719 2.877-3.434 1.278-1.175 1.944-4.292 1.545-6.011-.515-.3.761-1.203 0-1.206" style="fill:none;fill-rule:evenodd;stroke:#000;stroke-width:1.5;stroke-linecap:round;stroke-linejoin:miter;stroke-miterlimit:4;stroke-dasharray:none;stroke-opacity:1" transform="translate(-297.42 -334.393)"/><path d="M367.383 460.489c-1.072-.15-3.087 2.418-.2 2.01.317 1.96 1.944 2.61 4.421 2.411 1.771.613 3.648-.004 4.823-.804.347-1.244 3.174-1.18 2.01-3.215-.904-.565-3.9-.893-3.416-1.005" style="fill:none;fill-rule:evenodd;stroke:#000;stroke-width:1.5;stroke-linecap:round;stroke-linejoin:miter;stroke-miterlimit:4;stroke-dasharray:none;stroke-opacity:1" transform="translate(-297.42 -334.393)"/><path d="M367.183 462.499c2.534-1.05 5.7-1.904 8.24-1.005.43.074 3.194-.292 1.808.603m-16.48 5.426c2.443 2.4-1.891 1.675-1.206 2.613m21.907-2.01c1.163-.336.924 3.13 2.01 3.015m-22.912-.804c1.44 1.57 1.32 3.917-.804 4.823-1.12.955-3.821.824-.603 1.809h.402m26.127-4.623c-2.196-.608-3.069.943-3.014 3.216.377 1.048 3.733 1.362 1.406 2.21-.588.424.258-.585-.401.202m-11.456 13.466c-2.04-.636-2.367 2.4-.201 1.607m-4.623-4.221c-1.685 1.735 3.174 2.789 3.417.804.419.218.419-.82 0-.603m2.814-.201c-.142 1.697 3.893 2.947 3.215.804m-12.862-3.818c.246 1.824 4.236.728 4.421-.402m6.432-.402c.094 1.674 5.035 2.193 3.014.603m-19.092-7.436c-1.167 3.391 4.01 1.552 4.823 3.215-.27 1.402-1.328 2.24-2.21 3.015.598-.198.665.74 1.406.201m20.098-5.024c-1.412-.673-3.997 1.303-2.01 2.01 1.786 1.472-1.924 2.066 0 2.813.609.113 1.458.18 1.206 1.005m-16.279-3.819c-1.375.211-2.567 3.354 1.005 2.412.255.162 1.231.258.402.201m.803-11.657c1.867.663 5.125-.307 6.23.402.626.624 1.249 1 2.211.804m-5.627-5.828c-2.649-.488-1.08 3.336.402 3.618m2.01-2.814c.659 2.32 4.062 1.81-.804 3.416m-3.818 3.417c4.012-.622 1.62.68 2.01 1.809 2.14.192 4.241-.485 4.823-.402m-31.956 3.617c-.076 1.843-2.228 2.83-1.205 4.221 1.742 1.475-.244 5.01.2 6.833.24 1.443-.818 3.663.201 4.623m-4.019-2.01c-2.575-1.404-3.849.961-4.421 2.613.204 1.1-.408 1.287 0 2.01m4.019 4.823c-1.408 3.576-6.07 4.338-8.039 7.034-1.491 1.042-2.37 2.8-3.385 3.78-.191.457.965.423 1.174.24m4.221-1.809c1.916-1.517 5.82-3.779 6.431-3.618m-10.049-17.686c-1.394 2.247-1.114 5.923.402 8.441-.284.651 1.434 1.31.603 1.005m.603-8.24c.867 1.767-.28 6.347 2.412 5.828v-.2" style="fill:none;fill-rule:evenodd;stroke:#000;stroke-width:1.5;stroke-linecap:round;stroke-linejoin:miter;stroke-miterlimit:4;stroke-dasharray:none;stroke-opacity:1" transform="translate(-297.42 -334.393)"/><path d="M328.394 487.018c-2.093 1.86-.476 3.444.804 5.024.079.535.37 1.504 1.005 1.608m5.024 7.838c.326 1.082 1.626 2.753 3.216 1.005 1.382-.389.886-3.457 2.412-4.422.602-.783-.783-1.184-.804-.603m2.412 6.432c-.365-1.203 1.505 3.516.602 5.225.184 2.235.188 4.242-1.607 5.828-.343.154-.767.447-.804 1.005m-17.887 6.029c-1.033.299-1.424 2.816-2.613 4.422-.25 1.807-1.86 3.104-1.407 5.225-1.347 1.25.082 3.276 1.206 3.819.697 1.045 2.83 3.294 3.417 4.02.103.364-.505.237-.402.602m8.24-20.097c-2.597 2.235-5.414 5.272-4.422 8.642 1.703-.297 5.088-1.478 5.628.2-.448 2.58-.152 3.427 1.809 3.82-.401 3.352 2.76 2.156 4.22 4.42.417-.042 1.285.281 1.206-.401m-7.235-17.083c1.722-2.335 4.424-2.886 7.034-3.216-.02-.438.6.048.402-.402m12.661-2.612c-.285-1.186-6.397-2.587-7.235 0 .768 2.054 5.616.102 5.427 3.014-.813 1.272.638 2.574.602 3.819m-9.445-1.206c-1.422-.268.556 2.495 1.607 4.02 1.802 2.362 5.457 4.108 3.819 7.837-.438-.02.047.6-.402.402" style="fill:none;fill-rule:evenodd;stroke:#000;stroke-width:1.5;stroke-linecap:round;stroke-linejoin:miter;stroke-miterlimit:4;stroke-dasharray:none;stroke-opacity:1" transform="translate(-297.42 -334.393)"/><path d="M342.06 500.282c2.568 2.116 4.18 5.603 5.628 8.24-.204 1.518.91 3.48-.603 4.623v.2m-10.853-2.009c-1.556 1.309 1.276-2.01 3.015-2.01-.574.758-3.523 2.505-.603 1.608 3.25-1.779.42.585-1.206 1.407-1.81 1.112 5.441-1.262 1.809.2-.587.414-1.061.483-1.407.804m-2.412 3.819c-2.626.661-5.431.294-7.034 3.015-.715 1.71-.606-.314-1.809.2m-8.842 21.907c-.515 1.102-3.363 2.292-1.407 3.216 1.675 1.875 4.667-1.173 6.833-.201 2.745-.432 5.236-1.79 8.24-1.407 2.883-.793 5.608.401 8.44.402 1.062 1.174 3.439 1.457 5.226.603 4.654-.127 9.248-.261 13.868-.603 1.574.347 4.238.416 5.828.2 1.502.337 4.285-.72 2.612.403m11.255-.201c4.696.379 9.37-.2 14.068.2 2.804-.325 3.971.987 6.834.604 3.74-.64 7.513-.38 10.852-1.81 2.436-.307 5.193-.604 7.637-.401 2.04.92 4.106 1.564 6.834 1.407 3.018-.718.124 1.779.803 3.014.51.852 2.668 1.547 3.015 2.613.358 2.202.699 4.351 3.618 4.22 1.911.386 1.041 3.26 2.01 4.422 1.133.514-.099 2.69-.604 1.608m-93.252-14.069c-1.127 1.017.45 3.479-1.005 4.02" style="fill:none;fill-rule:evenodd;stroke:#000;stroke-width:1.5;stroke-linecap:round;stroke-linejoin:miter;stroke-miterlimit:4;stroke-dasharray:none;stroke-opacity:1" transform="translate(-297.42 -334.393)"/><path d="M395.32 546.105c-.332 1.135-.093 3.339-.604 4.421m-25.725-5.024c-.446-3.72 3.309-3.877 6.432-3.819 1.169.893 1.962 3.503 1.004 5.225 1.333-1.285 3.772-.63 3.819 1.407.362.692-.999 1.458-1.809 1.407m-9.847-3.416c-2.074.05-5.607.334-3.82 2.612.18.922 2.02.483 2.01 1.407m-66.723 16.48c1.573-.966 4.21-2.404 6.43-3.216 3.698-1.93 7.92-2.883 12.26-3.014 3.7-1.464 7.726-1.049 11.054-.201 1.724-1.636 5.579-2.025 8.24-1.005 5.293.22 10.194.943 15.475.603 3.649-.444 6.234-.914 10.048-.804 4.99-.566 10.665-.586 15.275.2 5.59.303 11.747.172 17.686.202 3.489-.307 7.764-.639 11.589-.201 1.73-.085 3.825 1.063 5.092-.201.211-2.1 1.799-.542 2.21.804 1.164 1.866 4.866 1.602 7.437 1.407 3.103.82 6.307 1.315 9.245 2.01 3.346-.278 6.104.866 9.446.602 1.569-.023 2.962 2.812 2.411 3.216-1.064.02-2.047.532-2.411 1.407" style="fill:none;fill-rule:evenodd;stroke:#000;stroke-width:1.5;stroke-linecap:round;stroke-linejoin:miter;stroke-miterlimit:4;stroke-dasharray:none;stroke-opacity:1" transform="translate(-297.42 -334.393)"/><path d="M298.85 566.604c.893.592.631 3.5 3.416 2.613.443.67 2.468-.616 4.02-1.206 3.007-1.181 6.503-1.127 9.849-1.407 3.242-.685 6.686-1.26 9.647-2.01 2.752.208 4.837-.948 7.436-.804-.329-3.033 4.547-.66 6.029-.804 3.997.415 7.948-.207 12.058 0 3.58-.294 7.19-.512 10.853-.602 3.231-.857 6.825.206 9.647-1.407 4.171-.19 7.59 1.534 11.858 1.206 5.45.797 11.663.134 17.082.603 3.265.71 6.587.497 9.647.602 1.974.561 3.28.134 5.427.201.546 2.154 4.302 1.283 5.828 2.412 2.265.464 4.46 2.36 7.703 1.809 3.524-.168 6.538.838 9.179 1.608 1.792.383 1.727 2.46 1.005 2.01h-.201m-84.611-89.837c-.075 5.997 1.15 12.096.804 18.22.271 3.167-.555 6.463-.031 9.508.218-.035.534.138.634-.194m31.151-25.524c.973 7.616-1.146 15.263-1.206 22.911-.18 2.115-.613 4.695.402 6.633m12.714-31.644c.09 1.35-1.582 3.7.143 4.264-.633 2.04.665 3.44.568 4.831m-1.847 13.217c-2.136-.445-3.2 2.378-4.69 3.41-1.888 1.852-2.747 4.69-4.263 6.538-.817.23-3.142 1.2-3.127.71m15.916-8.527c-.628-1.992-3.73 1.081-5.258 1.848-1.692 1.112-2.911 3.24-2.558 5.826-.22.568-.621 1.146-1.279.995m5.685-11.227c1.283-.95 3.269-1.719 3.695.569m-1.563 4.69c-2.266.75-3.108 3.504-3.411 5.542l-.284-.142m-10.801 1.847c-1.09-.517-3.345 2.481-1.279 2.416 1.762.339 1 1.88-.284 1.848.751 1.111 3.161.598 4.318.435.71-.88 2.765-.853 3.214.133 1.969.313-1.014 3.738 1.705 3.41h.284l.427-.141m19.185-21.601c1.77-1.5 3.622-4.183 5.116-6.111 1.242-.215-.305-.248.853-.569m-5.116 1.706c.724-1.288 3.125-2.236 3.552-3.553.842-.42 1.146-.474 1.848-1.137-.534-.053-.088.425-.427.569" style="fill:none;fill-rule:evenodd;stroke:#000;stroke-width:1.5;stroke-linecap:round;stroke-linejoin:miter;stroke-miterlimit:4;stroke-dasharray:none;stroke-opacity:1" transform="translate(-297.42 -334.393)"/><path d="M419.655 485.907c-.806 2.406-.014 6.424-.285 7.958.18-2.49 1.254-4.724.569-7.106.211-.93-.626.919.284.285m-1.137-1.848c-2.834-.133-1.978-.611-.426-1.705-.74-1.21-.569-2.46.426-2.842 1.192-.788 1.419 1.594.426 2.273-.737.873 3.3.533 1.686 2.16-.273-.114-2.17.912-.975.683m-11.369 7.674c-1.583.238-3.711 1.483-3.126 3.695-1.72 1.566.79 1.502.568 3.126.047-.004.758.788.142.853" style="fill:none;fill-rule:evenodd;stroke:#000;stroke-width:1.5;stroke-linecap:round;stroke-linejoin:miter;stroke-miterlimit:4;stroke-dasharray:none;stroke-opacity:1" transform="translate(-297.42 -334.393)"/><path d="M407.29 498.27c-.253-2.27 2.602-3.153 3.554-3.552 1.845-.665 2.193 1.549 2.131 2.842-.244-.115-.356.89 0 .71" style="fill:none;fill-rule:evenodd;stroke:#000;stroke-width:1.5;stroke-linecap:round;stroke-linejoin:miter;stroke-miterlimit:4;stroke-dasharray:none;stroke-opacity:1" transform="translate(-297.42 -334.393)"/><path d="M409.423 492.87c1.954.364 3.494.372 3.41 2.7.26-.118.095.19.142.285m-.426 2.558c.13 2.392-.735 4.568-3.126 4.69-1 .802.137-.216.426-.427m-8.527 5.969c-.01 2.652.02 5.771 1.848 7.816.326 1.12.783 2.583 1.705 2.416l.142-.143v-.142m-.853-8.811c.239 2.616 1.502 5.238 2.274 7.248 1.1-1.057 2.833-.902 4.406-.853.035.337.302 2.504.426.995" style="fill:none;fill-rule:evenodd;stroke:#000;stroke-width:1.5;stroke-linecap:round;stroke-linejoin:miter;stroke-miterlimit:4;stroke-dasharray:none;stroke-opacity:1" transform="translate(-297.42 -334.393)"/><path d="M406.865 519.303c1.31-.697 3.39-1.642 4.69-1.848m-10.233-10.089c-.558-1.48.671-2.515 1.99-2.985.582-.58.74-.232 1.705-.284m7.532 2.558c-.894 2.15 2.141 3.312 2.274 5.258-.608 2.07-2.835 1.602-4.264.569-.507-.871-.992-3.963-2.7-3.553.066-.358.378.118.427-.284m5.684 5.826c.367-2.579-.233 1.803 1.421 2.274-.013.315 1.138.927.71.853m-11.226 10.374c3.268 1.77 7.042-.281 9.237-2.843 2.697-1.35.276-2.143.142.569-.113 1.836-1.289 3.168-3.41 2.984-1.101.326-2.642 1.12-3.127 1.421" style="fill:none;fill-rule:evenodd;stroke:#000;stroke-width:1.5;stroke-linecap:round;stroke-linejoin:miter;stroke-miterlimit:4;stroke-dasharray:none;stroke-opacity:1" transform="translate(-297.42 -334.393)"/><path d="M410.56 519.871c1.92-1.548 4.896-2.186 6.963-.994.813.356 1.764 1.35 2.517 1.989 2.184.417 1.824 2.797 2.599 4.263-.066 1.671 1.148 2.84 2.132 3.553.62.776.212 2.366-.569 2.842-1.616 1.345-3.254 1.974-5.542 1.99-1.494.996-3.76.538-3.269 3.269-1.575 1.26-4.316 1.137-5.826 2.558h.568l.284-.143m4.833-1.563c.962 1.44 2.134 2.61 3.836 1.99-.166.213.308.213.142 0m-1.705-3.411c.804 1.655 4.79 1.437 2.558 3.41" style="fill:none;fill-rule:evenodd;stroke:#000;stroke-width:1.5;stroke-linecap:round;stroke-linejoin:miter;stroke-miterlimit:4;stroke-dasharray:none;stroke-opacity:1" transform="translate(-297.42 -334.393)"/><path d="M424.77 527.972c-1.213-.831 2.972 2.387 3.553 4.263.472 1.49 2.697 3.17.995 4.121 1.357.578-.698-2.385-2.132-1.99-.42.369-4.332-1.675-2.415-1.847m1.421 4.832c-1.362-2.969-.1 1.663.852 2.984 2.135 1.369-1.766.604-2.273.995h.852m-32.259-3.553c-.553 4.001 3.664 6.961 7.39 5.827 2.14-.512 5.12-.485 5.826-2.984" style="fill:none;fill-rule:evenodd;stroke:#000;stroke-width:1.5;stroke-linecap:round;stroke-linejoin:miter;stroke-miterlimit:4;stroke-dasharray:none;stroke-opacity:1" transform="translate(-297.42 -334.393)"/><path d="M397.911 537.351c-1.543-.252-.615 2.816.711 3.126 2.62.475 4.248-2.54 6.395-2.131m1.563 2.984c-.636-1.035 4.241-3.993 3.695-2.842m-11.795-4.69c2.214-1.462 4.273.097 3.837 1.563 1.041.015.03-.58.568-.71m-9.379-4.121c.46-2.55-2.935-1.335-2.416.284 1.796.898 4.866 1.523 3.695 4.263.351.31.487.053.71-.426m4.69-14.78c-4.342-1.468-2.301 4.252.71 4.406 1.607.881-1.136 2.823 0 3.837m5.259-2.558c-.51.388-1.705-.638-2.132.142M391.8 491.307c-1.145-1.726-1.034-1.548-1.136-1.137m.995 4.121c-1.29-1.031-4.588-.933-3.837 1.421m5.684-.852c-1.267-.351-4.205 1.892-3.269 3.41.636.158.803-.39 1.28-.568m.71-7.532c.277-1.42-1.21-3.543-1.279-3.979 3.431-.478 2.38.892 1.532 2.995.436-.024.873-.004 1.31-.01m2.985 1.847c1.323-2.75 1.22.701 2.984.71.7-.335-1.616 1.494-.853 1.706m-4.547 0c.334-2.1-.825-2.186-1.137.284m-3.979-3.411c-1.772-2.078-3.28 1.18-5.258 1.421.452.216.949.167 1.42.285m1.99 7.674c-.629 2.999 2.639 1.45 3.553 2.558-1.105 1.873 1.18.002 1.421-.569m.569-1.421c-1.016-2.481 1.49-3.164 3.41-3.41-.293.546-.839.954-1.137 1.136m2.985-2.558c.972 1.231.295 2.454-.285 3.41m-.141 1.422c.847-.952 2.089-1.35 2.557-2.416m.853-4.405c-2.29-1.46-.017 1.558.568 2.273.138.485.66 1.165.143 1.422m.284 3.126c.39 1.505-1.672 1.387-1.563 2.132m-9.664 2.416c-1.529-.706.487 1.524 1.99.994.26-.268.649-.36.852-.71m2.558-11.369c.877-.045 2.734-.059 2.7 1.137m-1.705 6.537c1.008-1.226.625-.224 2.132-.995m7.247 1.705c-.006.844-.857.913-1.279 1.564m7.817-1.137c-.82.802-1.706 2.312-1.28 3.268m7.675-13.074c1.69-1.815 2.137 2.205 1.073 2.685-.044.1-.747.61-.931.726m-85.977 1.137c1.07-2.349 2.688-.816 3.552 0 .812-.181 2.425-.15 2.558-.569m-1.705-3.268c1.743-.363 3.06 1.097 3.126 2.558h-.426m-11.369 5.4c1.517.297 2.28 4.384 3.98 2.416m-2.275-4.974c1.25.935 2.394 2.298 3.695 3.268m-1.279 3.269c.106.171.201.55.142.568m.427 1.706c-1.68.538-1.086 2.399.284 2.984.403.566 1.3 1.296 1.279 1.848.715.244.978-.44 1.279-.853m2.132-3.837c.257.385.83 1.936-.285 1.99m61.108.142c-2.804 3.146-.865.346.513.051.214.275-3.488 3.887-.37 2.222 2.077-.307-2.64 2.664 0 1.99.109.11 1.565-.258.71-.142m8.953 13.927c.987-.076 4.373-1.62 1.847-.427-1.032.746-1.532.801.142.569m7.674 6.679c1.83-1.422-.717-.137-1.279.284.82-.12 5.036-2.533 3.837-.568-2.635.947-1.593 1.781.711.568 2.976-1.424-3.06 1.793-.853 1.137m-87.256-12.221c.781 2.975 4.893 5.04 2.984 8.668m-8.1-3.268c-1.936-1.208-.897-.438-.568 1.563.467 2.111.003 5.327 2.273 6.253 1.013-2.034 2.434-.324 3.411-1.705m12.506-17.906c.358 3.91 6.102 8.596 2.131 12.505m-8.242-7.105c1.694 2.03 2.561 5.716 1.279 8.242-1.882 1.092-1.513 4.215.853 4.264" style="fill:none;fill-rule:evenodd;stroke:#000;stroke-width:1.5;stroke-linecap:round;stroke-linejoin:miter;stroke-miterlimit:4;stroke-dasharray:none;stroke-opacity:1" transform="translate(-297.42 -334.393)"/><path d="M343.057 537.067c4.142.566 6.368-3.983 6.11-7.532l.427-.142m.568 1.705c.67-1.157 1.348-2.369 0-3.41m-31.264 5.684c-.46.729 3.742 3.085 2.131 1.421-.056-1.107 1.187 3.575 1.706 1.563.547 1.417 2.689 1.479 3.126 2.7-.024.214.13.604-.426.285m-2.985-17.054c1.304-1.718 2.027-3.034 4.264-2.131m40.928 33.112c-1.793.714-2.617 4.217.284 4.12 1.348-.126 3.472-.57 3.98-1.847m2.273.142c.793 2.27 4.4 1.185 3.41-1.279.172-.895-1.893-2.259-1.705-1.279m-11.795.427c-1.613-.43-3.391 1.495-1.99 2.416-1.017 1.056.256.745 1.28.568m-45.334-4.832c1.248-1.872 4.974-.804 7.248-1.42 4.266-.767 8.24.251 12.363.426.497-.419 1.052-.008 1.564 0m4.831.852c2.63-1.922 6.27.08 9.38-.284 3.245.703 6.885.451 10.232.284m18.617.142c3.796-1.349 7.668.74 11.78.142.254.1 2.656-.232 1.862-.142m5.827-.142c2.595 0 5.466.879 8.61.569 4.637-.085 9.353-.203 13.843 0 1.227 1.029 5.184-.173 4.548 2.273l-.142.143m-112.268-1.564c-2.09-.155-3.192 1.39-2.274 3.269-1.49.537-1.646 1.993-2.416 2.984.26.428 1.303.654 1.279 1.28m4.405-6.396c3.193-2.085 7.204-.637 10.8-1.563 4.86-.347 8.965 1.228 13.644 1.137 5.11.851 10.77.767 15.774.426.378.338 1.084.037 1.563.142m24.727.142c2.845-1.593 6.722-.284 9.99-.71 4.364.472 8.475 2.187 12.748 2.132 4.08-.643 8.433-.87 12.648-.143 4.41.305 8.923.036 12.506 2.558h.568m-129.889 13.075c2.06.175.452 4.509 2.136 3.346.127-2.08-.184.014.99-.22 3.424-1.505 6.225-4.132 9.806-4.69 1.887-.239 3.703-.502 5.4-1.136 2.464 1.36 5.815-.291 8.527-.711 1.151.815 3.302 1.148 4.69 0 1.317-.55 2.427-1.823 4.547-1.279 2.24 1.183 5.185-1.017 7.248.284m60.113.853c2.827-1.243 6.574.295 9.663.853 1.578 1.331 4.207.945 5.4 1.563.06 2.326 3.86.515 5.4.284 2.888.178 6.282-.044 8.67.995.388.664 1.493 1.743 2.273 1.563-.061-.105.89 3.424-.426 4.121-1.828 1.656.657 4.545.142 6.537-.3 2.645 1.088 4.974 1.705 6.68.093-.38-.256.117-.426 0m-133.727-14.496c-.115 3.982-.376 8.107.711 11.938-.143 1.587-.125 2.931 0 3.979-1.233.806-1.71 2.234-2.7 2.558-1.734.371-1.026 3.57.284 3.837 1.414 1.18-2.086 2.186-2.274 3.268-1.47 1.73-2.244 4.718-2.273 7.106.405 1.077 1.416 3.088.284 3.837.296.315-.139 2.834.426 1.847M438.84 591.78c.667-.86-.18 4.176-.285 5.684.755.325 2.29 1.14 1.28 2.416.779.577 3.836-.178 2.7 1.705-1.26 1.872 1.259 2.809 1.278 4.548.994 1.557 1.021 3.138 1.706 4.69.723.552-1.096 2.663.284 2.984.257.31-.685 2.043-.284 1.279m-136.285-38.939c.33 3.691-.49 7.674.426 11.227-.912.557-.832 1.412.427.284 4.005-1.501 8.797-.032 12.837-1.84.122-.477 4.908-1.56 3.363-1.428m-16.911-9.095c1.96-.788 6.088-.337 8.385-.995 2.434-.549 7.305-1.324 9.237-1.847.423 3.163.79 7.423.426 10.516.006.126-.157.29-.284.284" style="fill:none;fill-rule:evenodd;stroke:#000;stroke-width:1.5;stroke-linecap:round;stroke-linejoin:miter;stroke-miterlimit:4;stroke-dasharray:none;stroke-opacity:1" transform="translate(-297.42 -334.393)"/><path d="M312.218 576.574c-1.586 1.694.682 2.714 1.848 1.137 2.786-2.284-4.785 1.556-2.274 1.137 3.22-.633 4.007-3.685 0-.143-1.215 3.1 4.01 1.559-.583 3.405-.462 1.34.985 2.717 2.43 1.996.605.7-.178-.655.285-.853" style="fill:none;fill-rule:evenodd;stroke:#000;stroke-width:1.5;stroke-linecap:round;stroke-linejoin:miter;stroke-miterlimit:4;stroke-dasharray:none;stroke-opacity:1" transform="translate(-297.42 -334.393)"/><path d="M315.487 579.274c-2.991.257 1.335-3.349-.142-1.421-1.743 1.211-3.23 5.019.149 3.554.656.239 4.177.761 1.698 2.13-1.996 1.158-.137-.276.142-1.137m.996-3.126c.268-2.069-.429-1.981 1.847-2.842-1.97 2.171 6.134-.762 1.99.852-3.067 1.667-1.53.25.283-1.279-1.942.005-2.764 1.75-1.42 3.269 2.214 1.79.22.81-.57 2.274 2.229.563 3.265-.401.427 1.563-.364.856.869.071 1.137 0" style="fill:none;fill-rule:evenodd;stroke:#000;stroke-width:1.5;stroke-linecap:round;stroke-linejoin:miter;stroke-miterlimit:4;stroke-dasharray:none;stroke-opacity:1" transform="translate(-297.42 -334.393)"/><path d="M323.587 578.705c.208-1.769.828-2.98.427-.852 1.988.812 1.69 1.93.142 3.126.275 1.479 3.402-.495.71 1.848m5.969-10.943c-1.345-2.315-1.4 1.301.853 1.421 1.455 1.48-4.336 3.597-1.421 4.406 1.533.062-1.09 3.289 1.563 3.552 1.904.863-4.65 3.063-.142 2.274h.71" style="fill:none;fill-rule:evenodd;stroke:#000;stroke-width:1.5;stroke-linecap:round;stroke-linejoin:miter;stroke-miterlimit:4;stroke-dasharray:none;stroke-opacity:1" transform="translate(-297.42 -334.393)"/><path d="M331.403 577.569c1.295-2.107-.725-.115-.71.142 3.38.013 3.108 1.387-.142.994.322-2.985-4.155.788-.81.285.303.622.925 1.573 2.515 2.558-.388.516-.998 1.32-.142 1.705m-25.58-5.258c-.087-1.644-1.22 1.422-2.416 1.705.207.703.66 1.671-.426 2.842-.627 2.403 2.533-.907.426 1.706.324 1.07.931 2.752 2.132 1.42 1.136-1.347-.99-4.73-3.127-3.978.782-1.646.614-1.566 0-2.842.302-.576.61 1.09.853 1.136" style="fill:none;fill-rule:evenodd;stroke:#000;stroke-width:1.5;stroke-linecap:round;stroke-linejoin:miter;stroke-miterlimit:4;stroke-dasharray:none;stroke-opacity:1" transform="translate(-297.42 -334.393)"/><path d="M305.255 583.395c-1.361.58-2.273 3.086-.853 3.837 1.153.345 1.229.612 1.848 1.848m115.394-14.07c-.27 3.68.258 7.687-.71 11.37-.407 3.883 4.487 2.93 7.105 3.552 2.818.84 5.88.311 8.669.71.097 1.427.578.647.71-.141m-14.068-16.485c-1.307-1.508 1.175.292 2.984.142 2.62.773 9.289 1.8 9.948 1.847-.472.002-.945.02-1.137.427" style="fill:none;fill-rule:evenodd;stroke:#000;stroke-width:1.5;stroke-linecap:round;stroke-linejoin:miter;stroke-miterlimit:4;stroke-dasharray:none;stroke-opacity:1" transform="translate(-297.42 -334.393)"/><path d="M425.481 576.716c-2.306.308 4.15-2.023.569-.284-2.328 1.028-7.736 3.992-1.99 1.99 4.872-2.015 4.237-1.447.435.691-3.626 2.982 2.915.735 4.113-.265 1.929-1.476-8.96 3.992-3.98 4.547 3.196-.161 9.436-5.628 2.985-.995-5.771 3.531-.051 3.942 2.842.427 4.92-4.726-3.623-.245-4.121 2.273 1.849 2.264 6.095-1.816 6.395-3.126-4.47 1.995-1.122 6.383 1.99 2.984-.814-1.048-3.873 3.063-.285 1.99h.142v-.142" style="fill:none;fill-rule:evenodd;stroke:#000;stroke-width:1.5;stroke-linecap:round;stroke-linejoin:miter;stroke-miterlimit:4;stroke-dasharray:none;stroke-opacity:1" transform="translate(-297.42 -334.393)"/><path d="M424.913 584.532c-.984 2.691 4.214 2.854 5.542 1.279.538-.182.876-.748.995-1.279m1.42-4.832c1.817-.36 4.004 1.294 2.275 2.416m-27.001-11.937c-1.468 1.431-.32 4.804-.853 6.963-.303 2.953.22-.505-.157-1.074-1.282-.845 4.131.482 2.004.648-1.4.34-3.707 2.327-1.137 2.558 3.873-.661-2.64 3.426 1.28 2.416 3.347-.14-2.351 1.322-1.706 2.416 5.709-.257-3.318.237.284 0 3.8-1.258-.627-2.207-.994-2.416.609-.964 1.674-3.798-.143-3.127-1.1 1.495 3.118 3.11 1.422 1.99-3.374 1.13.025 2.499 1.99 1.847-.44.581-1.738 1.103-2.133 1.564m-.284 2.131c-.417.223-.332 7.443-.142 4.548m-67.645-20.606c-.482 3.773 2.225 7.754 1.28 11.369v-.711l-.143-.426" style="fill:none;fill-rule:evenodd;stroke:#000;stroke-width:1.5;stroke-linecap:round;stroke-linejoin:miter;stroke-miterlimit:4;stroke-dasharray:none;stroke-opacity:1" transform="translate(-297.42 -334.393)"/><path d="M338.793 576.147c1.761-1.721-.103.071-1.137 0-1.46 2.398 5.033.03 1.137 2.416-2.2 1.912 1.726.154.569 1.848-2.345-.026-3.67.852-.285.852 2.558.475-3.385 2.998-.568 3.553 3.33.106-.98 1.7.426 2.7 4.372-.814-1.89 1.505.142 1.848l.143-.142m30.27-39.792c2.69-1.488-2.727-.115-.57.143 4.265-1.102-1.814.064 2.985.142m3.127-.142c-1.911-.41.425-2.034-1.137-.427.34 1.566 5.169-.711 4.263 1.848-.859.912.436.991 1.137.994m.285.712c-3.668 1.043 3.003.644.141 2.13-.989.005-1.39 1.393.284.711" style="fill:none;fill-rule:evenodd;stroke:#000;stroke-width:1.5;stroke-linecap:round;stroke-linejoin:miter;stroke-miterlimit:4;stroke-dasharray:none;stroke-opacity:1" transform="translate(-297.42 -334.393)"/><path d="M380.148 555.4c-1.38.003-2.663.046-3.695-.143m-8.811-.427c-4.821-.635 1.581.765-.995.285-2.562-1.808-4.648 1.912-1.847.142-1.482-1.017-2.526 1.484-.242 1.28 1.139.127 1.096-.483.242.283l.142.142" style="fill:none;fill-rule:evenodd;stroke:#000;stroke-width:1.5;stroke-linecap:round;stroke-linejoin:miter;stroke-miterlimit:4;stroke-dasharray:none;stroke-opacity:1" transform="translate(-297.42 -334.393)"/><path d="M380.148 554.689c2.773-.604 1.538 1.77 1.136 2.842 2.485-.459-2.457.012-2.415-.142m-9.949-5.685c-1.647-.575-2-.374-3.41.569-.06-.267.113-.385.284-.427m-.852-126.621c.454-.606.19-.568.568-.568.048 0 .109.033.142 0 .034-.034-.033-.109 0-.142.067-.067.2.042.284 0 .06-.03.083-.112.143-.142.418-.21-.188.329.284-.143.047-.047.082-.112.142-.142.042-.02.109.034.142 0 .034-.033.034-.108 0-.142-.033-.033-.1-.02-.142 0-.086.043-.508.523-.569.569-.084.063-.209.067-.284.142s-.06.218-.142.284c-.165.132-.445.112-.568.284-.14.197-.066.482-.142.71-.022.064-.113.083-.143.143-.02.042.022.1 0 .142-.03.06-.112.082-.142.142-.058.118.05.238.142.284.043.022.095 0 .143 0s.1.022.142 0c.06-.03.082-.112.142-.142.042-.02.094 0 .142 0 .095 0 .194.03.284 0 .064-.02.082-.112.142-.142.043-.021.47 0 .569 0h.142c.047 0 .108-.033.142 0 .033.034-.034.109 0 .142.033.034.109-.033.142 0 .034.034 0 .095 0 .142v.143c0 .047.021.1 0 .142-.03.06-.105.086-.142.142-.344.516.042.1-.284.426-.87.87.24-.18-.569.426-.107.08-.177.204-.284.285-.085.063-.2.078-.284.142-.107.08-.19.19-.284.284l-.285.284-.994.995c-.28.28-.285.354-.285.71 0 .048-.042.121 0 .143.034.016.475 0 .569 0m3.553-40.36c.047.237.108.471.142.71.013.094 0 .19 0 .285v2.416c0 .19.023.38 0 .568-.025.194-.12.374-.142.569-.027.235 0 .473 0 .71v.569c0 .19.023.38 0 .568-.025.194-.121.374-.143.568-.026.236.03.476 0 .711-.018.149-.105.281-.142.426-.058.235-.09.475-.142.71-.084.382-.19.759-.284 1.138-.095.379-.177.761-.284 1.137-.116.405-.221.55-.284.994-.04.282.055.574 0 .853-.021.104-.143.178-.143.284s.117.182.143.285c.023.091 0 .19 0 .284.047.095.108.184.142.284.015.045-.034.109 0 .142.033.034.1-.021.142 0 .06.03.094.095.142.142m9.663-13.642c-.069.282-.205.677-.142.994.03.147.118.279.142.427.024.14 0 .284 0 .426v.995c0 .19-.023.38 0 .568.025.194.118.375.143.569.023.188 0 .379 0 .568v.71c0 .19-.024.381 0 .57.024.193.117.374.142.568.023.188 0 .379 0 .568v.995c0 .331.04.666 0 .995-.025.193-.118.374-.142.568-.024.188 0 .379 0 .568v.569c0 .19-.024.38 0 .568.024.194.12.375.142.569.041.376-.054.762 0 1.137.027.193.114.375.142.568.02.14-.02.286 0 .426.044.313.183.692.284.995.095.284.173.575.284.853.04.098.103.186.142.284.056.14.087.287.142.426.04.099.095.19.143.285s.083.196.142.284c.074.111.224.164.284.284.021.043-.021.1 0 .142.03.06.112.082.142.142.063.127-.016.206-.142.142-.06-.03-.095-.094-.142-.142m-.284-20.037c-.048.19-.104.377-.143.568-.027.14 0 .284 0 .426v.711c0 .237-.033.476 0 .71.028.194.115.376.143.569.02.14-.02.286 0 .426.027.194.1.378.142.569.052.236.09.475.142.71.042.191.1.378.142.569q.156.708.284 1.42c.052.284.066.576.142.854.067.246.204.468.284.71.062.185.08.383.143.569.08.242.203.468.284.71.062.185.095.38.142.569.047.19.1.377.142.568.052.236.066.481.142.71.067.202.238.362.284.569.052.231-.023.475 0 .71-.008.447.236.846.285 1.28.026.235 0 .473 0 .71v.569c0 .19-.021.38 0 .568.026.24.112.47.142.71.017.142 0 .285 0 .427v1.563c0 .142-.024.286 0 .426.024.148.117.279.142.427.023.14-.024.286 0 .426.208 1.248.052-.217.284.71.023.093-.023.193 0 .285-.086.257.23.264.284.426.03.09 0 .19 0 .284m6.964-5.684c0-1.416-.134-.158.142-.71.042-.085-.067-.218 0-.285.033-.033.108.034.142 0 .033-.033.047-.142 0-.142-.237 0-.119.453-.142.569-.038.191-.118.374-.142.568-.024.188 0 .379 0 .568v1.706c0 .095-.019.191 0 .284.03.147.12.278.142.426.027.188 0 .38 0 .569v.852c0 .095-.019.192 0 .285.187.935.142-.079.142.852 0 1.286-.045-.456.142.853.047.328-.054.668 0 .995.025.148.118.278.142.426.047.28-.047.572 0 .853.025.148.118.278.142.426.024.14 0 .284 0 .426v4.121c0 .143-.028.288 0 .427.021.104.117.182.142.284.058.23-.046.479 0 .71.021.105.109.185.142.285.045.135-.034.289 0 .426.026.103.11.184.143.285.027.082 0 .445 0 .568 0 .119.027.603 0 .71-.026.103-.109.184-.143.285-.044.135.035.288 0 .426-.025.103-.116.182-.142.284-.061.247.062.606 0 .853-.025.103-.116.182-.142.284-.079.317.047.281.142.569.015.045 0 .094 0 .142v.284c0 .095-.023.192 0 .284.026.103.117.182.142.284.023.092 0 .19 0 .285.048.094.11.183.143.284.05.15-.05.417 0 .568.033.1.108.184.142.285.031.094 0 .713 0 .852 0 .12.027.603 0 .71-.026.104-.117.182-.142.285-.023.092 0 .19 0 .284v1.847c0 .095-.023.193 0 .285.163.653.142.032.142.426v.142c0 .048-.021.1 0 .142.03.06.112.083.142.143.021.042.047.142 0 .142-.048 0 0-.095 0-.142v-.285m-2.274-13.5c-.19 0-.385-.046-.568 0-.046.011 0 .095 0 .142v7.674c0 .142-.024.286 0 .426.024.148.117.279.142.427.046.28-.047.572 0 .852.024.148.117.279.142.427.032.19 0 .921 0 1.137 0 .142-.028.286 0 .426.02.104.116.181.142.284.023.092 0 .19 0 .284v.995c0 .095-.023.192 0 .284.026.103.116.182.142.284.023.092 0 .19 0 .285v.994c0 .097.022.93 0 .995s-.12.079-.142.142c-.045.135 0 .285 0 .427v.71c0 .048-.034.109 0 .142.098.098.266-.105.284-.142.021-.042-.021-.1 0-.142.03-.06.112-.082.142-.142.022-.043 0-.47 0-.568" style="fill:none;fill-rule:evenodd;stroke:#000;stroke-width:1.5;stroke-linecap:round;stroke-linejoin:miter;stroke-miterlimit:4;stroke-dasharray:none;stroke-opacity:1" transform="translate(-297.42 -334.393)"/><path d="M387.537 401.493c-.19-.095-.399-.157-.568-.285-.076-.056.067-.217 0-.284-.034-.033-.109.034-.142 0a2 2 0 0 1 0-.426c.033-.034.108.033.142 0 .033-.034-.047-.142 0-.142s0 .094 0 .142c0 .394.021-.227-.142.426-.023.092.023.193 0 .284-.232.928-.076-.536-.284.711-.024.14.023.286 0 .426-.208 1.248-.053-.217-.285.71-.023.093 0 .19 0 .285v.71c0 .048.022.1 0 .143-.018.037-.253.173-.142.284.034.034.095 0 .142 0 .048 0 .1.021.142 0 .06-.03.095-.095.143-.142s.12-.079.142-.142c.03-.09-.053-.206 0-.284.379-.569.237.331.426-.427.123-.492-.18-.085.142-.568.174-.26.181-.014.284-.427.023-.091-.03-.194 0-.284.021-.063.915-.71 0-.71-.07 0 .036.71 0 .852-.051.206-.205.372-.284.569-.055.139-.086.287-.142.426-.04.098-.116.182-.142.284-.023.092.019.192 0 .285-.03.146-.113.279-.142.426-.019.093 0 .19 0 .284v.569c0 .098-.022.525 0 .568.03.06.112.082.142.142.021.043-.021.1 0 .142.046.093.167.201.284.142.06-.03.082-.112.142-.142.043-.021.1.021.142 0 .076-.038.352-.351.427-.426.106-.107.284-.314.284-.142 0 .067-.121.078-.142.142-.03.09.023.192 0 .284-.026.103-.103.186-.142.284-.056.14-.095.285-.142.427-.095.284-.202.564-.285.852-.053.188-.088.381-.142.569-.082.288-.235.557-.284.852-.023.14.028.287 0 .427-.02.104-.116.181-.142.284-.023.092 0 .19 0 .284v1.563c0 .048-.034.11 0 .143.033.033.109-.034.142 0 .294.294-.45-.012.142.284.114.057.313-.057.426 0 .06.03.083.112.143.142.042.021.108-.034.142 0 .02.02.014.397 0 .426-.03.06-.112.082-.142.142-.067.134-.087.288-.143.427-.039.098-.102.186-.142.284-.165.414-.285.856-.426 1.279-.047.142-.086.287-.142.426-.04.099-.116.182-.142.284-.023.092 0 .19 0 .285v.426c0 .08-.022.646 0 .71.025.077.364.334.426.427.059.088.083.196.142.284.037.056.095.095.142.142l.427.427c.047.047.105.086.142.142.143.214.379.759.426.994.019.093 0 .19 0 .285v.426c0 .557.035.377-.142.995-.082.288-.235.557-.284.852-.024.14.023.287 0 .427-.208 1.247-.052-.217-.284.71-.023.092 0 .19 0 .285v.71c0 .048-.034.109 0 .142.033.034.094 0 .142 0m-19.612-50.023c.19.048.394.055.569.142.084.043-.043.2 0 .284.03.06.112.083.142.143.246.492-.246-.209 0 .284.03.06.12.078.142.142.043.128-.043.298 0 .426.343 1.03-.041-.224.284.427.021.042-.015.097 0 .142a1.3 1.3 0 0 0 .427.568c.088.059.196.084.284.142.26.174.014.181.426.284.092.023.192-.023.284 0 .103.026.19.095.285.143.142.047.279.112.426.142.093.018.19 0 .284 0h.569c.055 0 .933.02.994 0 .064-.022.079-.121.142-.142.09-.03.193.023.285 0 .205-.052.367-.218.568-.285.045-.015.097.015.142 0 .1-.033.184-.108.284-.142.045-.015.1.021.143 0 .06-.03.082-.112.142-.142.113-.057.312.057.426 0 .06-.03.082-.112.142-.142.043-.021.1.021.142 0 .06-.03.082-.112.142-.142.043-.021.1.021.142 0 .06-.03.08-.121.143-.142.09-.03.194.03.284 0 .063-.021.086-.105.142-.142.088-.06.196-.084.284-.142.112-.075.19-.19.284-.285.048-.047.083-.112.142-.142.043-.021.1.021.143 0 .06-.03.094-.094.142-.142s.12-.078.142-.142c.03-.09-.03-.194 0-.284.021-.064.112-.082.142-.142.021-.043 0-.095 0-.142v-1.848c0-.047-.021-.1 0-.142.03-.06.112-.082.142-.142.021-.043-.033-.109 0-.142.034-.034.109.033.142 0 .067-.067-.067-.217 0-.284.034-.034.109.033.142 0 .067-.067-.042-.2 0-.285.03-.06.112-.082.142-.142.022-.042-.02-.1 0-.142.03-.06.113-.082.142-.142.043-.085-.067-.217 0-.284.034-.034.11.033.143 0a2 2 0 0 0 0-.427c-.034-.033-.109-.033-.143 0-.033.034.034.11 0 .143-.033.033-.1-.022-.142 0a5 5 0 0 0-.426.426c-.015.03-.02.406 0 .426.034.034.095 0 .142 0m.569 2.558c.267.093.077 1.227.142 1.421.02.064.12.079.142.142.03.09-.023.193 0 .285.103.412.11.166.284.426.018.027.275.56.284.568.15.15.4.158.569.285.107.08.177.203.284.284.085.063.2.078.284.142.107.08.17.215.284.284.478.287.327-.003.71.284.108.08.178.204.285.285.17.127.419.134.569.284.074.075.067.21.142.284.075.075.209.067.284.142s.083.196.142.284c.037.056.095.095.142.143.048.094.084.196.142.284.086.13.364.3.427.426.02.043-.022.1 0 .142.06.12.224.165.284.284.021.043-.021.1 0 .143.03.06.095.094.142.142s.079.12.142.142c.09.03.194-.03.284 0 .064.021.082.112.142.142.043.021.098-.015.142 0 1.03.343-.224-.041.427.284.042.021.1-.021.142 0 .06.03.082.112.142.142.085.043.217-.067.284 0 .034.034-.033.109 0 .142.067.067.217-.067.284 0 .034.034-.033.109 0 .142.034.034.095 0 .143 0 0 .048-.034.11 0 .143.033.033.094 0 .142 0h1.279c.047 0 .108-.034.142 0 .067.067-.067.217 0 .284.033.033.108-.034.142 0 .033.033-.034.108 0 .142s.534-.034.568 0c.034.033.034.109 0 .142-.033.034-.094 0-.142 0" style="fill:none;fill-rule:evenodd;stroke:#000;stroke-width:1.5;stroke-linecap:round;stroke-linejoin:miter;stroke-miterlimit:4;stroke-dasharray:none;stroke-opacity:1" transform="translate(-297.42 -334.393)"/><path d="M376.879 376.339c.142-.19.304-.365.426-.568.043-.071-.04-.528 0-.569.034-.033.095 0 .142 0 .233 0 .285.052.285.284 0 .943-.067-.2.142.427.045.134 0 .284 0 .426v.853c0 .147-.034.196.142.284.042.021.095 0 .142 0 .4 0 .272.012.568-.284l.143-.142c.047-.048.112-.083.142-.143.02-.042-.022-.1 0-.142.295-.591-.01.152.284-.142.085-.085-.154-.284.142-.284.047 0 .034.109 0 .142-.033.034-.12-.042-.142 0-.351.703.315-.031-.142.426-.333.334.033-.1-.142.427-.022.063-.112.082-.142.142-.022.042.015.097 0 .142-.034.1-.109.184-.143.284-.03.09 0 .454 0 .569v.142c0 .047-.033.108 0 .142.034.033.11-.034.143 0 .033.033-.034.109 0 .142.11.111.247-.124.284-.142.042-.021.1.021.142 0 .12-.06.173-.21.284-.284.088-.059.196-.084.284-.142.112-.075.173-.21.285-.285-.017-.269.331-.094.426-.142.06-.03.082-.112.142-.142.042-.021.1.021.142 0 .037-.018.173-.253.284-.142.02.02.015.397 0 .426-.03.06-.12.079-.142.142-.042.128.043.299 0 .427-.033.1-.108.184-.142.284-.032.097 0 .811 0 .995v.142c0 .047-.033.109 0 .142.034.034.109-.033.142 0 .034.034-.033.109 0 .142.02.02.397.015.427 0 .06-.03.078-.12.142-.142.09-.03.194.03.284 0 .064-.021.095-.095.142-.142.095-.048.181-.117.284-.142.943 0-.2.067.427-.142.09-.03.194.03.284 0 .063-.022.082-.112.142-.142.042-.022.095 0 .142 0s.109-.034.142 0c.034.033 0 .094 0 .142v.142c0 .047.021.1 0 .142-.03.06-.112.082-.142.142-.021.042.021.1 0 .142-.03.06-.112.082-.142.142-.021.043.021.1 0 .142-.03.06-.112.083-.142.142-.021.043 0 .095 0 .143s-.021.1 0 .142c.03.06.095.094.142.142s.082.112.142.142c.085.042.194-.03.284 0 .1.033.184.109.284.142.094.031.714 0 .853 0 .035 0 .422-.005.426 0 .034.034-.033.109 0 .142.067.067.218-.067.285 0 .033.034-.034.109 0 .142.033.034.108-.033.142 0 .067.067-.043.2 0 .284.03.06.112.083.142.143.021.042-.034.108 0 .142.033.033.1-.022.142 0 .12.06.164.224.284.284.043.021.109-.034.142 0 .034.033-.033.109 0 .142.034.034.109-.033.142 0 .034.034 0 .095 0 .142v.142m-1.279 1.563c.143.19.32.357.427.569.042.085-.023.192 0 .284-.086.257.23.264.284.426.03.09-.023.193 0 .285.103.412.11.166.284.426.118.176.167.392.284.568.038.056.105.087.143.143.017.026.275.559.284.568.075.075.21.067.284.142.009.01.267.542.284.569.037.055.121.078.142.142.03.09-.03.194 0 .284.022.063.095.095.142.142.048.095.117.181.143.284.023.092-.03.195 0 .284.02.064.094.095.142.143.047.094.116.181.142.284.023.092-.03.194 0 .284.021.064.12.079.142.142.03.09 0 .19 0 .284 0 .048-.021.1 0 .142.03.06.12.08.142.143.03.09-.03.194 0 .284.021.063.112.082.142.142.021.042-.015.097 0 .142.034.1.109.184.142.284.015.045-.02.1 0 .142.06.12.225.165.284.285.022.042-.02.1 0 .142.06.12.242.157.285.284.03.09-.03.194 0 .284.02.064.112.082.142.142.021.043-.021.1 0 .142.03.06.112.083.142.142.17.341-.17-.056 0 .285.03.06.112.082.142.142.042.084-.042.2 0 .284.03.06.112.082.142.142.021.043-.021.1 0 .142.03.06.112.082.142.142.021.043-.02.1 0 .142.03.06.112.083.142.143.022.042-.02.1 0 .142.076.151.209.133.285.284.02.042-.022.1 0 .142.03.06.112.082.142.142.02.043-.021.1 0 .142.03.06.112.082.142.142.019.038 0 .494 0 .569v.852c0 .064-.022.384 0 .427.025.05.51.529.568.568.088.059.19.095.284.142m-56.691 204.071c-1.071 2.93-.083 6.713-.301 9.948.53-.387-.033-.806.603-.603m75.868-9.647c.57 2.804-.664 5.956.201 8.843-.192.148-.185.468-.502.503m-75.165 1.105c2.372.385 4.736 1.219 7.368.904 12.293-.195 24.527-.11 36.746-.804 7.025.26 14.18-.084 21.102.704 3.107.453 6.878-.304 9.647-.302l-.1-.1h-.1m-74.262-10.551c8.362 1.11 17.411.247 26.027-.1 10.913.95 21.945-.23 32.892.3 5.024-.197 9.922-.132 14.94 0v-.1h.1m-69.939-1.105c1.863.572 4.195-.317 6.23-.201 4.726-.314 9.315-.773 14.069-.704 6.32-.544 12.786.02 19.093.302 8.468 1.193 17.47 1.14 26.026.703.339.273 1.455.054 1.206-.301" style="fill:none;fill-rule:evenodd;stroke:#000;stroke-width:1.5;stroke-linecap:round;stroke-linejoin:miter;stroke-miterlimit:4;stroke-dasharray:none;stroke-opacity:1" transform="translate(-297.42 -334.393)"/><path d="M342.764 602.68c3.607-.14 7.453-.412 11.456-.503 7.684-.82 15.559-.637 23.413-.804 7.338-.626 14.572.828 22.037.402 1.846 0 3.85.055 5.497-.201m-9.144-13.466c-1.366 1.345 2.861 2.8 1.507 4.623.637 3.423-4.319 4.035-4.02 7.335-.017.861-.656-.305-.2-.301" style="fill:none;fill-rule:evenodd;stroke:#000;stroke-width:1.5;stroke-linecap:round;stroke-linejoin:miter;stroke-miterlimit:4;stroke-dasharray:none;stroke-opacity:1" transform="translate(-297.42 -334.393)"/><path d="M397.831 589.314c-1.008-.293.746 2.787 1.106 3.718.32 1.84-3.408 1.827-3.517 3.92.739 1.591-.983 2.43-1.508 3.818.145.47.576.065.603-.1m-6.933-25.223c1.807.578 4.482.184 5.325 2.512 1.991 1.607 3.673 4.032 2.915 6.532.618 1.18-1.702 3.424.602 3.718" style="fill:none;fill-rule:evenodd;stroke:#000;stroke-width:1.5;stroke-linecap:round;stroke-linejoin:miter;stroke-miterlimit:4;stroke-dasharray:none;stroke-opacity:1" transform="translate(-297.42 -334.393)"/><path d="M393.209 576.954c1.923 1.587 4.4 2.32 6.934 2.211 3.155.946 6.785.749 9.747 2.01 1.523 1.187 4.396 3.16 2.713 5.527-1.453 1.25-3.937 1.282-5.929 1.808-3.128-.274-5.313 3.224-4.32 6.13" style="fill:none;fill-rule:evenodd;stroke:#000;stroke-width:1.5;stroke-linecap:round;stroke-linejoin:miter;stroke-miterlimit:4;stroke-dasharray:none;stroke-opacity:1" transform="translate(-297.42 -334.393)"/><path d="M394.917 579.065c1.145.422 1.649 1.104 3.216 1.004 2.538.853 6.317-1.03 8.843.503.74.5 1.967 1.078 2.713 1.809m-7.336 13.365c1.052-.438 3.08.859 1.407-.503-2.208-.53.65-.831.503-.502-.746-1.169-2.575.376-1.508 1.005 1.853 1.353 1.813-1.945.503-.302 1.132 1.513 1.552-.045.502.804-.055.597 1.256.946 1.407.301m-46.024-27.734c2.78 1.456 3.48 4.989 2.513 7.737.657 1.748 3.293 2.206 5.527 2.412 4.144.645 7.372-1.862 11.053-2.512 2.655-1.366 6.233-1.035 8.944-1.206.056.295.58.293.803.603m-39.391-6.331c-1.768.234-3.89 2.047-3.115 4.02-.465.536-1.105 1.066-.904 2.11-1.081.918 1.577 2.415-.503 2.613-1.495.585-.345 2.608 1.106 2.512 1.07-.086 1.414.96 2.21.603m3.015-12.159c-.228-1.657 2.544-3.13 3.417-1.407.56.33.77.55 1.005 1.105m-3.719 1.407c.212-.8 2.57 2.805 4.02 3.618 2.033.22-1.315 5.098-.1 2.914" style="fill:none;fill-rule:evenodd;stroke:#000;stroke-width:1.5;stroke-linecap:round;stroke-linejoin:miter;stroke-miterlimit:4;stroke-dasharray:none;stroke-opacity:1" transform="translate(-297.42 -334.393)"/><path d="M353.818 573.94c-4.368-1.063 1.714 1.36 0 3.617-.023.917-.106 3.677 1.306 2.01m2.914-3.317c-3.146 1.525.808-.997 1.507-.401-.232.34-1.405 2.592-.1 1.708m-2.512-6.13c-1.909-1.908 3.468 3.288 2.311 1.206m-2.613-3.115c-2.24-.574 1.19-1.992 2.312-1.306.557.661.623 1.666.904 2.412" style="fill:none;fill-rule:evenodd;stroke:#000;stroke-width:1.5;stroke-linecap:round;stroke-linejoin:miter;stroke-miterlimit:4;stroke-dasharray:none;stroke-opacity:1" transform="translate(-297.42 -334.393)"/><path d="M355.727 568.312c-2.831-.6.203-2.424 1.105-.2 1.026.367 2.712.693 2.512 2.11m2.01 4.522c-1.899-2.547.114-.091 1.145.63.082.545.167 1.244-.14 1.781m-.301-6.431c-3.117-.471 2.004 1.345 1.607 2.311.348 1.391 2.695 3.053.603 4.02-1.045-.203-.05.594-.502.603" style="fill:none;fill-rule:evenodd;stroke:#000;stroke-width:1.5;stroke-linecap:round;stroke-linejoin:miter;stroke-miterlimit:4;stroke-dasharray:none;stroke-opacity:1" transform="translate(-297.42 -334.393)"/><path d="M364.47 574.844c-.407.98.68 3.165-1.106 4.422-.386.096-.616.528-1.005.703m-14.872 2.111c-.442-1.596-2.496 2.012 0 3.014" style="fill:none;fill-rule:evenodd;stroke:#000;stroke-width:1.5;stroke-linecap:round;stroke-linejoin:miter;stroke-miterlimit:4;stroke-dasharray:none;stroke-opacity:1" transform="translate(-297.42 -334.393)"/><path d="M346.583 582.18c-1.456.69 1.918 1.985 1.507 3.416l.1.1.1.202m2.111-.101c-2.11 1.011-2.593 3.739-1.91 6.03-.394 2.902-2.513 5.548-4.32 6.933-.72.948-1.927.261-2.11 1.608-.106 1.575 1.117 1.855 2.11 1.91.837-.108 2.395-.486 2.713-1.106 1.17-.582 1.087-2.543 2.21-3.115.642-2.02 2.125-3.614 3.417-4.924.343-.564.573-1.137 1.106-1.507" style="fill:none;fill-rule:evenodd;stroke:#000;stroke-width:1.5;stroke-linecap:round;stroke-linejoin:miter;stroke-miterlimit:4;stroke-dasharray:none;stroke-opacity:1" transform="translate(-297.42 -334.393)"/><path d="M352.712 592.831c1.68-1.19 4.313-1.848 5.728-.301.432 1.762 2.219 2.08 1.708 4.12.145 2.029-1.846 2.45-2.914 3.015-.769 1.667 2.336 1.494 3.517 1.205 1.428-.204 4 .875 3.618-1.507-.452-2.494-.298-5.02-.503-7.637 1.758-.807.531-3.34 1.005-4.723m13.265 4.221c.643.579.141 3.136-.302 3.919-.87 1.679-1.53 3.177-3.617 3.014-1.126.127-2.443 1.209-1.206 2.211 1.026 1.104 3.128.89 4.32.603 1.77-1.603 3.878-3.88 4.925-6.23 1.228-1.736 2.15-3.86 3.316-5.025.06-.3-.018-.542-.302-.502" style="fill:none;fill-rule:evenodd;stroke:#000;stroke-width:1.5;stroke-linecap:round;stroke-linejoin:miter;stroke-miterlimit:4;stroke-dasharray:none;stroke-opacity:1" transform="translate(-297.42 -334.393)"/><path d="M364.57 591.927c.841 2.406 4.656 1.331 6.733 1.105 3.02-.754 5.877-1.778 8.44-3.316 2.602-1.043 6.238-.826 8.14.603 1.826.671 4.347 1.108 4.02 3.92.485 1.795-1.56 3.518-2.211 4.622-1.52-.292-2.765 1.778-1.91 2.612h-.1v-.1m6.029-24.921c3.691 1.017 7.486 1.74 11.355 1.91 2.547 1.09 5.751 1.445 7.236 3.947 1.316 1.205.592 3.274.301 4.996m-62.001-19.897c-1.613-.55.519-3.173 1.407-4.02 1.3-1.33 4.003-1.852 4.924-1.004-.66-.506-3.998.387-.704-.302 1.64-.445 4.846-.758 3.618 1.708 1.152.802 1.796.313.502 1.608 1.49-.046 3.583.62 3.015 2.512.749.65 2.434 1.364 1.407 2.613-1.031 1.766.992 2.243 1.105 3.316-.551.742-1.408 3.268-2.613 2.21" style="fill:none;fill-rule:evenodd;stroke:#000;stroke-width:1.5;stroke-linecap:round;stroke-linejoin:miter;stroke-miterlimit:4;stroke-dasharray:none;stroke-opacity:1" transform="translate(-297.42 -334.393)"/><path d="M351.104 567.508c-1.931-1.02-3.346.81-5.124 1.508.856-.585 3.84-1.84.904-1.106-1.253.32-.926 2.39 0 2.814m1.608 8.14c-.408 2.015 3.096 1.33 4.522.803 2.5-.638 4.12-3.478 5.828-4.722-.314-.17-.878.069-.904.502m-12.159-2.914c-.694 1.608-3.199 1.857-3.316 3.416.724.792 2.177 2.738 3.215 2.211" style="fill:none;fill-rule:evenodd;stroke:#000;stroke-width:1.5;stroke-linecap:round;stroke-linejoin:miter;stroke-miterlimit:4;stroke-dasharray:none;stroke-opacity:1" transform="translate(-297.42 -334.393)"/><path d="M345.377 577.055c-.395.307 1.744-.672 2.21-1.307.522-.303 1.126-.703.804-.301m-3.416-.904c.542-1.718 1.957.416 3.316-.1-.305.021-.646.343-.704.502m.804-3.719c-2.107.296-.187.558.804-.301-1.065.827 1.29-.024 1.206.402-.355.344-1.182.566-.1.502m.703 4.121c-2.04 1.099 2.746-1.43-.402-.101-.104.444.947-.169.904-.1m4.321-1.508c1.183-1.127 1.662 1.809.704 2.814-1.585 2.156-4.156 4.547-4.02 7.335.13.212.307.19.503.302" style="fill:none;fill-rule:evenodd;stroke:#000;stroke-width:1.5;stroke-linecap:round;stroke-linejoin:miter;stroke-miterlimit:4;stroke-dasharray:none;stroke-opacity:1" transform="translate(-297.42 -334.393)"/><path d="M357.435 576.351c2.461 1.06-.982 3.279-1.91 4.422-2.005 1.389-.544 3.924-.1 5.527.362.283.777-.043 1.106-.201m22.911 4.221c2.755.093 1.598-.041-.402.904-.322.214 4.986-1.572 4.422-1.508-.938.546-6.306 2.626-3.116 1.91 5.425-2.415 2.62-.302-.904 1.205-3.61 2.183 2.59.044 3.618-.703-1.305.317-6.966 2.903-3.92 2.613 5.51-1.656 1.023-.361-1.808 1.205-2.117 2.04 3.235-.65 3.416-.1-.917.613-6.482 3.162-2.914 2.01 3.433-1.458.984-.02-1.005.603-3.604 1.855 3.055-.893 1.709.301-.255.468-4.077 1.79-2.513 1.91m-33.965-13.466c.244 1.55-1.585 4.338 1.206 3.92.63-.768 4.342.282 2.513-.101" style="fill:none;fill-rule:evenodd;stroke:#000;stroke-width:1.5;stroke-linecap:round;stroke-linejoin:miter;stroke-miterlimit:4;stroke-dasharray:none;stroke-opacity:1" transform="translate(-297.42 -334.393)"/><path d="M343.266 586.2c1.032-2.296-.358.604 0 0 1.44.066 3.702-.856-.402 1.306-.755 1.555 5.788-2.197 3.216-.603-4.062 1.407-2.677 2.957.503.904 2.143-1.132-4.377 2.435-.905 1.206.828-.363 1.834-.903.1-.503m-2.813-4.622c2.6-.613-2.926.57 0 .502m7.938 6.934c2.077-1.885.582-.451-.502.804.177.2 2.354-1.783 2.914-1.407-.518.81-5.574 3.333-2.813 2.814 4.01-2.272-.705.801-1.91 1.809.074 1.182 4.005-1.536-.1 1.205-2.908 1.45-1.548 2.71.703 1.206 1.03-.43-3.47 1.068-1.306.804m6.733-8.541c-1.559-.537 1.077-.573 2.21.2 3.144.125.592 2.586 2.211 3.82m6.532-18.591c-.917-.221 1.743 2.423 3.818 2.01 2.726.438 5.431-.343 8.04-.804" style="fill:none;fill-rule:evenodd;stroke:#000;stroke-width:1.5;stroke-linecap:round;stroke-linejoin:miter;stroke-miterlimit:4;stroke-dasharray:none;stroke-opacity:1" transform="translate(-297.42 -334.393)"/><path d="M365.675 576.753c.467.384 1.684 2.087 3.618.905 2.194-.843-4.442 1.631-1.407.904" style="fill:none;fill-rule:evenodd;stroke:#000;stroke-width:1.5;stroke-linecap:round;stroke-linejoin:miter;stroke-miterlimit:4;stroke-dasharray:none;stroke-opacity:1" transform="translate(-297.42 -334.393)"/><path d="M364.067 576.753c-2.024 1.532-.207 4.028 1.206 5.326.866 2.057 3.585 2.846 5.728 2.512 2.794-.903 6.974-1.18 9.144-4.12 1.339-.952 3.042-1.329 4.22-2.512" style="fill:none;fill-rule:evenodd;stroke:#000;stroke-width:1.5;stroke-linecap:round;stroke-linejoin:miter;stroke-miterlimit:4;stroke-dasharray:none;stroke-opacity:1" transform="translate(-297.42 -334.393)"/><path d="M367.785 579.969c-1.413-.96 2.068-1.166-.502.603-1.604 1.486 2.16-.994 2.914-1.106-.496.757-4.995 2.906-3.115 2.816 2.046-.7 5.195-3.048 6.632-3.217-2.963 2.446-6.499 4.493-.703 1.004 4.882-3.092 4.305-1.99.402.704-5.725 4.654 3.613-1.678 5.326-2.814 3.921-2.053-1.764 2.393-2.915 2.914 2.02-.762 5.358-2.685 7.939-3.416-.514.367-1.286.374-1.91.603m-24.92-7.537c-1.567-1.797 3.366-3.376-1.106-1.608-5.822 2.884 4.506-2.403 1.508-2.612-2.738.715-4.983 1.37-1.106-.201 3.176-2.232-7.602 1.68-.904-.905 3.43-2.306-1.603-1.466-2.512.402.992 1.029 5.017-1.674 5.426-1.407-5.552 3.394-.555 2.908 2.914 1.508.702 1.034-7.386 4.025-3.517 3.416 2.417-1.046 8.106-2.034 2.914.804-4.585 2.654.686 1.55 2.814 1.005 2.187.133-4.527 1.83-3.015 3.316 6.639-1.778 2.2 1.24-1.507 2.914-.964.876 8.445-2.163 4.02.1-4.432 1.12-4.91 2.606-.235 1.91 3.608.341-6.837 3.132-2.077 2.311 5.143-.8-5.02 2.538-.804 1.608 1.067.057-4.055 1.912-2.11.904m21.806 5.427c1.835.13 3.525-2.158 5.627-2.11 1.73-.479 2.986 1.015 3.92 2.01" style="fill:none;fill-rule:evenodd;stroke:#000;stroke-width:1.5;stroke-linecap:round;stroke-linejoin:miter;stroke-miterlimit:4;stroke-dasharray:none;stroke-opacity:1" transform="translate(-297.42 -334.393)"/><path d="M382.658 584.993c2.175 2.285 3.59 5.55 6.833 6.733.78.731.795 2.064 2.11 2.01m-9.245-26.429c-.736.445-3.35.757-4.12 2.01-1.074 1.365 2.307 1.94 3.417 1.709 2.07-.56 1.479 1.114.804 1.909-1.489.883.49 1.943 1.005.904m-.502-6.029c-.751-1.332 3.71-1.998 5.124-1.206 2.528 1.742 4.953.004 7.939.201 2.086.497 5.011-.73 6.13 1.306 1.551.586 1.067 1.8-.202 2.312m-2.009 2.11c2.883-1.88-1.078-.423-.804.402 3.36.173 5.029.991 1.406 2.411 2.075.659 1.891 1.38-.2.402" style="fill:none;fill-rule:evenodd;stroke:#000;stroke-width:1.5;stroke-linecap:round;stroke-linejoin:miter;stroke-miterlimit:4;stroke-dasharray:none;stroke-opacity:1" transform="translate(-297.42 -334.393)"/><path d="M388.385 569.92c-.331-2.014-1.221-1.436-3.617-.804 2.211-1.2 8.965-1.697 2.713 0-5.21 1.824 5.793-.612 7.336-.402-1.392 1.114-8.383 1.679-7.939 2.613 3.042-.382 15.513-2.516 6.13 0-2.87.386-8.092 2.413-2.311 1.407 3.757-1.127 11.905-.671 3.718 1.105-.631.341-1.34.324-2.01.402m-26.127-6.231c1.144-1.611 4.496-.445 6.03.704.15 1.201-3.175 2.307-.604 2.412 2.668.308-.643 2.301-1.607 2.713.569 1.164 3.669 2.239.2 1.307" style="fill:none;fill-rule:evenodd;stroke:#000;stroke-width:1.5;stroke-linecap:round;stroke-linejoin:miter;stroke-miterlimit:4;stroke-dasharray:none;stroke-opacity:1" transform="translate(-297.42 -334.393)"/><path d="M368.59 569.217c.55.802-2.329 2.404-.302 2.21" style="fill:none;fill-rule:evenodd;stroke:#000;stroke-width:1.5;stroke-linecap:round;stroke-linejoin:miter;stroke-miterlimit:4;stroke-dasharray:none;stroke-opacity:1" transform="translate(-297.42 -334.393)"/><path d="M367.986 571.327c-2.49 1.33 2.7-.89.402-1.105-2.398 1.333-.172-.958-1.406-.704-3.078.603-.667 1.938 1.105 1.005 3.316-.757-3.351 2.623-.804 3.115 3.789-.826 3.442.504-.201 1.508.007.104 1.796-.408 2.21-.603m-27.332-4.221c-2.217-.985.529-.564 1.708-1.005 2.992-.865.585.432-.904 1.206l-.201.1h-.201" style="fill:none;fill-rule:evenodd;stroke:#000;stroke-width:1.5;stroke-linecap:round;stroke-linejoin:miter;stroke-miterlimit:4;stroke-dasharray:none;stroke-opacity:1" transform="translate(-297.42 -334.393)"/><path d="M342.06 570.825c2.247-1.391-3.771 2.438-.602 1.607 4.213-2.095 1.166-.348.2.302m-6.933-2.714c-1.237 4.077.045 8.632-.603 12.863.597 3.03.247 6.007-1.206 8.642.125.464-.28 1.472.1.603m-26.729 2.512c7.93 1.219 15.85-2.882 23.715-1.306l-.2-.302m-22.108 4.723c6.918-.285 13.888-2.572 20.901-2.21m-25.122 17.485c-.581 1.575 3.416.478 4.656.904 7.183.8 14.386.165 21.572-.1.388-.004 2.749.52 2.21.401m82.601-.1c3.712-.556 8.008.87 11.958.904 5.213.72 10.513.142 15.777.402l-.1-.2h-.101m-31.151-22.41c4.396-.067 9.095 1.358 13.666 1.106 2.352-.044 5.52.76 7.235 1.407-.037-.085.463-.34.1-.402m-18.791.904c7.974 2.01 16.686 1.375 24.72 2.613-.403-.015-.816.053-1.205-.1m-104.709-4.523c-.68 1.931-3.305 2.703-3.014 4.422-1.913 3.566.278 7.876-.603 11.757.012.53-.027 1.488.703 1.507M412 594.841c-.14-.25-.58.199-.703-.1" style="fill:none;fill-rule:evenodd;stroke:#000;stroke-width:1.5;stroke-linecap:round;stroke-linejoin:miter;stroke-miterlimit:4;stroke-dasharray:none;stroke-opacity:1" transform="translate(-297.42 -334.393)"/><path d="M411.196 594.64c.751 1.232 2.525 2.79 2.713 4.623.62 3.191-.503 7.157-1.105 10.55.018.746.16 2.134-.804 2.111m-77.476-16.982c-2.09-.155 6.089-.49 7.484-.903.522.076 3.267-.606 2.967.2m-10.351-1.709c2.4-1.42 6.656-.435 9.748-1.105.78.116 1.527-.253 2.311-.1m62.704-18.39c-1.002.927 1.066 1.994.704 3.316 1.196.55 2.207.562 1.206 1.91.583 1.083 2.905-.099.904.2-2.276 1.04 1.396-.825.1-.603-1.374-.414-.17-.528.804-1.306 1.175-.588-2.226 1.743-1.406 1.708 1.79-.9 3.786-.066 1.105 1.005-1.067.401-3.098 1.71-.301 1.306m-1.608 4.422c-3.445 1.78-.613 1.8 1.206-.201.837-.123-2.856 1.61-2.613 1.708.988-.166 5.953-2.135 3.316-.904-.151.177-1.277.45-1.005.703m7.436-12.963c-.593 5.287-.42 10.932-1.507 15.978.343.578 1.095.787 2.01 1.105 4.485.91 9.065.175 13.566-.2 1.162 1.05 3.79.922 4.722.904-.207-.008-.407-.135-.602-.201m-15.174-17.586c3.84.76 8.208 1.278 11.857 2.11-.607-.588-.372.375-.803.101m-124.806 13.867c4.923-1.856 10.448-1.364 15.374-3.416 1.89-.182 3.505-1.006 5.226-.302 1.012-.379-.597-3.086 0-4.522a19.9 19.9 0 0 0-1.206-7.235c1.539-2.43-2.289-3.148-4.02-2.01-4.924 1.028-9.895 2.259-14.47 3.216-1.637-.13-1.728 2.602-1.306 4.12-.489 3.109.734 6.044.703 9.144l.302-.2m58.186-224.063c-.072.095-.153.183-.214.285-.024.04.022.1 0 .142-.015.03-.047.047-.07.07 0 .048.014.098 0 .143-.011.032-.053.043-.072.071-.03.044-.047.095-.07.142l-.143.284c-.024.048-.04.1-.071.142-.04.054-.102.089-.142.143-.083.11-.135.308-.213.426-.019.028-.053.043-.072.071-.078.118-.07.161-.07.284 0 .024-.017.055 0 .071.016.017.05-.01.07 0 .228.114-.085.076.143 0 .044-.015.096.012.142 0a6 6 0 0 0 .426-.213c.054-.04.089-.102.142-.142.043-.032.105-.034.142-.071.038-.037.04-.1.071-.142.04-.054.102-.089.142-.142.032-.043.042-.098.072-.142.018-.028.047-.048.07-.071.024-.048.042-.099.072-.143.018-.027.047-.047.07-.07.025-.024.042-.057.072-.072.021-.01.054.017.071 0 .017-.016-.024-.07 0-.07s0 .047 0 .07v.071c0 .032.01.192 0 .213-.088.176-.071-.024-.071.143 0 .323.033.004-.071.213-.01.02 0 .047 0 .07-.024.048-.042.099-.071.143-.019.028-.053.043-.071.071-.03.044-.042.098-.071.142-.02.028-.053.043-.072.071-.058.088-.083.196-.142.284-.018.028-.052.044-.07.072-.03.044-.042.098-.072.142-.037.055-.112.082-.142.142-.01.021.01.05 0 .07-.015.03-.071.039-.071.072 0 .088.1.071.142.071.024 0 .05.01.071 0 .03-.015.043-.052.071-.071.013-.009.28-.138.284-.142.038-.038.034-.105.072-.142.074-.075.199-.079.284-.142.053-.04.094-.095.142-.142.081-.082.084-.1.213-.143.023-.007.05.011.071 0 .03-.015.041-.056.071-.07.021-.011.071-.024.071 0 0 .033-.056.04-.07.07-.011.022.006.05 0 .072-.087.257-.034.05-.143.213-.059.088-.083.196-.142.284-.019.028-.052.043-.071.071-.01.013-.138.28-.142.284-.038.038-.105.034-.142.071-.038.038-.048.095-.071.142-.024.048-.055.092-.071.143-.007.022.01.05 0 .07-.015.03-.048.048-.072.072 0 .047.015.097 0 .142-.007.02-.128.085-.07.142.016.017.054-.017.07 0s-.016.054 0 .071c.017.017.048 0 .072 0s.05.01.07 0c.03-.015.04-.06.072-.071.045-.015.097.015.142 0 .032-.01.04-.06.07-.071.309-.103-.025.136.285-.071.028-.019.048-.048.071-.071.048-.024.098-.042.142-.071.028-.019.041-.057.071-.072.043-.02.1.022.143 0 .03-.015.037-.07.07-.07.024 0 .017.054 0 .07-.016.017-.05-.01-.07 0-.038.02-.176.176-.214.214-.163.163.03-.045-.142.213-.018.028-.047.047-.07.07l-.143.143c-.024.024-.056.041-.071.071-.01.021.007.049 0 .071-.172.515.02-.112-.142.213-.021.043.021.1 0 .142-.015.03-.071.038-.071.071 0 .034.047.048.07.072.025.023.042.056.072.07.021.011.047 0 .071 0h.071c.024 0 .05.011.071 0 .03-.014.04-.06.071-.07.045-.015.098.015.142 0 .032-.011.044-.053.072-.072.359-.239.002 0 .213-.07.05-.017.092-.055.142-.072.045-.015.095 0 .142 0 .136 0 .044-.016 0 .071-.01.022 0 .048 0 .071 0 .136.017.01-.071.143-.03.044-.048.094-.071.142l-.142.284c-.024.047-.042.098-.071.142-.109.163-.057-.044-.143.213-.007.023 0 .048 0 .071 0 .024-.016.055 0 .071.017.017.05-.01.072 0 .03.015.04.056.07.071.078.039.093-.038.143-.07.088-.06.2-.08.284-.143.054-.04.095-.095.142-.142m8.882-5.898c-.155-.01-.363.337-.497.426-.045.03-.1.04-.143.072-.053.04-.088.102-.142.142-.084.063-.196.083-.284.142-.056.037-.095.095-.142.142-.024.024-.056.041-.071.071-.01.021 0 .047 0 .071 0 .146-.024.016.142.071.032.01.04.06.071.071.154.052.145-.036.284-.07.179-.045.106.044.285 0 .05-.014.094-.048.142-.072.07-.024.14-.056.213-.071.046-.009.096.012.142 0 .103-.026.184-.109.284-.142.045-.015.1.021.142 0 .03-.015.038-.071.071-.071.024 0 .011.05 0 .07-.096.193-.031-.001-.142.072-.082.055-.13.159-.213.213-.044.03-.095.048-.142.071-.047.048-.089.102-.142.142-.043.032-.105.034-.142.071-.038.038-.034.105-.071.143-.173.172-.105-.022-.214.142-.029.044-.033.104-.07.142-.173.172-.105-.021-.214.142-.03.044-.042.098-.07.142-.02.028-.053.043-.072.071-.03.044-.042.098-.071.142-.043.065-.182.15-.213.213-.03.06.025.12.07.143.022.01.048 0 .072 0 .071 0 .146.022.213 0 .032-.011.04-.061.071-.072.045-.015.096.01.142 0 .236-.047.166-.066.356-.142.07-.027.143-.043.213-.07.098-.04.181-.117.284-.143.046-.011.096.012.142 0 .327-.081.016-.071.213-.071.024 0 .071-.024.071 0 0 .034-.056.041-.07.071-.011.021.01.05 0 .071-.016.03-.048.048-.072.071-.024.024-.043.053-.07.071-.045.03-.099.042-.143.072-.084.055-.133.152-.213.213-.076.056-.209.085-.284.142-.133.1-.223.256-.356.355-.042.032-.098.042-.142.071-.061.041-.158.158-.213.213-.024.024-.041.056-.071.071-.021.011-.054-.016-.071 0-.017.017 0 .048 0 .072s-.017.054 0 .07.047 0 .07 0h.072c.047 0 .097.016.142 0 .032-.01.04-.06.071-.07.09-.03.193.023.284 0 .052-.013.091-.059.143-.072.046-.011.096.012.142 0 .326-.081.016-.07.213-.07h.213c.024 0 .071-.024.071 0 0 .033-.056.04-.071.07-.01.022.01.05 0 .072-.015.03-.056.04-.071.07-.01.022.01.05 0 .072-.017.033-.243.242-.284.284-.038.037-.176.194-.214.213-.02.01-.054-.017-.07 0s.023.071 0 .071c-.024 0 0-.047 0-.071m-8.1-.143v.64c0 .047-.016.097 0 .142.01.032.052.043.07.071.03.044.042.098.071.142.175.262-.032-.12.143.142.029.044.033.105.07.142.038.038.099.042.143.072.028.018.043.052.07.07.126.084.212.085.356.143.166.066.153.108.355.142.07.011.143-.012.214 0 .147.024.278.12.426.142.742 0-.109-.03.497.071.07.012.144-.014.213 0 .052.01.09.06.143.071.07.014.143-.014.213 0 .104.02.183.109.284.142.022.007.049-.007.071 0 .05.017.092.055.142.071.045.015.1-.021.142 0 .127.063.016.127.142 0m-3.339-.142c-.095.024-.261.166-.285.071s.188-.059.285-.071c.094-.012.19.016.284 0 .052-.009.09-.058.142-.071.046-.011.096.012.142 0 .051-.013.09-.058.142-.071.069-.017.146.022.213 0 .012-.004.285-.173.285 0 0 .033-.057.041-.071.071-.011.021.01.05 0 .071-.067.133-.092.03-.214.071-.031.01-.043.053-.07.071-.089.059-.197.084-.285.142-.028.019-.043.053-.071.071-.088.06-.196.084-.284.142-.062.041-.158.158-.213.214l-.072.07c-.023.024-.056.042-.07.072-.057.113.033.052.07.07.118.06.02.137.214.072.031-.01.039-.06.07-.071.046-.015.097.011.143 0 .103-.026.186-.103.284-.142.082-.033.345-.11.426-.142.05-.02.093-.052.142-.071.44-.176.022.024.356-.142l.142-.072c.047 0 .097.015.142 0 .032-.01.041-.056.071-.07.021-.011.054-.017.071 0 .017.016.017.054 0 .07s-.05-.01-.07 0c-.03.015-.048.048-.072.072-.09.09-.185.21-.284.284-.043.032-.097.044-.142.07-.074.045-.142.095-.214.143l-.639.426c-.071.048-.146.089-.213.142-.052.042-.089.102-.142.142-.043.032-.1.04-.142.071-.054.04-.089.102-.143.143-.124.093-.213.034-.213.213 0 .023-.016.054 0 .07.017.018.05-.01.071 0 .196.099-.096.104.214 0 .022-.006.048.007.07 0 .146-.035.285-.094.427-.141.071-.024.146-.038.213-.071.077-.039.137-.104.213-.142.067-.034.147-.038.214-.072.076-.038.139-.1.213-.142.377-.215.165-.08.497-.213.05-.02.093-.051.142-.07.07-.029.146-.039.213-.072.03-.015.044-.053.071-.071.045-.03.105-.034.143-.071.016-.017-.017-.055 0-.071.016-.017.07-.024.07 0 0 .004-.199-.005-.213 0a4 4 0 0 0-.426.213c-.054.04-.085.107-.142.142-.064.038-.146.038-.213.071-.348.174-.091.086-.355.284-.043.032-.1.04-.143.071-.053.04-.094.095-.142.142l-.142.143c-.024.023-.052.043-.07.07-.03.045-.043.099-.072.143-.236.235.033-.067-.071.142-.015.03-.056.04-.071.07-.01.022 0 .048 0 .072s-.017.054 0 .071c.01.01.198.007.213 0 .03-.015.043-.052.071-.071.044-.03.098-.042.142-.071.028-.019.043-.053.071-.071.432-.288-.222.204.356-.142.057-.035.088-.102.142-.142.042-.032.096-.044.142-.071.073-.044.142-.095.213-.143m-14.353 4.122c0 .094-.023.192 0 .284.006.023.05-.01.07 0 .03.015.042.056.072.071.026.013.314 0 .355 0 .443 0-.177.021.284-.071.07-.014.144.012.214 0 .073-.012.139-.059.213-.071.163-.027.333.023.497 0 .074-.01.14-.059.213-.071.07-.012.143.011.213 0 .074-.013.14-.059.214-.071.07-.012.142 0 .213 0h.213c.36 0-.085.02.284-.071.046-.012.095 0 .142 0h.142c.043 0 .143-.017.143.07 0 .024-.055-.016-.072 0-.016.017.011.05 0 .072-.015.03-.047.047-.07.07-.024.025-.044.053-.072.072-.088.059-.19.095-.284.142-.095.048-.186.103-.284.142-.07.028-.146.038-.213.071-.077.039-.137.104-.214.142-.134.067-.287.087-.426.143-.19.075-.12.095-.355.142-.047.009-.096-.012-.142 0-.052.013-.092.054-.142.07-.045.016-.109-.033-.142 0-.017.018-.017.055 0 .072.016.017.047 0 .07 0 .093 0 .356.014.427 0 .052-.01.09-.06.142-.071.07-.014.143.01.213 0 .901-.225-.322.056.569-.071.074-.01.139-.06.213-.071.094-.014.19.011.284 0 .097-.013.188-.058.284-.072.07-.01.143.01.213 0 .097-.013.188-.055.285-.07.046-.009.094 0 .142 0 .07 0 .143-.015.213 0 .052.01.092.054.142.07.045.015.109-.033.142 0 .017.017 0 .048 0 .072s.01.05 0 .07c-.04.082-.148.1-.213.143-.028.018-.041.056-.071.07-.067.034-.149.033-.213.072-.058.034-.085.108-.142.142-.116.07-.39.096-.498.142-.157.067-.269.217-.426.284-.108.047-.382.073-.497.143-.18.18-.083.112-.285.213-.047.023-.098.041-.142.07-.028.02-.047.048-.07.072-.025.023-.072.037-.072.07s.043.053.071.072q.066.045.142.071c.046.015.297 0 .356 0h.213c.07 0 .143.012.213 0 .074-.012.139-.06.213-.071.164-.023.334.027.497 0 .074-.012.14-.06.214-.071.093-.013.19 0 .284 0h.497c.102 0 .161-.034.213.071.051.102-.093.11-.142.142-.028.019-.047.048-.07.071-.048.024-.098.044-.143.071-.073.044-.137.104-.213.142-.407.204-.045-.044-.355.143-.074.043-.137.103-.214.142-.067.033-.143.043-.213.07-.168.068-.147.077-.284.214l-.071.071c-.024.024-.056.041-.071.071-.01.021 0 .047 0 .071s-.017.054 0 .071.048-.007.071 0c.05.017.092.054.142.071.023.007.049-.007.071 0 .05.017.09.06.142.071.07.014.142 0 .213 0h.214c.047 0 .095-.009.142 0 .073.015.139.059.213.071.07.012.142 0 .213 0 .071.024.14.057.213.071.047.01.096-.011.142 0 .059.015.325.153.356.214.01.02 0 .047 0 .07v.072c0 .047.015.097 0 .142-.011.032-.048.047-.071.07-.048.048-.102.09-.143.143-.031.042-.039.1-.07.142-.04.054-.095.095-.143.142l-.284.284-.142.142c-.024.024-.053.044-.071.071-.059.089-.083.197-.142.285-.066.098-.127.046-.071.213.005.015.281.282.284.284.133.1.409.16.568.213m-2.699-8.882c.145-.184.334-.03.497-.071.051-.013.09-.06.142-.071.268-.054.167.034.426.07.846.122-.19-.125.498.072.303.087.31.069.64.142.094.021.192.037.283.071.1.037.19.095.285.142l.284.142c.094.048.198.08.284.143.082.058.142.142.213.213.071.07.149.136.213.213.055.065.088.147.142.213.065.077.155.131.214.213l.284.569c.042.074.1.139.142.213.052.092.09.192.142.284.192.337.088.106.355.426.055.066.088.148.142.214.13.154.285.284.427.426l.284.284c.047.047.102.089.142.142.032.043.04.1.071.142.04.054.112.083.142.142.021.043-.015.098 0 .143.048.142.142 0 0 .142m15.49-4.548.214.284c.023.048.039.1.07.142.081.108.204.177.285.285.032.042.047.094.07.142.048.07.09.146.143.213.042.052.108.085.142.142.039.064.033.149.071.213.035.058.1.09.142.142.054.067.095.142.143.213s.103.137.142.214c.033.067.032.149.07.213.035.057.1.09.143.142.106.133.163.305.284.426.06.06.146.089.213.142.105.084.18.2.284.285.134.106.293.177.427.284.052.042.084.107.142.142.064.038.146.037.213.071.153.076.28.196.426.284.046.028.097.044.142.071.074.044.14.099.214.142.546.328-.43-.31.355.214.07.047.135.108.213.142.09.038.194.032.284.07.079.034.14.099.213.143.046.027.097.044.143.07.073.045.136.105.213.143.067.034.143.043.213.071.049.02.093.052.142.071.707.236-.168-.067.355.142.07.028.144.043.213.071.05.02.093.052.143.071.069.028.143.044.213.071.098.04.181.117.284.143.046.011.097-.015.142 0 .032.01.047.047.071.07l.071.072.071.07c.024 0 .055-.016.071 0 .017.017-.01.05 0 .072.015.03.057.04.072.07.022.046-.023.311 0 .356.015.03.056.041.07.071.022.043-.033.109 0 .142.017.017.055-.016.072 0 .033.034-.034.109 0 .142.016.017.07-.023.07 0 0 .024-.047 0-.07 0h-.071m-67.114 160.75c4.625-.761 9.596-1.565 14.47-1.005 2.109.881 5.091-.404 5.808 1.823 6.207.554 12.238-.9 18.51-.818 2.234.581 4.987-.476 6.633 1.206h.401m12.461-1.206c3.081-.24 6.351-.208 9.446.201.368-.215 4.233-.429 2.613.201m-37.583-26.529c-.93 6.113-2.245 13.532-.841 20.078.449.086.264.924.64.824m33.563-12.662c.883 4.142 1.195 8.526 1.206 12.863l.2-.201m-30.145-53.46c-1.795-.364-2.606 2.866.602 1.608-2.83 2.597 4.978 1.184 1.588 3.052-4.092 1.28 2.57.508 3.035 1.57-3.829 1.286 3.844 1.21 1.206 2.01-.062.708.81.309 1.206.402m9.646.603c1.405-.756 7.66-2.47 3.216-1.407.686-.82 4.975-4.038 2.01-3.416-.495.477 5.383-1.254 2.01-2.412 2.643.153 2.704-1.891 1.205-3.015 1.027-2.4.243-2.84-1.808-3.416-.043-.489.795.113.603-.402m-9.245 10.451c1.7.481 4.707-1.68 3.215-3.015-.43.207-.909.113-1.206.603m-7.436 7.235c.98 1.709 5.58 2.556 4.02-.402m-1.608-6.431c-2.856-.128-.52 2.738 1.005 1.608m-4.221-3.015c.485.473 2.694-.598 2.412-.603m2.814-.201c1.165-1.01.514.73 1.407.402m-32.96-15.877c-.253-1.82 2.072 4.68 1.808-.133.25-3.95-.135-1.043 1.206.736 2.205 1.562 1.247-4.41 1.809-2.21 1.686 1.6.736-2.663 3.216-.403.646-1.198 1.006-2.676 1.607-.402.976 1.339 1.276-4.628 2.01-1.608 1.153 1.757 3.167.06 3.417-1.808-.27 3.239 1.612 2.948 2.21.402 1.009-2.518 1.087 3.44 2.055.81l-.246-.006m22.711-.603c-2.661 2.49-.455 2.306 1.826.594 3.948-1.916-2.356 1.86-.42 1.817 1.282-.234 5.249-3.035 3.216-.402 1.364.126 5.391-2.152 2.613 0-2.82 2.426 3.07-.48 3.818 0-2.55 1.767-1.048 2.706 1.407.804 2.853-1.558-2.811 2.963.804 1.206 2.95-2.028-1.274.86.2 1.206.958-.24 2.794-1.343 2.212 0m-26.931 112.747c.323 1.695-6.362 5.338-3.819 5.427 4.003-1.381 8.743-5.285 11.858-6.03-3.52 3.604-11.245 6.898-13.264 10.05 5.646-2.367 11.646-5.447 16.48-8.442-2.993 2.83-10.278 5.41-11.45 7.233 5.011-1.151 12.745-8.74 14.464-9.243-2.001 2.794-14.202 8.14-9.446 6.834 3.296-1.043 11.471-7.111 11.255-7.035-4.176 2.947-7.768 7.132-1.206 3.216 7.518-3.28-2.28 1.295-3.215 3.015 1.733.4 10.43-4.101 5.828-1.407-5.831 2.824 1.962 1.085 3.215 0-5.035 1.752-3.812 3.885.613 2.213 1.72-.293-5.896 2.576-1.35 2.61 3.637-.141-3.955 3.263.335 3.015 4.488.345-3.457 2.645-1.205 5.225v.201m-42.808-20.901c-3.508 1.496.588 1.1 2.393.194 3.136-1.678-3.726 1.345-3.6 2.217 1.227.606 9.078-2.58 4.422-.2-6.135 3.005.361 2.343 2.412 1.607-2.469 1.052-4.728 2.94-.603 1.81-1.899 1.294-8.172 5.127-1.005 4.019 1.357-.197.45.216-.2.2m4.823 1.207c1.75-2.189 2.815-1.096.804 1.004-.86 1.928 3.317-.094 3.215-.402-3.367 1.118-2.773 4.013.603 2.412.735-.952-3.76 3.053.201 2.613-.256 1.184-1.243 2.66-1.005 4.02-.875.008-2.102 3.875-1.005 2.612" style="fill:none;fill-rule:evenodd;stroke:#000;stroke-width:1.5;stroke-linecap:round;stroke-linejoin:miter;stroke-miterlimit:4;stroke-dasharray:none;stroke-opacity:1" transform="translate(-297.42 -334.393)"/><path d="M333.419 593.334c2.678.358 8.037-2.33 9.847-1.608-1.491.018-8.16 2.633-3.416 2.01 2.434-.577 7.448-3.181 4.421.402.665-.403 1.924-.352 2.01-1.407m53.862-2.814c-3.05-.113 3.417-.556-.201.804-2.87 1.794 3.564.422 4.823 0 1.056.278-5.073 1.77-1.809 1.608 1.455-.018 7.333-2.147 3.618-.804-1.609 1.026 1.716 1.736 1.809.804m7.034-.402c-4.066-.736 3.353-.403 5.024-.804 2.23 1.374-4.852 1.643-4.02 1.809 2.607.487 8.574-1.93 10.25 0-3.024.942-6.855 1.37-1.407 1.005 2.255-.145 5.695.202 7.236.2-4.847.708-.041 1.458 2.277 1.408 1.776-.033 6.807.341 2.345.2-.275-.176-.998.377-.2.201m-132.242-.602c1.72.348 5.153-1.659 1.607 0-5.008 1.168 2.059 1.18 4.22-.402 4.909-.926-3.868 2.292-2.21 2.21 2.077-.441 10.974-3.574 9.881-1.785-5.278 1.683 1.997-.268 4.154-.82 3.068-.827 4.619-1.239 1.64.194-.955 1.108 6-1.557 3.618-.402-2.32.565 1.13.717 1.005-.201m5.427-17.083c1.774-2.287-1.95.166-1.834 1.211 2.072 1.823 5.735-3.065 3.04-2.216-2.232 1.134-2.475 6.806.803 2.613.755-3.003-2.057.55-2.411 2.01.901 2.531 3.937-1.902 1.406-1.407-.673-.002-1.186.482-1.004 1.205m-1.206-16.48c.28 1.35.187 2.699.402 4.02m77.375-2.814c-1.03-1.632-4.683 4.789-2.01 3.618m13.466-1.407c1.894-.276-.774 1.297-1.005 3.818h.201" style="fill:none;fill-rule:evenodd;stroke:#000;stroke-width:1.5;stroke-linecap:round;stroke-linejoin:miter;stroke-miterlimit:4;stroke-dasharray:none;stroke-opacity:1" transform="translate(-297.42 -334.393)"/><path d="M303.272 570.222c.866.6 2.75-2.55 4.623-2.01-.835.744-4.771 3.24-2.613 3.215 2.476-.069 8.656-5.961 3.688-1.879-1.09 1.743 6.453-3.685 8.572-3.346-2.414 1.088-3.041 1.806.401.603 3.435-1.096 9.074-2.69 3.015-.603.995 1 10.1-2.8 9.446-1.809-5.776 2.423.87 1.807 3.417.201 2.444-.327 1.83-.783.402.201m76.571-.201c1.757-.13 9.805-2.011 4.02 0-6.788 1.62 2.544.24 5.09.402 3.77-.03-5.996 1.032-1.34 1.005 2.382.012 7.702-.16 8.107.804-4.228 1.53 4.355 1.341 5.694 1.608 3.874-.233-1.653 1.693 4.154 1.809 5.828.276 1.493 1.426 1.608 1.205h.402m-22.107 29.543c6.168 1.42 13.397.712 19.695 3.217 1.769.497 4.146 1.73 5.627.401m-140.884-2.009c4.1-.902 9.15-1.416 13.798-1.206 3.54.236 7.122-.547 10.52 0m5.025-2.813c2.61-.086 5.2-.444 7.838-.604m65.92.804c3.11-.81 6.496.384 9.848 0v-.2" style="fill:none;fill-rule:evenodd;stroke:#000;stroke-width:1.5;stroke-linecap:round;stroke-linejoin:miter;stroke-miterlimit:4;stroke-dasharray:none;stroke-opacity:1" transform="translate(-297.42 -334.393)"/></svg>