<svg xmlns="http://www.w3.org/2000/svg" width="539.609" height="648.894"><path d="M775.472 98.576c.89 5.536-.15 11.46 1.325 16.883.247.906-.185 3.48.442 2.78.27-.3.657-2.007.828-2.383-3.01 8.071-11.393 12.04-14.515 19.865-1.489 3.733-1.261 7.799-1.877 11.673-.447 2.817-1.358 6.533-.772 9.336.243 1.165-.325 2.448-.553 3.573-.039.195.071.783 0 .597-.202-.532 1.171-1.716 1.491-2.088 2.759-1.82 5.44-3.764 8.276-5.46 4.476-2.677 16.02 2.095 19.815 4.964 1.4 1.058 2.77 4.144 3.749 4.722.73.432 1.047-.414 1.49-.943m-35.704 45.586c8.073-7.708 19.803-8.246 30.133-5.164 1.832.546 3.904 4.053 5.516 4.472m-34.048-36.849c2.799 6.663-3.93 30.823 1.822 27.162m-3.589 18.776c-1.341 2.068-2.861 4.03-4.025 6.203-1.43 2.672-1.542 6.74-2.318 9.687-1.455 5.523-6.743 11.135-10.982 14.8-2.222 1.922-3.663 4.572-5.791 6.555-5.935 5.53-12.85 9.573-18.821 15.147-6.697 6.252-11.28 15.003-15.78 22.846-3.55 6.19-8.18 11.571-11.147 18.173-5.215 11.605-8.667 23.28-11.643 35.66-.842 3.5-1.105 6.597-1.105 10.183 0 1.829-.401 3.678-1.104 5.36-.165.396-.479 1.648-.33 1.245.493-1.348 1.38-2.45 2.207-3.629m113.066-190.356c-2.305 7.14 1.563 14.338.497 21.456-.418 2.786.246 7.59-.497 4.913m-24.718-27.463c-2.176 7.59 2.022 15.384 1.325 22.896-.158 1.695-2.413 2.628-1.601 4.818.338.913 1.241-1.657 1.27-2.63m7.282-26.52c.282 7.617-2.602 15.827-1.436 23.438.65 4.233 2.2-.901 2.098-2.63m6.565-19.222c-3.576 7.082-.718 13.462-.718 20.563 0 1.188-1.656 3.082-.552 3.523 1.063.424 1.225.027 2.209-.497m2.208-16.487c1.25-2.843 2.02 26.448 3.644 22.695" style="opacity:1;fill:none;stroke:#000;stroke-width:5.081;stroke-linecap:round;stroke-dasharray:none;paint-order:normal" transform="translate(-500.398 -97.035)"/><path d="M771.608 103.74c3.06.57 7.235-.83 8 .793m-1.651 15.348c8.816 6.573 11.932 15.08 14.288 25.325.892 3.875-.136 9.05.608 12.568m-120.79 214.988c4.631-16.378 22.961-18.443 36.914-23.689 23.465-8.823 54.671-14.187 79.85-10.283 4.562.707 8.724 2.798 13.24 3.528 4.88.788 9.915.376 14.791 1.34 6.299 1.245 12.522 3.116 18.816 4.27 5.612 1.03 12.745 1.293 18.043 3.479 12.776 5.271 22.732 14.992 27.041 28.156.314.958.175 3.36.276 3.724m-212.89 71.915c-2.1-5.247-6.359-10.096-5.295-16.09 1.778-10.02 13.627-14.335 21.134-19.172 6.817-4.392 14.348-8.82 22.289-10.976 22.346-6.067 46.567-9.166 69.587-10.28 6.018-.29 12.05-1.522 18.098-1.34 9.108.277 17.866 3.363 26.71 5.215 3.278.687 6.654.48 9.933 1.09 14.756 2.741 35.268 4.895 45.852 16.441 3.65 3.982 9.92 10.333 10.595 15.79.059.475-4.388 13.193-2.7 8.943" style="opacity:1;fill:none;stroke:#000;stroke-width:5.081;stroke-linecap:round;stroke-dasharray:none;paint-order:normal" transform="translate(-500.398 -97.035)"/><path d="M670.794 391.287c.22-1.872.256-3.775.662-5.616.09-.405 11.174-9.123 12.858-9.882 3.699-1.668 7.683-2.204 11.308-4.171 2.69-1.46 4.785-3.866 7.453-5.215 3.51-1.774 7.485-3.31 11.092-4.818 16.924-7.077 36.43-7.885 54.52-8.19 5.167-.088 12.03-2.82 16.994-1.592 5.087 1.26 10.728 2.088 15.945 2.831 7.493 1.068 16.05.204 23.287 2.484 3.004.947 13.287 3.144 14.901 4.171 1.23.783 1.582 2.031 3.197 2.63 2.443.906 5.995.083 8.226 1.345 4.642 2.626 17.316 6.456 20.196 10.876 2.326 3.569 6.592 5.377 6.951 9.882.121 1.514.932 3.215 1.105 4.768.037.332.011 2.607.11 2.53.303-.238.331-.696.497-1.044" style="opacity:1;fill:none;stroke:#000;stroke-width:5.081;stroke-linecap:round;stroke-dasharray:none;paint-order:normal" transform="translate(-500.398 -97.035)"/><path d="M664.058 433.546c.706-2.785-1.378-6.339-.712-9.335 1.714-7.717 8.047-8.67 9.38-11.97 1.16-2.877-.029-6.623.497-9.631.49-2.81 1.154-6.054 1.154-8.894 0-1.195-1.632-4.214-.657-3.523.872.618-.692-.23.988.597m2.705 20.362c7.94-5.084 15.68-11.336 24.668-14.505 5.119-1.805 10.628-2.388 15.724-4.22 1.525-.549 2.697-1.882 4.251-2.334 3.3-.96 7.034-.516 10.43-.793 8.619-.705 17.206-1.317 25.827-1.888 3.591-.237 7.074-1.367 10.7-1.44 6.82-.138 13.615.809 20.422 1.044 2.86.099 6.127-.863 8.938-.351 5.701 1.036 14.973 2.84 20.749 3.327 7.056.595 14.677 1.2 21.52 3.182 2.243.65 3.768 2.37 6.068 3.127 17.481 5.756 25.075 8.34 37.908 20.959 3.991 3.924 1.552 9.238 1.435 14.153-.055 2.32.988 3.242.166 5.611-.11.315-.528 1.212-.331.944.467-.638.779-1.378 1.214-2.038m-203.947-39.182c-.352-1.647-.102-9.41 1.049-11.72zm6.675-14.103c2.388 2.991-.922 7.517.828 9.586m15.669-17.681c-1.31 1.197-.949 9.505-.878 10.378m7.171-12.964c-1.403 3.854-1.637 9.068-1.158 12.763m8.22-17.034c-.271 3.653-1.824 9.898 1.325 13.064m12.031-15.543c-.206 2.717-.22 8.02.717 10.926m6.068-14.8c-.327 3.08-1.78 19.685.552 14.102m5.465-15.096c1.038 5.073 1.689 10.27 1.05 15.443m16.22-13.953c.101.815-4.112 12.259.332 10.876m5.41-12.07c.072 3.345-.658 11.695-.276 13.756m11.087-12.512c-.307 3.02-2.963 8.913-1.43 11.67m17.104-10.279c3.379 1.58-2.07 11.832-1.435 14.399.113.46.752-.576 1.104-.894m8.331-.245c-.4-1.852-2.252-9.515-.22-12.964zm20.527-7.052c-.711-2.806-1.6 13.625.608 10.971m7.778 1.692c-.8 4.674-3.067-13.803-.546-13.511zm3.59-11.077c.177 1.956 1.155 12.26 2.373 12.467m11.423-7.102c.491 4.104 1.56 8.141 1.822 12.266m4.964-7.995c-3.806-2.021.312 15.567 1.546 11.67m5.3-7.946c1.144-.298-4.517 12.021-.994 10.776m15.558-1.737c-1.99 5.141 1.119 10.896 1.657 15.248m-207.647 51.348c-.68 2.02-1.563 3.985-2.042 6.063-1.442 6.255.055 14.817.055 21.305 0 .356-.11 2.517.166 2.63.47.192.58-.833.883-1.24m11.313-23.293c.239-1.92.362-3.859.717-5.761.252-1.35 4.137-4.59 5.24-2.234 2.858 6.105 2.698 23.209 1.656 30.244-.605 4.085-.309 9.247-.276 9.235 1.05-.382 1.091-1.955 1.546-2.976m8.607-5.913c-.53-20.06.736 21.028-.22-9.536-.14-4.466-.287-9.268.33-13.706.382-2.738.261-4.919.332-7.649.052-2.009-.396-4.392 0-6.354.727-3.602 7.403-5.078 9.49-2.73 4.764 5.359 4.526 18.665 3.313 25.225-.552 2.986 2.04 7.897.22 7.649m78.521-4.718c-1.261-5.338-2.073-27.46 2.32-31.087 1.304-1.078 9.243-3.39 9.876-1.49 1.211 3.633 4.1 6.43 5.08 10.127 1.829 6.902.56 14.574 1.71 21.657.493 3.027.972 6.05 1.376 9.09.039.292-.162 3.092.055 3.126.854.134.987-1.12 1.215-1.641m-75.435-49.311c3.144-2.317 5.943-5.068 8.945-7.553 1.499-1.242 8.625-7.228 9.16-7.147 1.257.19 2.277 1.148 3.472 1.586 4.815 1.762 8.935 6.185 13.08 9.29 3.131 2.346 5.243 3.906 7.613 6.9.85 1.074 4.688 2.824 3.478 2.184-1.43-.757-2.766-1.677-4.14-2.53" style="opacity:1;fill:none;stroke:#000;stroke-width:5.081;stroke-linecap:round;stroke-dasharray:none;paint-order:normal" transform="translate(-500.398 -97.035)"/><path d="m755.221 417.11-3.202-5.662c-.075-.231.611-.62.552-.994-.221-1.408-4.155 3.154.497-5.214.154-.278.12-1.13.331-.894 5.066 5.68 7.878.302 1.822 12.763zm-21.134 20.014c-2.906-6.422-6.347 7.841-8.276 6.505-.396-.274-1.103-1.445-1.38-.397-.74 2.795-2.707 7.36-.608 10.083 1.487 1.93 5.181 1.692 5.074 1.837-2.528 3.448-.524 17.3-.607 22.098-.07 4.062-1.26 8.166-.939 12.216.376 4.733-.405 12.241 1.49 16.588.749 1.715.432 3.761.222 5.56-.048.413 0 1.66 0 1.245 0-1.028-.012-.264.165-2.283m39.675-45.838c-.25-5.209.486-13.008-3.087-18.379-.58-.872-2.344-1.394-3.147-1.987-11.536-8.525-25.119 10.26-23.122 20.813-1.899 11.884-.14 22.068-1.546 33.968-.354 3-.06 7.177.056 7.051.424-.463.853-1.957 1.159-2.534m34.158-32.181c1.07 7.12-6.84 33.547-2.87 38.239 1.116 1.319 1.505-3.192 1.656-4.914" style="opacity:1;fill:none;stroke:#000;stroke-width:5.081;stroke-linecap:round;stroke-dasharray:none;paint-order:normal" transform="translate(-500.398 -97.035)"/><path d="M725.314 508.091c-3.095 8.045-2.58 4.277.33 8.643.248.37.428 2.795.663 2.931 1.158.666 2.296-1.438 3.584-1.792 5.29-1.454 11.999-2.49 17.44-2.384 11.215.218 22.983-1.453 33.823 1.541 3.235.894 6.997-3.22 6.017-4.567-.915-1.259-3.849-1.007-5.134-1.39-.758-.226-.664-2.555-1.27-3.182-1.051-1.09-1.738-.58-2.755-1.24-.272-.177 1.292-.686 1.32-.698.543-.232-.813-.873-1.1-1.39m3.253-53.783c1.508 4.485 1.944 8.53.994 13.01-.254 1.194-1.109 4.685-.497 3.628.885-1.53 1.607-8.79 1.214-10.58-.449-2.049-1.884-3.966-1.711-6.057.284-3.445 1.987-6.622 2.981-9.933M724.1 521.402c-1.01 3.28-1.337 6.15-1.105 9.435.052.732.984 1.99.276 2.183-.238.065-1.963-.044-1.988 0-.218.398 4.367.397 5.024.397 4.817 0 9.614-.565 14.4-.944 2.915-.23 5.878 1.219 8.828 1.395 4.732.284 10.34.643 15.122.542 4.766-.1 9.107-.706 13.907-.145 1.886.22 8.802.973 6.565.05m-2.926-15.448c.567 3.153.61 6.7 1.711 9.787 1.107 3.104 3.762 2.692-.442 4.22m-61.25 4.964c-6.216 14.687 1.156 10.734 1.601 11.474.672 1.117-2.268 10.376-2.374 11.568-.474 5.348-.733 9.781 2.374 13.114.307.33.963.045 1.215.497.805 1.447-2.432 4.381-2.595 5.712-.325 2.642 1.577 3.388 1.656 5.661.197 5.684-.721 10.797-.055 16.487.815 6.965.333 15.177-.166 22.199-.2 2.814-1.238 10.243-.386 12.567.164.449.024-1.076-.331-1.395-2.345-2.108-7.022 8.955-4.748 8.542 1.646-.3.608-3.434.441-4.417m17.496-70.771c.166-1.755 2.252-5.1.497-5.265s-1.44 6.755-.497 5.265c3.755-5.935 1.606-8.913 5.847-12.462 11.81-9.885 27.638-2.074 26.816 11.222m-38.57 61.085c0 .817.796 3.064.276 2.434-1.232-1.494 1.239-34.952 1.27-38.244.034-3.638.075-7.257-.442-10.876 13.567 27.823 3.43 3.7 4.803 11.228.711 3.896-.432 7.135.166 10.524.317 1.798.961 2.922.828 4.818-.36 5.12-2.059 9.584-.828 14.65.472 1.944-.665 3.873.938 5.516.83.85 4.524.403 3.805 1.837-.74 1.474.31 6.47.22 5.014" style="opacity:1;fill:none;stroke:#000;stroke-width:5.081;stroke-linecap:round;stroke-dasharray:none;paint-order:normal" transform="translate(-500.398 -97.035)"/><path d="M749.204 620.43c-4.23-5.125-2.312-10.743-3.584-16.79-1.124-5.34-1.448-10.534-1.16-15.99.318-5.999-.656-12.932 1.988-18.424 1.396-2.899 2.6-5.512 5.847-6.358.626-.164 1.562-1.063 1.877-.497 6.712 12.05 1.347 11.248 2.208 23.393.829 11.673 1.983 23.282 1.983 34.86 0 .452-.87-.286-1.32-.295-2.613-.053-5.226.06-7.84.1zm26.268-39.585c-1.03 1.887-2.469 3.603-3.091 5.661-.18.595.66 1.062.883 1.642.213.555.44 3.44.442 3.523.089 3.363-1.169 6.767-.663 10.133.273 1.815 1.355 3.544 1.27 5.415-.25 5.495-1.526 10.813-1.435 16.437.055 3.42.658 6.533.11 9.882-.247 1.509.469 3.747.386 3.378-.173-.782-3.545.454-3.533.497.7 2.525.817 5.41 3.865 5.41.443 0-.897.214-1.325.1-.168-.044-.194-1.286-.221-1.49m11.975-97.537c1.502 11.151.808 4.652 1.435 13.014.498 6.638-.938 12.73-.938 19.117 0 .4 1.213-2.75-.663-3.177-.461-.105-2.859 2.53-4.361 2.188-.438-.1.881-.177 1.325-.25m2.097 7.152c-.41 5.137-.565 10.292-.717 15.442-.248 8.421-.695 16.856-.773 25.28-.026 2.825.257 5.087 1.27 7.7.353.91-.723 3.588 0 2.93.201-.183.696-.461.497-.647-1.113-1.038-.815 3.003-.663 4.517.116 1.145 4.005.273 4.362.597 1.066.97-2.644 1.891-2.76 3.328-.144 1.766 1.785 3.576 1.545 4.567M667.591 514.3c13.714-8.006 26.373-17.72 39.785-26.174 2.213-1.394 4.798-2.1 7.012-3.523 2.14-1.375 3.752-3.574 5.902-5.069 2.524-1.756 6.407-2.224 9.16-3.177m55.568-.297c4.776 1.29 7.89 3.273 11.644 6.204 5.676 4.431 10.91 9.013 17.436 12.221 5.627 2.766 11.864 3.748 16.06 8.492 2.057 2.326 6.722 4.23 9.546 5.807 1.252.7 2.333 1.434 3.528 2.188.375.237 1.542.815 1.104.743-.617-.1-1.21-.313-1.821-.447m-192.911-58.304c-1.604 2.988 1.183 9.446-.442 13.114-.644 1.454-2.66 1.638-3.588 2.831-2.96 3.806-4.417 7.502-6.068 11.965-.52 1.403-1.889 11.326-.994 8.592 6.61-.258 12.534 2.538 19.092 1.245.982-.194 2.117-.994 3.147-.994 2.853 0 3.185 2.428 1.104 3.624m-21.411 3.177c-.963 4.17-.002 6.424.608 9.982.94 5.49.17 14.136-1.38 19.72-.54 1.942-3.071 4.266-.829 6.253.642.569-1.126 3.238-.828 2.434.47-1.265-.295.222 1.215-2.133m18.263-35.458c-.355 7.007.929 14.009.773 21.004-.044 2.007-1.166 5.039-.607 7.051.03.106 1.608 1.964 1.601 1.988-.334 1.143-1.502 1.76-1.987 2.83-.235.519.17 1.54-.276 2.635m-17.215 2.932c4.059.554 10.983-3.342 15.282-1.541.948.397.247 1.583 1.38 1.937 2.072.647 2.687-.483 6.018.793m-21.852 2.485c-5.292 7.219-.61 14.981-1.656 22.745-.651 4.832-6.41 7.088-7.283 14.153-.46 3.73 2.42 6.735 2.535 10.083.088 2.566-1.18 4.82-1.436 7.348-.343 3.4.608 6.692.608 10.083 0 2.769-.289 22.099.497 23.885.37.843 1.71-2.18 3.533-5.908m22.956-81.843c-1.34 5.368-5.111 12.5-3.036 18.425 1.209 3.451 5.34 4.832 6.46 7.995.284.804-1.81 11.648 1.871 7.548.467-.52-1.917.644-1.651 1.29 1.154 2.798-1.061 4.42-1.656 7.252-.2.953.26 20.07.386 20.96.602 4.23 2.016 8.04 1.983 12.41-.039 5.062-1.21 10.2-.332 15.248.014.08 1.01 5.057 2.098 4.668 1.09-.39.017-2.318-.055-3.473m-13.792-79.063c-4.864-.555-.652 15.557-1.49 12.166m-1.546-58.053c-1.112 4.054-6.071 12.569-1.932 16.783" style="opacity:1;fill:none;stroke:#000;stroke-width:5.081;stroke-linecap:round;stroke-dasharray:none;paint-order:normal" transform="translate(-500.398 -97.035)"/><path d="M637.96 574.938c6.525-3.163 13.965-2.36 20.362-3.031m26.103 10.479c-.93-3.849-3.38-10.137-1.767-14.404 1.023-2.708 10.44-9.626 13.626-7.448 1.233.842 1.767 2.35 3.202 2.93 3.708 1.501 2.037 3.86 3.313 6.857.574 1.348 2.393 1.305 2.595 3.026.274 2.344-.983 4.482-.718 6.951.387 3.602 5.6-3.156 6.013 1.49.615 6.933-1.536 14.176-.939 21.256.905 10.721-.123 20.675-.331 31.338-.032 1.627.8 14.99-.663 8.742M677.58 584.62c.33 2.45.627 4.906.993 7.352.99 6.615 2.436 12.964 2.319 19.714-.113 6.483-1.572 12.704-.829 19.222.231 2.026 4.53 9.085.718 9.085-.178 0 .983-4.104 1.049-4.668" style="opacity:1;fill:none;stroke:#000;stroke-width:5.081;stroke-linecap:round;stroke-dasharray:none;paint-order:normal" transform="translate(-500.398 -97.035)"/><path d="M688.284 640.394c.475-3.865 2.383-7.794 2.264-11.774-.118-3.94-3.99-20.044-3.147-23.539.277-1.146 1.224-1.67 1.38-2.98.146-1.223-.48-3.609.497-4.568.76-.746 2.745-1.126 3.644-1.39 1.684-.495 3.804 6.708 3.804 8.492 0 4.507.948 8.839.994 13.31.07 6.925-.849 14.115-.552 20.959.107 2.479 1.435 4.6 1.435 7.151 0 1.499.936-2.852 1.546-4.22m108.654-.944c4.605-6.25.497-11.508.497-17.732 0-3.154-.346-6.215-.497-9.335-.182-3.75-1.926-10.99.386-14.354 1.915-2.785 4.633-6.017 4.633-5.365 0 1.963 2.27 3.58 2.594 5.812.32 2.19-.335 4.5-.22 6.705.482 9.263 2.195 18.206 2.926 27.413.075.947 1.683 6.844.883 7.498-.752.615-1.903-.576-2.87-.496-3.867.32-1.204.458-8.332-.146z" style="opacity:1;fill:none;stroke:#000;stroke-width:5.081;stroke-linecap:round;stroke-dasharray:none;paint-order:normal" transform="translate(-500.398 -97.035)"/><path d="M797.325 640.244c1.55-8.05 1.213-16.18.938-24.337-.08-2.359-1.057-4.7-.938-7.051.177-3.516 1.363-7.021.772-10.625-.848-5.175-3.097-10.862-2.153-16.242.62-3.528 5.66-1.539 6.289-4.371.229-1.028-.876-6.915-.718-8.838.34-4.112 9.771-8.086 13.466-8.246.863-.038 1.312.951 1.987 1.49 3.606 2.877 5.93 6.94 5.792 11.87-.016.577-.817 2.977-.717 3.428.263 1.195 3.591 1.598 3.643 2.484.19 3.243 1.152 6.306 1.325 9.531.49 9.113.24 18.478.055 27.614-.105 5.206 1.794 10.327 1.601 15.443-.08 2.111-.454 4.058-.11 6.158.081.496.152 1.988.22 1.49.119-.857.203-1.719.277-2.579" style="opacity:1;fill:none;stroke:#000;stroke-width:5.081;stroke-linecap:round;stroke-dasharray:none;paint-order:normal" transform="translate(-500.398 -97.035)"/><path d="M795.006 572.85c-2.324-15.787 3.259-19.754 16.994-21.104 4.23-.416 8.616-.782 11.975 2.233.662.594.45 2.067.773 2.83.719 1.707 2.908 3.543 3.257 5.115.909 4.089 1.273 10.698 2.595 13.41m-162.567.246c-2.038 3.236 5.023 2.642 5.52.849.5-1.794-5.312 1.002-5.52-.849-.38-3.383 2.972-6.126 4.362-9.234 1.593-3.566 1.999-6.993 4.742-10.134 4.465-5.11 16.348-5.702 22.294-3.97 1.437.42 2.474 1.556 3.865 2.083 1.521.578 4.252.559 5.46 1.742 1.289 1.262 1.376 6.682 1.546 8.391 1.39 14 1.398 10.503 12.693 10.134m65.225 1.289c4.13 1.223 13.637-4.036 7.227.196m36.693 1.094c3.243-.354 6.306-.346 9.496-.346m-168.469-36.949c12.101.802 24.273-2.334 36.252-2.334 1.133 0 2.036 1.065 3.147 1.29m79.9 1.195c3.569.047 7.137-.025 10.706 0 7.81.053 15.456-.697 23.232-.944 1.883-.06 3.765-.157 5.626-.452.387-.06 1.266-.573 1.16-.195-.34 1.203-.523.694-.773 1.044M628.966 642.281c.345 3.955.883 7.861.939 11.82.163 11.589-.166 23.058-.166 34.615 0 2.187-1.971 17.64-.276 10.921m18.209-45.587c-.765 7.67.421 15.158 1.49 22.696.379 2.67-.445 12.968 1.546 10.279m4.356-25.03c11.174-4.5 22.977-3.213 34.656-3.975 11.227-.731 23.959-3.947 35.207-2.73 19.231 2.081 38.732 2.93 58.325 4.025 4.412.247 8.385-.972 12.692-1.044 8.455-.14 16.95-.163 25.386-1.094 4.674-.516 9.963-1.29 14.675-1.29.353 0-1.388.053-1.049.151.237.068 4.953.377 4.803 1.19-.095.514-1.643.676-2.043.742m-175.088 29.998c4.908-8.224 11.286-9.966 19.754-10.58 3.874-.28 7.063-1.222 10.485 1.044 5.593 3.705 8.216 10.683 10.318 16.638.076.213.753 5.4 1.105 5.516.708.233 1.17-.354 1.706-.648m20.035 1.491c-1.49-18.265 11.781-27.707 28.748-22.746 9.188 2.686 9.627 9.284 10.595 16.984.466 3.7-.248 7.616-.055 7.348.682-.951 1.496-1.802 2.208-2.73m22.841.993c.621-1.89 2.171-6.186 2.76-8.838 4.845-21.798 35.144-16.313 37.25-3.031" style="opacity:1;fill:none;stroke:#000;stroke-width:5.081;stroke-linecap:round;stroke-dasharray:none;paint-order:normal" transform="translate(-500.398 -97.035)"/><path d="M708.701 663.586c-.073 2.368-.107 4.736-.22 7.102-.262 5.469-1.3 10.953-1.16 16.437.064 2.481.883 4.864.883 7.348 0 2.722-1.795 4.873-2.153 7.548-.154 1.154.744 4.567.331 3.478-.462-1.22-.886-1.65-.933-3.076m18.264-37.05c2.568 12.063.31 24.417.11 36.648-.023 1.403-.026 2.693-.166 4.075-.026.266-.365.87-.11.793 1.419-.43 2.06-2.49 2.54-3.674m47.729-37.646c-.622 10.497 1.041 20.803-.552 31.237-.017.113-.914 6.21-.442 6.113 1.703-.351 1.751-1.982 2.043-3.428m11.644-34.419c-.147 2.914-.505 5.826-.442 8.743.524 24.286.798-6.895 3.257 19.267.101 1.07-3.439 14.365-1.159 9.39m-136.298-56.964c39.717 5.908 79.03-.458 118.857-1.59 11.143-.317 22.176.563 33.276.396 2.511-.038 32.381.48 33.937 2.585m18.098-195.074c.526 3.974-.07 6.29-1.104 9.681-1.517 4.976-7.906 7.94-9.435 13.26-.723 2.515-1.735 6.213-1.656 8.743.111 3.624 1.833 6.299-.056 8.788-.111.147.313-.236.497-.246 1.297-.07 2.63-.284 3.865-.698 3.13-1.048 5.874-3.336 9.214-3.673 2.56-.259 13.934 2.93 11.203 2.93m-19.755 5.316c-1.234 6.167-1.054 12.465-1.38 18.72-.106 2.042-.768 12.606-.055 14.55.024.066 1.045-.828 1.16-.793.435.132-.484.973-.94.994-.992.045-3.148-1.03-2.98-.05.637 3.739 3.257 3.52 4.085 6.454.097.346-.912 3.918-.884 4.522.16 3.405 1.122 6.619 1.05 10.083-.04 1.915-2.37 11.163-3.976 12.316-1.936 1.39-4.54 1.846-5.35 4.467-.691 2.237 3.826 2.6 4.412 3.277.42.485-.239 2.214-.718 1.787-.415-.37-.175-1.102-.331-1.636m22.459-76.483c-1.034 7.784.754 15.536.497 23.293-.108 3.283-1.034 7.334-.22 10.58.15.602 1.53 3.73 1.987 4.07.448.332 2.029-.363 1.546-.643-.46-.266-2.959 7.47-2.981 7.649-.323 2.553.637 6.215.828 8.838.395 5.446.528 10.639 1.877 15.84.228.881-.31 7.317.22 5.415m-22.459.201c4.908 1.292 14.53-2.534 18.54 0" style="opacity:1;fill:none;stroke:#000;stroke-width:5.081;stroke-linecap:round;stroke-dasharray:none;paint-order:normal" transform="translate(-500.398 -97.035)"/><path d="M852.999 529.793c-1.515 1.315 18.061-.83 14.901 1.641m-233.087-36.106c1.366 11.31-.466 22.908.387 34.169.08 1.055 1.736 2.711 1.38 3.674-.845 2.28-2.755 3.94-2.981 6.805-.13 1.636 1.083 3.063 1.159 4.768.128 2.867-.181 5.824-.276 8.688-.213 6.404-3.02 12.043-3.639 18.178-.038.376-.406 1.967-.165 2.083.421.204 1.278-.188 1.6-.296m210.844 3.528c-2.117 12.853-1.21 26.005-1.21 38.982 0 6.601-1.345 15.42 1.21 21.657m26.876-58.009c.897 20.5-4.217 45.994 2.76 65.702m-8.446-7.347c-.757.586-1.765 1.457-2.866 1.14-5.635-1.63 1.203-8.623-11.534-2.53-5.031 12.244-4.062 23.843-3.091 36.597.235 3.088 2.186 11.115.607 9.44-.635-.672.99-2.423 1.27-2.785m-220.836 4.472c4.695-1.313 10.345-.384 14.846.2m-11.92-46.434c3.813-1.743 12.669-2.31 15.448-1.792m201.358 56.965c-.18.514-1.036 1.918-.773 1.44 2.532-4.604 2.734-5.373 1.656-11.568 5.363-3.225 10.725-1.102 14.349-1.541M559.987 503.87c-1.055-19.881 5.219-33.103 11.81-50.906 4.675-12.63 15.212-26.137 26.6-33.571 1.457-.952 3.626-1.208 5.128-2.183.546-.355-.596-1.19-.662-1.837-.15-1.484-.136-3.04-.055-4.522.065-1.208-.996-5.826.276-6.404 1.132-.515 1.658-.22 1.766-1.888.164-2.51-.99-3.502-1.38-5.811-.49-2.902.769-6.193.608-9.19-.117-2.158.85-4.593.607-6.555-.3-2.426-2.394-4.782-2.098-7.247.69-5.733 2.97-12.43 5.245-17.782.918-2.16 3.747-3.474 4.687-5.61 1.337-3.038 2.209-6.84 2.209-10.23 0-.989-1.003-1.839-1.105-2.93-.047-.512.46-1.541-.055-1.541-.167 0 .182 2.136.221 2.434m6.901 15.543c4.122 6.331 6.674 13.178 8.276 20.362.96 4.304-2.092 9.296-2.484 13.41-.27 2.822.51 5.572.11 8.442-.688 4.952-2.216 11.244-1.711 16.241.301 2.989.212 8.017 2.87 10.028 1.327 1.003 3.613-.859 4.03.647.313 1.125 8.476 8.413 10.099 10.53.529.69 2 6.608 3.362 9.14.47.873 4.332 12.465 2.485 8.988" style="opacity:1;fill:none;stroke:#000;stroke-width:5.081;stroke-linecap:round;stroke-dasharray:none;paint-order:normal" transform="translate(-500.398 -97.035)"/><path d="M608.163 375.146c6.938-5.364 9.46-2.162 17.215-1.34 3.501.371-2.525 4.164.33 4.317m-19.146 24.185c1.967-.578 3.902-1.283 5.902-1.736 5.354-1.212 10.587 6.168 9.385 5.862m-13.576-10.781c.878 4.117-.564-12.584.552-13.505z" style="opacity:1;fill:none;stroke:#000;stroke-width:5.081;stroke-linecap:round;stroke-dasharray:none;paint-order:normal" transform="translate(-500.398 -97.035)"/><path d="M619.752 380.21c-1.802-.268-1.731 28.027-1.325 16.738m301.619-64.116c-.293 3.714-.424 7.727-1.822 11.273-1.395 3.54-4.173 4.157-6.51 6.705-1.965 2.144-6.008 21.145-4.526 23.84.686 1.248 1.98-2.097 3.202-2.831 3.24-1.948 5.114-3.364 9.104-3.528 3.504-.145 8.954 3.58 10.871 1.937m-20.362 11.869c-3.643 7.68-2.926 15.67-2.926 23.89 0 4.747-1.832 12.594-5.295 15.94-2.314 2.237-5.373 3.622-7.392 6.209-5.588 7.156-9.925 15.808-13.963 23.884-1.354 2.71-3.193 5.369-4.361 8.146-1.96 4.658-2.677 9.82-5.02 14.304-.096.185-2.481 5.482-1.545 5.907 1.311.596 1.753-2.302 2.43-3.573m-322.374 31.388c7.836 3.558-4.907 8.924-3.031 11.619.88 1.263 5.336.006 4.08 2.037-.58.94-3.372 2.753-2.755 1.837.522-.776 3.92-2.133 1.927-2.133 9.728-2.722 22.883-9.521 29.913-14.454m9.325 1.39c13.204.504 26.052-2.588 39.177-3.724.796-.069-1.313.924-1.877 1.49m-47.066-4.371c.531-2.151 1.04-4.309 1.595-6.454.528-2.039 3.714-5.101 4.582-1.195.31 1.393-.785 2.731-.496 4.025.284 1.278 1.876 1.003 2.705.693m38.846-.742c1.046-4.292 7.85-13.81 0 0zm-74.495 27.809c-1.886 5.165.426 11.787-.553 16.934-.38 1.997-4.53 2.72-2.373 5.018-21.291 12.85-4.085 5.09-6.952 11.373-.868 1.904-3.915 1.89-4.853 3.674-1.74 3.312-2.231 8.356-3.202 12.02-.242.913-1.617 5.179-.331 5.958.622.377 8.785-2.377 10.595-2.73 2.523-.494 3.323 1.632 7.227-.497" style="opacity:1;fill:none;stroke:#000;stroke-width:5.081;stroke-linecap:round;stroke-dasharray:none;paint-order:normal" transform="translate(-500.398 -97.035)"/><path d="M525.226 578.562c-1 .299-7.758 1.98-10.43 1.836-1.268-.067-2.287-.982-3.533-1.043-6.17-.304-12.375 7.496-7.668-2.73 2.321-5.046.882-1.032 2.87-8.89 8.262-.705 16.4-3.686 24.663-4.32 1.88-.145 1.593 2.52 5.245 1.54m-30.901 25.677c-.029 6.507-.276 13.006-.276 19.513 0 10.204 2.236 19.74 2.976 29.802.518 7.045-1.312 13.884-.442 21.005.135 1.1-.706 26.849-3.528 21.204m14.509-81.496c-1.536 4.219-3.752 8.315-.441 10.53m23.784-17.928c-2.274 2.59-4.383 5.322-6.62 7.945-.613.718-8.882 9.169-7.453 9.485 1.145.254 1.675-.95 2.374-1.19 3.185-1.085 9.663-.946 12.859-.596 2.025.221 9.464.253 9.822-.397.311-.567-.572-.944-.718-1.24-2.18-4.41-4.463-3.484-7.945-6.308-2.082-1.688-1.686-5.095-2.319-7.7zm18.154-4.567c2.318-1.59 4.491-3.416 6.956-4.768 7.148-3.923 31.178-2.97 40.999-3.478 3.382-.175 18.134.04 12.913 1.044" style="opacity:1;fill:none;stroke:#000;stroke-width:5.081;stroke-linecap:round;stroke-dasharray:none;paint-order:normal" transform="translate(-500.398 -97.035)"/><path d="M579.028 515.043c-1.532 4.67-1.055 9.362-1.214 14.153-.095 2.851-2.189 14.6-.994 17.285.294.66.939 1.068.939 1.837 0 5.477-2.187 10.961-2.043 16.688.103 4.097.994 8.046.994 12.165 0 .311-.718 6.011-.939 2.831m21.411-48.668c-1.73 2.267-3.753 4.337-5.19 6.8-.462.793-2.324 27.874-2.148 28.111 1.46 1.973 3.593.486 5.792 0 1.29-.284 1.177 1.168 2.429.698 1.808-.679.866-1.474 1.932-2.535.524-.52 2.19-.403 1.927-1.094-1.85-4.878-1.58-10.99-1.65-16.683-.075-5.918-.783-9.772-3.092-15.297zm9.932 35.212c1.354-5.283-.6-9.455-1.104-14.504-.468-4.683-2.605-11.301-1.104-15.84.34-1.03 8.695-11.188 9.27-9.29.797 2.634-.478 6.193-.442 8.939.041 3.194 1.812 6.315 1.325 9.486-.335 2.176-1.561 4.21-1.932 6.409-.748 4.427 3.146 6.577 2.87 10.876-.046.73-.376 5.494-2.374 4.768-.19-.07-.33-.235-.496-.352zm-33.496-24.682c.474-.018.817.128 1.38-.05.102-.033-.644-1.81-.662-1.938-.064-.442.363-8.537-1.933-6.555-4.633 4.002-1.978 9.551-2.153 14.5-.23 6.502-2.559 15.842-4.246 22.053-1.73-3.114-3.77-6.074-5.19-9.34-1.55-3.569-1.558-19.909.166-24.533.19-.506 2.724-.472 2.926 0 .653 1.525-.64 3.068-.276 4.472.263 1.012 1.721.01 2.209-.15m-2.761 107.218c-1.284-6.841 2.286-11.652 4.251-17.777 1.203-3.75.762-9.234 3.97-12.115 2.651-2.381 6.948-3.55 10.153-4.768 11.906-4.522 16.844-7.233 30.074-9.04 2.547-.347 7.65.206 9.937 1.24 2.199.995 12.368 9.59 8.607 10.876" style="opacity:1;fill:none;stroke:#000;stroke-width:5.081;stroke-linecap:round;stroke-dasharray:none;paint-order:normal" transform="translate(-500.398 -97.035)"/><path d="M557.507 627.676c2.795-6.024 8.632-10.358 11.81-16.09.894-1.613 1.28-3.454 2.755-4.668 7.386-6.08 27.234-11.502 36.643-11.82 2.113-.07 4.206 1.127 6.4 1.195 3.558.112 7.653-.956 11.146.296 1.103.396 1.416 2.117 2.264 2.881 1.414 1.275 2.527 1.544 3.202 3.278m-81.287 10.875c.24 1.954.731 3.894.718 5.863-.022 3.419-1.48 6.802-1.325 10.429.175 4.076 1.434 7.935 1.822 11.965.344 3.574-.67 7.253-.993 10.78-.199 2.16 1.146 4.657.883 6.605-.674 4.996-1.935 9.229-2.153 14.45-.226 5.406 1.808 10.557 1.546 15.99-.191 3.947-4.057 14.542-1.05 17.084m5.411-46.033c4.879-.296 9.685.422 14.51.893 12.515 1.221 25.025-.126 37.47-.497 1.166-.034 20.165-1.176 14.018-.3m-61.531-11.871c2.392-.065 4.784-.232 7.177-.195 8.614.131 17.05 1.569 25.712.943 4.164-.3 8.17-1.388 12.306-1.786 3.28-.316 16.214 1.112 17.104 1.586m-39.288 67.991c-.358-10.813-7.344-23.669 5.024-30.099 1.276-.663 4.17-2.217 5.792-1.787 11.475 3.043 9.176 21.511 10.319 30.194.32 2.429.89 4.68.773 7.152-.01.19-.336 3.631-.055 3.674 1.506.228 2.54-4.486 2.87-5.511m-58.163-12.713c-.703.76-3.594 37.45-2.7 23.589m-40.945-49.863c1.869 7.66 2.182 5.919 1.817 11.82-.575 9.314-1.408 18.605-2.037 27.915-.25 3.69-.28 6.343.772 9.782.384 1.25-1.553 4.947-.883 3.824 1.025-1.717-.002-.482.166-1.988m7.117 10.179c1.893-.15 3.783-.536 5.68-.447 1.34.063 2.614.599 3.92.898 1.491.082 2.98.232 4.473.246 11.252.105 22.408-1.96 33.656-2.233 5.252-.127 10.534.708 15.784.296 9.534-.749 19.06-2.346 28.638-2.58 3.997-.097 5.69 2.382 9.27 2.78 3.903.436 8.045.342 11.975.548 8.257.432 16.152-1.949 24.337-2.239 8.283-.293 16.482 1.639 24.828 1.39 8.218-.243 16.76-.239 24.944-1.038 5.39-.527 10.748-1.616 16.17-1.742 11.663-.27 23.545 1.113 35.203.798 11.995-.324 24.035-1.276 36.036-1.144 24.207.265 48.635 1.72 72.784 3.177 12.116.73 24.357-1.7 36.472-.994 26.878 1.565 54.07 2.598 81.01.648 14.022-1.015 27.99-3.444 41.882-5.315 5.725-.771 18.405 1.437 18.76 1.34M706.88 704.852c.906.127-1.856 32.532 1.987 24.04m15.619-21.802c-2.069 8.416-1.204 16.345-.056 24.683.227 1.647-.343 6.62-.497 4.964-.122-1.322.687-2.565 1.105-3.825m48.889-27.016c5.319 4.647-5.331 23.15-1.325 28.11 1.726 2.138 2.433-3.298 1.49-4.768" style="opacity:1;fill:none;stroke:#000;stroke-width:5.081;stroke-linecap:round;stroke-dasharray:none;paint-order:normal" transform="translate(-500.398 -97.035)"/><path d="M787.006 705.896c1.552 3.883-1.348 31.028.497 33.375 1.21 1.54 2.86-1.016 3.086-2.233M647.285 697.75c-.202 5.248-.496 10.493-.607 15.744-.094 4.452.945 8.769.607 13.21-.33 4.325-4.143 11.416-2.65 15.594.353.987 1.935-1.188 2.264-2.184m7.558-43.353c-.824-5.697 1.038-10.294 2.926-15.498 3.753-10.345 17.54-18.028 28.472-18.028 1.157 0 4.059 2.23 5.3 2.635 1.878.612 3.657.787 5.295 1.987 2.108 1.546 2.987 4.663 4.306 6.801.609.986 3.293 2.277 2.209 2.685-.361.136-.737.231-1.105.346m26.32-.597c4.219-3.17 19.57-14.757 24.998-12.166 1.151.55 1.903 1.792 3.147 2.334 3.57 1.555 7.317 1.552 10.65 3.925 2.534 1.804 3.138 5.458 5.35 7.644m20.693.497c3.895-14.082 17.659-18.476 30.736-15.99 1.6.304 10.972 7.633 11.92 9.139 1.076 1.709.57 8.772 3.699 6.705m45.631-35.162c.793-2.157-1.067-4.597-.823-6.901.341-3.217 2.668-6.389 3.529-9.536.766-2.803.073-7.888 2.208-10.234 7.683-8.44 32.42-17.809 43.373-15.096 3.674.91 12.573 5.66 14.73 8.441 4.135 5.33 5.247 11.743 10.264 16.538 2.523 2.411.986 7.042 1.38 10.133.278 2.176 1.22 2.728.331.497" style="opacity:1;fill:none;stroke:#000;stroke-width:5.081;stroke-linecap:round;stroke-dasharray:none;paint-order:normal" transform="translate(-500.398 -97.035)"/><path d="M879.213 615.807c3.955-8.07 12.488-18.659 22.238-20.312 1.756-.297 3.542.218 5.295-.195 3.585-.845 6.806-3.226 10.374-3.875 5.312-.966 15.173.186 20.196 2.038 5.072 1.869 7.949 5.9 12.362 8.441 2.096 1.207 5.203.833 7.066 2.334 5.76 4.64 6.712 11.989 9.215 18.424m-373.691-1.289c-2.06.446-4.377.246-6.178 1.34-2.526 1.533-.026 7.67 2.484 4.717 1.532-1.802 5.644-7.396 3.694-6.057-3.348 2.297-5.558 5.93-8.11 9.089-2.87 3.55 1.04 4.16 1.049 4.27.05.678-1.197 4.07-.663 4.272 1.44.544 3.36-.415 4.803-.251 1.148.13-.33 3.035.773 3.378 1.368.425 3.293-.685 4.467-.15.992.45-3.33 1.573-2.43 2.187 1.767 1.204 5.308-.679 6.626-.1.419.184-1.661 2.7-.663 2.434 2.231-.595 5.57-2.161 6.4-4.421.32-.875 1.658 2.553 3.864 1.736 3.485-1.29 3.348-4.937 3.197-4.813-.5.409.33 3.821 1.27 2.926 1.517-1.445.43-4.99.883-6.85 1.623-6.672 1.825-.154 2.595.446 1.864 1.451 3.152-1.92 2.98-3.277-.464-3.69-2.135-1.504-3.808-2.189-.139-.056 1.286-5.519.717-6.605-.724-1.383-2.914.698-3.81.698-1.083 0 2.096-1.697 1.768-2.73-.118-.369-7.167-3.132-7.67-3.132-.905 0-3.084 1.073-2.704.251.168-.364 2.374-2.213 1.49-2.188-4.741.134-9.107 2.715-13.024 5.019z" style="opacity:1;fill:none;stroke:#000;stroke-width:5.081;stroke-linecap:round;stroke-dasharray:none;paint-order:normal" transform="translate(-500.398 -97.035)"/><path d="M914.31 613.724c-1.988 1.109-4.008 2.16-5.963 3.327-2.05 1.224-.355 3.143 1.104 3.875 3.173 1.592.397.452-2.594 1.49-1.844.64-1.27 4.602-.608 6.109.09.203-.274-.447-.497-.447-.568 0-1.927.74-1.927 1.44 0 1.194 2.403 1.242 3.032 1.486 1.206.468.37 1.935 1.214 2.585.583.448 1.766.05 2.43.05 1.028 0-3.193 1.494-2.32 2.037.881.549 3.053-.53 3.534-.1.748.669-2.748 2.128-.497 3.227 2.114 1.032 9.349-.63 7.006-.843-.81-.074-4.589 2.347-3.583 2.68 1.416.47 8.726 1.243 10.043.793 2.549-.872 1.79-.693 3.914-1.837.206-.11.824-.433.608-.346-.147.058-4.41 2.289-2.921 2.88 1.392.555 3.824-.421 4.908-1.194 1.354-.964-.453-2.077.055-3.076.257-.505 1.496-1.695 1.16-1.24-1.682 2.274 4.014 1.063 3.92-1.887-.047-1.428-3.615-4.384-2.927-3.132.83 1.508 3.163-1.404 3.313-2.038.002-.009.25-1.375 0-1.686-.497-.618-2.546-.888-1.932-1.39.886-.725 2.14-.961 2.976-1.787.831-.82-1.973-.856-1.817-1.295.223-.626 2.127-2.294 1.706-3.026-.477-.83-3.753-1.476-4.632-.944-.849.515 2.953-.766 2.484-1.64-.343-.642-4.34-4.237-5.134-4.322-1.18-.126-3.718 1.62-3.533.447.086-.551 3.624-1.928 1.49-2.43-3.348-.787-6.184 1.393-6.012 1.24.124-.11-1.837-2.046-1.988-1.987-2.084.811-4.008 1.987-6.012 2.98zm-119.801-400.13c-.43 1.402-2.298 4.385-1.435 6.454 1.149 2.758 3.957 4.468 5.52 6.951.953 1.513.474 2.94.994 4.472.645 1.897 2.32 4.085 3.307 5.912 1.722 3.185 4.736 5.028 7.233 7.448 1.172 1.137 1.793 2.747 2.92 3.97 3.575 3.877 8.39 6.993 12.086 10.83 2.61 2.71 4.505 5.786 6.675 8.89.841 1.202 2.517 1.5 3.368 2.63 3.116 4.13 4.988 8.367 9.049 11.768 2.66 2.228 4.173 8.272 5.576 11.423.565 1.27 1.667 1.74 2.484 2.78 3.396 4.322 5.7 10.85 7.614 15.896 3.495 9.213 3.467 18.525 6.289 27.659.864 2.796-.135 5.795.441 8.592.257 1.248 1.362 2.97 1.988 4.22.322.646.78 7.12.938 3.58m44.312 21.304c.672 6.028.398 12.106-.166 18.129-.09.973-.898 3.631-.22 2.926 1.187-1.238 1.644-2.37 2.644-4.02m5.742-17.878c-.552-1.498-.588 23.718.276 18.67m5.626-15.593c-2.33 3.353-1.54 14.728-1.54 16.24m-48.84 114.125c7.613-3.97 16.208-5.949 24.116-8.196 1.343-.38 2.745.75 4.136.648 3.492-.258 6.919-1.39 10.43-1.39 9.309 0 19.329.291 28.035-.698.517-.059 5.428 3.29 6.95 3.774 6.838 2.176 13.85 3.178 20.639 5.516 2.098.723 4.064 1.701 6.128 2.48 1.04.392 4.264.287 3.252.747-1.054.479-4.094-.988-5.074-1.34M892.9 496.272c-.29-4.448 7.173-9.918 9.159-4.321.295.832-.217 1.912-.056 2.78.367 1.98 7.487.3 7.89.2m30.184-.546c1.177-1.772 5.305-4.137 3.533-5.315s-4.805 3.61-3.533 5.315c2.82 3.782 10.225 3.179 10.374-.843m25.937 11.021c7.623-.251 7.428 1.625 0 0zm.883 18.179c3.298 4.298-.423 19.889.387 23.443.217.952.643.181 1.049.296m-82.777-34.465c-1.789 16.48-.702 33.111.884 49.562.372 3.86-.692 8.396 1.6 11.523.086.116.734-3.198-2.318-5.12" style="opacity:1;fill:none;stroke:#000;stroke-width:5.081;stroke-linecap:round;stroke-dasharray:none;paint-order:normal" transform="translate(-500.398 -97.035)"/><path d="M943.058 510.325c-.258 2.6-.555 5.196-.773 7.8-1.002 11.972-1.265 24.197-.718 36.2.084 1.845 4.09 17.6 3.257 11.624m-64.01 14.349c1.949-.065 3.916.08 5.847-.196 3.656-.522 7.457-2.896 11.091-3.924 1.818-.515 4.066.464 5.908.396 7.593-.28 14.991-2.147 22.625-2.033 5.37.08 10.863 2.831 16.055 2.831 2.555 0 10.462-.757 11.423-.05.34.25-.397 1.25-.331 1.636.05.292 2.205 1.785 2.374 1.937.468.421 10 3.706 7.89 1.39m-54.245-22.248c-1.095-5.46-1.337-11.033-1.159-16.588.354-11.023-4.067-15.824 5.852-21.054.398-.21.112.893.166 1.34.25 2.082 1.748 3.619 1.872 5.862.2 3.628-1.222 7.172-.879 10.826.255 2.713 2.17 4.8 2.424 7.448.228 2.376-.844 4.652-.496 7.001.437 2.957 1.522 5.621 1.325 5.561-3.92-1.187-3.02-.925-9.105-.396zm14.184-.743c-1.521-4.29-.582-7.85-.221-12.07.344-4.018-1.74-8.646-1.05-12.462.565-3.113 3.267-4.977 3.755-8.347.078-.538 2.133-5.246 2.314-5.013 3.734 4.8 5.575 11.143 4.472 17.43-.308 1.75-1.1 3.522-1.05 5.315.064 2.297 1.42 4.722 1.767 7.052.811 5.43-.62 11.54-.165 10.876 2.06-3.008-8.933-2.62-9.822-2.78zm28.969 5.36c.35-5.451 1.146-10.52.11-15.89-.658-3.409-2.014-7.105-1.932-10.58.099-4.174 2.81-15.916 6.073-5.46 2.514 8.06-1.47 19.395.055 23.74 1.627 4.634 3.767 7.198 3.583 12.416-.052 1.479.984 4.104-.717 1.837-3.066-4.084 3.167 1.702-7.172-6.063zm11.588-1.485c-.116-6.82-1.618-13.534-2.098-20.312-.322-4.548.489-6.908 2.926-10.48.561-.821 2.627-2.704 1.657-2.484-1.414.322-.521 6.375-.608 7.203-.474 4.541-.477 7.957.552 12.461.067.293 1.935 6.818 1.601 7.7-.843 2.23-2.686 3.94-4.03 5.912zm-79.408 5.661c.961-3.796.494-7.466.33-11.272-.138-3.255.492-6.246.995-9.441.276-1.756.023-13.774.22-14.053 2.537-3.591 2.845 10.937 2.871 11.077.768 4.118 2.307 7.76 2.264 12.015-.03 2.85-1.533 6.216-.939 9.039.128.608 1.388 1.298 1.05 2.038-.948 2.065-4.52.561-6.791.597zm-231.868-103.4c4.24 7.145 10.782 10.768 6.841 18.872m202.406-17.877c1.195 1.788 2.744 3.385 3.584 5.365.4.944-.13 2.06 0 3.076.277 2.158 3.152 3.896 3.533 6.555.184 1.283-1.005 4.544-.22 5.566.288.376 1.366.476 1.766.542m-323.527 64.513c.298 4.67 4.268 7.85 5.681 12.02.972 2.866.705 5.938 1.933 8.788.596 1.385 1.344 1.118 1.711 3.132.263 1.439-5.977 5.59-2.76 4.964m-20.141 4.818c5.062 4.965.497 17.573 1.214 10.48m19.976-10.927c.423 6.613-.737 13.212-1.601 19.764-.155 1.171-.407 2.35-.332 3.529.123 1.925 3.577.109 1.49.346m413.035-36.553c.819-6.9.89-14.537 5.405-20.015 2.92-3.542 7.178-4.709 7.062-4.768-2.602-1.318 1.66 4.304 2.098 5.666.527 1.642 1.743 2.801 2.263 4.417.378 1.176.024 2.614.442 3.724.654 1.74 1.92 1.788 3.147 2.78.995.806 2.538 5.032 3.031 6.36 2.128 5.725-2.65.953-2.921.792-1.762-1.044-3.77-1.002-5.742-.943-2.528.075-8.742 4.301-6.233.698m3.97 15.593c-2.307 2.731-5.024 5.077-7.448 7.7-1.689 1.826-3.311 3.613-5.13 5.31-.856.798-3.642 2.308-2.484 2.483 1.47.223 26.374-.349 26.374-.692 0-.258-1.289-.323-1.49-.597-.444-.605 2.404-1.601 2.042-.944-.884 1.608-2.332-2.95-2.479-3.082-1.652-1.487-4.049-2.106-5.465-3.819-1.587-1.919-2.614-4.24-3.92-6.359zm-9.547 23.985c-2.25 5.248-2.587 3.786-2.042 8.046.127.992.422 2.265 1.215 2.98.264.24 1.388.092 1.049.202-4.368 1.408.515 8.736.994 11.322.399 2.157.54 4.383.938 6.555.203 1.108.331 8.85.331 4.617m1.435-21.701c1.417.653 22.458 1.653 8.94-.201" style="opacity:1;fill:none;stroke:#000;stroke-width:5.081;stroke-linecap:round;stroke-dasharray:none;paint-order:normal" transform="translate(-500.398 -97.035)"/><path d="M990.014 607.27c-1.323 8.64-.769 17.521-.441 26.218.062 1.661 1.654 2.66 1.6 4.372-.096 3.076-1.846 5.423-1.435 8.542.261 1.98 2.66 5.136.442 5.41m-119.74-.396c-3.28 14.58-.462 29.349-1.436 44.05-.302 4.57-.356 3.742-.441 7.75-.022 1.018.228 4.037.386 3.03.305-1.938.263-3.825.718-5.811m8.441-34.665c-4.003 11.1.061 22.283.221 33.375.015 1.04-.934 4.545-2.705 4.12-.764-.182 2.088-4.724 2.374-5.264m.662-51.203c5.34.563 10.521-.576 15.84-.993 15.187-1.193 30.421-.045 45.577-1.39 8.382-.745 15.317-2.035 23.342.597 1.314.43 8.82-2.18 6.344-1.245m-93.311 14.7c6.139-1.048 12.186.24 18.324.301 9.726.096 19.58.148 29.3-.25 10.22-.42 20.33-2.357 30.57-2.48 3.121-.037 5.604.948 8.608 1.14 3.45.219 6.467-.371 9.877.3.01.002 1.334 1.422-1.049 1.04m18.429-2.58c-2.283 8.586-1.807 3.46-.938 10.876 1.431 12.224-.638 24.065-.823 36.25-.037 2.41-.038 5.594.165 8.046.037.449.456 2.41.332 3.278-.035.241-.315.922-.221.697.356-.852.496-1.74.712-2.585M885.06 668.254c4.125-1.694 6.881-2.415 11.036-2.088 14.877 1.17 28.341.188 43.042-2.038 4.409-.667 3.55 2.313 7.563 3.378 1.102.292 10.213-.184 5.02-.547m-389.636 9.391c14.012-4.5 28.519.432 42.82-1.095 5.182-.553 15.76-4.65 20.362-3.528.002 0-2.927 2.035-4.411 4.126m-61.311 8.492c-.781 9.607 1.607 19.361.386 28.953-.625 4.918-3.172 9.9-3.362 14.846-.12 3.142 3.179 3.432 4.853 1.39m325.735-49.857c-.276 3.46-.776 6.909-.828 10.379-.27 18.014 1.974-2.806-.11 17.48-.223 2.173-1.844 12.456-1.983 15.394-.22 4.678.01 6.674 4.523 5.465m23.563-3.031c.825-6.286-1.757-11.523-1.38-17.827.414-6.93.756-29.484 12.693-27.514 1.286.213 4.556.525 5.405 1.541 2.333 2.792 2.265 15.446 2.926 19.167 1.048 5.898 4.329 29.042 1.711 34.515m37.411-64.558c.074 3.095.221 6.19.221 9.285 0 11.61 1.836 22.643 3.313 34.169l.717 5.811c.184 1.307.383 2.612.552 3.92.128.99.188 3.975.276 2.981.096-1.074.142-2.151.221-3.227m19.202-151.173c2.115-.497 4.198-1.158 6.344-1.491 2.907-.45 8.22 2.89 12.307 2.73 5.192-.204 14.336-2.716 3.698-1.19m-21.631-17.183c9.92-.838 19.783.496 29.742.496.346 0-.972-.044-.994.301-.09 1.45.77 2.767.442 4.271-.587 2.688-1.849 4.555-1.822 7.498.01.99 3.036 7.095 3.036 4.271m2.319 14.45c-.184-1.755 1.203-5.449-.552-5.265s.39 3.508.552 5.265c.262 2.845.547 5.69.718 8.542.47 7.85.029 15.653.22 23.493.069 2.772 1.646 6.245 1.707 6.108.807-1.81.078-4.216-1.044-5.661m-29.692-.05c6.257 2.024 12.504.951 18.821.05 1.113-.159 4.105-1.096 3.363-.25-1.003 1.142-2.825 2.22-4.301 1.836m-511.479 7.252c5.821-.19 12.451 3.154 18.324 1.29 4.925-1.563 5.144-3.715-.11-.793" style="opacity:1;fill:none;stroke:#000;stroke-width:5.081;stroke-linecap:round;stroke-dasharray:none;paint-order:normal" transform="translate(-500.398 -97.035)"/><path d="M527.434 619.486c.623 6.27 1.18 12.497 1.872 18.77 1.08 9.793 2.982 20.271 3.037 30.098.024 4.384-1.284 8.45-1.767 12.763-.616 5.5.504 11.056.166 16.588-.493 8.046 1.96 14.386-.884 22.248-.733 2.028-.456 7.602-.607 4.768m480.854-67.79c-1.21-1.787-1.366-28.88-.22-29.5 1.236-.672 4.328-2.06 5.68-1.938 3.166.288 3.36 25.235 4.417 28.507.895 2.772.794 4.858.663 7.7-.04.859-.028 3.43.105 2.579 1.027-6.552.97-4.344-3.639-5.265-2.389-.477-4.67-1.388-7.006-2.083zm19.258-26.123c-2.14 4.178-3.21 31.293-.774 34.666.57.788 1.505-1.315 1.933-2.189m-33.22 6.158c2.284 2.138 47.428-7.431 29.024.05m4.582 7.153c-5.613 9.057-2.554 20.706-2.484 30.94.024 3.544-.35 9.996.055 10.129.377.124 1.127-3.515 1.215-4.22M928.543 384.632c.718 2.233 1.676 4.403 2.153 6.7 1.19 5.723-1.607 12.99 1.27 18.625.839 1.643 2.701 3.06 3.865 4.472.92 1.117.478 2.714 1.43 3.875 5.206 6.342 11.983 11.275 15.95 18.424 1.725 3.109 2.415 6.167 3.588 9.335 1.067 2.88 3.093 4.31 3.694 7.548.566 3.047 1.05 7.401 2.264 10.134.715 1.608 1.77 2.981 2.374 4.667.871 2.432 2.455 4.154 2.87 6.951.432 2.904.338 24.849 2.204 26.274.95.726 1.453-.047 2.098-.401m-98.883-7.052c-.054 1.805-.296 3.614-.165 5.415.135 1.848 1.438 3.88 1.596 5.908.624 7.991-1.709 15.923.387 23.739 1.395 5.206.802 9.672 1.435 9.24.376-.256-.504-1.186-1.049.943-.13.507 2.555.591-1.16 6.605-2.607 4.223.49 10.366.829 15.298.748 10.869-.364 21.9-.828 32.773-.164 3.843.897 7.693.717 11.574-.13 2.799-1.304 5.227-1.43 8.045-.2 4.478-1.537 8.793-1.601 13.21-.046 3.202 1.314 6.214.883 9.485-.439 3.335-1.848 6.283-1.656 9.732.088 1.576.862-3.05 1.05-4.618m88.893 29.155c2.414 5.467 1.005 10.316 1.325 16.14.73 13.238 4.135 26.08 5.024 39.284.276 4.093.223 8.217.166 12.316-.017 1.216 1.43 5.046.768 3.026m-42.672-392.609c.798 6.126 5.525 10.844 4.841 17.208-.06.561-1.063 4.031-.43 4.248.839.287 1.066-1.013 1.25-1.508m-18.223 35.535c4.053-3.789 14.406 5.737 16.466 1.405M627.514 695.166c.88 2.917 1.132 5.631 1.132 8.638 0 10.817 1.307 21.57.898 32.377-.099 2.595-.476 4.711.078 4.812 1.166.212.742-1.736.742-2.46m216.126-62.048c-.633 12.02-1.506 24.118-.858 36.17.22 4.083 1.019 8.06.195 12.148-.936 4.646-3.953 13.924-1.25 12.013.972-.687-1.56-1.587-1.83-1.686m25.477-36.557c.078 2.564.102 5.13.234 7.69.097 1.867 1.083 15.93 1.21 20.226.09 2.988-.195 5.969-.195 8.957 0 .96.71 3.524 0 2.878-.075-.069-.327-.677-.39-.809M649.989 689.02c2.759 14.038.032 28.304 1.132 42.423.148 1.9.3 3.8.547 5.689.12.929 1.284 3.232.468 2.771-.52-.293-1.465-1.638-2.03-2.069m188.424-56.083c-.182 1.909-.507 3.808-.546 5.725-.223 11.071.109 22.133-.508 33.22-.108 1.958-.164 3.927-.468 5.864-.215 1.367-4.696 19.866-1.561 12.573" style="opacity:1;fill:none;stroke:#000;stroke-width:5.081;stroke-linecap:round;stroke-dasharray:none;paint-order:normal" transform="translate(-500.398 -97.035)"/></svg>